<svg xmlns="http://www.w3.org/2000/svg" width="56" height="48" viewBox="0 0 56 48">
  <g fill="none" fill-rule="evenodd" stroke="#C4D1D8" stroke-linecap="round" stroke-linejoin="round" transform="translate(1 1)">
    <path d="M27.8085607,1.98103929 C29.1540607,0.996967857 30.812525,0.415396429 32.6073464,0.415396429 C37.0997393,0.415396429 40.742775,4.05761071 40.742775,8.550825 C40.742775,13.0440393 37.0997393,16.6862536 32.6073464,16.6862536 L8.50334643,16.6862536 C8.50334643,16.6862536 0.415560714,16.7938607 0.415560714,25.7408607"/>
    <path d="M27.8095464 8.55090714C27.8095464 5.90097857 29.9575821 3.75294286 32.6075107 3.75294286 35.2566179 3.75294286 37.4046536 5.90097857 37.4046536 8.55090714 37.4046536 11.2008357 35.2566179 13.3488714 32.6075107 13.3488714M40.3712429 45.8014607C44.8644571 45.8014607 48.5066714 42.1592464 48.5066714 37.6660321 48.5066714 33.1736393 44.8644571 29.531425 40.3712429 29.531425L12.22335 29.531425"/>
    <path d="M35.5736893 37.6662786C35.5736893 40.3162071 37.721725 42.4642429 40.3716536 42.4642429 43.0207607 42.4642429 45.1687964 40.3162071 45.1687964 37.6662786 45.1687964 35.01635 43.0207607 32.8683143 40.3716536 32.8683143M29.2078643 13L19.5026857 13M9.15030357 21L43.4416607 21M16.2674071 25L53.6317286 25"/>
  </g>
</svg>
