<svg xmlns="http://www.w3.org/2000/svg" width="35" height="28" viewBox="0 0 35 28">
  <g fill="none" fill-rule="evenodd" stroke="#E7F2F8" stroke-linecap="round" stroke-linejoin="round" transform="translate(1 1)">
    <path fill="#0E38A0" d="M26.3373997,12.450049 C26.3373997,16.0277801 23.4489931,18.9282003 19.886081,18.9282003 C16.323169,18.9282003 13.4347624,16.0277801 13.4347624,12.450049 C13.4347624,8.87231793 16.323169,5.97189776 19.886081,5.97189776 C23.4489931,5.97189776 26.3373997,8.87231793 26.3373997,12.450049"/>
    <path fill="#0E38A0" d="M21.2753901,16.8380952 C21.2880824,16.7060924 21.2953352,16.5727241 21.2953352,16.4370798 C21.2953352,14.1438725 19.4445247,12.2853641 17.1608159,12.2853641 C16.2922995,12.2853641 15.4872445,12.5552871 14.8218049,13.0145658 C13.926544,10.8897759 11.8314066,9.39905462 9.38949725,9.39905462 C6.13346703,9.39905462 3.49346703,12.050035 3.49346703,15.3196078 C3.49346703,15.9127101 3.58276648,16.4844188 3.74414011,17.0247199 C1.62724451,17.3337885 -9.06593407e-05,19.1590686 -9.06593407e-05,21.3703431 C-9.06593407e-05,23.7987395 1.96041758,25.767402 4.37875549,25.767402 L20.4000742,25.767402 C22.8796071,25.767402 24.8895247,23.7491246 24.8895247,21.2592787 C24.8895247,19.0703081 23.3356236,17.2473039 21.2753901,16.8380952"/>
    <path d="M19.5762712 4.32422969L19.5762712 0M28.2049821 12.4347826L32.5113008 12.4347826M13.8981676 7.3795028L10.8529203 4.32158964M28.4580577 21.0895868L25.4128104 18.0316737M25.8741305 7.14394608L28.9193777 4.08603291"/>
  </g>
</svg>
