<svg xmlns="http://www.w3.org/2000/svg" width="54" height="49" viewBox="0 0 54 49">
  <g fill="none" fill-rule="evenodd" stroke-linecap="round" stroke-linejoin="round" transform="translate(1)">
    <path stroke="#C4D1D8" d="M12.6246514,10.7184858 C13.0415905,10.2722235 13.7508453,10.2722235 14.1668681,10.7184858 C17.0176324,13.7735961 26.7923358,24.9530638 26.7923358,34.5884821 C26.7923358,41.9870905 20.7939099,47.9846 13.3962179,47.9846 C5.99760952,47.9846 0.0001,41.9870905 0.0001,34.5884821 C0.0001,24.9530638 9.77480345,13.7735961 12.6246514,10.7184858"/>
    <path stroke="#CEDBE2" d="M9.395943,10.0710293 C4.298289,10.0710293 0.164634992,5.93829161 0.164634992,0.839721255" transform="translate(4 32.985)"/>
    <path fill="#FFF" stroke="#C4D1D8" d="M8.7244,0.2467 C9.0124,-0.0623 9.5024,-0.0623 9.7904,0.2467 C11.7604,2.3577 18.5144,10.0837 18.5144,16.7427 C18.5144,21.8557 14.3704,25.9997 9.2574,25.9997 C4.1444,25.9997 0.0004,21.8557 0.0004,16.7427 C0.0004,10.0837 6.7544,2.3577 8.7244,0.2467" transform="translate(33 .985)"/>
    <path fill="#FFF" stroke="#CEDBE2" d="M7.2574,6.5938 C3.7344,6.5938 0.8784,3.7378 0.8784,0.2148" transform="translate(35 16.985)"/>
  </g>
</svg>
