<svg xmlns="http://www.w3.org/2000/svg" width="953" height="540" viewBox="0 0 953 540">
  <defs>
    <linearGradient id="shape-main-1-a" x1="50%" x2="33.968%" y1="0%" y2="92.527%">
      <stop offset="0%" stop-color="#0D3497"/>
      <stop offset="100%" stop-color="#1857EB"/>
    </linearGradient>
  </defs>
  <path fill="url(#shape-main-1-a)" fill-rule="evenodd" d="M510.432222,175.000824 L271.075749,666.179185 L271.075749,666.179185 C257.043433,694.974604 269.011293,729.693343 297.806712,743.725659 C310.874768,750.093863 325.857763,751.322534 339.788701,747.168366 L1007.34411,548.105113 L1007.34411,548.105113 C1037.06321,539.242957 1060.9888,517.093871 1072.11301,488.145392 L1127.30937,344.508189 L1127.30937,344.508189 C1147.12,292.955078 1121.38764,235.103333 1069.83452,215.292701 C1064.77206,213.347318 1059.55973,211.816993 1054.24911,210.716866 L652.229876,127.436234 L620.611472,120.886297 L620.611472,120.886297 C575.831944,111.609957 530.465037,133.891908 510.432222,175.000824 Z" transform="rotate(18 906.97 -258.81)"/>
</svg>
