<svg xmlns="http://www.w3.org/2000/svg" width="568" height="442" viewBox="0 0 568 442">
  <defs>
    <linearGradient id="shape-header-bg-1-a" x1="33.968%" x2="50%" y1="92.527%" y2="0%">
      <stop offset="0%" stop-color="#F3F8FA"/>
      <stop offset="100%" stop-color="#EAF0F4"/>
    </linearGradient>
  </defs>
  <path fill="url(#shape-header-bg-1-a)" fill-rule="evenodd" d="M430.929861,1132.04454 L292.578624,1415.95219 L292.578624,1415.95219 C278.546308,1444.74761 290.514168,1479.46635 319.309587,1493.49867 C332.377644,1499.86687 347.360639,1501.09554 361.291576,1496.94137 L770.707958,1374.85449 L770.707958,1374.85449 C800.427054,1365.99234 824.352649,1343.84325 835.476859,1314.89477 L857.717229,1257.01876 L857.717229,1257.01876 C876.423825,1208.33868 852.125512,1153.71099 803.445429,1135.00439 C798.665097,1133.16742 793.743248,1131.72238 788.728581,1130.68356 L539.02159,1078.9553 L539.02159,1078.9553 L539.02159,1078.9553 C495.090481,1069.85472 450.583122,1091.7145 430.929861,1132.04454 Z" transform="rotate(-123 129.5 848.507)"/>
</svg>
