<svg xmlns="http://www.w3.org/2000/svg" width="605" height="354" viewBox="0 0 605 354">
  <defs>
    <linearGradient id="shape-main-1-mobile-a" x1="50%" x2="33.968%" y1="0%" y2="92.527%">
      <stop offset="0%" stop-color="#0D3497"/>
      <stop offset="100%" stop-color="#1857EB"/>
    </linearGradient>
  </defs>
  <path fill="url(#shape-main-1-mobile-a)" fill-rule="evenodd" d="M294.877068,1804.76068 L147.505665,2107.17842 L147.505665,2107.17842 C135.166905,2132.49853 145.690368,2163.02708 171.010477,2175.36584 C182.501355,2180.96547 195.676057,2182.04585 207.925675,2178.39305 L615.53959,2056.84366 L615.53959,2056.84366 C630.696329,2052.32396 642.898382,2041.02793 648.571729,2026.2642 L692.302471,1912.4639 L692.302471,1912.4639 C702.405894,1886.17182 689.282388,1856.66743 662.990301,1846.564 C660.408446,1845.57186 657.750158,1844.79139 655.041739,1844.23033 L379.968099,1787.24722 L345.199679,1780.04474 L345.199679,1780.04474 C324.747346,1775.80792 304.026736,1785.98484 294.877068,1804.76068 Z" transform="rotate(18 5922.11 762.785)"/>
</svg>
