<svg xmlns="http://www.w3.org/2000/svg" width="300" height="406" viewBox="0 0 300 406">
  <defs>
    <linearGradient id="map-germany-mobile-a" x1="50%" x2="33.968%" y1="0%" y2="92.527%">
      <stop offset="0%" stop-color="#ECF4F7"/>
      <stop offset="100%" stop-color="#EAF0F4"/>
    </linearGradient>
  </defs>
  <g fill="none" fill-rule="evenodd">
    <path fill="url(#map-germany-mobile-a)" d="M268.7331,322.721478 C268.492279,323.596222 268.308123,324.57721 267.521916,325.119056 C268.262084,326.248785 268.513528,325.997341 268.502904,327.282896 C268.492279,328.196596 268.931422,329.085505 268.931422,329.995664 C268.924339,331.298926 268.417908,332.662393 267.497125,333.558386 C267.178393,333.866494 266.636548,333.707128 266.509054,333.986904 C266.172615,334.744779 266.285942,335.484947 265.832633,336.232198 C263.916696,335.856802 262.907376,334.408339 261.055186,333.993987 C260.693956,333.916075 260.141486,334.032943 259.674011,333.912533 C259.305698,333.813372 259.146332,333.253819 258.714272,333.214863 C258.22909,333.168824 257.078112,333.675254 256.68855,333.990446 C255.183424,335.212254 256.784169,335.984295 256.291905,337.818778 C255.689854,340.046364 256.500852,342.288117 255.137384,344.36342 C253.433936,346.941613 251.185101,348.496319 248.10756,348.719432 L247.838409,348.712349 C246.227038,349.473766 243.910915,349.966031 242.419955,350.908062 C240.985658,351.811138 240.748379,353.135649 239.009516,353.875817 C237.23878,353.999768 237.164409,354.499116 236.261333,355.912164 C235.475126,357.151679 234.09041,357.80331 233.197959,358.819713 C232.765899,361.468735 236.583607,363.175725 237.422936,365.573302 C237.507932,366.253265 237.996655,366.695949 238.680159,366.816359 C240.688174,367.857552 241.077736,370.768643 242.717438,372.309184 L242.186218,373.229967 C241.403552,374.922791 240.567764,376.133975 240.156953,377.865755 C239.976338,378.641338 239.190131,378.956529 240.036543,379.63295 C241.23002,380.59269 242.979507,378.712167 244.219023,379.39213 C245.48687,380.436865 246.945957,382.706949 245.890598,384.180202 C244.775034,385.734908 245.345211,387.378152 244.583795,389.166596 C246.216414,390.246745 244.534214,391.521675 243.701968,392.42121 C242.883888,391.631461 241.548752,391.96436 240.472145,391.135655 C239.831138,390.64339 239.296375,390.09092 238.694325,389.577407 C237.837289,388.84078 236.937754,388.716829 236.293206,387.944788 C235.599078,387.119624 235.443253,385.019531 236.870466,384.991199 C235.981557,383.216921 234.479972,381.640966 232.486123,381.800332 C230.038965,380.992876 229.192553,383.177965 227.513895,384.12708 C226.125637,384.275822 226.338126,384.707881 225.052571,384.077499 C224.517808,383.808347 223.94409,383.231087 223.558069,382.791944 C222.587706,381.687005 223.745767,381.697629 221.928992,381.644507 C220.880716,381.619717 220.611564,382.13323 219.471209,381.520556 L219.37559,381.488682 C218.734583,381.470975 216.917807,382.363426 216.414918,382.076567 C215.384349,381.495765 216.584909,380.220835 216.715943,379.508999 C216.1316,379.657741 214.091712,380.872466 213.904014,381.527638 C213.684442,382.310304 214.39982,382.993808 214.630016,383.677313 C214.846045,384.304153 215.331227,385.621581 214.764592,386.138636 C214.134209,386.712355 210.989381,386.138636 210.295253,386.078431 C206.477545,386.035934 203.382297,388.267062 199.635419,387.912914 C198.247161,388.082905 196.685372,388.546838 195.321904,388.029783 C193.951354,387.703967 193.710534,389.906764 193.193479,390.777966 C191.854802,393.051592 188.745389,391.022328 187.342966,392.615991 C187.151726,392.970138 186.556759,393.451778 186.46468,393.777594 C186.238026,394.627547 186.903823,394.301732 186.932155,395.353549 C185.43057,395.438545 184.159181,395.509374 183.17111,396.745348 C182.427401,397.676756 182.285742,398.980018 180.653123,397.676756 C180.306059,397.404062 181.407457,397.000334 180.277727,396.649728 C179.665052,396.454947 178.082014,397.389896 177.554334,397.715712 C175.896925,398.728573 174.799068,398.700241 172.642311,398.781695 L171.689655,398.618787 C171.696738,396.858675 171.009692,395.084397 169.189375,394.067995 C168.155265,393.494276 168.180055,394.776289 168.137557,393.327827 C168.105684,392.417668 170.057036,392.690362 168.116308,391.362309 C167.20615,391.472095 166.207454,392.276009 165.361042,392.25476 C164.326932,392.233512 164.51463,391.967901 163.770921,391.684583 C162.527864,391.206484 159.521153,389.616363 158.104564,390.165291 C156.72339,390.692971 157.027956,392.261843 154.942029,391.610212 C152.863184,390.962123 154.577257,389.538451 153.582103,388.964732 C151.584712,389.499494 152.802979,389.626987 152.87735,390.753176 C152.930472,391.571256 152.176138,392.555786 152.47008,393.409281 C152.696735,394.089243 153.35899,394.36902 153.635225,395.176476 C154.014163,396.29204 153.589186,397.018042 153.114629,397.949449 C152.278841,399.606858 150.92954,400.460353 149.948552,402.071724 C149.243798,403.236868 148.744451,403.789338 147.497852,404.437428 C145.932521,405.244884 144.795708,405.110308 143.223294,405.606114 C143.035596,404.338266 144.013043,404.844697 144.321151,404.104529 C144.572596,403.502479 144.285736,403.233327 144.413229,402.705647 C144.593844,401.979645 145.447339,400.609095 145.036528,400.007045 C143.743891,398.105274 140.645102,402.787101 140.13513,399.861844 C140.050134,399.344789 139.862436,398.703783 139.915558,398.225684 C139.965139,397.729878 140.684058,397.843205 140.553024,397.007417 C140.450321,396.41245 139.189556,395.126895 138.792911,394.87545 C138.647711,394.783372 138.134197,394.400893 138.035036,394.337147 C137.896919,394.245068 137.447152,394.531928 136.965511,394.149448 C136.274924,393.596979 136.522827,391.528758 135.25498,391.819159 C134.249202,391.606671 133.317794,391.695208 132.499714,391.599588 L132.262435,391.592505 C132.262435,391.592505 130.37483,392.021023 130.891885,390.565478 C131.405399,389.106391 131.316862,388.847863 130.548362,389.279923 C129.779863,389.708441 129.946312,389.279923 129.262807,390.310492 C128.57222,391.337519 129.864858,391.50751 127.800179,391.766037 C125.746125,392.021023 124.202042,391.851032 124.372033,392.87806 C124.202042,392.899308 124.095798,392.863894 123.97893,392.580576 C123.801856,392.155599 123.026273,391.553549 123.026273,391.553549 C123.026273,391.553549 122.572965,391.429597 122.094866,391.41189 C121.9355,391.521675 121.701762,391.348143 121.535313,391.50751 C121.216581,391.31627 120.961595,391.408348 120.639321,391.210026 L120.635779,391.210026 C120.455164,391.093157 120.274549,390.986913 120.090392,390.870044 C119.884987,390.73901 119.672498,390.607975 119.46001,390.473399 C119.307727,390.370697 119.155443,390.271535 118.999619,390.175916 C118.748174,390.013008 118.507354,389.857183 118.259451,389.701358 C118.202787,389.662402 118.146124,389.626987 118.096543,389.591573 C117.823849,389.421582 117.547615,389.24805 117.274921,389.074518 C117.253672,389.060352 117.235965,389.049727 117.214716,389.03202 C116.95973,388.879737 116.715368,388.723912 116.467465,388.571628 C116.460382,388.568087 116.449758,388.561004 116.442675,388.557462 C116.350597,388.500799 116.251435,388.447677 116.162899,388.394555 C115.560848,388.033324 114.958798,387.693343 114.342581,387.37461 C114.190298,387.293157 114.038015,387.211703 113.885731,387.13379 C113.871566,387.126707 113.850317,387.119624 113.839692,387.112541 C113.45013,386.921302 113.057027,386.744228 112.663923,386.574238 C112.490391,386.503408 112.3204,386.429037 112.146868,386.361749 C112.136244,386.358208 112.129161,386.354666 112.114995,386.347583 C110.758611,385.823445 109.356187,385.448049 107.875852,385.370137 C107.875852,385.370137 106.112198,385.518879 106.112198,385.072653 C103.222356,382.749447 100.530837,385.929689 97.4320476,385.76324 C97.0424856,384.941618 96.6529235,384.066875 96.454601,383.464824 C96.4970987,383.595859 97.2231007,383.69502 96.7591677,383.02214 C96.6493821,382.852149 96.065039,382.714032 95.8737995,382.536958 C95.3850762,382.08365 94.6236595,381.262028 94.0534823,381.980947 C93.309773,382.919437 95.1123827,382.983184 94.5032494,384.29707 L91.6984027,383.471907 L91.3371725,383.464824 L90.210984,383.641898 C89.8568367,382.848608 90.2570232,382.526334 91.0326058,382.600705 L91.3371725,382.80611 L91.6984027,382.813193 C92.5908539,382.034069 91.6806953,382.402382 91.7161101,381.580761 C91.730276,381.19474 92.3854485,380.606855 92.2225407,380.266874 C92.3004531,380.433323 90.1330716,378.591757 90.3632674,378.666128 C89.0989615,378.241151 89.6372654,378.882158 88.7873119,379.884395 C88.4012913,379.147769 88.4650378,378.404059 87.8098653,377.812633 C86.8819994,377.68514 85.553947,377.515149 86.3224466,378.899865 L83.9142449,379.346091 C82.9332569,379.434628 82.3595383,380.479362 82.3170406,381.417853 C81.8885223,382.784861 80.6844215,382.140313 80.8792025,383.818972 C81.010237,385.001824 82.5614022,386.400705 83.8682058,385.901358 L84.7394081,385.695952 L85.1466775,385.129317 L85.9080943,384.952243 C86.5668082,385.005365 87.0874048,384.916828 87.7815335,384.952243 C89.1414592,385.876567 87.5725866,385.929689 87.4450936,386.191758 C86.924497,387.30024 87.5655037,387.760631 86.5313935,388.932859 L86.1701633,388.157276 C86.3720272,385.302849 81.0066955,388.008534 83.4113557,389.27284 C83.1457453,389.347211 82.8765933,389.432206 82.6074414,389.510119 L80.9571149,389.715524 C78.5453718,389.598656 78.0637314,389.435748 76.2611216,388.298935 C74.369975,387.119624 73.2650354,386.836307 71.7705338,388.33435 C70.4637302,389.017854 69.6668988,389.860725 68.3600952,390.218413 C67.1772432,390.540687 66.1183428,390.349448 64.907159,390.321116 C62.5060403,390.448609 63.1789202,389.853642 61.4400569,388.553921 C59.2160118,388.759326 58.7272885,390.420277 56.5315752,390.593809 L54.7572972,390.862961 C54.7572972,390.862961 52.6784525,390.420277 52.6784525,389.839476 C53.0255169,388.663707 54.456272,389.612821 54.6014724,387.80667 C53.6346502,387.484396 52.4978374,388.182066 51.5487226,388.589336 C51.9028699,386.482159 50.1675481,385.727825 49.3707167,384.183743 C48.3330651,382.165104 50.2631679,381.74721 50.1533822,379.877312 C49.597371,377.380573 50.443783,377.029968 50.9289648,374.876752 C51.0883311,374.200331 50.7483497,373.605363 50.9466722,372.9254 C51.0493749,372.592502 51.6655912,371.717758 51.8355819,371.28924 C52.3065979,370.131178 53.6452747,368.367525 53.2380053,366.993433 C53.0573901,366.3843 52.4093006,366.083274 52.1472316,365.548512 C51.5522641,364.351494 51.7860013,362.980944 51.8037087,361.631643 L51.9028699,360.937514 C53.5709037,358.773674 54.3323204,356.089237 55.9649395,353.875817 L55.9649395,353.868734 C56.0924326,352.937326 56.0570178,351.83947 56.4536628,350.978892 C56.7653124,350.306012 57.7958811,350.192685 58.1216966,349.505639 C58.5679222,348.552983 57.9977451,346.746832 58.1358625,345.634809 C58.2810629,344.45904 58.8406156,343.453262 59.2089288,342.358946 C59.389544,341.824184 59.3505878,341.420456 59.5878665,340.928191 C59.7259839,340.648415 60.2324146,340.524463 60.3846979,340.149067 C60.6680157,339.451397 60.4803177,338.541238 60.4696933,337.801071 C60.4519859,336.299486 60.6892646,335.304332 61.3125638,333.90545 C62.0456488,332.255124 64.8186222,331.295385 65.9200203,329.634434 C66.1537575,327.969941 66.35208,328.334713 67.1276626,327.693706 C67.729713,327.201442 68.0484456,327.601628 68.388427,326.606474 C68.717784,325.629028 70.6195551,325.39529 71.2003566,324.162858 C72.2203009,321.984852 72.6275703,317.635923 75.4394999,316.98075 C73.8989591,315.748318 70.9630779,316.389324 69.2915027,314.569007 C68.3600952,314.090908 67.0320428,313.014301 66.029806,312.755773 C65.364009,312.575158 64.5955094,313.032008 63.8093024,312.649529 C62.5627038,313.56677 61.7729553,312.022688 60.7423867,311.877488 C60.4732347,311.838532 59.6941107,312.369753 59.3541292,312.41225 C58.3023117,312.553909 56.9175958,312.284757 55.8232806,312.337879 C54.4066914,310.156332 51.8709967,310.708802 50.9289648,308.013741 C50.6881447,307.308988 50.9431307,306.85922 50.5146125,306.324458 C49.5159171,305.077859 47.6566437,305.34347 46.310884,305.594915 C46.1408933,307.082333 45.4184327,306.83443 44.2851614,307.376275 C42.9181528,308.024365 44.1541269,308.367888 42.2948535,307.833126 C41.7353008,307.666676 41.3244899,308.017282 40.7968104,307.981867 C40.2478821,307.935828 40.3151701,307.751672 39.7697832,307.638344 C39.0508642,307.48252 38.9056638,307.546266 38.1938277,307.248782 C37.4147036,306.93005 37.5421967,306.28196 36.5682916,306.547571 C36.8445265,307.248782 36.047695,308.580376 35.201283,308.169565 C34.5638178,307.857916 34.7054767,305.934896 34.535486,305.308055 C34.3229976,304.532473 34.8896333,304.362482 33.9192697,303.898549 C33.2888875,303.597524 32.6053832,303.307123 31.9537522,303.076927 C31.511068,302.924644 31.7589711,302.329676 31.0223448,302.549248 C30.5159141,302.708614 30.2113474,302.967142 29.6872094,302.726321 C27.0736023,301.518679 30.0838544,306.643191 27.4242081,305.672827 C26.719455,305.414299 25.5011882,305.350553 24.9487185,305.024737 C23.358597,304.09333 24.8849719,303.63648 24.3820828,302.202183 C23.1779819,302.666116 21.8570125,298.837784 20.9362295,297.750552 C20.3270961,297.038716 19.2752786,296.206469 19.3744399,295.172359 C19.4381864,294.499479 20.341262,295.381306 20.1677298,294.464065 C19.9835732,293.51495 18.9777949,292.845612 18.3261638,292.247103 C19.2894445,291.117373 17.4478785,290.288668 16.6333397,289.6937 C14.8555202,288.390438 14.5651194,288.836664 12.5464798,289.144772 C12.4791918,289.109357 12.4331527,289.070401 12.3658647,289.034987 C12.3941964,288.953533 12.4225282,288.879162 12.457943,288.776459 C12.8652124,287.547568 12.0435906,286.729488 12.0435906,286.729488 C10.609294,286.113271 12.5039821,285.681212 12.5039821,285.681212 C13.3433112,284.370866 12.5216895,283.464249 13.2051938,282.380559 C14.2676357,281.208331 14.816564,280.131723 15.2911214,279.012618 C15.5142342,278.48848 15.4575706,278.116625 16.2650265,277.514575 C17.0229017,276.947939 18.1207584,275.743838 18.2942906,275.74738 C18.2305441,275.517184 18.0782607,275.078041 17.8905626,274.837221 C18.1490902,274.072263 18.7121844,272.680464 18.5421937,271.972169 C18.3863689,271.316997 19.0025852,271.476363 17.9295188,271.164713 C17.1751851,270.941601 16.9556138,270.268721 16.1162846,271.033679 C14.8519788,270.828273 14.8413543,270.187267 13.9666105,269.648963 C13.2724818,269.220445 12.0223418,269.333772 11.9090146,268.451945 C11.275091,267.587826 10.2303564,267.258469 9.561018,266.3731 L9.55039358,266.3731 C9.27415868,265.604601 9.17853891,264.552783 8.8243916,263.833864 C8.55523965,263.284936 8.048809,263.171609 7.83632062,262.527061 C7.75486674,262.739549 7.61320782,262.881208 7.57425161,263.189316 C7.25551904,262.852876 7.04657213,262.364153 6.9580353,261.871888 C5.22625497,259.492018 5.86017865,256.520722 6.47285349,253.977945 C6.95095235,253.142157 6.28161395,252.727805 6.6818004,252.062008 C6.97220119,251.598075 7.69112022,251.615782 7.85756946,251.357255 C8.23650708,250.755204 7.7336179,249.048214 8.01693575,248.814477 C8.94126021,248.063685 10.1453611,247.688289 11.1830127,247.111028 C11.8452681,246.746257 11.6256968,246.158372 12.0117174,245.627151 C12.3304499,245.188009 12.2419131,244.748866 12.8439635,244.536377 C13.6939171,244.242435 14.1861818,245.248214 15.0538427,244.642622 L15.7621373,244.217645 C15.7975521,242.889593 14.6961539,242.694811 14.3986702,241.621745 C14.1613915,240.750543 14.6147001,240.1662 14.8342714,239.319788 C15.2025846,237.850076 14.7351101,238.36359 14.3561725,237.109908 C13.8603663,235.484372 14.9263497,235.664987 12.6491825,235.062937 C11.7744387,234.75837 10.8253239,235.144391 10.1807758,234.722956 C9.53976916,234.308603 9.32373931,232.920346 9.00500673,232.318295 C8.47378577,231.305434 11.5867406,230.097792 11.8700584,229.162843 C12.1321274,228.295182 11.3813352,228.281016 10.2622297,228.086235 C8.57294702,227.795834 9.53268622,228.281016 9.07583619,226.726309 C8.67564974,225.38055 6.50826822,221.421183 4.76586348,223.2415 C4.64899486,222.441127 4.40109175,221.704501 4.00798824,221.013913 C4.3550526,219.986886 3.1190785,219.558368 3.12616145,218.591546 L3.31385952,218.534882 C4.14610569,218.903195 4.45421385,218.113447 4.38338438,217.252869 L4.38338438,217.25641 L4.43296501,216.502077 C4.93939566,216.158554 5.94871548,216.470203 6.1434965,216.123139 C6.63221978,215.290893 6.73846397,214.70655 6.34181899,213.739728 L6.46577054,213.403288 C6.59326358,212.546251 5.44936778,212.386885 4.6702437,212.043362 C4.47192121,211.579429 4.43650648,211.087164 4.5781654,210.609066 C5.86372012,209.040193 2.88179981,208.930407 1.66707455,209.337677 L0.686086509,209.620995 C1.15356095,208.477099 0.239860903,207.917546 0.076953142,206.848021 C-0.234696487,205.785579 0.441724867,205.364144 1.35896639,204.886045 C2.32224706,207.8538 4.13902274,204.418571 5.78226624,203.363212 L6.88012289,202.318477 L10.1595269,200.483994 C9.32373931,199.804031 9.56455947,199.279893 10.3684739,198.798253 C9.35561256,198.713258 7.69112022,200.452121 7.22010431,198.989492 L7.13156748,197.427703 C7.43967564,196.985019 7.51758804,196.50692 7.3653047,195.989865 L9.04396293,193.939352 L10.2303564,192.147366 C10.3330591,191.704682 10.609294,191.453238 11.0555196,191.403657 L12.0188003,190.390796 C12.652724,189.661252 12.6598069,188.329659 12.0117174,187.670945 C12.5323139,185.864793 12.6208507,184.34196 12.3198255,182.486228 C11.5052867,180.768614 8.88105517,178.434783 8.95542611,176.522387 C8.97313347,176.058454 9.62830599,175.491819 9.55039358,175.049135 C9.39811024,174.160225 7.79028147,173.721082 7.04303065,173.33152 C7.03240623,172.973831 7.29093377,171.497037 7.195314,171.295173 C6.7738787,170.370849 5.19084024,170.367307 4.63837045,169.414651 C6.29932131,168.688649 5.88496896,166.946244 4.5923313,165.936924 C4.79773673,164.839068 5.57331933,165.455284 6.28869689,165.189674 C7.15281632,164.870941 7.63091518,164.293681 8.33920979,163.588928 C8.9306358,164.144939 10.1170293,164.690326 10.9421925,164.686784 C11.5017452,164.686784 11.7142336,165.310084 11.9090146,164.527418 C12.0754639,163.854538 10.4640936,162.526486 10.1382781,162.154631 C10.4357618,161.669449 10.9953146,161.471127 11.6327797,161.520707 C11.9373464,161.804025 12.7766755,163.199366 13.1449887,163.312693 C14.1295182,163.631425 15.2309164,163.061248 16.0312893,163.812041 C16.1871141,164.576999 16.8281207,164.885107 17.6107863,164.750531 L17.6851572,164.778863 C18.2730417,166.422106 19.944617,166.032544 19.2434054,164.113066 C20.0154465,164.031612 20.7662388,164.431798 21.5028652,164.679701 L23.1000695,163.808499 L28.157293,161.977557 L28.164376,161.977557 C29.2374423,161.733196 29.3259792,162.781472 30.664656,162.225461 C31.7483467,161.779235 31.8368836,160.946989 32.4035192,160.139533 C33.1295212,159.116047 33.8236499,159.048759 32.9241158,157.653419 C32.244153,156.612226 30.3707137,155.216885 29.0639101,155.379793 C28.8549632,154.310268 29.3755598,154.253605 29.8890734,153.619681 C30.0307323,153.446149 30.5584118,153.421359 30.7779831,153.194704 C31.1604622,152.798059 31.2667064,151.997686 31.450863,151.50188 C32.1981138,151.321265 33.2711801,151.650622 33.9405186,151.423968 C34.9675457,151.073362 34.9817116,150.301321 35.6829233,149.391162 C37.2836691,148.190603 37.8396804,148.296847 38.7781708,146.398617 C39.2421037,145.729279 40.120389,145.743445 40.9030546,145.661991 L40.8995131,145.661991 L41.0801282,145.44242 C40.8428496,144.808496 40.3753751,144.043538 40.3647507,143.363575 C40.3435019,141.773454 41.7919643,140.324991 41.834462,138.695914 C41.7919643,137.112875 40.9420108,136.822474 40.2018429,135.582959 C39.4793824,134.364692 39.8618615,133.298709 38.1867448,135.062362 C35.8174993,134.40719 32.9595305,134.208867 31.0648424,132.562082 L31.0577595,132.562082 L30.5477874,132.165437 C30.3175916,130.36991 29.7615803,127.791718 32.3787289,128.057328 C32.0387475,127.618186 31.4225312,127.200292 31.2631649,126.69032 C31.0648424,126.052855 31.6314781,125.599546 31.2065014,124.827505 L31.2135843,124.827505 C32.8072472,123.318838 33.6005371,123.556116 35.8635384,123.768605 C37.0853466,123.690692 37.8503048,124.565436 39.1677328,124.420236 C40.8782643,124.005883 41.7600911,125.893488 42.0327845,122.84428 C42.2629802,120.453786 41.8450864,116.338594 43.3679198,114.327037 C43.1802218,112.743999 45.2980227,111.118463 46.0381905,109.825825 C47.1927108,107.796561 47.5610239,105.657511 47.3804088,103.373261 L47.3733259,100.883606 C47.090008,99.9805301 46.7323193,99.1518254 47.0545933,98.1991691 C47.4972774,96.2088613 47.8903809,95.6032694 47.7451805,93.354434 C48.9740717,92.2494944 48.0568302,90.1741912 49.8913132,89.5190186 C50.9360478,89.1436225 51.9666164,89.9475369 52.614706,90.4539675 C52.5190862,89.0302954 50.7554327,89.1825787 49.7142396,89.0196709 C48.2551527,88.7682264 43.2510512,88.9488415 42.560464,87.2701832 C41.2890752,85.786306 42.1850678,81.6002849 43.0350214,80.066827 C43.2935489,79.6064355 43.3254222,79.0716731 43.9558044,78.9689704 C44.9438754,78.8131456 44.3914056,79.146044 45.1386564,78.756482 C47.1502131,77.6975816 45.5317599,77.775494 44.9438754,76.5430613 C44.2816199,75.1512624 47.5043604,72.7041045 48.8324128,71.7620727 C51.0954141,70.1577854 54.9060391,69.6123986 57.4771485,71.128149 L57.810047,71.3087642 C60.7707185,70.6465087 63.5613992,70.0550827 66.5787343,69.8000966 C68.2503096,69.3644955 70.0210461,69.0280555 71.7351191,69.3503296 C74.2566479,69.8213455 73.778549,71.9497708 74.7382882,74.2021477 C75.9211402,75.1370965 76.5338151,76.7307594 77.004831,77.4850932 C77.2208608,77.8215331 78.3328834,77.6550839 77.8760334,79.0539657 C77.461681,80.328896 75.821979,80.3891011 74.6603758,80.6015895 C74.6603758,81.8977686 75.2093041,82.7937613 75.7334422,83.8597447 C76.7923426,81.9225589 78.3364249,84.865523 78.9420167,85.7013107 C81.6122874,86.0908727 82.455158,83.6012172 82.5614022,81.3807135 C82.5791096,80.9982345 82.8447201,80.2439007 82.5968169,79.9145437 C82.0124739,79.1318782 81.7326975,79.9251681 81.0527347,79.7516359 C79.9088389,79.4612351 80.1886153,79.9074608 80.0363319,78.6396134 C79.9725854,78.1296413 80.1248687,77.1238629 80.291318,76.6386811 C80.6631727,75.5514489 81.5485409,74.4535922 82.8765933,74.7864907 C84.0913186,75.0981403 84.1869384,76.4403586 85.1466775,77.1026141 C86.0532947,77.7259133 87.38843,77.7400792 88.3410863,78.2110952 C90.1189057,79.0787561 89.3114499,79.28062 88.4862866,80.6370042 C87.1759416,82.8079272 87.4450936,86.182951 88.2065103,88.5061573 C88.6952336,85.1134262 87.1015707,82.4962776 90.1224472,80.141198 C90.8980298,78.7777308 89.1450006,76.0507966 88.6669018,74.8325299 C88.0861002,72.4880747 87.6009184,71.2166859 88.6173212,68.836816 C89.4424844,66.8996302 89.6620557,64.7747464 90.6713755,62.9438048 C91.206138,61.9663582 91.723193,60.9570384 92.9520842,60.7410085 C94.4642932,60.4789395 94.2199315,61.2580636 95.1902952,62.1646807 C97.308096,64.1585301 100.350221,64.2010277 102.924872,63.3262839 C104.631862,63.8539634 106.795702,62.1469734 109.136616,62.2000954 C110.995889,62.2425931 112.129161,62.1398904 113.340345,63.7370948 C114.197381,64.8739076 114.65069,66.0425937 115.291696,67.2750263 C116.492256,69.5734424 118.422358,71.2804324 119.60521,73.5717654 C121.220122,76.6847203 124.063925,78.3208808 127.424783,78.8591847 C130.420869,80.0632856 129.308847,78.1933878 126.691698,77.7507037 C124.733263,77.3434343 120.072685,75.5054097 120.487037,72.9449247 C120.639321,73.4301065 120.961595,73.9223713 121.315742,74.2233965 C120.68536,73.2636573 120.458705,71.5849991 120.207261,70.4552692 C118.64193,69.4849055 117.522824,69.0280555 116.818071,67.4273097 C116.424968,66.5171511 116.361221,65.1607669 115.879581,64.3710184 C114.785266,62.6286137 111.806887,60.872043 109.745749,60.7693403 C106.721331,60.8507942 102.832794,61.1199462 101.026643,58.4602999 C100.378553,57.5041022 100.151899,56.282294 99.7835857,55.3508865 C99.4081896,54.3840644 98.363455,53.4314081 99.7056733,52.8081089 C101.947426,51.7704573 104.132515,56.3849967 104.33792,51.6217154 C104.387501,50.4069902 103.668582,47.6942218 102.549476,47.4427772 C101.529532,47.20904 100.176689,49.1639331 99.2700721,48.0306617 C98.5369872,47.1205032 98.1651325,46.0013977 98.4626163,44.8645848 C98.5688605,44.4502325 98.9655054,44.1421243 99.0575837,43.8304747 C99.1390376,43.5400739 99.1390376,42.5130467 99.2381989,42.3324316 C99.7906687,41.3195703 101.745562,41.0397939 102.645096,39.5523752 C102.882375,37.8772585 102.280324,39.2301012 101.766811,39.3965504 C100.569793,39.7790295 101.108097,40.0127667 100.116484,39.513419 C99.3479845,39.1273985 99.1886182,39.7719465 98.5015725,39.9277714 C97.5914139,40.1367183 96.9893635,39.7931954 96.1606588,39.9242299 C94.8290649,40.1367183 94.3297172,41.6453858 92.9839574,40.6254416 C92.4173217,40.1969233 91.5461194,38.135786 91.9108911,37.4629061 C92.3641996,36.6377429 94.6590742,37.1158418 94.3686734,36.1631855 C94.1455606,35.4194762 92.6793908,35.6886281 92.6014783,35.306149 C92.4421121,34.4632784 93.5364272,34.4986932 93.7099594,34.4314052 C94.7051133,34.0312187 95.9517119,33.9072672 97.05311,33.6699885 C98.4484504,33.3618803 99.089457,34.0312187 100.27585,33.6876958 C101.469327,33.3441729 102.046587,32.0621597 102.977994,31.3821969 C103.852738,30.7518147 103.877529,32.0302864 104.401667,30.0824763 C104.67436,29.1121126 104.398125,29.2254398 104.090017,28.471106 C103.54463,27.1501366 102.478647,26.9022334 101.678274,25.8858307 C100.367929,24.2284213 101.008935,23.6476197 98.6786461,23.8140689 C100.909774,22.6382999 97.8888976,18.9197532 96.5820941,17.8573112 C96.2775274,17.6094081 95.3921591,17.3013 95.2080025,17.0286065 C94.821982,16.4619709 95.2186269,15.9095011 94.9317676,15.2224553 C94.2695122,13.6252509 93.4797637,12.5380187 93.4833051,10.7389504 C93.4868466,10.1616903 93.9472381,9.54901544 93.6001737,9.16299488 C93.2531094,8.76989137 91.8081884,9.0425848 91.3371725,9.04966774 C89.9807883,9.07445805 89.3504061,9.32944411 88.18172,9.86066507 C87.8417385,10.0129484 87.1369854,10.5193791 86.7934625,10.5158376 C85.9753822,10.4945888 85.7451865,9.62338638 85.1325117,9.47818598 C83.907162,9.18778519 83.3334433,10.0908608 83.1032476,11.4082888 C82.9261739,12.4069842 83.1174135,13.5012994 83.1032476,14.4752045 C83.1032476,14.8328933 83.0855402,17.0073577 82.5543193,15.7997154 C81.8920638,14.2945893 82.6924367,10.4379252 82.9474228,8.81593052 C83.2661554,6.77250056 84.1586066,5.09030086 84.8491938,3.17082246 C85.4406198,1.53820338 85.9753822,-1.02228164 88.1215149,0.429722311 C87.9763145,0.39430758 86.9209556,0.206609508 86.8465846,0.39430758 C86.5243106,1.19468049 87.1724001,0.564298287 87.119278,1.02823126 C87.0484486,1.55591074 87.4309277,1.4567495 87.0874048,2.11192201 C86.9528288,2.37044955 86.3861931,2.53335731 86.1630803,2.74584569 C85.015643,3.85432676 84.5092124,5.4267408 84.9731454,7.13018934 C85.5079078,9.09216542 87.1724001,9.29402938 88.9502196,9.02133596 C90.2888964,8.81238905 94.4324199,9.22319992 94.1986827,7.51620991 C95.0982169,8.46532469 96.0756634,8.66718865 97.2868472,8.20679715 C100.148357,7.40288277 102.135124,7.86327427 104.716858,9.18424372 L106.74258,9.63046932 L110.953392,10.7354089 C111.374827,12.0917931 111.583774,12.8142536 113.046402,12.8886245 C113.914063,12.9311222 114.735685,13.2356889 115.295238,12.3538621 C115.982283,11.6738993 116.796822,11.7695191 117.586571,12.2263691 C117.586571,12.2263691 117.586571,12.2228276 117.593654,12.2228276 L117.586571,12.2263691 C117.455536,12.5805164 117.388248,12.8850831 117.5122,13.2392304 C118.755257,12.3857354 120.834102,11.7978508 121.471567,10.4839643 C121.230747,13.2392304 124.318911,12.4317745 126.07194,13.228606 C128.055165,14.1352231 129.287598,17.361505 131.093749,15.1020452 C131.309779,14.8293518 130.537738,14.0891839 131.316862,13.9864812 C131.826834,13.9156517 132.142025,14.3654188 132.506797,14.6381122 C133.537365,15.4172363 133.377999,16.1999019 133.806517,17.3296318 C133.926927,17.6589888 134.791047,18.4806105 134.642305,18.8701725 C134.34128,19.659921 133.912762,18.4204055 133.661317,18.5478985 C133.278838,18.7426795 132.276601,19.7590823 132.244728,20.1663517 C132.797198,19.8122044 133.654234,19.8688679 134.263367,20.056566 C135.552464,20.4602939 135.40018,20.7011141 135.509966,22.2558208 C134.812296,24.1398845 135.83224,26.2612268 134.454607,27.8903044 C133.512575,29.0094099 131.791419,29.4768844 130.594401,30.2276766 C130.03839,30.574741 129.698409,29.8274902 129.737365,30.6809852 C129.758614,31.105962 130.459825,31.5096899 130.803348,31.4671922 C131.819751,31.3574066 132.651997,30.6739023 133.700273,30.5393263 C134.652929,30.4118332 135.59142,30.0576859 136.544076,29.9691491 C138.336061,29.7920755 138.530842,29.8912367 140.298038,31.0847131 C140.220125,31.5911438 139.887227,32.2179845 139.855353,32.8448252 C139.819939,33.7408179 140.553024,33.6699885 139.965139,34.782011 C139.710153,35.2530269 138.849575,35.6284231 138.736248,36.0604828 C138.541467,36.7900262 139.242679,37.3354131 138.892073,38.128703 C138.927487,38.1641178 138.955819,38.1924496 138.984151,38.2278643 C139.260386,38.0649565 139.58266,37.9303806 139.830563,37.7249751 C139.947432,36.7652359 140.744263,34.0028869 141.502138,33.397295 C141.881076,33.0998113 142.989557,32.9439865 143.343704,32.8023276 C144.020126,32.5260927 144.119287,31.892169 145.273807,32.2463163 C146.633733,32.6712931 147.97241,33.9426819 149.364209,34.5128591 C150.235411,34.8740893 151.09953,35.1963634 151.928235,35.6709207 C153.769801,36.7191968 154.58434,38.9042856 156.854424,38.7697097 C158.710156,39.2053109 159.676978,37.4133255 160.877537,36.3827568 C161.865608,35.5292618 162.59161,35.0476215 163.544267,34.8988796 C164.390679,35.5930083 166.019756,35.4867641 166.975954,35.0369971 C167.280521,34.8953381 167.581546,34.1126726 167.861322,34.1055897 C168.835227,34.0878823 168.743149,34.7607622 168.250884,35.4371835 C167.227399,36.8537727 166.968871,35.6709207 167.266355,37.6506042 C167.468219,38.9574077 167.482385,40.1827574 167.539048,41.5001854 C167.581546,42.537837 168.194221,43.7525623 167.404472,44.5458522 C166.526187,45.4170546 165.732897,45.9093194 164.75545,46.6140725 C163.873624,47.2479962 163.165329,48.055452 162.432244,48.8664494 C161.947062,49.4047533 161.646037,49.9430572 160.983782,50.1024235 C160.640259,50.1874188 159.60969,49.6916126 159.407826,49.7659835 C158.950976,49.9430572 157.679587,51.8767015 157.622924,52.5602058 C157.495431,54.1574101 158.933269,54.8657047 160.201116,55.1525641 C161.823111,54.5753039 161.203353,56.5904021 162.297668,56.9303835 C164.365888,56.1583424 165.768312,54.2069907 168.087977,53.8917996 C168.544827,53.8315946 169.617893,53.7430578 170.04287,53.8457605 C170.949487,54.0759562 170.591798,54.2530299 171.190307,54.695714 C171.409878,54.8550803 172.709599,55.6731606 172.71314,55.885649 C172.723765,56.9126762 172.42274,57.5005607 173.679963,58.0034499 C174.381174,57.9326204 175.000932,56.8028905 175.401119,56.7922661 C175.953588,56.7816417 175.83672,57.4899363 176.300653,57.6847173 C176.764586,57.8759568 177.164772,57.5395169 177.66412,57.8263762 C177.773905,57.8865813 178.078472,58.5452952 178.414912,58.7577836 C179.055919,59.1685945 178.574278,59.5439907 179.356944,59.1013065 C179.966077,58.7507007 179.870458,57.4120239 179.976702,56.8347638 C180.153775,55.8891905 179.962536,54.7311288 180.745201,53.7501407 C181.329544,52.000653 181.644736,53.4809888 182.877168,52.1458534 C183.224233,51.7704573 182.919666,51.3029828 183.164027,50.9240452 C183.48276,50.421156 184.268967,50.3113704 184.332714,49.6561979 C184.555826,47.2444547 181.545574,52.4610445 181.333086,50.5203173 C181.113515,50.8355084 180.883319,51.0763286 180.787699,51.5756763 C181.067475,49.4543339 183.684624,48.3139796 185.111838,47.0461322 C186.298231,45.9907732 187.332341,46.2103446 188.954336,46.2528423 C190.912771,46.2953399 192.59497,45.6578748 194.553405,45.0522829 C195.399817,44.6662623 196.387888,44.2979491 197.337003,44.3758615 C198.342781,44.4608569 198.02759,43.8517235 198.38882,45.0841561 C198.711094,46.2032616 197.514076,48.0873253 199.0617,48.646878 C198.679221,48.055452 198.38882,46.7557314 198.601309,46.0970174 C198.753592,45.62246 199.458345,45.5410062 199.61417,45.0097852 C199.886863,44.0783778 198.781924,44.5671011 198.792548,44.6379305 C198.60485,43.2390487 201.870088,40.5758609 203.307926,39.6798683 C205.546137,38.1464104 206.0809,37.0945929 207.192922,34.7713866 C207.887051,33.3193826 208.818458,32.2427748 209.353221,30.6703608 C209.530294,30.1462228 209.657787,28.9987855 210.12172,28.6446382 C211.08146,27.9009288 210.7946,28.860668 211.644554,29.3529328 C214.318366,30.9005565 219.623493,29.7495778 222.378759,29.6504165 C224.408023,30.776605 221.018833,30.8863906 220.622188,30.9218054 C219.467668,31.031591 218.745207,31.4848996 217.480901,31.1874158 C216.786773,31.0209666 217.009886,30.440165 216.03598,30.6207802 C215.603921,30.702234 215.299354,31.4494849 214.948748,31.5876023 C214.506064,31.7717589 214.389195,31.098879 213.578198,31.7292612 C213.032811,32.147155 212.441385,32.2286089 213.12489,32.9546109 C212.328058,32.88024 211.679969,33.5885346 211.134582,33.6097834 C210.759186,33.6239493 210.334209,33.1706408 209.788822,33.1281431 C209.045113,33.0643966 208.977825,32.7031663 208.333277,33.659364 C207.911841,34.2932877 207.855178,35.0334556 207.702894,35.5044715 C207.699353,35.5328033 207.200005,35.3096905 207.122093,35.508013 C207.076054,35.6602963 207.323957,35.9967363 207.246044,36.1029805 C207.207088,36.1454781 206.852941,37.0981344 206.845858,37.1618809 C206.686492,37.9905856 206.470462,37.8170534 206.845858,38.9326174 C207.068971,39.58779 206.502335,39.8144442 207.564777,40.2854601 C208.067666,40.5050315 208.528058,40.4554509 208.864497,40.172133 C207.015849,39.8002783 208.251823,37.9905856 209.172606,37.3743693 C210.029642,36.8006507 209.367387,36.0817316 210.475868,35.6390475 C211.478105,35.238861 211.481646,34.7111815 211.825169,34.3712001 C211.726008,34.4703614 211.594973,34.0028869 212.002243,33.7762327 C212.444927,33.5283295 212.636166,34.2259997 212.738869,34.2012094 C213.107182,34.1197555 214.013799,33.7479009 214.413986,33.4681245 C215.221442,32.8944059 215.64996,31.5521876 216.574284,31.7292612 C216.220137,32.1259062 215.904946,32.8766985 215.922653,33.397295 C216.786773,31.4388604 217.767761,34.8386746 218.82312,32.5933807 C219.237472,33.2662605 219.800566,33.8895598 219.935142,34.7430548 C221.936075,34.0347602 221.542971,32.9156547 222.810818,31.5167728 C223.267668,31.0174251 225.590875,29.5477138 226.001686,29.8947782 C226.292086,30.1320569 225.881276,31.0209666 226.051266,31.3751139 C226.292086,31.8815446 226.472702,31.9629984 226.894137,32.3773508 C227.843252,33.3193826 227.669719,32.5260927 227.93533,33.8895598 C228.204482,35.2565684 228.572795,38.3801476 230.65164,38.0366247 C230.527688,38.2243228 230.428527,38.5890945 230.24437,38.7909585 C230.839338,38.3164011 231.59013,38.4474356 232.170932,39.0034469 C232.47904,39.9738105 232.896934,39.2265597 233.481277,39.5665411 C234.224986,40.0021423 234.157698,39.8711078 234.784539,40.5758609 C235.375965,41.227492 236.434865,42.6476227 236.020513,43.4161223 C236.261333,43.3700832 236.502153,43.324044 236.746515,43.2709219 C237.345024,42.7432424 237.713337,42.8884428 238.276431,43.2532146 C238.60933,43.4621615 237.660215,43.8375576 237.837289,44.0642119 C238.134772,44.446691 238.48892,43.8446406 238.839525,44.3262809 C239.041389,44.5918914 239.204297,44.8752092 239.391995,45.1479027 C239.78864,45.7357872 239.742601,46.5821992 240.454437,46.9009318 C241.92769,47.5631873 240.975034,46.4122085 241.10961,46.1359736 C241.191064,45.9695244 240.762545,45.7003725 240.985658,45.3285178 C241.191064,44.9849949 242.954717,44.776048 243.284074,44.6910526 C244.190691,44.4537739 244.913152,44.25191 245.699359,43.787977 C246.099545,43.5471568 246.825547,42.5626273 247.282397,42.5307541 C248.362547,42.4563831 246.892835,43.5223665 248.383795,44.1208755 C248.982304,44.1633731 249.520608,44.6804282 249.927878,45.1620685 C250.70346,46.0616027 250.625548,45.8030752 250.547635,47.0673811 C250.434308,48.9691521 248.783982,49.1249769 250.083702,50.5840638 C250.561801,51.1259092 251.008027,51.1188262 251.500292,51.5579689 C252.151923,52.135229 252.318372,52.8222748 252.888549,53.4314081 C253.196657,53.7607651 254.475129,53.8528434 254.492836,54.6248846 C254.503461,55.092359 252.739807,56.6895634 252.502529,57.2668235 C252.084635,57.4297312 251.723404,57.6988832 251.663199,58.1698991 C251.514458,59.2500484 252.19442,58.715286 252.74689,59.1933848 C253.97224,60.2487438 255.296751,61.3288931 256.493769,62.4763303 C258.491159,63.0217172 260.902903,64.1372812 263.020704,63.9177099 C264.008775,63.8150072 264.231887,63.0110928 264.872894,62.8942242 C268.152298,62.3027982 262.563854,66.8465081 266.491347,65.7699003 C267.128812,66.6021465 266.926948,67.781457 267.312969,68.7376547 C267.897312,70.1861172 268.134591,70.940451 268.258542,72.6509825 C267.511291,74.0711131 269.469726,76.2384947 270.057611,77.57363 C270.971311,79.6453917 270.670285,82.1987938 272.040835,84.1607699 C272.419773,86.4733518 273.676996,87.9182728 272.667676,89.9652442 C272.079792,91.1516377 271.534405,91.6545269 271.683147,93.0392429 C271.874386,94.7816476 271.792932,95.9892899 271.484824,97.8698121 C271.311292,99.1695327 270.390509,99.9982374 269.572429,100.957977 L265.822009,103.578667 C264.624991,104.64465 265.414739,106.117903 265.772428,107.60178 C265.860965,108.533188 264.79144,109.613337 264.869352,110.250802 C265.000387,111.37699 266.250527,111.146795 267.111105,111.532815 C269.037666,112.38631 270.054069,114.210169 272.186036,114.812219 L275.564601,118.5166 C277.236176,119.922565 280.267677,120.822099 281.361993,122.815948 C281.893213,123.779229 281.808218,123.658819 281.464695,124.969164 C281.096382,126.368046 282.066746,126.396378 282.10216,127.157794 C282.158824,128.255651 281.06805,129.735987 280.356214,130.600106 C279.555841,131.584636 279.523968,131.563387 279.403558,133.149967 C280.115394,134.871123 280.756401,139.220052 282.927324,139.418374 L284.8893,139.790229 C286.054444,140.296659 285.431145,141.433472 285.431145,142.336548 C285.431145,142.857144 285.703838,143.554815 285.668424,144.100201 C285.636551,144.581842 285.169076,144.928906 285.15491,145.314927 C285.108871,146.14009 285.268237,147.082122 285.795917,147.783333 C286.089859,148.176437 286.791071,148.03832 287.145218,148.456213 C288.204118,149.692187 287.350623,151.377929 286.638787,152.695357 C286.851276,153.864043 286.93273,156.088088 286.507753,157.17532 C285.795917,159.020427 283.444379,160.380353 283.564789,162.558359 C284.33683,163.914743 285.144286,163.702255 285.551555,165.366747 C285.774668,166.305238 285.774668,166.850624 286.479421,167.697036 C287.028349,168.359292 287.864137,168.600112 288.409524,169.184455 C289.503839,170.353141 289.479049,172.08138 289.48259,173.64317 C288.827418,174.521455 287.89601,175.821176 288.901789,176.777373 C289.26656,178.031055 290.442329,177.496292 291.345405,177.832732 C292.280354,178.183338 292.921361,178.912882 293.891724,179.206824 C296.877186,180.113441 296.955098,180.56675 297.061343,183.824905 L297.705891,185.085669 C296.926767,186.438512 298.97728,188.184458 299.717447,189.059202 C300.471781,190.844104 299.501418,193.542707 299.281846,195.409063 C298.878118,198.823043 298.290234,201.578309 297.128631,205.084368 C296.753234,206.525747 296.569078,207.775887 295.655378,208.979988 C295.085201,209.748488 294.38753,210.513446 294.69918,211.547556 C293.884641,214.246158 293.218844,214.405525 291.147083,213.615776 C290.566281,213.396205 289.925274,213.183716 289.326765,212.971228 C288.108499,212.539168 288.01642,212.769364 288.090791,211.526307 C288.119123,210.98092 288.76013,210.177006 288.707008,209.748488 C288.512227,208.303567 288.313904,209.256223 287.442702,209.277472 C285.0345,209.358926 286.571499,208.615216 286.723783,206.688655 C286.444006,205.13749 285.310735,204.985206 284.099551,204.482317 C283.125646,204.415029 283.830399,203.993594 283.465628,203.7209 C283.005236,203.370295 283.504584,203.48008 283.022943,203.391543 C282.661713,203.327797 280.451834,204.365449 279.88874,204.478776 C279.350436,203.557993 277.696568,202.881571 276.722663,203.21447 C275.964788,204.174209 275.34503,206.345132 276.279979,206.865729 C276.853697,207.188003 277.14764,206.281385 277.632821,206.812606 C277.962178,207.177378 277.098059,207.457155 277.55845,208.243362 C278.079047,209.135813 280.115394,208.586884 280.58641,209.528916 C281.248665,210.846344 279.332728,211.320902 278.627975,211.604219 C277.721358,211.689215 276.736829,211.667966 275.855002,211.891079 C275.136083,212.071694 275.005048,212.779989 274.388832,213.197882 C272.763296,214.288656 271.130677,215.464425 269.370565,216.325003 C268.357703,216.817268 267.624619,216.123139 266.572801,216.643736 C266.208029,216.820809 265.999082,217.440567 265.637852,217.684929 C265.060592,218.074491 264.851645,217.270576 264.493956,218.106364 C263.913155,219.338797 264.890601,220.808508 262.84363,221.183904 C262.230955,221.297231 261.685568,220.875796 261.104767,220.882879 C260.070656,220.893503 259.21362,221.375144 258.225549,221.704501 C257.02499,221.587632 252.69731,221.647837 252.789388,223.3867 C253.331233,224.544762 252.187337,226.446533 251.383423,227.310653 C250.692836,228.061445 250.374103,228.589124 249.279788,227.983532 C248.628157,227.625844 248.493581,226.450075 247.728623,226.53507 C246.850338,226.63069 246.37578,228.801613 245.947262,229.247838 C244.969815,230.246534 245.228343,229.361165 244.42797,229.435536 C242.558072,229.601986 242.855556,231.588752 242.150803,233.235537 C241.343347,234.563589 240.511101,233.600309 239.505322,233.727802 C239.356581,233.749051 236.385285,234.404223 236.399451,234.390057 C235.0289,235.657905 237.330858,238.491083 234.21082,239.01168 L233.045676,238.96564 C231.869906,238.190058 230.704762,237.432183 229.397958,237.37906 C229.475871,237.37906 228.859654,237.885491 228.792366,237.896115 C228.470092,237.981111 228.140735,237.66592 227.641388,237.874867 C225.973354,238.558371 226.695814,240.88866 224.524891,239.535818 L224.517808,239.535818 C223.405786,239.461447 222.541666,239.73414 221.620883,240.353898 C219.081647,240.95949 219.361424,241.646535 218.213986,243.24374 C217.891712,243.697048 216.730109,244.380553 216.244927,244.727617 C215.533091,245.226965 216.248469,246.133582 215.12228,246.640012 C214.746884,247.054365 214.52023,247.560795 214.463566,248.109724 C214.382113,248.832184 213.819018,248.818018 213.698608,249.299659 C213.482578,250.153154 214.127126,251.042064 213.957136,251.764524 C213.312588,254.445419 212.030574,250.333769 211.800379,249.71047 C211.775588,249.643182 211.13104,248.626779 211.116874,248.598447 C210.932718,248.308046 211.772047,247.925567 210.291711,247.635166 C208.662634,247.316434 209.817154,246.749798 209.200937,245.825474 C208.464311,244.699285 206.952102,244.989686 205.751543,244.933022 C206.68295,245.40758 206.470462,245.825474 206.817526,246.579807 C207.288542,247.606835 206.601496,247.376639 206.541291,247.999938 C206.512959,248.400125 205.96049,248.357627 206.148188,248.931346 C206.353593,249.558186 207.989754,249.845046 208.379316,250.67375 C210.185467,252.104505 209.197396,253.120908 209.501963,254.859771 C209.820695,256.68363 211.89954,256.676547 211.998701,258.794348 L212.005784,258.794348 C213.602988,258.691645 215.547257,260.242811 216.87531,261.117554 C217.091339,261.255672 217.512775,261.631068 217.704014,261.70898 C217.849215,261.772727 218.854993,261.864805 218.939988,261.935635 C220.172421,262.895374 218.947071,263.483258 219.712029,264.506744 C220.239709,265.215039 221.592552,264.768813 221.773167,265.74626 C221.985655,266.918487 220.901964,268.281954 220.519485,269.379811 C220.253875,270.130603 220.00243,269.270025 219.701405,269.868534 C219.442878,270.378506 219.580995,271.023055 219.418087,271.547193 C219.191433,272.280277 219.61641,272.411312 218.745207,272.921284 C218.090035,273.303763 217.587146,273.505627 217.23654,274.153717 C217.194042,274.801806 218.362728,276.448591 218.844369,276.905441 C219.32955,277.365833 220.671769,277.387082 221.022374,277.74477 C221.872328,278.615973 221.160492,279.774034 221.716503,280.666486 C222.113148,281.296868 222.676242,280.928555 223.037473,281.608517 C223.522654,282.532842 223.689104,283.712152 223.979505,284.707306 C224.719672,286.116813 226.92601,285.975154 225.86711,288.365648 C226.766644,289.527251 226.766644,290.118677 227.832627,290.947382 C229.057977,291.900038 229.674193,292.742909 230.566644,293.929302 C231.473262,295.147569 231.947819,294.927998 233.251081,295.147569 C233.63356,295.211316 234.147074,295.696497 234.536636,295.625668 C235.138686,295.522965 234.54726,294.878417 234.596841,294.864251 C235.333467,294.651763 236.509236,294.835919 237.373356,295.282145 C238.010821,295.604419 239.183048,296.47208 239.554903,297.098921 C239.816972,297.552229 239.480532,298.218026 239.756767,298.607588 C239.997587,298.940487 240.904204,299.230887 241.251269,299.54962 C241.619582,299.878977 241.580626,300.335827 241.856861,300.700599 C242.724521,301.787831 243.992369,302.889229 245.086684,303.838344 C244.364223,306.699854 248.87606,305.771988 250.207654,306.862762 C251.142603,307.631262 252.417533,308.821196 252.856676,309.855307 C253.292277,310.878792 252.81772,312.167889 254.050152,312.716817 C254.460963,312.98951 255.551737,314.066118 255.983797,314.129865 C257.085195,314.285689 256.748755,313.665932 257.350805,312.663695 C258.498242,312.879725 260.141486,312.886808 260.970191,313.889044 C262.022008,315.171058 261.643071,316.59473 263.725457,317.345522 C264.129185,317.494264 264.940182,317.161366 265.134963,317.380937 C265.513901,317.788206 265.613062,318.457545 265.94596,318.910853 C266.718001,319.991003 267.62816,322.091096 268.7331,322.721478 Z M264.150433,57.0578766 C264.153975,57.0649595 264.153975,57.068501 264.161058,57.0720425 C264.153975,57.068501 264.150433,57.0649595 264.150433,57.061418 C262.574478,56.4133285 259.532353,57.2278673 258.246798,57.7590882 C256.851457,58.3257239 254.269724,60.1814558 252.690227,58.8250716 C251.319677,57.6563855 253.706629,57.5430584 254.630954,56.6966463 C255.6084,55.8148195 255.498615,54.9152854 254.939062,53.8103458 C254.478671,52.9037287 253.030208,51.7208767 254.921355,51.3596464 C256.695633,51.0232065 255.675688,53.0383046 255.941299,53.8245117 C256.40169,51.3136073 258.629277,55.3933842 258.710731,52.0396092 C258.753228,50.2192921 257.995353,50.2086677 257.124151,49.3020506 C256.550432,48.7106246 255.434868,46.3803353 254.30868,47.8465051 C254.145772,48.055452 254.432631,51.5367201 252.831886,50.9842503 C251.670282,50.5805223 254.283889,48.4308482 252.375036,48.5972974 C251.542789,48.6681269 250.60784,51.3206902 250.080161,49.8226471 C249.832258,49.1285184 251.181559,47.403821 251.078856,46.4688721 C250.930115,45.16561 249.715389,45.0239511 249.311661,44.0110898 C248.776899,42.672413 250.303274,41.3372776 251.018651,42.8884428 C251.503833,43.9402603 251.882771,44.910624 252.835427,45.7074554 C254.269724,46.9080148 256.114831,46.7132338 257.432259,47.927959 C259.631514,49.9501401 261.600573,52.3831321 264.146892,53.9661706 C262.953416,54.83029 264.001692,55.5810823 264.150433,57.0578766 Z M235.184725,39.0742764 C235.662824,38.7059632 235.641575,38.0862054 235.776151,37.4806135 C234.756207,38.7024217 233.357325,39.1061496 231.809701,37.8276778 C231.579506,37.6399798 231.834492,36.8396069 231.682208,36.7794018 C231.46972,36.6979479 230.740177,37.0520952 230.662264,36.9848073 C230.527688,36.8714801 229.348378,36.7687774 230.789757,36.4181716 C229.57149,35.5505107 228.218648,33.6876958 230.031882,32.7492055 C230.116877,32.7067078 234.437474,32.6890004 233.102339,31.9700814 C232.156766,31.4530263 232.663196,30.6526534 231.760121,30.050603 C231.073075,29.58667 230.297492,30.843893 230.212497,29.7354119 C230.131043,28.7119262 232.07177,27.9044703 232.918183,27.7273967 C232.918183,27.7273967 232.698611,27.6282354 232.677362,27.5892792 C232.928807,27.5255327 233.155461,27.3944982 233.346701,27.2315904 C233.251081,27.1855513 232.461332,26.7959893 232.443625,26.7782819 C232.337381,26.636623 231.954902,25.7229229 231.891155,25.6945911 C231.547632,25.521059 230.942041,26.0345725 230.403737,25.641469 C229.90793,25.2837803 230.000009,24.593193 229.610447,24.1505089 C229.408583,23.9273961 231.855741,23.3111798 232.411752,23.3890922 C233.375033,23.5272096 234.079786,24.270919 234.175405,25.1527458 C234.256859,24.7029787 234.529553,21.6431459 235.687614,21.7670975 C235.769068,21.7777219 235.864688,24.532988 235.723029,24.9862965 C237.610634,24.6144418 235.58137,22.7693344 236.47028,23.2438918 C237.819581,23.9592693 237.291902,25.1031651 237.893952,26.0947776 C238.255182,26.6826621 239.926758,27.0970145 240.334027,26.6826621 C241.392928,25.6273031 239.923216,23.4209654 240.443813,22.2522793 C239.381371,22.8295394 239.299917,23.0774425 238.095816,22.6382999 C237.929367,22.5780948 236.764222,22.0043762 236.640271,21.8591758 C236.367577,21.5333603 236.417158,20.1167711 235.949683,20.0034439 C235.786776,19.9609462 231.777828,25.6343861 232.613616,21.6679363 C232.776524,20.8994366 234.30644,18.880797 233.088173,18.5620644 C231.653877,18.1831268 232.000941,20.3221765 231.869906,20.7719436 C231.735331,21.2323351 229.982301,23.4634631 230.00355,22.6772561 C230.021258,22.092913 231.487427,20.7861095 231.646794,19.9042827 C231.841575,18.8524652 231.597213,18.027302 232.734026,17.3579635 C233.598145,16.8409085 235.344092,16.6000883 236.367577,16.4973856 C238.821818,16.2565654 237.458351,16.9329868 236.810261,17.9245992 C236.208211,18.8489237 236.243626,20.2017664 237.111287,21.1615056 C238.942228,23.1907697 241.541669,20.6834067 243.691344,21.0056808 C244.856488,21.179213 245.94372,22.3762309 245.48687,23.6830344 C245.178762,24.5648612 244.105696,25.0677504 243.500104,25.8468745 C242.28892,27.415747 242.788268,29.6893727 244.633375,30.5534922 C245.649778,31.0280496 246.163292,30.5711995 247.062826,31.6584318 C247.661335,32.3808923 247.647169,33.1635578 248.706069,33.464583 C247.537383,34.3109951 248.235054,35.3840614 247.806535,36.3402592 C247.388641,37.282291 247.905697,36.9033534 247.006162,36.75107 C246.942416,36.7369041 247.686125,36.2835956 247.413432,36.166727 C247.335519,36.1313122 246.482024,36.1100634 246.485566,36.1136049 C245.617905,35.4017688 245.656861,37.0520952 246.251829,35.4123932 C246.37578,35.0724118 247.030953,35.0051238 247.084075,34.5553567 C247.112407,34.2684974 246.428902,34.4845273 246.404112,34.257873 C246.365156,33.928516 245.571866,34.5695226 246.092462,33.7868571 C246.37578,33.3725047 246.361614,33.3087582 245.954345,33.2237629 C245.118557,33.0431477 244.934401,34.0878823 244.520048,34.0949652 C244.056115,34.0985067 244.002993,33.3618803 243.330113,33.3016753 C243.124708,33.2875094 241.973729,33.79394 241.701036,33.8966427 C240.645677,34.2897463 240.10029,34.4066149 239.257419,35.3167734 C238.963477,35.6284231 238.612871,36.2481809 238.343719,36.4925425 C238.163104,36.6589917 237.291902,37.2858325 237.306068,37.2681251 C236.835052,37.8418437 236.491529,37.6541457 236.594232,38.5713872 C236.689851,39.4921702 236.934213,38.4545186 236.891715,38.4509771 C237.553971,38.5005577 238.65891,37.5974821 238.793486,38.9751151 C239.009516,41.1956187 236.140923,39.378843 235.184725,39.0742764 C234.85891,38.9821981 234.887242,38.9928225 235.184725,39.0742764 Z M171.760484,32.9262791 C171.356756,32.8589911 170.733457,32.5898392 170.347436,32.6146295 C169.844547,32.6535857 169.362907,33.2414702 168.860018,33.209597 C167.691332,33.1246016 168.403168,32.9227376 167.907362,32.3879752 C167.418638,31.8532128 167.609878,31.360948 166.550977,31.1272108 C165.878097,30.9749275 165.074183,30.9536786 165.28313,31.6761391 C164.365888,30.8899321 165.215842,27.9505095 166.228703,27.2457563 C167.386765,26.4418419 169.784342,27.4299129 170.924697,28.1559149 C172.075675,28.8960828 172.344827,29.5831286 173.074371,30.9076395 C173.251444,31.2263721 174.338677,32.8342008 174.122647,33.1564749 C173.864119,33.5566613 172.242125,32.9191962 171.760484,32.9262791 Z M46.9873053,69.5946912 C47.5822728,69.4105346 52.9688533,69.0953435 52.547418,68.4578783 C51.9666164,67.5618857 45.4680134,68.4082977 46.9873053,69.5946912 Z M57.5550609,68.4968346 C56.0853496,68.9288943 56.4607458,66.927962 57.608183,66.8075519 C58.6883323,66.8252593 61.2063197,66.2657065 61.486096,67.653964 C60.175751,67.3635632 57.9198327,67.0094159 57.5550609,68.4968346 L57.5550609,68.4968346 Z"/>
    <text fill="#CEDBE2" font-family="NunitoSans-Bold, Nunito Sans" font-size="15" font-weight="bold" letter-spacing=".469">
      <tspan x="117.095" y="208">Germany</tspan>
    </text>
  </g>
</svg>
