<svg xmlns="http://www.w3.org/2000/svg" width="310" height="359" viewBox="0 0 310 359">
  <defs>
    <linearGradient id="map-italy-mobile-a" x1="50%" x2="33.968%" y1="0%" y2="92.527%">
      <stop offset="0%" stop-color="#ECF4F7"/>
      <stop offset="100%" stop-color="#EAF0F4"/>
    </linearGradient>
  </defs>
  <g fill="none" fill-rule="evenodd">
    <path fill="url(#map-italy-mobile-a)" d="M174.721618,49.4945707 C175.032889,49.0218998 175.851416,48.4062748 175.560897,47.8667383 C174.295061,47.733007 174.182081,46.2850201 173.610265,45.4457411 C172.824017,44.2905796 171.68269,43.9124429 170.393797,43.5112491 C168.908919,43.0547182 170.14478,40.2348329 171.076287,38.9021316 C172.010101,37.5671246 171.744944,37.3019677 168.807467,36.9007739 C165.874602,36.4995801 170.276206,34.5005281 171.076287,33.6981405 C171.876369,32.9003643 171.876369,32.7643273 169.609855,32.630596 C167.34334,32.4968648 169.476124,31.295589 170.14478,30.8967009 C170.811131,30.4955071 168.708322,29.9905562 168.708322,29.9905562 L167.917463,29.5732224 C167.675363,29.7000366 166.690824,29.7553737 166.487921,29.6562281 C166.14437,29.4925225 166.17665,28.9991003 165.740871,28.8446176 C164.920037,28.5517922 164.083064,28.5425694 163.243785,28.369641 C163.506636,28.6647721 163.621922,29.0175459 163.082385,29.056743 C162.538237,29.0959401 162.496735,28.5402636 162.321501,28.0307014 C162.113986,27.4473563 161.484527,26.3429205 162.199298,26.0777636 C162.298443,25.8425811 162.962488,24.1870801 162.974017,24.1778573 C163.615005,23.6498493 164.597238,23.08495 165.360428,22.7206476 C166.116702,22.3586508 165.902271,21.5009261 166.48331,21.1135666 C167.177329,20.6478128 167.825234,20.6685642 168.63915,20.7561813 C168.892779,19.8292852 168.971173,18.9461977 169.167158,18.0169959 C168.228734,18.3190441 167.288003,17.6549992 166.347273,17.6065792 C165.537968,17.5650764 164.403558,17.5489364 163.893996,16.8157201 C163.135417,17.1731054 162.651217,17.2422768 161.89725,16.9102543 C161.037219,16.5390347 160.495377,17.2491939 159.835943,17.424428 C158.072074,17.887876 157.334246,16.7327145 155.824005,16.5090605 C153.942545,16.2323751 151.629916,16.089421 149.732315,16.1378409 C149.077493,16.1562866 148.782362,16.1862609 148.242825,15.9441612 C147.613366,15.6605586 146.986213,14.6529627 146.130794,15.2201677 C145.50364,15.3262304 144.996384,14.9919023 144.415344,14.7567197 C143.693656,14.9550109 142.932772,14.842031 142.194944,14.9042852 C141.422531,14.9688451 140.758486,14.1849032 139.928429,14.1918203 C139.25055,13.7053152 138.351323,13.8920778 137.675749,13.2418672 C137.246887,12.8337562 137.025539,12.1212913 136.774216,11.6025062 C136.460639,10.9522955 136.140145,11.2013124 135.722811,10.8623728 C135.217861,10.4542618 135.155606,10.7839786 135.127938,9.92625387 C135.114104,9.54581145 135.365426,9.27143177 135.287032,8.90482363 C135.049544,7.79116492 134.609153,7.53292522 133.709925,7.41763964 C133.290286,7.36460828 133.493188,7.66204507 132.960569,7.41533393 C132.628546,7.26085125 132.815309,6.76973468 132.25041,6.72131474 C131.946056,6.69825762 131.618645,5.51773328 131.457245,5.02661671 C131.346571,4.67845426 130.977657,3.57862982 131.231285,3.26735876 C131.565613,2.85002496 132.065953,2.95378198 132.407198,2.66326232 C132.912149,2.23901138 133.131192,1.58880071 133.424017,0.993927116 C133.057409,0.090088167 131.791573,0.652681798 131.145974,0.848667285 C129.776381,1.37436953 128.778008,2.14217149 127.27699,2.53644818 C126.140274,2.83388498 125.425503,3.52098703 124.406379,3.92909799 C123.965988,4.10894349 123.47026,4.08358066 123.029869,4.25881475 C122.587172,4.43404883 122.640204,4.84907692 121.999216,4.74531989 C121.538074,4.66923141 121.438928,4.13661203 120.871723,4.10433207 C120.281461,4.07435782 119.861821,3.92679228 119.299228,3.67085829 C118.506063,3.93370941 117.812044,4.31184611 117.028102,4.16428057 C116.186517,4.00749218 116.483954,3.52098703 115.593949,4.21731194 C114.717779,4.90210828 114.839981,5.23413075 113.617954,4.89749686 C113.274403,4.80757411 113.412746,4.50091446 112.963132,4.55164012 C112.589607,4.59544864 112.25989,4.78451699 111.886365,4.75915416 C111.143926,4.70842851 109.564513,5.40936484 109.564513,5.40936484 C109.564513,5.40936484 109.096454,6.14488684 108.164946,6.0780212 C107.226522,6.01346128 107.48015,7.07639433 107.48015,7.07639433 C107.044371,7.65743365 107.256496,8.01020752 107.065122,8.70422672 C106.989033,8.98782924 106.673151,9.17228617 106.590145,9.47202868 C106.488694,9.81557971 106.721571,10.1545193 106.564783,10.5049875 C106.444886,10.7793672 106.029857,10.8185643 105.875375,11.0629697 C105.748561,11.2543438 105.654026,11.8469116 105.504155,11.9598915 C104.980759,12.3564739 103.862489,12.0060057 103.159246,12.0867056 C102.28077,12.1904627 101.962582,12.2803854 101.067966,11.9414458 C100.853535,11.8630516 100.27019,11.5633091 100.106484,11.5379463 C99.9911987,11.5171949 99.2787339,11.6140348 99.2879567,11.6209519 C98.5432119,11.1598096 99.3087081,11.1505867 99.4239937,10.309002 C99.0965826,9.95853383 98.2388579,9.57117428 97.8238298,9.35213168 C97.2266505,9.04086061 96.9845508,8.98091211 96.087629,9.28296033 C94.9854988,9.6541799 93.4452835,10.1291565 92.5229989,9.08697484 C92.4215475,9.75563121 92.3708219,10.3712562 92.1448622,10.9961041 C92.0457166,11.2750952 91.6721913,11.2013124 91.6814141,11.5702262 C91.6883313,11.8146317 91.9419595,12.0820942 91.930431,12.3057482 C91.9050681,12.7415277 91.8658711,12.8406733 91.7021655,13.25109 C91.6306885,13.4309355 91.2617746,13.458604 91.1764633,13.6545895 C91.0957634,13.8436579 91.3470859,14.0235034 91.2894431,14.1480118 C91.2018261,14.3324687 90.6484553,15.2109449 90.6645953,15.337759 C90.7729638,16.4283606 91.3516974,16.4929205 91.9557938,16.8526115 C93.2838837,17.6388592 93.265438,18.9208348 92.3592933,20.3134846 C91.6306885,20.0921363 90.6230925,19.8408138 89.8183991,20.0206593 C88.8799745,20.2281733 88.7923575,19.6286883 88.2712667,19.1099032 C87.7824558,18.6187866 87.7178959,18.5173353 87.4804076,18.056193 C87.3397592,17.7864247 87.517299,17.3321995 87.1068823,17.152354 C86.6734085,16.96098 84.6005738,17.9155446 84.0979287,18.0031616 C84.0126173,19.0660947 83.2770953,19.4926513 82.90357,20.3319303 C82.592299,21.014421 82.7905902,21.82142 82.783673,22.5477192 C82.7767559,23.2486555 82.5876876,24.2562515 83.8281604,24.4453198 C84.4852882,24.5421597 85.6911754,24.0233746 85.3245672,25.3514645 C85.1032189,26.1584636 83.8558289,26.555046 84.2109085,27.6548704 C84.4437854,28.3719467 85.7626524,28.7777519 85.8156838,29.6285595 C85.8641037,30.4309472 84.8542021,31.1503292 84.1647943,31.1503292 C83.655232,31.1503292 83.463858,31.567663 83.0465242,31.0949921 C82.8274816,30.8528924 83.1433641,30.5900413 83.0580527,30.4032786 C82.7813673,29.8037936 81.5593402,29.3195942 81.5247545,28.7593062 C81.4832517,28.0122557 81.4878631,26.9262655 81.0497779,26.490486 C80.385733,25.8310525 79.4150284,26.0385666 78.6149465,26.2091892 C78.0200729,26.3360033 76.6712316,27.3366822 76.2354521,27.2190909 C75.7305012,27.0853596 75.6474956,26.5781031 75.1540733,27.1591424 C74.8082166,27.5695591 75.2878046,28.1206241 74.9350307,28.5333465 C74.5638112,28.9622089 72.846056,28.8953432 72.2419596,28.8307833 C71.0499067,28.7016635 70.4204474,28.3719467 70.0146422,27.1522253 C69.8486309,26.642663 69.4612714,26.4997089 69.216866,26.0939036 C68.9424863,25.6327613 68.9955177,25.2500132 68.7395837,24.6781967 C68.6266038,24.0510432 68.7603351,23.3685525 68.7626408,22.725259 C68.7649465,22.1626653 69.1638346,21.6715488 68.4283126,21.9113428 C67.5267794,22.2087796 68.0432588,23.1057014 66.8650401,22.3286766 C66.5837433,22.1465254 67.0425799,21.8975085 66.7682002,21.8191143 C66.1479638,21.6461859 65.4170532,21.8675343 64.7852883,21.9320942 C64.4647944,22.2595052 63.9713721,23.2855469 63.9713721,23.7144093 C63.9667606,24.3830656 64.6308056,24.4245684 64.6146656,25.2338732 C64.5962199,26.1561578 65.0642794,26.8109799 64.8798224,27.6617875 C64.6377227,28.7938919 63.9344807,29.7507622 63.7131324,30.903618 C62.9430247,31.5123259 62.5833337,32.6375132 61.7993917,33.0709869 C60.9970041,33.3223095 60.429799,34.2353713 59.8994854,34.8348563 L59.8971797,34.8348563 C59.9455996,35.692581 60.0885537,36.2275061 59.3415032,36.8269911 C58.8734437,37.2005164 57.9857447,37.0506452 58.2693473,37.9452613 C58.5690898,38.8836859 58.3385186,38.6415862 58.1563674,39.4439738 C58.0088019,40.1103245 58.2278445,40.2855586 58.4699442,41.1571175 C60.0747195,42.1577964 59.8095626,42.3030562 59.0625121,43.9124429 C58.103336,45.9806662 57.5084624,43.6403689 55.841433,44.5857107 C56.184984,43.4282435 56.2910467,43.2115066 55.9359671,41.9502823 C55.3687621,41.45686 55.6754217,40.617581 55.0113768,40.29017 C54.5202602,40.0480703 53.9415266,39.7114364 53.5264985,39.3586625 C53.2705645,39.1442313 53.0469105,39.4001653 52.9062621,38.9966658 C52.7794479,38.6554204 53.1783361,38.0628526 53.4457986,37.8853128 C54.0014751,37.5187046 54.5364002,36.8661882 54.234352,36.1836976 L54.234352,36.1860033 C53.8977181,35.5450155 51.8525519,34.7264879 51.4698038,35.1922416 C50.5290734,35.9877121 48.9796352,34.6965136 48.57383,33.9425459 C48.1288276,33.1217126 47.4901455,32.5568133 46.9736661,31.775177 C46.4894667,31.0488779 45.4150051,31.1964434 44.8985257,30.4793671 C44.8086029,29.3564855 44.6103117,28.7777519 44.9607799,27.6733161 C45.408088,26.2483863 45.2835795,24.8488194 45.2374653,23.3362726 C44.7694058,22.8013475 44.1376409,23.1264528 43.4943473,23.2671012 C42.9271423,23.2186813 42.5259484,23.6198751 42.1432003,23.9910946 C41.9841062,24.1501887 41.7005037,24.1824687 41.5806067,24.3669256 C41.4192069,24.6021082 41.7120323,24.9249078 41.6935866,24.9617992 C41.1840243,25.9993695 39.8421001,26.7856171 39.2472265,27.9569186 C38.8460327,28.2889411 38.3895018,28.4918437 37.8868567,28.4042267 L37.884551,28.4042267 C37.3772944,28.4549523 36.4227298,29.1858629 36.4550098,29.7853479 C36.4734555,30.1104532 37.4649115,30.8690324 37.6309227,31.1895263 C38.6131559,33.0940441 37.0406605,34.701125 35.2744855,35.141516 C34.5896891,36.4696058 35.1407542,38.8444888 32.7843169,38.7799289 C30.7299279,38.7222861 31.6844925,40.3385899 30.5639166,41.3092945 C30.2088371,41.2401232 29.5886006,41.3484916 29.2681067,41.2262889 C29.1067069,41.1663404 28.8207987,40.841235 28.7239588,40.8227894 C28.3757963,40.7605351 27.7025285,40.9565206 27.4050918,40.8366236 C26.9762294,40.666001 26.6695698,39.690685 26.0954476,39.4070824 C25.380677,39.0566143 24.5390922,39.2456826 23.8473787,38.8006803 C23.021934,38.3718179 23.0680482,39.8059705 22.0604523,39.6330422 C21.278816,40.0157903 20.6608853,40.7005866 19.807772,40.9795777 C18.608802,41.3646316 17.3037692,41.129449 16.0909649,41.5260314 C15.1732917,41.8234682 14.7582636,42.0148423 13.8313675,42.0332879 C12.3441836,42.0632622 12.109001,41.4983629 11.101405,40.29017 C10.0961147,41.4291915 9.61883244,42.7480585 7.90338301,42.992464 C7.53908058,43.0454953 7.21166953,42.8587327 6.8888699,42.9048469 C7.04565829,42.8794841 6.39544762,43.3867407 6.42772758,43.3659893 C6.17409931,43.5089434 5.88819107,42.9947697 5.60458854,43.4951091 C5.30484603,44.0208113 5.28409463,44.6733277 5.17572618,45.2635899 C5.36248882,46.8499195 5.54464004,47.5485501 6.90039846,48.5699803 C7.29006372,48.8651114 7.84804593,49.2340253 8.29996541,49.5291564 C8.61123647,49.732059 9.20611007,49.492265 9.42054124,50.0963614 C9.60269246,50.5897837 9.03087598,51.0947345 9.06546166,51.6481053 C9.09774162,52.2060875 9.25683572,52.9669724 9.39517842,53.5226489 C9.71797804,54.8369045 10.8754453,55.0605585 11.7585328,55.8929204 C12.0190782,56.2618343 12.0144668,56.7713965 12.300375,57.1080304 C12.5609204,57.4146901 13.0105342,57.5138357 13.3125824,57.790521 C13.8890103,58.3254461 13.787559,57.9542266 13.5915735,58.7473914 C13.4578423,59.3030679 13.0289799,59.7204017 12.7776573,60.2046011 C12.5470862,60.6472977 12.1827837,60.6265463 12.1136124,61.1545543 C12.060581,61.5557481 12.4802205,62.0537818 12.5009719,62.475727 C12.5424748,63.1720519 11.9706583,63.9352425 11.3342819,64.2580421 C10.8154968,64.5231989 10.7809111,64.2580421 10.006192,64.3802448 C9.20149864,64.5047532 8.6365993,65.0558183 8.10628563,65.4869864 C7.70509181,65.8167031 7.11252393,66.1164456 6.74361007,66.4599967 C6.32858198,66.8496619 6.79203002,67.0479531 6.00808807,67.160933 C5.06274631,67.29697 4.30186149,66.1671713 3.37727113,66.2778455 C2.89537741,66.337794 2.89537741,66.8404391 2.26361243,66.7459049 C1.63184745,66.6536764 0.82945981,67.2992757 0.315286123,67.5621268 C-0.203498988,67.984072 0.23919764,68.3322345 0.416737433,68.8371853 C0.492825916,69.0423937 0.684199979,70.0961039 0.797179848,70.2436694 C1.35285634,70.97458 2.31664379,70.4488777 2.8146775,71.2005397 C2.98299445,71.454168 2.90460025,72.9344349 2.87923743,73.2364831 C2.7939261,74.4216188 2.67172338,74.68447 3.95139332,75.4176863 C4.78836663,75.89958 5.3186803,76.651242 6.31474771,76.842616 C7.26931232,77.027073 7.61516906,76.3399709 8.65273928,77.0777986 C8.9155904,77.266867 9.36520417,77.4928267 9.43898694,77.8617406 C9.53352111,78.3298 9.12079874,78.3574685 9.0931302,78.7448281 C9.03087598,79.8746268 9.48971259,80.9006684 10.1998718,81.7122789 C10.4073858,82.9250832 10.2183175,82.7706006 9.17152439,82.5169723 C8.21004265,82.2771783 7.76734603,83.1741001 7.36154078,83.8635079 C8.4982566,85.8556427 4.33183574,86.8332644 5.0004921,88.931462 C5.11577768,89.2980701 6.71363582,91.138028 6.58682168,91.2371736 C6.07956513,91.6360617 5.83285399,91.4262419 5.50544294,92.0418669 C5.2379804,92.5583463 5.25642609,93.5544137 5.79826832,93.8380163 C5.97580811,94.9724264 7.11482964,95.9223795 7.62900333,96.886167 C8.29996541,98.1473912 8.35069106,97.6701089 9.65111241,98.0574685 C10.1652861,98.2096455 10.5664799,98.7952962 11.0045651,98.9636131 C11.4841531,99.1457644 11.7585328,98.940556 12.2773179,99.2610499 C13.0243685,99.7221923 13.5777393,100.547637 14.3893498,100.953442 C14.8850777,101.204765 15.39464,101.133288 15.9111194,101.340802 C16.3053961,101.499896 16.2846447,102.027904 16.6558643,102.124744 C18.3436452,102.560523 20.8753165,101.753524 22.390169,101.207071 C22.5907659,101.133288 22.8236428,101.322356 23.0449911,101.218599 C23.229448,101.128676 23.1533596,100.755151 23.4208221,100.639865 C23.6928961,100.517663 24.0456699,100.194863 24.3961381,100.596057 C24.629015,100.868131 24.2577954,101.548316 24.2946868,101.861893 C24.3869153,102.608943 25.020986,103.226874 25.4659883,103.835582 L25.4636826,103.835582 C25.3460913,104.684084 24.6935749,104.845483 24.3776924,105.424217 C24.1840126,105.776991 24.3500239,106.198936 24.1840126,106.530959 C23.8865758,107.114304 22.9804312,107.75068 22.4893146,108.140345 C21.8460211,108.649908 21.8967467,108.483896 21.4563558,109.339315 C21.1543076,109.927272 21.0067421,109.977997 20.5709626,110.432223 C19.4688324,111.58969 20.3011943,112.811717 20.7784766,114.34271 C20.7807823,114.345015 20.783088,114.345015 20.783088,114.347321 C21.6269785,114.298901 22.2495206,114.105221 23.0749654,114.243564 C23.6421704,114.338098 23.9004101,114.499498 24.4722266,114.388824 C25.5743567,114.174393 26.5335328,113.229051 27.72328,113.277471 C30.0958572,113.376616 34.5274349,111.29917 35.7471563,109.270144 C37.0890805,108.705245 36.1391273,108.366305 36.5772125,107.340263 C36.9576549,106.445647 37.9698623,106.109013 38.2696048,105.050692 C38.7376643,103.399802 39.067381,102.572052 40.7920533,101.873421 C41.2647242,101.682047 42.2930716,101.490673 42.6020369,101.084868 C42.9501994,100.62142 42.744991,100.305537 42.9110023,99.8858978 C43.0539564,99.5146782 43.3998131,99.2057129 43.5358501,98.8437161 C43.9162925,97.845343 43.8540383,97.6701089 44.6702602,96.7455186 C45.5441249,95.7632854 46.9529147,95.2836974 48.1149934,94.6819067 C48.4124302,93.9671361 48.8897125,94.2046244 49.4384718,93.9556075 C49.8742513,93.7573163 50.2316366,93.3768739 50.6674161,93.1370799 C51.2415383,92.8188917 53.259036,92.3715837 53.4365758,93.2200855 C53.8469924,93.2777283 55.6039447,93.5198281 55.6708103,93.5913051 C56.0996727,94.0547531 57.5614938,94.3291328 58.2186216,94.4421127 C58.8319409,94.5550926 59.7288627,94.5827611 60.2683992,94.9217007 C60.8194643,95.2606403 60.7272358,95.7517569 61.0108384,96.1206707 C61.4443122,96.6740415 62.0253515,96.8792499 62.7355107,97.2043552 C61.9377344,94.3844699 65.5853702,96.7685757 66.3831464,97.5847976 C67.0564142,98.2857339 67.1555598,98.6385078 67.9556417,99.0120331 C68.6980809,99.3555841 69.5096913,99.452424 69.9846679,100.270952 C70.5910701,100.656005 71.2182236,101.020308 71.7739001,101.469922 C72.0805598,101.718939 72.2396539,102.170858 72.4448622,102.341481 C73.1135186,102.887934 73.6230808,102.576663 74.4024114,103.097754 C75.0364821,103.519699 75.4169245,104.096127 76.0002695,104.534212 C76.555946,104.951546 77.2292138,105.251289 77.8125588,105.608674 C78.1883898,105.839245 78.0316014,106.558627 78.315204,105.908416 C78.2944526,105.961448 78.2160584,105.131392 78.1976127,105.039163 C78.1007728,104.587244 77.6811333,104.734809 77.9485958,104.16991 C78.1676384,103.713379 78.2160584,103.821747 78.7002578,104.23447 C79.2559343,104.709446 79.9545649,105.071443 80.5701899,105.502611 C81.568563,106.198936 81.7276571,105.435746 82.8620672,105.972976 C84.2800799,106.58399 85.0294361,107.522415 86.046255,108.69141 L86.0531721,108.689105 C87.4412105,110.031029 88.1144783,111.75109 88.6955176,113.547239 C89.1543542,116.166527 89.1059343,118.838847 89.4932938,121.481193 C89.8183991,122.634048 89.7768963,123.842241 90.3141271,124.958206 C90.802938,125.968107 91.8405082,126.588344 92.4676618,127.637443 C93.592849,129.507375 95.2460443,131.826921 95.7394665,134.065767 C96.1106861,135.748936 96.0737947,137.376768 95.9562034,139.078384 C95.9054778,139.87616 95.8340007,141.10741 95.3889984,141.739175 C94.9024932,142.428583 94.3744853,142.460863 94.8194876,143.609107 C95.3590241,145.006368 96.1129918,143.724393 96.6594455,143.436179 C97.902224,142.788274 99.7721561,143.609107 100.922706,144.097918 C101.360791,144.30082 101.789654,144.570589 102.029448,145.004062 C102.349942,145.587407 101.921079,145.615076 101.895717,146.14539 C101.861131,146.850937 102.303827,148.09141 101.273174,148.34965 C101.789654,149.359552 103.652669,149.359552 104.644125,149.739994 C105.790063,150.175774 106.843774,150.680724 107.56085,151.727517 C108.181086,152.638274 108.058884,153.16167 109.087231,153.712735 C110.182444,154.305303 110.057936,154.950902 110.830349,155.893938 C111.406777,156.599486 112.294476,156.705549 112.718727,157.74773 C112.990801,158.411775 112.979272,159.922017 112.442041,160.493833 C111.743411,161.233966 110.198584,160.071888 110.436072,161.653606 C110.530606,162.299205 111.814888,163.375973 112.446653,163.184598 C113.691737,162.808767 112.963132,161.420729 114.378839,161.469149 C114.872261,161.482983 115.328792,161.798866 115.7761,161.911846 C116.2603,162.03866 116.864396,162.066328 117.369347,162.091691 C117.50769,161.510652 117.60453,162.040965 117.957304,162.1355 C118.522203,162.296899 119.160885,162.654285 119.753453,162.843353 C121.143797,163.565041 122.596395,164.16222 123.87376,165.082199 C125.100398,165.962981 127.424555,168.545378 127.302353,170.161682 C127.692018,171.303009 128.503628,172.352108 129.140005,173.375844 C130.059984,174.844582 130.281332,173.975329 131.687816,174.09292 C132.118984,174.129811 132.792252,174.551757 133.14272,174.798468 C133.564665,175.095905 134.090368,175.358756 134.484644,175.640053 C135.035709,176.034329 135.208638,176.631509 135.849626,176.938168 C136.359188,177.184879 136.940227,177.450036 137.38523,177.78667 C138.485054,178.605198 139.04073,179.806473 139.564127,181.010055 C139.898455,181.789385 139.870787,183.267347 140.348069,183.885277 C140.82074,184.498597 142.282561,184.729168 142.974274,185.123444 C144.200913,185.819769 145.169312,186.905759 146.266831,187.800376 C147.652563,188.93248 149.006016,190.477307 149.985943,191.976019 C150.603874,192.91675 150.467837,193.354835 151.604553,193.497789 C152.429998,193.610769 152.7943,193.525457 153.668165,194.085745 C154.156976,194.401628 154.684984,195.086424 155.266023,194.680619 C157.836891,194.63681 159.384024,195.870366 160.901182,197.834832 C161.38077,198.450457 162.097846,199.347379 162.146266,200.14285 C162.245412,201.867522 163.898607,200.553266 164.581098,200.020647 C166.630876,198.415872 169.100293,197.848667 171.544347,198.9116 C172.254506,199.220565 175.814525,201.572391 176.367896,200.756169 C176.487793,200.576324 175.927505,200.179741 176.416316,199.628676 C176.593855,199.428079 177.2579,199.075305 177.53228,199.001522 C178.023397,198.870097 178.772753,199.123725 179.250035,199.215954 C179.826463,199.319711 179.983251,199.026885 180.612711,199.603313 C182.567954,201.150446 184.020552,202.960429 185.279471,205.14855 C185.772893,206.006274 185.742919,206.555034 186.533778,207.23983 C187.28544,207.890041 187.718914,208.618646 188.253839,209.474065 C188.945552,210.477049 189.551955,211.678325 189.623432,212.902658 C189.637266,213.151675 189.462032,214.030151 189.581929,214.198468 C190.428125,215.390521 190.340508,213.7673 190.382011,213.691211 C190.91463,212.570635 191.717018,213.398386 192.837594,213.677377 C194.117264,213.993259 193.367907,213.820331 194.091901,213.126312 C194.283275,212.944161 195.007268,212.397707 195.235534,212.367733 C196.261575,212.231696 197.031683,213.207012 197.686505,213.81572 C198.000082,214.099322 198.442778,214.56277 198.830138,214.74031 C199.203663,214.913238 199.674028,214.781813 199.9853,214.922461 C200.739267,215.266012 201.537043,216.395811 200.826884,217.142861 C200.492556,217.497941 200.093668,217.765404 199.787008,218.15968 C199.588717,218.413308 199.351229,218.925176 199.106823,219.137302 C198.332104,219.81057 197.566608,219.55233 197.499742,220.931146 C197.430571,222.215427 200.036025,220.048058 200.517919,219.764455 L200.513308,219.764455 C200.967533,219.815181 201.237301,219.432433 201.578546,219.434739 C202.067357,219.437044 202.452411,219.796735 202.93661,219.845155 C203.775889,219.925855 204.160943,219.400153 204.695868,218.918259 C205.588179,218.097426 205.65735,218.789139 206.628055,218.590848 C207.326685,218.445588 207.361271,217.608615 208.018399,217.295038 C209.563226,216.561822 211.347846,219.231836 212.230934,220.333966 C213.001042,221.293142 213.300784,222.319184 213.844932,223.382117 C214.538951,224.747098 216.639454,226.651616 215.196079,228.141106 C214.686517,228.673725 214.40522,228.41318 214.322214,229.204039 C214.269183,229.695155 214.670377,229.994898 214.465168,230.557491 C214.280712,231.067054 213.499075,231.057831 213.798818,231.774907 C214.008638,232.26833 215.189162,232.369781 215.691807,232.574989 C216.623314,232.95082 216.80316,233.935359 217.741585,234.108287 C218.988975,234.34347 219.463951,233.617171 220.628336,234.580958 C221.375386,235.198889 225.161365,237.440041 223.879389,238.461471 C224.707139,238.546782 225.057608,238.512197 225.756238,238.853442 C226.192018,239.067873 226.339583,239.210827 226.78228,239.323807 C228.20721,239.685804 228.407806,238.888028 229.224028,237.9081 C229.957245,237.027318 230.148619,236.407082 231.391397,236.259516 C231.841011,236.206485 232.216842,236.155759 232.675679,236.268739 C233.459621,236.462419 233.314361,236.545425 233.918457,237.149521 C234.739291,237.352424 234.755431,238.217065 235.361833,238.678208 C236.134246,239.270776 236.572331,240.103138 237.109562,240.914748 C237.400082,241.461202 238.082572,242.328149 238.177107,242.976054 C238.313144,243.884505 237.951147,244.04821 238.343118,244.961272 C238.769674,245.978091 238.96566,247.029495 239.182397,248.087817 C239.399134,249.173807 239.947893,249.775598 240.445927,250.743997 C241.082303,251.991387 241.165309,253.335616 242.248993,254.14031 C242.972987,254.675235 243.401849,255.067206 243.948303,255.805034 C247.21319,260.192803 247.319253,265.585862 249.207631,270.593868 C249.369031,271.444675 250.657923,273.390696 251.308134,273.946372 C251.979096,274.518189 252.769955,274.156192 253.155009,275.050808 C253.309492,275.410499 253.242626,276.12527 253.265683,276.519547 C253.350995,277.902974 253.378663,280.164877 252.258087,281.151721 C251.404974,281.89416 251.033754,282.260768 249.929319,282.115509 C249.223771,282.020974 248.451357,281.965637 247.766561,282.189291 C246.975702,282.44292 246.507643,283.074685 245.806706,283.568107 C245.103464,284.054612 244.095868,284.345132 243.63242,285.094488 C242.666327,286.634703 246.521477,287.4809 246.210206,289.503009 C245.806706,291.128535 245.39629,292.698725 244.886727,294.278137 C244.146594,296.565403 244.008251,298.635932 241.167615,299.166246 C240.579658,299.468294 239.389911,299.804928 239.120143,300.478196 C238.758146,301.372812 239.742685,302.112945 239.917919,302.871525 C240.130044,303.768446 239.334574,304.321817 239.424497,305.114982 C239.491362,305.69141 239.994007,305.93351 240.14849,306.473046 C240.353698,307.192428 239.964033,307.00336 239.90639,307.635125 C239.844136,308.33145 240.445927,309.203009 240.962406,309.657234 C242.44959,310.966878 244.390999,310.849287 246.177926,310.457316 C247.81037,310.097625 249.442813,310.457316 251.031449,310.026148 C253.095061,309.468165 253.680711,306.862711 253.779857,304.898245 C253.809831,304.287231 253.855945,303.590907 253.978148,302.991422 C254.266362,301.584937 255.433052,300.503559 256.212383,299.3092 C256.745002,298.490672 257.148502,297.556859 257.720318,296.770612 C258.405114,295.839104 259.292813,295.53475 260.284269,295.015965 C262.186481,294.029121 264.132502,292.205303 264.40227,289.977985 C264.247788,288.465438 264.014911,286.969032 263.618328,285.502599 C263.371617,284.601066 262.857444,283.614221 262.910475,282.655045 C262.942755,282.067089 262.433193,281.94258 262.37555,281.534469 C262.253347,280.736693 263.053429,279.452412 263.355477,278.735335 C264.100222,276.957632 266.179974,275.535008 267.798584,274.465158 C269.301907,273.473702 271.095751,272.311623 272.926486,272.074135 C274.079342,271.926569 274.109316,272.961834 274.962429,272.987196 C275.423572,273.001031 275.578054,272.33468 276.311271,272.475328 C276.749356,272.558334 277.074461,272.523748 277.175913,273.058673 C277.549438,272.336986 278.423303,271.516152 278.674625,270.82905 C279.059679,269.773034 278.118949,269.164327 279.324836,268.410359 C277.743118,267.762454 276.477282,266.701827 276.777025,264.663578 C276.871559,264.015673 277.26353,263.047274 277.18283,262.424732 C277.081378,261.62465 276.244405,261.193482 276.006917,260.423374 C275.56422,258.996138 276.285908,257.536623 276.449613,256.164725 C276.541842,255.366948 276.806999,255.839619 276.260545,255.394617 C276.04842,255.221689 275.405126,255.127154 275.128441,255.004952 C273.994031,254.506918 273.516748,254.01119 272.712055,253.019734 C271.028885,252.934423 269.062113,252.025972 267.754775,251.034516 C267.016947,250.476534 266.382877,249.143833 265.416783,248.899427 C265.008672,248.797976 263.851205,249.030853 263.293223,249.079273 C261.808345,249.203781 259.431156,249.353652 258.720997,247.714292 C258.525011,247.264678 258.598794,246.861178 258.573431,246.390813 C258.538846,245.789022 258.045423,245.952728 257.777961,245.588425 C257.077025,244.624638 257.351404,243.453336 257.72493,242.422683 C258.054646,241.516539 258.435089,240.656508 258.965402,239.858732 C259.352762,239.270776 260.473338,238.313905 260.491783,237.589912 C260.507923,236.939701 259.795459,236.075059 259.643282,235.353372 C259.336622,233.898468 259.433462,233.296677 260.263518,232.014701 C261.342591,230.806508 262.179564,229.669793 262.603815,228.062712 C263.189466,225.844617 264.072554,224.039245 265.186212,221.991773 C265.732666,220.366246 267.040004,218.885979 268.363483,217.848409 C268.852294,217.465661 269.629319,217.006824 270.251861,216.900762 C270.985077,216.773948 272.036481,217.020659 272.705138,217.334235 C273.19856,217.569418 273.163974,217.970612 273.772682,217.908358 C274.266105,217.857632 274.900175,216.557211 275.333649,217.239701 C275.206835,217.034493 278.280348,217.253536 276.281297,218.002892 C275.90316,218.14354 275.340566,217.772321 275.001627,217.91758 C274.263799,218.228852 274.88173,217.966 274.851755,218.517065 C274.821781,219.068131 274.997015,219.088882 274.68805,219.732176 C274.524344,220.073421 273.588225,220.179484 274.540484,220.548397 C276.355079,221.249334 278.52706,222.372215 280.399297,222.653512 C281.024145,222.745741 281.628242,223.02012 282.248478,223.128489 C283.050866,223.269137 283.841725,223.107737 284.706367,222.964783 C286.271945,222.704238 287.717626,222.595869 289.31779,222.565895 C290.442977,222.602786 291.600444,222.593564 292.508895,223.183826 C293.468071,223.806368 293.493434,224.311319 293.827762,225.383475 C294.353464,227.059727 297.588377,227.656906 296.546196,229.697461 C296.451662,229.886529 295.559351,230.292335 296.085053,230.377646 C296.504693,230.444512 296.684538,230.449123 296.988892,230.783451 C297.4362,231.274568 297.260966,231.488999 297.182572,232.021618 C297.164127,232.143821 296.751404,231.89711 296.73757,232.05851 C296.62459,233.319734 299.460615,235.129718 300.371371,235.648503 C301.295962,236.176511 302.043012,236.895893 303.18434,236.96737 C304.118153,237.027318 304.802949,237.08035 305.683731,237.451569 C306.416947,237.758229 306.857338,238.194008 307.682783,237.81126 C308.222319,237.165661 307.96408,235.662337 307.977914,234.811529 C307.989442,233.870799 307.728897,233.066106 307.839571,232.088484 C307.920271,231.376019 308.072448,230.836483 308.383719,230.250832 C308.766467,229.53145 309.183801,229.028805 309.465098,228.177997 C309.734866,227.361775 310.16834,226.796876 309.854763,225.916094 C309.522741,224.973058 308.448279,224.214479 308.194651,223.280666 C307.507549,220.758217 305.349403,219.769067 303.599368,218.021338 C302.852317,217.269676 302.056847,216.324334 301.236013,215.724849 C300.516631,215.192229 299.432947,215.056192 298.614419,214.710336 C297.878897,214.40137 297.277106,213.979425 296.60845,213.515977 C295.42562,212.575247 295.71614,212.19711 295.206577,211.067311 C294.800772,210.168084 294.346547,209.806087 293.419651,209.914456 C293.000011,209.962875 292.626486,208.786963 291.798736,208.833077 C291.240753,208.863051 290.673548,208.796185 290.120178,208.72932 C288.801311,208.574837 287.547003,207.475013 286.301919,207.004647 C285.215929,206.596537 284.079213,206.2991 282.937886,206.066223 C280.526112,205.568189 279.078125,204.627459 277.074461,203.117218 C276,202.522344 275.495049,201.805268 274.568153,201.085886 C272.707444,199.647122 270.376369,198.704086 268.206694,197.869418 C266.920107,197.37369 265.497483,197.288379 264.169393,196.919465 C263.242497,196.661225 262.463167,196.377623 261.522437,196.269254 C260.185124,196.114772 258.785557,195.220155 257.381379,194.964221 C256.270026,194.761319 255.193258,194.772847 254.252528,194.046548 C253.24032,193.267218 251.838448,193.135792 250.697121,192.61009 C248.651954,191.673971 246.519171,190.956895 244.411751,190.172953 C242.811587,189.942382 241.093832,189.09388 239.583591,188.478255 C237.835861,187.770401 236.37404,186.345471 235.859866,184.510125 C235.216573,182.206719 236.383263,181.62568 238.087184,180.449767 C238.797343,179.95865 239.316128,179.34072 239.830302,178.708955 C240.47129,177.925013 241.232174,177.542265 241.944639,176.86208 C242.629436,176.211869 242.968375,175.254999 242.758556,174.30274 C242.585627,173.523409 242.004588,172.252962 241.531917,171.860991 C238.458403,169.308568 234.847659,171.5013 231.361423,172.107702 C229.998748,172.342885 228.500035,171.771068 227.261868,172.199931 C226.325749,172.520425 225.32507,172.820167 224.349754,173.002318 C223.010136,173.260558 221.917228,173.205221 220.549941,173.083018 C218.832186,172.928536 217.07754,173.182164 215.32981,173.089935 C213.43221,172.799416 212.551428,171.024018 210.847507,170.685078 C210.199602,170.551347 209.574754,170.470647 208.917626,170.433756 C207.792439,170.371502 206.266058,169.186366 205.170845,168.801312 C204.545997,168.075013 204.059492,167.574673 203.849672,166.666223 C203.692884,165.981427 203.976486,165.68399 203.197156,165.418833 C202.194171,165.082199 200.902973,164.817042 199.9853,164.289034 C199.067626,163.767943 198.352856,162.781099 197.548162,162.098608 C196.86106,161.515263 196.201627,161.028758 195.664396,160.29093 C194.569183,158.787606 193.08661,158.08667 191.447249,157.104437 C190.386622,156.221349 189.455115,155.345179 188.514384,154.339889 C187.038729,153.590532 185.76367,151.100364 184.862137,149.795331 C183.202025,147.395085 182.282046,144.600563 181.375901,141.840626 C180.389057,139.816211 180.084703,137.835605 179.535943,135.69821 C179.197004,134.381649 178.320833,133.291047 177.85508,132.002155 C177.389326,130.710956 176.921266,129.608826 176.25261,128.370659 L174.050655,123.61167 C173.82239,122.968377 173.361248,122.498011 173.112231,121.882386 C172.923162,121.416633 173.070728,120.847122 172.955442,120.432094 C172.70412,119.528255 171.103956,118.248585 170.20934,117.639877 C169.762032,117.330912 169.335475,118.038765 168.812079,118.066434 C168.039665,118.112548 166.859141,117.300938 166.188179,116.985055 C164.348221,116.129636 162.85412,114.833826 161.25165,113.595659 C158.23578,111.020179 154.560475,107.125832 150.518563,106.657773 C148.438811,106.496373 146.995435,104.453512 145.55206,103.16462 C143.811248,101.608264 142.280255,99.8835921 140.880688,98.0205771 C139.564127,96.4872789 139.285136,93.6673936 138.789408,91.7997672 C138.494277,90.6699685 138.102306,89.8721923 138.065414,88.6478594 C138.026217,87.308241 138.159949,86.0354882 137.742615,84.7535125 C136.486002,83.4461741 136.907947,80.8983627 137.274555,79.3028103 C137.376007,78.8508908 137.417509,76.9210102 138.233731,77.3590954 C139.123736,77.8409891 139.317416,79.4480701 140.509469,78.9177565 C141.82603,78.4888941 140.54636,78.0231404 140.440297,77.6934236 C140.382655,77.5158838 140.93372,77.490521 140.876077,77.2968412 C140.846103,77.2046127 140.569417,76.8956474 140.569417,76.858756 C140.567112,76.5774592 140.170529,76.5244278 140.382655,76.0840369 C140.622449,75.5906146 141.595459,74.5438216 141.431753,75.779683 C141.307245,76.7342476 141.443282,77.06627 141.666936,78.0046947 C142.155747,77.3683183 142.743703,76.4391165 142.812875,75.5836975 C142.852072,75.1064152 142.430127,74.0480936 143.110311,74.444676 C143.499977,73.7299054 143.834305,71.862279 142.427821,72.18969 C143.287851,73.3932715 141.434059,71.7354648 141.132011,71.3757738 C140.574029,70.7209517 140.096746,70.2160009 139.409644,69.6902986 C139.794698,70.2090837 140.027575,70.4926863 139.773947,71.1382855 C139.494956,71.8553618 139.365836,70.4373492 139.296664,70.1629695 C139.116819,69.4597275 138.752517,68.6112256 138.238343,69.2199335 C137.675749,69.8839784 137.371395,67.8457293 138.215286,68.4382972 C138.480443,67.7857808 138.270623,66.9488075 138.242954,66.2617055 C137.89018,65.4777635 137.493598,64.9474499 137.548935,64.0482223 C137.507432,64.3318249 136.758076,65.1803267 136.758076,65.1803267 C136.260042,65.3417265 136.02486,65.3025294 135.681309,64.6500131 C135.326229,63.9698281 136.209317,62.1805959 135.150995,61.9269677 C135.137161,62.1667617 135.038015,62.4964784 135.063378,62.731661 C134.302493,63.8545426 134.051171,62.1367874 133.931274,61.5649709 C134.201042,60.8502003 134.376276,61.7033136 134.920424,61.5972509 C135.76662,61.4312397 135.559106,60.3106638 135.720506,59.7227074 C135.810429,59.4022135 136.283099,58.9802682 136.315379,58.5444887 C136.324602,58.4199803 136.001803,58.2770262 136.027165,58.0072579 C136.045611,57.7766868 136.174731,57.5345871 136.207011,57.2970988 C136.379939,56.095823 136.847999,55.5701208 137.975492,54.9867757 C138.436634,54.7492874 138.399743,54.5486905 138.950808,54.5717476 C139.227493,54.5855819 138.957725,55.0282785 139.430396,55.0375014 C141.072062,55.0697814 139.365836,54.4034307 139.20213,54.2166681 C138.909305,53.8754227 139.430396,53.7324686 139.49265,53.7278572 C139.407339,53.7324686 139.935347,54.0667968 140.043715,54.0898539 C140.28812,54.145191 140.193586,54.5901933 140.574029,54.3065908 C140.859937,54.0944653 140.375737,53.921537 140.463355,53.7785829 C140.857631,53.137595 141.346442,52.1346105 142.081964,52.4827729 C142.455489,52.6557013 142.473935,53.2874663 143.00886,53.3750833 C142.965052,53.3681662 144.214747,52.4896901 143.716714,53.2644092 C143.421583,53.7186344 142.83132,53.6241002 142.575386,53.9630398 C142.453184,54.129051 142.524661,54.6916446 142.538495,54.673199 C141.84217,55.4156381 142.377095,54.3019794 141.293411,54.537162 C141.127399,54.5763591 141.623127,55.2035126 141.125094,55.0351957 C140.855325,54.9475786 140.924497,54.9291329 140.751568,55.1274241 C140.587863,55.3187982 140.154389,55.9805374 140.124415,56.2456943 C139.997601,57.3639644 140.749263,56.5892453 141.549345,56.1949686 C142.381707,55.7845519 143.260183,55.4732809 144.060265,55.0075271 C146.236856,53.7416915 148.531039,52.4735501 150.527786,50.9356404 C151.355536,50.299264 152.351604,49.6144677 153.333837,49.4323165 C154.064747,49.2916681 155.706414,49.8473446 156.045354,48.7014059 C156.271313,48.005081 156.95611,47.765287 157.212044,47.1565791 C156.483439,47.4263474 155.023923,47.7722041 155.457397,46.41414 C155.565766,46.0752004 156.635616,44.7217477 156.667896,44.7494162 C157.749274,45.7085922 156.933053,44.3966423 158.178137,44.311331 C158.786845,44.2698282 159.310241,44.9407903 159.976592,45.0237959 C161.025691,45.1483043 162.137044,45.8676863 163.165391,45.7846807 C164.449672,46.190486 163.663425,47.149662 162.803394,47.4263474 C163.970084,48.1941494 165.595611,45.9114949 166.670073,45.4687982 C165.586388,45.1413872 166.059059,43.0731639 167.371009,43.6173118 C168.076557,44.1960454 168.94581,44.0323399 169.577575,44.8762304 C170.14478,45.6278923 171.050925,46.0682833 171.525901,46.7692196 C171.917872,47.3433418 171.615824,47.5808301 171.719581,48.0996152 C171.74725,48.2402636 172.443574,48.6714317 172.60728,48.9388942 C172.734094,49.1510197 173.298993,49.0311227 172.858603,49.3954251 C172.632643,49.5844934 172.314455,49.2663052 172.093106,49.3193366 C171.60199,49.4415393 171.269967,49.0242055 171.034785,49.7666447 C171.034785,49.7666447 171.034785,49.7689504 171.032479,49.7689504 L171.034785,49.7689504 C172.090801,49.8288989 173.880033,50.4007154 174.721618,49.4945707 Z M43.9670182,256.383767 C43.1738534,256.448327 42.8233852,255.726639 42.4844456,255.184797 C41.6520837,253.854402 41.3892326,253.637665 41.4053726,255.512208 C41.4122897,256.245424 41.5344925,257.036284 41.4722382,257.748748 C41.4122897,258.431239 41.8065664,258.945413 41.8457635,259.625598 C41.8987949,260.540965 41.4122897,261.606204 40.9765102,262.385534 C40.6975191,262.897402 39.5331348,263.863496 39.683006,264.363835 C39.8605458,264.956403 40.2963253,265.14086 40.2017912,265.811822 C40.1349255,266.296021 39.7106746,266.432058 39.5769433,266.821724 C39.2864236,267.640251 39.5169948,267.644863 40.0081114,268.412665 C40.363191,268.96373 40.5130622,269.291141 40.7113534,270.008217 C41.1056301,271.437758 39.6760889,271.191047 39.2264751,272.138695 C38.9267326,272.77046 39.7913745,273.902564 40.1118684,274.615029 C40.858919,273.750387 40.826639,276.053793 40.9949559,276.337395 C41.1586615,276.614081 41.6520837,276.344313 41.8665149,277.042943 C41.9748834,277.407246 42.265403,277.870694 41.9264634,278.198105 C41.6105809,278.511681 40.9373132,277.00144 40.3009368,276.835429 C40.2525168,276.821595 39.2057237,276.870015 39.1296353,276.883849 C38.8137528,276.943798 38.6754101,276.381204 38.5024817,277.282737 C38.3526104,278.050539 39.2218637,281.857269 40.1556769,281.905689 C41.6474723,281.97486 40.9419246,278.52321 42.2769316,277.893751 C43.1162106,277.494863 42.4890571,277.882222 42.8418309,278.198105 C43.0216764,278.364116 43.3283361,278.693833 43.63269,278.889818 C44.0984438,279.182643 44.1837551,278.613133 44.3728234,279.655314 C44.4765805,280.222519 44.3981863,280.713636 44.5480575,281.30851 C44.760183,282.161623 45.2904967,281.622086 45.5349021,282.203126 C45.7331933,282.661962 45.5556535,283.074685 45.583322,283.519687 C45.6017677,283.817124 45.2904967,283.784844 45.4403679,284.156063 C45.5256792,284.368189 45.9891273,284.199872 46.0559929,284.2921 C46.3303726,284.658709 46.0559929,285.106017 46.5517209,285.237442 C46.2173927,283.798678 47.718411,283.920881 48.4792958,283.127716 C49.0441952,282.537454 50.404565,284.266738 50.7573389,284.594149 C50.7296703,284.439666 50.7780903,284.269043 50.7665617,284.128395 C51.6588721,284.428137 51.5666436,285.052985 52.5442654,284.681766 C53.4273529,284.342826 53.7870439,283.33523 54.490286,282.772636 C55.3111193,282.12012 56.3509952,281.573666 56.7867747,280.667522 C56.9274231,280.381614 57.1164915,279.724486 57.1672171,279.427049 C57.3009484,278.682304 57.2179428,278.869067 56.9758431,278.193493 C56.6392092,277.27582 56.4363066,276.459598 56.7591062,275.481976 C57.008123,274.721092 57.4923225,274.269172 58.0503047,273.708884 C58.7881324,272.971056 58.2808758,273.067896 57.9050448,272.851159 C57.6029966,272.678231 57.3193941,272.920331 57.008123,272.627505 C56.872086,272.498386 56.3325495,271.792838 56.5377579,271.543821 C56.9228117,271.078067 58.35927,272.574474 58.6221212,272.765848 C59.0970977,273.114011 59.9064025,274.5228 60.6211731,274.220752 C60.7825729,274.151581 60.9808641,273.342276 61.317498,273.139373 C61.7901689,272.860382 62.0737714,272.853465 62.5879451,272.894968 C63.3396071,272.957222 64.4878515,273.29155 65.0827251,273.722718 C65.4470275,273.983264 65.9565898,274.303758 66.2355809,274.601195 C66.5330177,274.907854 66.7243917,275.523479 66.9664914,275.735605 C67.1394198,275.885476 68.1285701,276.314338 68.3637527,276.344313 C68.7995322,276.397344 69.3275401,275.897004 69.7794596,276.175996 C70.1022592,276.376592 70.0146422,277.762325 70.5218987,276.731672 C70.7939727,276.17369 71.271255,276.148327 71.5617747,275.680268 C71.9975542,274.977026 71.6125003,274.488215 71.5617747,273.865673 C71.4995205,273.162431 71.7531487,272.233229 72.0436684,271.594547 C72.246571,271.147239 72.894476,270.789853 73.0189844,270.506251 C73.3118098,269.858346 72.8645017,270.305654 72.654682,269.604717 C72.2350425,268.198233 73.3533126,266.547344 73.5608266,265.177751 C73.7591178,263.842744 72.9428959,262.641468 73.9297405,261.426358 C74.077306,258.795542 74.2779029,256.226979 74.4346913,253.637665 C74.4969455,252.577037 74.9442536,251.46799 74.7782424,250.47884 C74.7044596,250.038449 74.7044596,249.270647 74.9880621,248.901733 C75.2278561,248.588156 75.6013814,248.758779 75.5414329,248.246911 C75.5068472,247.90336 75.0042021,248.1616 74.8220509,247.66126 C74.6814025,247.287735 74.9119736,246.674416 74.997285,246.293973 C75.1448505,245.623011 75.3800331,244.975106 75.5898528,244.350258 C76.1893379,242.547192 74.5845626,242.06991 73.7821749,240.538917 C72.5393964,238.177868 73.3671469,235.86524 74.9073622,233.965333 C75.5022358,233.227506 76.5305832,232.851675 77.0170883,232.097707 C77.4667021,231.392159 77.8333102,230.227775 78.0292957,229.395413 C78.2875354,228.311728 78.4005153,227.968177 77.9024816,227.08509 C77.3029966,226.026768 76.5628631,225.415755 76.4314376,224.230619 C76.3737948,223.663414 76.5674746,222.888695 76.3761005,222.362992 C76.2193121,221.938742 75.8227297,221.749673 75.6428842,221.364619 C75.3177789,220.663683 75.2301618,220.015778 74.8566366,219.372485 C74.6445111,219.008182 74.4208571,218.673854 74.2594572,218.27266 C74.1925916,218.339526 74.2179544,218.429448 74.1695345,218.49862 C74.0842232,218.07898 74.7182939,217.239701 74.9073622,216.84773 C74.965005,216.71861 75.6959156,217.018353 75.4169245,216.607936 C75.1356277,216.199825 74.5522826,215.976171 74.1326431,216.204437 L74.1395602,216.204437 C73.7637293,215.791714 73.3786754,215.335183 72.9936216,214.892487 C72.7768847,214.645776 73.8398177,214.041679 73.0028444,213.811108 C72.6408477,213.709657 72.3480223,214.405982 71.9468285,214.445179 C71.6862831,214.470542 70.9922639,214.071654 70.5956815,214.039374 C69.6249769,213.960979 70.2244619,213.633568 70.6510186,213.495226 C71.4580176,213.232375 71.1882494,213.887197 71.6678374,213.027166 C72.0874769,212.273198 71.6862831,211.214877 72.7676618,211.124954 C73.1273528,211.092674 73.5193238,211.915813 73.8813205,211.297882 C74.077306,210.954331 73.1688557,210.825212 72.894476,210.753735 C71.9076314,210.502412 71.2804779,211.217183 71.3565663,210.05741 C71.4026806,209.351862 70.3512761,210.620003 70.5495673,210.553138 C69.8440195,210.797543 70.3397475,210.527775 70.399696,209.999767 C70.4388931,209.630853 70.4642559,209.162794 70.6256558,208.835382 C70.7109671,208.669371 70.62335,208.450329 70.7363299,208.272789 C70.8446984,208.104472 71.151358,208.574837 71.3450378,208.217452 C71.7854287,207.380478 70.7778327,206.42822 70.2544362,205.854097 C70.0330879,206.755631 69.4220743,205.909434 68.9217349,206.236845 C68.8041436,206.31524 68.4536754,207.613355 68.3038042,207.866984 C68.1377929,207.366644 68.1746843,206.824802 67.9994502,206.352131 C67.9095275,206.114643 67.7827134,205.821817 67.5751993,205.662723 C67.2293426,205.402178 67.8449676,205.240778 67.5913393,204.977927 C67.2570111,204.63207 66.514572,204.950258 66.2770837,204.313882 C66.0372897,203.684423 65.3617162,203.8366 65.4516389,204.51909 C65.2325963,204.426862 64.5869971,204.491422 64.4486544,204.387665 C64.2088604,204.214736 64.2849488,203.896548 64.0705177,203.601417 C64.052072,203.880408 63.8906722,204.131731 63.9068121,204.429168 C63.4156956,204.025668 64.0428491,203.548386 63.7915266,202.999626 C63.6185982,202.607655 62.7954592,202.310219 62.4980224,202.238742 C62.4749652,202.247964 60.4113534,202.73447 60.494359,202.628407 C60.2822335,202.895869 60.8263814,202.960429 60.9762527,203.407737 C61.0085327,203.509189 60.925527,204.53523 60.9093871,204.638987 C60.750293,205.595858 60.4274933,205.399872 59.9755739,205.957854 C59.1985491,206.919336 58.5345041,206.333685 57.503851,206.691071 C56.576955,207.006953 55.8552672,208.208229 55.2511708,208.936834 C54.6539915,209.665439 53.7593754,210.006684 53.3259016,210.615392 C53.1253047,210.894383 53.1137761,211.459282 52.818645,211.844336 C52.3413627,212.462267 51.6704007,213.499837 50.9233501,213.822637 C50.1025168,214.180022 49.0972265,213.949451 48.1956933,214.295308 C46.9759718,214.761061 47.0197804,215.480443 46.11133,216.172157 C45.479565,216.654051 44.232175,216.951487 43.4343988,217.055244 C42.4037457,217.188976 41.921852,216.619465 40.9880388,216.460371 C40.0703656,216.305888 39.2287809,216.587185 38.3111076,216.089151 C37.6839541,215.750212 36.7247781,214.631941 36.4642326,213.967897 C36.2521072,213.430666 36.6094925,211.350914 35.3966882,212.224779 C34.3314494,212.99258 35.8509134,213.873362 36.0284531,214.495904 C36.2336615,215.254484 35.4335796,216.289748 35.0946399,216.97685 C34.6796119,217.793072 34.5758548,218.537817 34.2622781,219.377096 C33.9164213,220.303992 33.7250473,220.163344 34.5320463,220.984177 C35.06236,221.519102 35.1591999,221.604413 35.0738885,222.330712 C34.9747429,223.225329 34.3406723,223.252997 33.9579241,223.956239 C33.6720159,224.481941 34.0155669,225.351195 34.278418,225.80542 C34.4190664,225.395003 34.5136006,224.871607 34.8110374,224.537278 C35.7310164,223.50432 35.3159883,224.691761 35.4335796,224.982281 C35.6802907,225.577154 35.2491226,225.715497 36.1760187,225.577154 C36.6579124,225.507983 37.1121376,224.793212 37.6931769,224.956918 C38.6961615,225.231298 38.3111076,227.19807 38.9267326,227.982012 C39.2910351,228.440848 39.595389,228.325563 39.8743801,228.957328 C40.1164798,229.501476 40.1510655,230.232386 40.3216882,230.818037 L40.3170767,230.818037 C40.5222851,231.567393 39.6807003,233.202143 40.178734,233.637922 C40.5038394,233.921525 40.9718988,233.794711 41.3292841,233.98839 C42.1201432,234.412641 42.1478117,235.085909 42.657374,235.738425 C42.5651455,236.651487 42.1754803,237.453875 42.0440547,238.34388 C41.8734321,239.508264 42.2769316,240.458217 42.5305599,241.539596 C42.7334625,242.381181 42.7726596,243.121314 41.9979405,243.704659 C41.426124,244.131216 40.418528,243.80611 40.0496142,244.092019 C39.5377462,244.493212 40.658322,244.721478 40.5453422,245.632234 C40.4992279,245.989619 40.0680599,246.197133 40.0888113,246.568353 C40.107257,246.937267 40.2525168,247.287735 40.2640454,247.656649 C40.2778796,248.120097 40.0426971,248.710359 40.2663511,249.125387 C40.6306535,249.784821 41.1886357,249.418212 41.1978586,250.520343 C41.4053726,250.158346 41.5068239,249.628032 41.834235,249.289093 C41.6428609,249.321373 41.5252696,249.27987 41.3454241,249.332901 C41.5506324,248.263051 43.376756,248.880982 43.8955411,249.489689 C44.7694058,250.522648 44.4443005,252.950563 43.4759016,253.953547 C43.6373014,253.771396 43.8586498,253.603079 44.0200496,253.420928 C43.9485725,253.939713 42.9986193,254.573784 43.1115992,255.071817 C43.2637762,255.731251 44.983837,256.040216 43.9670182,256.383767 Z M151.235639,321.21346 C151.51463,320.641644 152.038027,320.505607 152.321629,319.991433 C152.702072,319.292803 152.591398,318.714069 152.450749,318.082304 C152.310101,317.459762 152.210955,317.418259 152.326241,316.851054 C152.517615,315.889572 153.1171,315.054905 153.216245,314.026557 C153.299251,313.166527 153.1171,313.798292 153.594382,313.115801 C153.794979,312.829893 154.214619,312.142791 154.482081,311.951417 C155.2568,311.3796 156.149111,311.833826 156.866187,311.015298 C157.357303,310.452704 157.283521,310.090708 157.8807,309.763296 C158.351065,309.500445 158.809902,310.028453 159.190344,309.147671 C159.582315,308.243833 158.25192,307.57287 159.439361,307.462196 C160.815871,307.337688 160.903488,310.35817 162.208521,311.33118 C163.79485,312.509399 164.219101,312.829893 166.259656,311.868411 C167.073572,311.312735 168.035054,310.82623 168.694487,310.08379 C169.081847,309.650317 168.362465,309.163811 168.362465,308.723421 C168.362465,308.174661 169.07493,306.835043 169.672109,306.618306 C170.716596,306.233252 171.184656,307.386108 172.245283,306.964163 C173.287465,306.549135 173.93537,305.294827 175.270377,305.327107 C175.782245,305.33633 176.937406,306.722063 177.011189,307.293879 C177.154143,308.382175 176.605384,308.880209 178.115625,309.228371 C179.095552,309.456637 179.920997,309.251429 180.684188,308.679612 C181.871629,307.796524 181.59725,310.033065 181.770178,310.369699 C182.201346,311.206672 184.546255,312.230408 185.468539,312.49787 C187.412254,313.06277 188.793375,313.201112 190.644862,312.371056 C192.180466,311.683954 193.16731,310.807784 194.85048,310.498818 C195.249368,310.427341 195.200948,310.254413 195.659785,310.29361 C196.051756,310.328196 196.561318,310.685581 197.036294,310.757058 C198.078476,310.913847 198.763272,310.443481 199.821594,310.722473 C201.495541,310.724778 203.510733,310.985324 205.113202,310.305139 C205.548982,310.120682 205.885616,309.777131 206.344452,309.61112 C207.255208,309.279097 208.290473,309.475083 209.210452,309.168423 C210.347168,308.785675 211.979611,308.25075 212.811973,307.344605 C213.41607,306.687477 213.734258,305.712161 214.352189,305.085008 C215.039291,304.390988 216.7386,304.467077 217.838425,304.188086 C218.334153,304.061272 219.173432,303.369558 219.613822,303.355724 C220.127996,303.334973 220.381624,303.890649 220.782818,304.107386 C221.539092,304.515497 222.256168,304.160417 222.973244,304.430186 C224.130711,304.868271 223.976229,305.543844 225.348127,304.796794 C226.793808,304.012852 229.18022,301.889291 228.057338,300.005525 C229.399262,300.240708 227.552387,302.202868 229.839653,301.838566 C231.193106,301.624135 232.671067,300.877084 233.805477,300.093142 C234.741596,299.447543 235.44945,298.059504 236.752177,298.154039 C237.33091,298.195541 237.891198,298.705104 238.474543,298.820389 C238.903406,298.905701 239.260791,298.774275 239.673513,298.928758 C239.472916,299.044043 235.945178,301.259832 237.471559,301.679472 C236.922799,302.813882 236.634585,303.939069 236.274894,305.14265 C235.894452,306.413098 235.080536,307.464502 234.36346,308.571244 C232.767907,311.033744 231.409843,313.503161 230.141702,316.055583 C228.799777,317.588882 228.790555,319.357362 228.912757,321.307994 C228.942732,321.856754 228.440086,322.154191 228.440086,322.698339 C228.440086,323.357772 228.546149,323.996454 228.322495,324.637442 C227.870576,325.930946 226.404143,326.551183 226.254272,328.100621 C226.136681,329.304202 226.666994,330.812138 226.720026,332.057222 L226.720026,332.054916 C227.384071,333.615883 228.460838,334.296068 230.148619,334.199228 C230.759632,334.160031 231.684223,335.202213 231.831788,335.753278 C231.93324,336.112969 230.736575,335.465064 230.930255,336.560277 C230.49217,335.769418 229.807373,335.887009 229.782011,336.977611 C229.765871,337.572484 230.263904,338.494769 230.618984,338.948994 C230.865695,339.274099 231.276112,338.697671 231.615051,339.098865 C231.034012,339.138062 231.117018,339.640707 231.430594,340.025761 C231.77184,340.447707 232.258345,340.235581 232.64801,340.392369 C233.150655,340.590661 233.365086,340.459235 233.542626,341.049497 C233.687886,341.536002 233.139127,341.974088 233.14835,341.927973 C233.044593,342.474427 232.894721,342.506707 233.503429,342.640438 C233.787032,342.702692 234.262008,343.129249 234.354237,343.380572 C234.582502,343.984668 234.471828,343.595003 234.162863,343.837103 C234.054494,343.920108 233.358169,343.611143 232.98695,344.040005 C232.814021,344.245214 232.899333,344.577236 232.737933,344.759387 C231.732643,345.866129 229.505325,346.636236 229.440765,348.65604 C229.424625,349.204799 229.0511,349.243996 228.892006,349.72589 C228.719078,350.242369 228.892006,350.788823 228.714466,351.300691 C228.290215,352.52733 228.942732,353.106063 229.337008,354.182831 C229.572191,354.809984 229.655196,355.566257 229.825819,356.209551 C228.991152,356.25336 228.700632,357.046524 227.91669,356.691445 C227.663062,356.576159 227.656145,356.191105 227.457853,356.0274 C227.077411,355.718434 226.574766,355.598537 226.122846,355.420998 C224.524988,356.038928 224.310557,355.333381 222.758813,354.874544 C221.778886,354.58633 221.027224,355.102809 220.257116,355.644652 C219.823642,355.949006 217.734667,355.598537 217.273525,355.400246 C216.874637,355.229624 216.717849,354.770787 216.365075,354.53791 C215.947741,354.254308 215.320587,354.185136 214.852528,354.046794 C213.614361,353.67788 212.034948,353.744745 211.068855,353.025363 C210.321805,352.467381 210.284913,351.766445 209.886025,350.947917 C209.175866,349.497625 208.251276,347.779869 206.966994,346.746911 C204.027212,344.452728 201.523209,342.744195 197.760288,342.930958 C196.512898,342.993212 194.659106,343.943165 193.492416,343.535054 C192.424871,343.16614 192.240414,342.03173 190.944604,341.946419 C189.658017,341.856496 188.864852,341.662817 187.795002,340.964186 C187.04334,340.473069 186.561447,339.783662 185.76367,339.366328 C184.977423,338.953605 184.50014,338.012875 183.628581,337.696993 C182.604845,337.325773 181.357456,337.934481 180.359082,337.249685 C180.024754,337.016808 179.950971,336.606391 179.62356,336.39196 C178.927235,335.937735 178.134071,335.674883 177.4193,335.264467 C176.384036,334.674205 175.807608,334.093165 175.076697,333.216995 C173.658684,331.51538 171.74725,330.724521 169.605243,330.865169 C168.235651,330.955092 168.567673,331.040403 167.797566,330.02589 C167.105852,329.108217 165.989888,328.222824 164.763249,328.460312 C163.596559,328.414198 162.411423,328.252798 161.270096,328.534095 C160.380091,328.755443 159.545424,329.27884 158.604693,329.255782 C157.271992,329.218891 156.928441,327.095331 155.992322,326.375949 C154.871746,325.518224 153.811119,326.152295 152.928031,324.775785 C152.561423,324.203968 152.5522,323.516866 152.312406,322.855127 C152.065695,322.163413 151.625304,321.785277 151.235639,321.21346 Z M93.1685981,151.842803 C94.0217114,151.273292 92.9864469,150.369453 92.5114703,149.995928 C93.4960092,149.470226 93.3807236,149.228126 93.4775635,148.202084 C93.5259834,147.667159 93.9271772,146.548889 93.113261,146.366738 C92.4653561,146.221478 92.1494736,147.581848 91.7874769,148.013016 C91.52232,148.33351 91.5891857,148.614807 91.1095976,148.614807 C90.6530667,148.614807 90.595424,148.312759 90.7476009,148.013016 C90.4824441,148.006099 89.6270251,147.805502 89.4241225,147.902342 C89.0067887,148.096022 89.3226712,148.686284 88.6355691,148.840767 C87.86085,149.011389 86.2076548,147.533428 85.2553959,148.882269 C84.3008313,150.228805 86.1062035,151.153395 87.1783594,150.97355 C87.5288275,150.913601 87.9300213,151.132644 88.2505153,151.012747 C88.5894549,150.883627 88.4003865,150.57005 88.7854403,150.503185 C89.3595625,150.399428 90.171173,150.021291 90.4870555,150.61847 C90.5862011,149.544009 91.3770602,150.277225 91.7575026,150.791399 C92.2463135,151.450832 92.5898645,151.330935 93.1685981,151.842803 Z M140.82074,358.921068 C140.087524,358.446091 137.567381,356.83901 138.798631,355.693072 C139.262079,355.254986 139.455759,355.732269 139.817755,355.748409 C139.889232,355.750714 140.746957,355.73688 140.78846,355.757632 C142.287172,356.354811 143.054974,358.812699 140.82074,358.921068 L140.82074,358.921068 Z"/>
    <text fill="#CEDBE2" font-family="NunitoSans-Bold, Nunito Sans" font-size="15" font-weight="bold" letter-spacing=".469">
      <tspan x="194.676" y="271.568">Italy</tspan>
    </text>
  </g>
</svg>
