<?xml version="1.0" encoding="UTF-8"?>
<svg width="246px" height="210px" viewBox="0 0 246 210" version="1.1" xmlns="http://www.w3.org/2000/svg" xmlns:xlink="http://www.w3.org/1999/xlink">
    <!-- Generator: Sketch 44.1 (41455) - http://www.bohemiancoding.com/sketch -->
    <title>Choose </title>
    <desc>Created with Sketch.</desc>
    <defs>
        <linearGradient x1="50%" y1="0%" x2="33.9682971%" y2="92.5266392%" id="linearGradient-1">
            <stop stop-color="#F3F8FA" offset="0%"></stop>
            <stop stop-color="#EAF0F4" offset="100%"></stop>
        </linearGradient>
        <linearGradient x1="72.6868433%" y1="100%" x2="50%" y2="0%" id="linearGradient-2">
            <stop stop-color="#4194FF" offset="0%"></stop>
            <stop stop-color="#175FE1" offset="100%"></stop>
        </linearGradient>
        <linearGradient x1="32.2334521%" y1="13.1760095%" x2="100%" y2="63.6895623%" id="linearGradient-3">
            <stop stop-color="#4CC9FF" offset="0%"></stop>
            <stop stop-color="#82FFF5" offset="100%"></stop>
        </linearGradient>
        <linearGradient x1="50%" y1="135.851336%" x2="50%" y2="-19.1940654%" id="linearGradient-4">
            <stop stop-color="#AA8BFF" offset="0%"></stop>
            <stop stop-color="#514DED" offset="100%"></stop>
        </linearGradient>
    </defs>
    <g id="Homepage" stroke="none" stroke-width="1" fill="none" fill-rule="evenodd">
        <g id="IOTA-Homepage--Desktop-HD-" transform="translate(-167.000000, -914.000000)">
            <g id="//Content" transform="translate(-514.000000, 799.000000)">
                <g id="How-it-works" transform="translate(624.000000, 0.000000)">
                    <g id="3-columns" transform="translate(0.000000, 115.000000)">
                        <g id="1">
                            <g id="Choose-" transform="translate(57.000000, 0.000000)">
                                <rect id="Rectangle-8" fill="#FFFFFF" x="0" y="0" width="246" height="210"></rect>
                                <g id="Illustration" transform="translate(0.000000, 17.000000)">
                                    <g id="Group-39" transform="translate(0.000000, 17.000000)">
                                        <g id="Group-41" transform="translate(10.777126, 8.928571)" stroke="#D8EAF2" stroke-width="2">
                                            <path d="M114.340081,149.642222 C123.687088,134.806522 128.769165,125.973791 129.586314,123.14403 C130.403463,120.314269 132.12995,115.938131 134.765775,110.015616 L137.26007,104.250118" id="Path-22" stroke-linecap="round" stroke-linejoin="round"></path>
                                            <path d="M138.188451,61.8080109 L192.820137,11.9571518" id="Path-25" stroke-linecap="round" stroke-linejoin="round"></path>
                                            <path d="M129.718755,69.591808 C129.165621,61.1873047 122.050193,55.3279429 108.37247,52.0137224 C94.6947476,48.6995019 87.7784129,43.6736695 87.6234663,36.9362252 L33.7578573,0.710783097" id="Path-26" stroke-linecap="round" stroke-linejoin="round"></path>
                                            <polyline id="Path-30" stroke-linecap="round" stroke-linejoin="round" points="82.4582887 66.4618551 88.2947576 89.2214922 95.0414299 105.569397 98.2836241 123.073516 102.062072 123.256486"></polyline>
                                            <path d="M104.717373,112.504086 L130.317334,120.082413" id="Path-32" stroke-linecap="round" stroke-linejoin="round"></path>
                                            <polyline id="Path-33" stroke-linecap="round" stroke-linejoin="round" points="112.040551 71.1048781 125.957186 60.5899492 131.135348 57.4535079 143.235471 46.9995689 145.081847 38.5271548 152.83221 5.56402688"></polyline>
                                            <path d="M134.791722,106.537912 L165.94507,126.64078" id="Path-34" stroke-linecap="round" stroke-linejoin="round"></path>
                                            <path d="M77.4138656,66.5401544 C79.5259878,80.1211578 75.5493118,88.4303529 65.4838375,91.4677395 C55.4183632,94.5051261 33.7760354,102.229656 0.556854054,114.64133" id="Path-35" stroke-linecap="round" stroke-linejoin="round"></path>
                                            <path d="M73.6237315,86.8519673 L89.6918745,127.359683" id="Path-36" stroke-linecap="round" stroke-linejoin="round"></path>
                                            <path d="M135.705842,91.1627897 L149.371879,81.3057737" id="Path-38" stroke-linecap="round" stroke-linejoin="round"></path>
                                            <polyline id="Path-39" points="138.315698 103.742294 126.645357 94.9792041 115.202243 88.4675524"></polyline>
                                            <path d="M108.484136,82.2271114 L114.659496,88.3650374" id="Path-37" stroke-linecap="round" stroke-linejoin="round"></path>
                                        </g>
                                        <g id="Group-40" transform="translate(10.058651, 0.000000)" stroke="#AAC2D1" stroke-width="2" stroke-linecap="round" stroke-linejoin="round">
                                            <path d="M39.9739095,137.136924 L80.7395997,136.259706 C91.493245,136.469927 99.4820876,137.562988 104.706128,139.53889 C109.930168,141.514792 119.43039,142.360865 133.206793,142.07711 C148.423595,137.421111 158.502487,135.036879 163.443468,134.924415 C170.854939,134.75572 182.760297,137.988188 189.314801,141.397137 C195.869305,144.806087 212.51655,140.613351 218.249144,126.872443 C222.070873,117.711837 227.587494,105.918714 234.799007,91.4930741" id="Path-17"></path>
                                            <path d="M25.9079546,86.1687802 L46.0363063,77.7378912 C53.7299712,76.1677241 58.1615325,73.2051691 59.3309904,68.8502263 C60.5004482,64.4952835 66.4793122,54.5829008 77.2675824,39.1130781 L88.9911592,19.1343237 C90.2264045,16.4239471 93.4932689,14.4761613 98.7917526,13.2909663 C106.739478,11.5131738 114.374281,19.2238622 115.1053,25.3734671 C115.592646,29.4732036 118.18519,35.3823091 122.88293,43.1007834 L128.714205,64.1072835" id="Path-18"></path>
                                            <path d="M0.058694788,65.8591229 L85.9372382,76.2352024 C91.7170088,77.4705735 99.4063455,77.1591354 109.005249,75.300888 C118.604152,73.4426407 125.601855,74.3739271 129.998358,78.0947474 L135.231055,99.3088729 L145.963925,113.170464 C154.137146,118.852479 158.999788,122.717339 160.551851,124.765045 C162.103915,126.81275 167.161755,128.060233 175.725372,128.507493 L191.957118,136.485499 L196.623696,132.979225 L219.53345,148.587112" id="Path-19"></path>
                                            <path d="M197.79143,133.886728 L151.141229,105.661352" id="Path-20"></path>
                                            <path d="M133.097703,114.559355 C130.377062,114.463929 125.690149,114.421407 119.036964,114.431788 C112.383778,114.442169 104.695307,114.386803 95.9715501,114.265688 C83.7420161,117.690642 75.4657864,120.486231 71.1428608,122.652456 C66.8199352,124.818681 55.0123929,130.146436 35.7202339,138.635719 L22.4216545,144.01192" id="Path-21"></path>
                                            <path d="M11.5745218,125.849888 L116.329725,88.7563118 L127.504063,92.4416627 L133.567758,92.3806727 C138.573661,92.5831075 142.48758,90.6811723 145.309513,86.6748671" id="Path-23"></path>
                                            <path d="M145.148507,86.7799775 L147.209125,80.3578643 L151.495261,76.5868679 C155.385375,65.3872076 155.300111,57.4719217 151.23947,52.8410101 C147.178828,48.2100986 141.051077,45.0299695 132.856216,43.3006229 L108.668954,60.918936 L108.559885,75.4098914" id="Path-24"></path>
                                            <path d="M101.565211,137.958342 L106.409675,114.086611 L119.360274,89.3207933 L124.952659,83.08165 C114.715776,81.7372755 109.354095,79.0411732 108.867614,74.9933429" id="Path-27"></path>
                                            <path d="M124.540615,82.8740246 C134.686871,85.6631258 141.37482,83.6638662 144.604463,76.8762458" id="Path-28"></path>
                                            <path d="M82.47431,75.3709616 L91.8840742,52.6255988 C96.2000748,47.412471 99.4595814,45.0273742 101.662594,45.4703084 C103.865607,45.9132425 106.407511,51.0545666 109.288308,60.8942804" id="Path-29"></path>
                                            <polyline id="Path-31" points="129.087715 92.9482766 128.579168 100.775227 117.437291 114.065848 111.115207 140.676937"></polyline>
                                            <path d="M112.317493,156.505491 L124.63496,122.200013 C126.266661,117.208353 128.911142,114.681811 132.568403,114.620388 C138.054294,114.528255 151.284057,109.482957 151.643723,102.736429 C151.883501,98.2387442 151.025668,92.4805997 149.070224,85.461996 C147.801108,80.3068303 145.237563,76.4285608 141.379588,73.8271875 C135.592626,69.9251276 122.195199,60.6040447 117.581857,51.1895303 C114.506295,44.9131875 104.566337,34.2083677 87.7619806,19.0750712 C78.788058,12.191424 72.7680769,5.93627622 69.7020371,0.309627819" id="Path-16"></path>
                                        </g>
                                        <polygon id="Path-40" fill="url(#linearGradient-1)" points="37.117155 11.4365886 81.7674589 39.1667102 74.2837307 48.8914721 58.6774195 41.729287 54.1663221 45.768603 44.5509048 45.6404742 49.5856894 52.8873546 57.3584233 57.2437352 66.6761429 54.930901 69.0099188 57.8105424 64.6205079 67.2790466 20.8828539 60.8313427 17.123606 50.6700741 7.18224237 50.0924085 0.49816925 52.5051397 2.44950139 34.747351 16.2196481 34.139282 16.2196481 28.3148489 27.0649696 23.4568113"></polygon>
                                        <polygon id="Path-41" fill="url(#linearGradient-1)" points="99.6141079 80.5740427 101.063483 90.8504101 109.972683 89.753714 114.964008 86.2638319 123.043131 86.135703 121.665465 82.5372371 113.705855 80.1397076"></polygon>
                                        <polygon id="Path-42" fill="url(#linearGradient-1)" points="164.440491 80.6109611 164.440491 92.2902308 174.664341 92.2902308 173.399669 96.8442338 168.645199 97.1070065 168.645199 103.708899 179.155882 109.02516 194.905609 109.02516 196.400617 115.705234 201.626623 124.04881 217.60234 130.863527 223.432434 119.318901 231.1704 103.196384 223.328131 99.4806476 233.62369 96.5532293 234.89488 90.3248646 229.601512 83.1409628 235.029605 70.9296328 230.485913 64.6165727 214.22119 64.6165727 210.787889 71.8721398 199.866513 67.7459568 204.657924 51.226023 198.677895 41.5099478 192.665272 41.5099478 186.502713 45.3016929 174.134135 52.9438182 172.610879 57.8756927 172.610879 64.9466674 172.397928 74.9580904"></polygon>
                                        <polygon id="Path-14" fill="url(#linearGradient-1)" points="83.9741437 107.65185 86.1580114 110.754501 87.7233935 113.860986 67.6877805 124.327962 45.68937 133.920879 33.7336844 139.312182 22.2367515 139.473193 18.4887795 136.636337 17.8472923 131.942747"></polygon>
                                    </g>
                                    <g id="Group-29" transform="translate(4.000000, 106.000000)" fill="#009FFF">
                                        <ellipse id="Oval-5" fill-opacity="0.13" cx="34.5" cy="12.5" rx="34.5" ry="12.5"></ellipse>
                                        <ellipse id="Oval-5" fill-opacity="0.189999998" cx="35" cy="12.5" rx="18" ry="6.5"></ellipse>
                                        <ellipse id="Oval-5" fill-opacity="0.280000001" cx="35" cy="12.5" rx="7" ry="2.5"></ellipse>
                                    </g>
                                    <path d="M38.5089252,118.46532 C52.5089252,108.062325 59.5089252,99.0188465 59.5089252,91.3348848 C59.5089252,79.8089422 50.1069049,70.4653195 38.5089252,70.4653195 C26.9109454,70.4653195 17.5089252,79.8089422 17.5089252,91.3348848 C17.5089252,99.0188465 24.5089252,108.062325 38.5089252,118.46532 Z" id="Selected" fill="url(#linearGradient-2)"></path>
                                    <g id="Weather-icon" transform="translate(25.000000, 77.191729)" stroke="#FFFFFF" stroke-linecap="round" stroke-linejoin="round">
                                        <path d="M21.6198385,10.7447893 C21.6198385,13.6538078 19.248804,16.0121114 16.3240816,16.0121114 C13.3993591,16.0121114 11.0283246,13.6538078 11.0283246,10.7447893 C11.0283246,7.83577078 13.3993591,5.47746722 16.3240816,5.47746722 C19.248804,5.47746722 21.6198385,7.83577078 21.6198385,10.7447893" id="Fill-1" fill="#2D7AF0"></path>
                                        <path d="M17.4645373,14.3126672 C17.4749561,14.205337 17.4809097,14.0968965 17.4809097,13.9866055 C17.4809097,12.1220208 15.9616169,10.6108856 14.0869666,10.6108856 C13.374019,10.6108856 12.7131656,10.8303574 12.1669198,11.2037925 C11.4320181,9.47614634 9.71216228,8.26405529 7.70764831,8.26405529 C5.03483898,8.26405529 2.8677164,10.4195418 2.8677164,13.0779998 C2.8677164,13.5602455 2.94102051,14.0250963 3.07348886,14.4644099 C1.33577209,14.7157106 -7.44204183e-05,16.1998282 -7.44204183e-05,17.9977941 C-7.44204183e-05,19.9722997 1.60926713,21.5730001 3.59443179,21.5730001 L16.7460081,21.5730001 C18.7814066,21.5730001 20.4313072,19.9319583 20.4313072,17.9074887 C20.4313072,16.1276579 19.1557413,14.6453908 17.4645373,14.3126672" id="Fill-3" fill="#2B78EF"></path>
                                        <path d="M15.5866935,3.51598931 L15.5866935,0" id="Stroke-6"></path>
                                        <path d="M23.7750464,10.391129 L27.3100163,10.391129" id="Stroke-9"></path>
                                        <path d="M10.7865773,6.0002023 L8.28679543,3.51384271" id="Stroke-11"></path>
                                        <path d="M23.982791,18.3912888 L21.4830092,15.9049292" id="Stroke-13"></path>
                                        <path d="M20.8616975,5.80867341 L23.3614793,3.32231381" id="Stroke-15"></path>
                                    </g>
                                    <g id="Group-29" transform="translate(124.000000, 36.000000)" fill="#00F9E6">
                                        <ellipse id="Oval-5" fill-opacity="0.14" cx="34.5" cy="12.5" rx="34.5" ry="12.5"></ellipse>
                                        <ellipse id="Oval-5" fill-opacity="0.200000003" cx="35" cy="12.5" rx="18" ry="6.5"></ellipse>
                                        <ellipse id="Oval-5" fill-opacity="0.119999997" cx="35" cy="12.5" rx="7" ry="2.5"></ellipse>
                                    </g>
                                    <path d="M159.228739,48.9511278 C173.228739,38.548133 180.228739,29.5046548 180.228739,21.820693 C180.228739,10.2947504 170.826719,0.95112782 159.228739,0.95112782 C147.630759,0.95112782 138.228739,10.2947504 138.228739,21.820693 C138.228739,29.5046548 145.228739,38.548133 159.228739,48.9511278 Z" id="Selected" fill="url(#linearGradient-3)"></path>
                                    <g id="Page-1" transform="translate(149.131965, 8.695489)" stroke="#FFFFFF" stroke-linecap="round" stroke-linejoin="round">
                                        <path d="M5.66906082,6.96435807 C5.85628607,6.76408525 6.17477473,6.76408525 6.3615885,6.96435807 C7.64171541,8.33542494 12.0310159,13.3525263 12.0310159,17.6766919 C12.0310159,20.997026 9.33744123,23.6885775 6.0155304,23.6885775 C2.69320809,23.6885775 4.49046921e-05,20.997026 4.49046921e-05,17.6766919 C4.49046921e-05,13.3525263 4.38934539,8.33542494 5.66906082,6.96435807" id="Fill-1"></path>
                                        <g id="Group-6" transform="translate(1.796188, 16.956994)">
                                            <path d="M4.21921927,4.51965834 C1.93013344,4.51965834 0.0739288363,2.66497579 0.0739288363,0.376848589" id="Stroke-5"></path>
                                        </g>
                                        <g id="Group-9" transform="translate(11.944648, 0.441957)">
                                            <path d="M3.91766496,0.110713581 C4.04699047,-0.0279588816 4.26702346,-0.0279588816 4.39634897,0.110713581 C5.28097141,1.05808435 8.31383431,4.52534469 8.31383431,7.51375869 C8.31383431,9.80836161 6.45298387,11.6680984 4.15700696,11.6680984 C1.86103006,11.6680984 0.000179618768,9.80836161 0.000179618768,7.51375869 C0.000179618768,4.52534469 3.03304252,1.05808435 3.91766496,0.110713581" id="Fill-7"></path>
                                        </g>
                                        <g id="Group-13" transform="translate(13.561217, 6.904363)">
                                            <path d="M3.25891312,2.95915367 C1.67692082,2.95915367 0.394442815,1.67744314 0.394442815,0.0963975564" id="Stroke-12"></path>
                                        </g>
                                    </g>
                                    <g id="Group-29" transform="translate(138.000000, 128.000000)" fill="#A78DF2">
                                        <ellipse id="Oval-5" fill-opacity="0.300000012" cx="34.5" cy="12.5" rx="34.5" ry="12.5"></ellipse>
                                        <ellipse id="Oval-5" fill-opacity="0.400000006" cx="35" cy="12.5" rx="18" ry="6.5"></ellipse>
                                        <ellipse id="Oval-5" fill-opacity="0.800000012" cx="35" cy="12.5" rx="7" ry="2.5"></ellipse>
                                    </g>
                                    <path d="M172.753666,140.860902 C186.753666,130.457907 193.753666,121.414429 193.753666,113.730467 C193.753666,102.204525 184.351645,92.8609023 172.753666,92.8609023 C161.155686,92.8609023 151.753666,102.204525 151.753666,113.730467 C151.753666,121.414429 158.753666,130.457907 172.753666,140.860902 Z" id="Selected" fill="url(#linearGradient-4)"></path>
                                    <g id="Air-quality-sensor" transform="translate(158.782991, 100.605263)" stroke="#FFFFFF" stroke-linecap="round" stroke-linejoin="round">
                                        <path d="M14.38162,1.28212349 C15.0807936,0.771068126 15.9425955,0.469042086 16.8752537,0.469042086 C19.2096739,0.469042086 21.1027354,2.36054415 21.1027354,4.69399392 C21.1027354,7.0274437 19.2096739,8.91894576 16.8752537,8.91894576 L4.34988788,8.91894576 C4.34988788,8.91894576 0.147163232,8.97482911 0.147163232,13.6212523" id="Stroke-1"></path>
                                        <path d="M14.3821322,4.69403658 C14.3821322,3.31785578 15.4983342,2.20232175 16.8753391,2.20232175 C18.2519171,2.20232175 19.3681191,3.31785578 19.3681191,4.69403658 C19.3681191,6.07021738 18.2519171,7.18575141 16.8753391,7.18575141" id="Stroke-3"></path>
                                        <path d="M20.909673,24.0392737 C23.2445201,24.0392737 25.1371547,22.1477716 25.1371547,19.8143219 C25.1371547,17.4812987 23.2445201,15.5897966 20.909673,15.5897966 L6.28294487,15.5897966" id="Stroke-5"></path>
                                        <path d="M18.4166796,19.8144498 C18.4166796,21.1906306 19.5328816,22.3061647 20.9098865,22.3061647 C22.2864645,22.3061647 23.4026665,21.1906306 23.4026665,19.8144498 C23.4026665,18.438269 22.2864645,17.322735 20.9098865,17.322735" id="Stroke-9"></path>
                                        <path d="M15.108752,7 L10.0655678,7" id="Stroke-11"></path>
                                        <path d="M4.6860717,11 L22.5051803,11" id="Stroke-13"></path>
                                        <path d="M8.38439256,13 L27.8003316,13" id="Stroke-15"></path>
                                    </g>
                                </g>
                            </g>
                        </g>
                    </g>
                </g>
            </g>
        </g>
    </g>
</svg>