<svg width="77.3" height="75.9" xmlns="http://www.w3.org/2000/svg">
 <style type="text/css">.st0{fill:#009FFF;}
	.st1{fill:rgba(83, 83, 83, 0.6);}</style>

 <g>
  <title>background</title>
  <rect x="-1" y="-1" width="79.3" height="77.9" id="canvas_background" fill="none"/>
 </g>
 <g>
  <title>Layer 1</title>
  <path stroke="null" fill="none" transform="rotate(-180 38.45772171020508,40.30000305175781) " class="st1" d="m75.744505,53.198149l-35.483007,-32.061108c-0.407851,-0.368518 -1.223552,-0.737037 -1.631403,-0.737037c-0.815701,0 -1.223552,0.368518 -1.631403,0.737037l-35.483007,32.061108c-0.407851,0.368518 -0.815701,1.105555 -0.815701,1.474074c0,0.737037 0.407851,1.105555 0.815701,1.474074l3.670656,3.316666c0.407851,0.368518 1.223552,0.737037 1.631403,0.737037c0.815701,0 1.223552,-0.368518 1.631403,-0.737037l29.773098,-26.901849l29.773098,26.901849c0.407851,0.368518 1.223552,0.737037 1.631403,0.737037c0.815701,0 1.223552,-0.368518 1.631403,-0.737037l3.670656,-3.316666c0.407851,-0.368518 0.815701,-1.105555 0.815701,-1.474074c0.815701,-0.368518 0.407851,-1.105555 0,-1.474074l0,0zm0,0" id="svg_5"/>
 </g>
</svg>
