<svg xmlns="http://www.w3.org/2000/svg" width="60" height="48" viewBox="0 0 60 48">
  <g fill="none" fill-rule="evenodd" stroke="#C4D1D8" stroke-linecap="round" stroke-linejoin="round" transform="translate(1 1)">
    <path fill="#FFF" d="M47.0880783,22.0270098 C47.0880783,28.3568417 41.9239574,33.4883543 35.5539025,33.4883543 C29.1838475,33.4883543 24.0197266,28.3568417 24.0197266,22.0270098 C24.0197266,15.6971779 29.1838475,10.5656653 35.5539025,10.5656653 C41.9239574,10.5656653 47.0880783,15.6971779 47.0880783,22.0270098"/>
    <path fill="#FFF" d="M38.0378187,29.7904762 C38.060511,29.5569328 38.073478,29.3209734 38.073478,29.0809874 C38.073478,25.0237745 34.7644533,21.7356443 30.6814588,21.7356443 C29.1286566,21.7356443 27.6893159,22.2132003 26.4995907,23.0257703 C24.8989725,19.2665266 21.1531209,16.6290966 16.787283,16.6290966 C10.9658956,16.6290966 6.2458956,21.3192927 6.2458956,27.1039216 C6.2458956,28.1532563 6.4055522,29.1647409 6.69406868,30.1206583 C2.90931593,30.667472 -0.000162087912,33.8968137 -0.000162087912,37.8090686 C-0.000162087912,42.1054622 3.50498901,45.5884804 7.82868407,45.5884804 L36.4728599,45.5884804 C40.9059643,45.5884804 44.4994533,42.0176821 44.4994533,37.61257 C44.4994533,33.7397759 41.7212665,30.5144608 38.0378187,29.7904762"/>
    <path d="M35 7.65056022L35 0M50.4270893 22L58.1262651 22M24.848239 13.0560434L19.403706 7.64588936M50.8795577 37.3123459L45.4350247 31.9021919M46.2598091 12.6392892L51.704342 7.22913515"/>
  </g>
</svg>
