<svg xmlns="http://www.w3.org/2000/svg" width="12" height="10" viewBox="0 0 12 10">
  <path fill="#808B92" fill-rule="evenodd" d="M4.992,7.8 L4.008,7.8 L6,5.808 L7.992,7.8 L7.008,7.8 L7.008,9.792 L4.992,9.792 L4.992,7.8 Z M10.5,11.316 L10.5,4.284 L1.5,4.284 L1.5,11.316 L10.5,11.316 Z M10.5,3.3 C10.7800014,3.3 11.017999,3.39799902 11.214,3.594 C11.410001,3.79000098 11.508,4.0279986 11.508,4.308 L11.508,11.292 C11.508,11.5720014 11.410001,11.809999 11.214,12.006 C11.017999,12.202001 10.7800014,12.3 10.5,12.3 L1.5,12.3 C1.2199986,12.3 0.98200098,12.202001 0.786,12.006 C0.58999902,11.809999 0.492,11.5720014 0.492,11.292 L0.492,4.308 C0.492,4.0279986 0.58999902,3.79000098 0.786,3.594 C0.98200098,3.39799902 1.2199986,3.3 1.5,3.3 L10.5,3.3 Z" transform="translate(0 -3)"/>
</svg>
