<svg xmlns="http://www.w3.org/2000/svg" width="8" height="11" viewBox="0 0 8 11">
  <path fill="#738FD4" fill-rule="evenodd" d="M139,19.536 C139.224001,19.536 139.431999,19.4800006 139.624,19.368 C139.816001,19.2559994 139.967999,19.1060009 140.08,18.918 C140.192001,18.7299991 140.248,18.5240011 140.248,18.3 C140.248,18.0759989 140.192001,17.868001 140.08,17.676 C139.967999,17.483999 139.816001,17.3320006 139.624,17.22 C139.431999,17.1079994 139.224001,17.052 139,17.052 C138.775999,17.052 138.570001,17.1079994 138.382,17.22 C138.193999,17.3320006 138.044001,17.483999 137.932,17.676 C137.819999,17.868001 137.764,18.0759989 137.764,18.3 C137.764,18.6440017 137.883999,18.9359988 138.124,19.176 C138.364001,19.4160012 138.655998,19.536 139,19.536 Z M139,14.808 C139.640003,14.808 140.227997,14.9639984 140.764,15.276 C141.292003,15.5880016 141.711998,16.0079974 142.024,16.536 C142.336002,17.0720027 142.492,17.6599968 142.492,18.3 C142.492,18.7880024 142.372001,19.3479968 142.132,19.98 C141.923999,20.5160027 141.636002,21.0959969 141.268,21.72 C140.963998,22.2160025 140.616002,22.7319973 140.224,23.268 C139.951999,23.6440019 139.664002,24.0119982 139.36,24.372 L139,24.792 L138.64,24.372 C138.335998,24.0119982 138.048001,23.6440019 137.776,23.268 C137.383998,22.7319973 137.036002,22.2160025 136.732,21.72 C136.363998,21.0959969 136.076001,20.5160027 135.868,19.98 C135.627999,19.3479968 135.508,18.7880024 135.508,18.3 C135.508,17.6599968 135.663998,17.0720027 135.976,16.536 C136.288002,16.0079974 136.707997,15.5880016 137.236,15.276 C137.772003,14.9639984 138.359997,14.808 139,14.808 Z" transform="translate(-135 -14)"/>
</svg>
