<svg xmlns="http://www.w3.org/2000/svg" width="8" height="11" viewBox="0 0 8 11">
  <path fill="#808B92" fill-rule="evenodd" d="M6,7.536 C6.22400112,7.536 6.43199904,7.48000056 6.624,7.368 C6.81600096,7.25599944 6.96799944,7.10600094 7.08,6.918 C7.19200056,6.72999906 7.248,6.52400112 7.248,6.3 C7.248,6.07599888 7.19200056,5.86800096 7.08,5.676 C6.96799944,5.48399904 6.81600096,5.33200056 6.624,5.22 C6.43199904,5.10799944 6.22400112,5.052 6,5.052 C5.77599888,5.052 5.57000094,5.10799944 5.382,5.22 C5.19399906,5.33200056 5.04400056,5.48399904 4.932,5.676 C4.81999944,5.86800096 4.764,6.07599888 4.764,6.3 C4.764,6.64400172 4.8839988,6.9359988 5.124,7.176 C5.3640012,7.4160012 5.65599828,7.536 6,7.536 Z M6,2.808 C6.6400032,2.808 7.22799732,2.96399844 7.764,3.276 C8.29200264,3.58800156 8.71199844,4.00799736 9.024,4.536 C9.33600156,5.07200268 9.492,5.6599968 9.492,6.3 C9.492,6.78800244 9.3720012,7.34799684 9.132,7.98 C8.92399896,8.51600268 8.63600184,9.09599688 8.268,9.72 C7.96399848,10.2160025 7.61600196,10.7319973 7.224,11.268 C6.95199864,11.6440019 6.66400152,12.0119982 6.36,12.372 L6,12.792 L5.64,12.372 C5.33599848,12.0119982 5.04800136,11.6440019 4.776,11.268 C4.38399804,10.7319973 4.03600152,10.2160025 3.732,9.72 C3.36399816,9.09599688 3.07600104,8.51600268 2.868,7.98 C2.6279988,7.34799684 2.508,6.78800244 2.508,6.3 C2.508,5.6599968 2.66399844,5.07200268 2.976,4.536 C3.28800156,4.00799736 3.70799736,3.58800156 4.236,3.276 C4.77200268,2.96399844 5.3599968,2.808 6,2.808 Z" transform="translate(-2 -2)"/>
</svg>
