<?xml version="1.0" encoding="utf-8"?>
<!-- Generator: Adobe Illustrator 21.0.0, SVG Export Plug-In . SVG Version: 6.00 Build 0)  -->
<svg version="1.1" id="Слой_1" xmlns="http://www.w3.org/2000/svg" xmlns:xlink="http://www.w3.org/1999/xlink" x="0px" y="0px"
	 viewBox="0 0 595.3 841.9" style="enable-background:new 0 0 595.3 841.9;" xml:space="preserve">
<style type="text/css">
	.st0{fill:#009FFF;}
	.st1{fill:#FFFFFF;}
</style>
<g>
	
		<image style="overflow:visible;opacity:0.3;" width="156" height="156" xlink:href="EDFC9D70.png"  transform="matrix(1 0 0 1 33.4803 227.3703)">
	</image>
	<g>
		<circle class="st0" cx="111" cy="304.9" r="35"/>
	</g>
</g>
<path class="st1" d="M120.1,308.3l-8.7-8.7c-0.1-0.1-0.3-0.2-0.4-0.2c-0.2,0-0.3,0.1-0.4,0.2l-8.7,8.7c-0.1,0.1-0.2,0.3-0.2,0.4
	c0,0.2,0.1,0.3,0.2,0.4l0.9,0.9c0.1,0.1,0.3,0.2,0.4,0.2c0.2,0,0.3-0.1,0.4-0.2l7.3-7.3l7.3,7.3c0.1,0.1,0.3,0.2,0.4,0.2
	c0.2,0,0.3-0.1,0.4-0.2l0.9-0.9c0.1-0.1,0.2-0.3,0.2-0.4C120.3,308.6,120.2,308.4,120.1,308.3L120.1,308.3z M120.1,308.3"/>
</svg>
