<?xml version="1.0" encoding="utf-8"?>
<!-- Generator: Adobe Illustrator 21.0.0, SVG Export Plug-In . SVG Version: 6.00 Build 0)  -->
<svg version="1.1" id="Слой_1" xmlns="http://www.w3.org/2000/svg" xmlns:xlink="http://www.w3.org/1999/xlink" x="0px" y="0px"
	 viewBox="0 0 128.7 119.7" style="enable-background:new 0 0 128.7 119.7;" xml:space="preserve">
<style type="text/css">
	.st0{fill:url(#SVGID_1_);}
	.st1{fill:url(#SVGID_2_);}
	.st2{fill:#FFFFFF;}
</style>
<linearGradient id="SVGID_1_" gradientUnits="userSpaceOnUse" x1="-847.8241" y1="-4.5296" x2="-743.5933" y2="-4.5296" gradientTransform="matrix(0.9524 0.7169 -0.4856 0.6451 821.5751 618.9676)">
	<stop  offset="0" style="stop-color:#F3F8FA"/>
	<stop  offset="1" style="stop-color:#EAF0F4"/>
</linearGradient>
<path class="st0" d="M77.1,110.8L4.1,43.2c-6.4-5.9-5.2-16,2.3-19.9L42.9,4.7C46,3.2,49.7,3,53.1,4.3l67.3,25.9
	c7.1,2.7,10.4,10.9,7,17.4l-30.8,60.3C92.9,115.1,83.2,116.5,77.1,110.8z"/>
<linearGradient id="SVGID_2_" gradientUnits="userSpaceOnUse" x1="113.7505" y1="16.8747" x2="-6.7495" y2="120.8747">
	<stop  offset="0" style="stop-color:#4194FF"/>
	<stop  offset="1" style="stop-color:#175FE1"/>
</linearGradient>
<path class="st1" d="M76.5,118.9l-50.7-12.3c-15.2-3.7-24.6-19-20.9-34.2l12.3-50.7c3.7-15.2,19-24.6,34.2-20.9l50.7,12.3
	c15.2,3.7,24.6,19,20.9,34.2L110.7,98C107,113.2,91.7,122.6,76.5,118.9z"/>
<g>
	<path class="st2" d="M37.3,63v22c0,0.9,0.7,1.6,1.6,1.6h6.4c2,0,3.8-1.3,4.4-3.2c0.1,0,0.2,0,0.3,0h23.6c3.4,0,6.7-1.6,8.8-4.4
		l7.5-10.1c1.5-2,1.2-4.8-0.7-6.4c-1.9-1.6-4.8-1.4-6.5,0.4l-4.6,4.9c-0.6-1.8-2.2-3.1-4.1-3.3c0.8-0.6,1.6-1.2,2.3-1.9
		c3.3-3.3,5.1-7.6,5.1-12.2c0-9.5-7.8-17.3-17.3-17.3c-9.5,0-17.2,7.8-17.2,17.3c0,4.3,1.6,8.4,4.4,11.5c-0.8,0.4-1.5,0.9-2.2,1.4
		c-0.8-1.2-2.3-2-3.8-2h-6.4C38,61.4,37.3,62.1,37.3,63z M49.9,50.5c0-7.8,6.3-14.2,14.1-14.2c7.8,0,14.2,6.4,14.2,14.2
		c0,7.5-5.9,13.6-13.3,14c-0.3-0.1-0.5-0.2-0.7-0.4l-0.7-0.6c-2.5-2.2-5.7-3.1-8.8-2.6C51.6,58.2,49.9,54.4,49.9,50.5z M49.9,66.8
		l1.1-1c2.9-2.6,7.4-2.6,10.3,0c0.5,0.5,2,1.8,2.7,1.8c1.3,0,8.7,0,9.5,0c0.9,0,1.6,0.7,1.6,1.6s-0.7,1.6-1.6,1.6
		c-1.1,0-10.1,0-11.2,0c-0.9,0-1.6,0.7-1.6,1.6s0.7,1.6,1.6,1.6c0.8,0,0.5,0,12.3,0c1.3,0,2.5-0.5,3.4-1.5l6.9-7.4
		c0.6-0.6,1.5-0.7,2.1-0.2c0.7,0.5,0.8,1.5,0.3,2.2l-7.5,10.1c-1.5,2-3.8,3.1-6.3,3.1H49.9V66.8z M40.4,64.5h4.8
		c0.9,0,1.6,0.7,1.6,1.6v15.7c0,0.9-0.7,1.6-1.6,1.6h-4.8V64.5z"/>
	<g>
		<path class="st2" d="M64.5,43.4c-0.5,0-0.9-0.2-1.3-0.5c-0.4-0.3-0.5-0.7-0.5-1.3c0-0.5,0.2-0.9,0.5-1.3c0.4-0.3,0.8-0.5,1.3-0.5
			c0.5,0,0.9,0.1,1.2,0.4c0.4,0.3,0.5,0.7,0.5,1.3c0,0.6-0.2,1-0.5,1.3C65.4,43.2,65,43.4,64.5,43.4z M66.3,47.1v10.4
			c0,0.7-0.2,1.3-0.5,1.6c-0.3,0.4-0.8,0.6-1.3,0.6c-0.5,0-1-0.2-1.3-0.6c-0.3-0.4-0.5-0.9-0.5-1.6V47.2c0-0.7,0.2-1.2,0.5-1.6
			c0.3-0.4,0.8-0.5,1.3-0.5c0.5,0,1,0.2,1.3,0.5C66.1,46,66.3,46.5,66.3,47.1z"/>
	</g>
</g>
</svg>
