<?xml version="1.0" encoding="utf-8"?>
<!-- Generator: Adobe Illustrator 21.0.0, SVG Export Plug-In . SVG Version: 6.00 Build 0)  -->
<svg version="1.1" id="Слой_1" xmlns="http://www.w3.org/2000/svg" xmlns:xlink="http://www.w3.org/1999/xlink" x="0px" y="0px"
	 viewBox="0 0 138.1 119.7" style="enable-background:new 0 0 138.1 119.7;" xml:space="preserve">
<style type="text/css">
	.st0{fill:url(#SVGID_1_);}
	.st1{fill:url(#SVGID_2_);}
	.st2{fill:url(#SVGID_3_);}
	.st3{fill:#FFFFFF;}
</style>
<linearGradient id="SVGID_1_" gradientUnits="userSpaceOnUse" x1="-93.329" y1="82.1129" x2="2.3788" y2="82.1129" gradientTransform="matrix(0.9722 -0.2339 0.2339 0.9722 72.0588 -18.1557)">
	<stop  offset="0" style="stop-color:#F3F8FA"/>
	<stop  offset="1" style="stop-color:#EAF0F4"/>
</linearGradient>
<path class="st0" d="M73.7,111.7L35,117.1c-15.7,2.2-30.2-8.9-32.1-24.7l-2.7-22c-1.3-10.9,3.7-21.5,13-27.4L31,31.8
	c11.9-7.6,27.6-5.2,36.8,5.6l23.6,27.8C105.8,82.3,95.8,108.6,73.7,111.7z"/>
<linearGradient id="SVGID_2_" gradientUnits="userSpaceOnUse" x1="310.1171" y1="-204.4542" x2="416.6617" y2="-204.4542" gradientTransform="matrix(0.4198 0.9076 -0.9076 0.4198 -248.2856 -192.9552)">
	<stop  offset="0" style="stop-color:#F3F8FA"/>
	<stop  offset="1" style="stop-color:#EAF0F4"/>
</linearGradient>
<path class="st1" d="M67.4,88.3L38.3,38c-7.8-13.5,3.9-29.9,19.2-26.9l52.2,10.3c10.2,2,18.3,9.9,20.6,20.1l7.4,32.6
	c2.1,9.1-4.3,17.9-13.6,18.8l-40.4,3.8C77.1,97.3,70.7,94.1,67.4,88.3z"/>
<linearGradient id="SVGID_3_" gradientUnits="userSpaceOnUse" x1="-71.0992" y1="16.8747" x2="-191.5992" y2="120.8747" gradientTransform="matrix(-1 0 0 1 -55.9998 0)">
	<stop  offset="0" style="stop-color:#4194FF"/>
	<stop  offset="1" style="stop-color:#175FE1"/>
</linearGradient>
<path class="st2" d="M52.4,118.9l50.7-12.3c15.2-3.7,24.6-19,20.9-34.2l-12.3-50.7c-3.7-15.2-19-24.6-34.2-20.9L26.7,13.1
	c-15.2,3.7-24.6,19-20.9,34.2L18.2,98C21.8,113.2,37.2,122.6,52.4,118.9z"/>
<g>
	<path class="st3" d="M72.9,69h-16C52,69,48,65,48,60.1c0-3,1.4-5.7,3.8-7.3c0.1-5.1,4.3-9.3,9.5-9.3c2.6,0,5,1,6.8,2.8
		c0.5-0.1,1.1-0.2,1.6-0.2c3.4,0,6.4,2.5,7,5.8c3.1,1.5,5.2,4.6,5.2,8.1C81.8,65,77.9,69,72.9,69z M61.3,47.2
		c-3.2,0-5.7,2.6-5.7,5.7c0,0.2,0,0.3,0,0.4c0.2,0.8-0.2,1.6-1,2c-1.7,0.9-2.8,2.7-2.8,4.7c0,2.9,2.3,5.2,5.2,5.2h16
		c2.9,0,5.2-2.3,5.2-5.2c0-2.3-1.5-4.3-3.7-5c-0.8-0.2-1.3-0.9-1.3-1.7c0-1.9-1.6-3.4-3.5-3.4c-0.5,0-1,0.1-1.5,0.3
		c-0.8,0.4-1.8,0.1-2.3-0.6C64.9,48.1,63.1,47.2,61.3,47.2z"/>
	<rect x="77.1" y="65.2" transform="matrix(0.757 -0.6535 0.6535 0.757 -27.1094 68.8507)" class="st3" width="3.7" height="11.4"/>
	<rect x="62.4" y="67.1" class="st3" width="3.7" height="8.5"/>
	<rect x="73" y="46" transform="matrix(0.7071 -0.7071 0.7071 0.7071 -10.6603 70.0668)" class="st3" width="12.4" height="3.7"/>
	
		<rect x="45.2" y="65.8" transform="matrix(0.6689 -0.7433 0.7433 0.6689 -34.0482 58.7986)" class="st3" width="7.5" height="3.7"/>
	<rect x="49.7" y="40" transform="matrix(0.6752 -0.7377 0.7377 0.6752 -16.4454 52.643)" class="st3" width="3.7" height="9.9"/>
	<path class="st3" d="M43.8,45.4c-4,0-7.3-3.2-7.3-7.2c0-4,3.3-7.3,7.3-7.3s7.3,3.3,7.3,7.3C51.1,42.1,47.8,45.4,43.8,45.4z
		 M43.8,34.5c-2,0-3.6,1.6-3.6,3.6c0,1.9,1.6,3.5,3.6,3.5c2,0,3.6-1.6,3.6-3.5C47.3,36.1,45.8,34.5,43.8,34.5z"/>
	<path class="st3" d="M86.9,46.6c-3.9,0-7-3.1-7-7s3.1-7,7-7s7,3.1,7,7S90.8,46.6,86.9,46.6z M86.9,36.3c-1.8,0-3.3,1.5-3.3,3.3
		s1.5,3.3,3.3,3.3c1.8,0,3.3-1.5,3.3-3.3S88.7,36.3,86.9,36.3z"/>
	<path class="st3" d="M85.7,87.7c-4.2,0-7.6-3.4-7.6-7.6s3.4-7.6,7.6-7.6s7.6,3.4,7.6,7.6S89.9,87.7,85.7,87.7z M85.7,76.2
		c-2.1,0-3.9,1.8-3.9,3.9c0,2.1,1.8,3.9,3.9,3.9s3.9-1.8,3.9-3.9C89.6,77.9,87.9,76.2,85.7,76.2z"/>
	<path class="st3" d="M64.3,88.8c-4.2,0-7.6-3.4-7.6-7.6s3.4-7.6,7.6-7.6s7.6,3.4,7.6,7.6S68.5,88.8,64.3,88.8z M64.3,77.3
		c-2.1,0-3.9,1.8-3.9,3.9c0,2.1,1.8,3.9,3.9,3.9c2.1,0,3.9-1.7,3.9-3.9C68.2,79.1,66.4,77.3,64.3,77.3z"/>
	<path class="st3" d="M43.5,82.8c-4.2,0-7.6-3.4-7.6-7.6s3.4-7.6,7.6-7.6s7.6,3.4,7.6,7.6C51.1,79.4,47.6,82.8,43.5,82.8z
		 M43.5,71.3c-2.1,0-3.9,1.8-3.9,3.9c0,2.1,1.8,3.9,3.9,3.9c2.1,0,3.9-1.7,3.9-3.9C47.3,73.1,45.6,71.3,43.5,71.3z"/>
</g>
</svg>
