<?xml version="1.0" encoding="utf-8"?>
<!-- Generator: Adobe Illustrator 21.0.0, SVG Export Plug-In . SVG Version: 6.00 Build 0)  -->
<svg version="1.1" id="Слой_1" xmlns="http://www.w3.org/2000/svg" xmlns:xlink="http://www.w3.org/1999/xlink" x="0px" y="0px"
	 viewBox="0 0 128.7 119.7" style="enable-background:new 0 0 128.7 119.7;" xml:space="preserve">
<style type="text/css">
	.st0{fill:url(#SVGID_1_);}
	.st1{fill:url(#SVGID_2_);}
	.st2{fill:#FFFFFF;}
</style>
<linearGradient id="SVGID_1_" gradientUnits="userSpaceOnUse" x1="-1243.1376" y1="-620.2162" x2="-1138.9069" y2="-620.2162" gradientTransform="matrix(0.9524 0.7169 -0.4856 0.6451 899.109 1299.5519)">
	<stop  offset="0" style="stop-color:#F3F8FA"/>
	<stop  offset="1" style="stop-color:#EAF0F4"/>
</linearGradient>
<path class="st0" d="M77.1,110.8L4.1,43.2c-6.4-5.9-5.2-16,2.3-19.9L42.9,4.7C46,3.2,49.7,3,53.1,4.3l67.3,25.9
	c7.1,2.7,10.4,10.9,7,17.4l-30.8,60.3C92.9,115.1,83.2,116.5,77.1,110.8z"/>
<linearGradient id="SVGID_2_" gradientUnits="userSpaceOnUse" x1="113.7505" y1="16.8747" x2="-6.7495" y2="120.8747">
	<stop  offset="0" style="stop-color:#4194FF"/>
	<stop  offset="1" style="stop-color:#175FE1"/>
</linearGradient>
<path class="st1" d="M76.5,118.9l-50.7-12.3c-15.2-3.7-24.6-19-20.9-34.2l12.3-50.7c3.7-15.2,19-24.6,34.2-20.9l50.7,12.3
	c15.2,3.7,24.6,19,20.9,34.2L110.7,98C107,113.2,91.7,122.6,76.5,118.9z"/>
<path class="st2" d="M72.3,43.5c-0.7-0.7-1.7-0.7-2.4,0c-0.7,0.7-0.7,1.7,0,2.4l12.2,12.2H41.8c-0.9,0-1.7,0.7-1.7,1.7
	c0,0.9,0.7,1.7,1.7,1.7h40.3L69.9,73.7c-0.7,0.7-0.7,1.8,0,2.4c0.7,0.7,1.8,0.7,2.4,0L87.4,61c0.7-0.7,0.7-1.7,0-2.4L72.3,43.5z
	 M72.3,43.5"/>
</svg>
