<?xml version="1.0" encoding="utf-8"?>
<!-- Generator: Adobe Illustrator 21.0.0, SVG Export Plug-In . SVG Version: 6.00 Build 0)  -->
<svg version="1.1" id="Слой_1" xmlns="http://www.w3.org/2000/svg" xmlns:xlink="http://www.w3.org/1999/xlink" x="0px" y="0px"
	 viewBox="0 0 138.1 119.7" style="enable-background:new 0 0 138.1 119.7;" xml:space="preserve">
<style type="text/css">
	.st0{fill:url(#SVGID_1_);}
	.st1{fill:url(#SVGID_2_);}
	.st2{fill:url(#SVGID_3_);}
	.st3{fill:#FFFFFF;}
</style>
<linearGradient id="SVGID_1_" gradientUnits="userSpaceOnUse" x1="-16.9381" y1="-54.2529" x2="78.7697" y2="-54.2529" gradientTransform="matrix(0.9722 -0.2339 0.2339 0.9722 29.6901 132.2973)">
	<stop  offset="0" style="stop-color:#F3F8FA"/>
	<stop  offset="1" style="stop-color:#EAF0F4"/>
</linearGradient>
<path class="st0" d="M73.7,111.7L35,117.1c-15.7,2.2-30.2-8.9-32.1-24.7l-2.7-22c-1.3-10.9,3.7-21.5,13-27.4L31,31.8
	c11.9-7.6,27.6-5.2,36.8,5.6l23.6,27.8C105.8,82.3,95.8,108.6,73.7,111.7z"/>
<linearGradient id="SVGID_2_" gradientUnits="userSpaceOnUse" x1="435.4251" y1="499.1955" x2="541.9697" y2="499.1955" gradientTransform="matrix(0.4198 0.9076 -0.9076 0.4198 337.7674 -602.0601)">
	<stop  offset="0" style="stop-color:#F3F8FA"/>
	<stop  offset="1" style="stop-color:#EAF0F4"/>
</linearGradient>
<path class="st1" d="M67.4,88.3L38.3,38c-7.8-13.5,3.9-29.9,19.2-26.9l52.2,10.3c10.2,2,18.3,9.9,20.6,20.1l7.4,32.6
	c2.1,9.1-4.3,17.9-13.6,18.8l-40.4,3.8C77.1,97.3,70.7,94.1,67.4,88.3z"/>
<linearGradient id="SVGID_3_" gradientUnits="userSpaceOnUse" x1="1154.9008" y1="16.8747" x2="1034.4008" y2="120.8747" gradientTransform="matrix(-1 0 0 1 1170.0001 0)">
	<stop  offset="0" style="stop-color:#4194FF"/>
	<stop  offset="1" style="stop-color:#175FE1"/>
</linearGradient>
<path class="st2" d="M52.4,118.9l50.7-12.3c15.2-3.7,24.6-19,20.9-34.2l-12.3-50.7c-3.7-15.2-19-24.6-34.2-20.9L26.7,13.1
	c-15.2,3.7-24.6,19-20.9,34.2L18.2,98C21.8,113.2,37.2,122.6,52.4,118.9z"/>
<path class="st3" d="M87.8,49.5c-0.4-4.9-4.5-8.8-9.5-8.8c-0.9,0-1.8,0.1-2.7,0.4c-3.1-5-8.5-8-14.5-8c-9,0-16.4,7-17.1,15.8
	c-6.7,1.7-11.6,7.8-11.6,14.8c0,8.4,6.9,15.3,15.4,15.3h11.5v5.7c0,1.1,0.9,1.9,1.9,1.9h7.6c1.1,0,1.9-0.9,1.9-1.9v-5.7h11.5
	c8.5,0,15.4-6.9,15.4-15.3C97.5,57.2,93.4,51.8,87.8,49.5z M66.8,82.7H63V69.4c0-1.1-0.9-1.9-1.9-1.9h-0.3l4.1-6.1l4.1,6.1h-0.3
	c-1.1,0-1.9,0.9-1.9,1.9V82.7z M82.1,75.1H70.6v-3.8h1.9c0.7,0,1.4-0.4,1.7-1c0.3-0.6,0.3-1.4-0.1-2l-7.6-11.5
	c-0.4-0.5-1-0.9-1.6-0.9c-0.6,0-1.2,0.3-1.6,0.9l-7.6,11.5c-0.4,0.6-0.4,1.3-0.1,2c0.3,0.6,1,1,1.7,1h1.9v3.8H47.7
	c-6.4,0-11.6-5.1-11.6-11.5c0-9.9,12.4-15.4,19.7-8.1c0.7,0.7,2,0.7,2.7,0c0.7-0.7,0.7-2,0-2.7c-2.9-2.9-6.6-4.4-10.7-4.5
	c0.9-6.5,6.5-11.5,13.2-11.5c4.5,0,8.6,2.3,11.1,6c-0.2,0.2-0.4,0.4-0.7,0.6c-0.7,0.7-0.7,2,0,2.7c0.7,0.7,2,0.7,2.7,0
	c1-1,2.5-1.7,4.1-1.7c3.2,0,5.7,2.6,5.7,5.7c0,1.5-0.6,3-1.7,4.1c-0.7,0.7-0.7,2,0,2.7c0.7,0.7,2,0.7,2.7,0c1-1,1.8-2.2,2.2-3.5
	c3.9,1.9,6.4,5.9,6.4,10.2C93.6,70,88.4,75.1,82.1,75.1z"/>
</svg>
