<?xml version="1.0" encoding="utf-8"?>
<!-- Generator: Adobe Illustrator 21.0.0, SVG Export Plug-In . SVG Version: 6.00 Build 0)  -->
<svg version="1.1" id="Слой_1" xmlns="http://www.w3.org/2000/svg" xmlns:xlink="http://www.w3.org/1999/xlink" x="0px" y="0px"
	 viewBox="0 0 132.1 119.7" style="enable-background:new 0 0 132.1 119.7;" xml:space="preserve">
<style type="text/css">
	.st0{fill:url(#SVGID_1_);}
	.st1{fill:url(#SVGID_2_);}
	.st2{fill:#FFFFFF;}
</style>
<title>Choose</title>
<linearGradient id="SVGID_1_" gradientUnits="userSpaceOnUse" x1="124.4131" y1="36.5325" x2="35.3888" y2="128.2916" gradientTransform="matrix(0.9929 -0.1193 0.1193 0.9929 -26.7122 -1.6168)">
	<stop  offset="0" style="stop-color:#F3F8FA"/>
	<stop  offset="1" style="stop-color:#EAF0F4"/>
</linearGradient>
<path class="st0" d="M37.5,11.5L81,11c8.7-0.1,16.9,4.4,21.4,11.9l26.1,42.8c9.2,15,0.1,34.6-17.3,37.3l-82.6,12.7
	c-17.3,2.7-31.8-13.1-27.8-30.1l13.1-55C16.4,19.5,26.2,11.7,37.5,11.5z"/>
<linearGradient id="SVGID_2_" gradientUnits="userSpaceOnUse" x1="115.8009" y1="16.8747" x2="-4.6991" y2="120.8747">
	<stop  offset="0" style="stop-color:#4194FF"/>
	<stop  offset="1" style="stop-color:#175FE1"/>
</linearGradient>
<path class="st1" d="M78.5,118.9l-50.7-12.3C12.6,102.9,3.3,87.5,7,72.3l12.3-50.7C23,6.4,38.3-2.9,53.5,0.8l50.7,12.3
	c15.2,3.7,24.6,19,20.9,34.2L112.7,98C109.1,113.2,93.7,122.6,78.5,118.9z"/>
<path class="st2" d="M58.2,56.1L45.3,74.7c0,0,0,0.1-0.1,0.1C42.1,80,45.9,86.6,52,86.6h28.1c6.1,0,9.9-6.7,6.7-11.9
	c0,0,0-0.1-0.1-0.1l-6.3-9.2c0,0,0,0-0.1-0.1l-6.5-9.3V42.2c1.8-0.6,3.1-2.4,3.1-4.4c0-2.6-2.1-4.7-4.7-4.7H59.7
	c-2.6,0-4.7,2.1-4.7,4.7c0,2,1.3,3.8,3.1,4.4L58.2,56.1L58.2,56.1z M80.1,83.5H52c-3.6,0-5.9-4-4.1-7.1l6.2-9
	c0.1,0.1,0.2,0.1,0.3,0.2c3.2,2.1,7.2,2.4,10.7,0.7l3.8-1.9c2.1-1.1,4.6-1.1,6.7,0l2.3,1.2l6.1,8.8C86,79.5,83.7,83.5,80.1,83.5z
	 M59.7,36.2h12.6c0.9,0,1.6,0.7,1.6,1.6s-0.7,1.6-1.6,1.6c-0.9,0-1.6,0.7-1.6,1.6v15.7c0,0.3,0.1,0.6,0.3,0.9l3.6,5.3
	c-2.4-0.5-4.9-0.2-7.1,0.9l-3.8,1.9c-2.4,1.2-5.3,1-7.5-0.5c-0.1-0.1-0.2-0.1-0.3-0.2l4.6-6.7h2.3c0.9,0,1.6-0.7,1.6-1.6
	S63.8,55,62.9,55h-1.6v-3.1h1.6c0.9,0,1.6-0.7,1.6-1.6s-0.7-1.6-1.6-1.6h-1.6v-3.1h1.6c0.9,0,1.6-0.7,1.6-1.6s-0.7-1.6-1.6-1.6h-1.6
	v-1.6c0-0.9-0.7-1.6-1.6-1.6c-0.9,0-1.6-0.7-1.6-1.6S58.9,36.2,59.7,36.2z"/>
</svg>
