<?xml version="1.0" encoding="utf-8"?>
<!-- Generator: Adobe Illustrator 21.0.0, SVG Export Plug-In . SVG Version: 6.00 Build 0)  -->
<svg version="1.1" id="Слой_1" xmlns="http://www.w3.org/2000/svg" xmlns:xlink="http://www.w3.org/1999/xlink" x="0px" y="0px"
	 viewBox="0 0 595.3 841.9" style="enable-background:new 0 0 595.3 841.9;" xml:space="preserve">
<style type="text/css">
	.st0{display:none;fill:url(#SVGID_1_);}
	.st1{clip-path:url(#SVGID_3_);}
	.st2{opacity:0.7;fill:url(#SVGID_4_);}
	.st3{opacity:0.7059;fill:url(#SVGID_5_);}
	.st4{opacity:0.7118;fill:url(#SVGID_6_);}
	.st5{opacity:0.7176;fill:url(#SVGID_7_);}
	.st6{opacity:0.7235;fill:url(#SVGID_8_);}
	.st7{opacity:0.7294;fill:url(#SVGID_9_);}
	.st8{opacity:0.7353;fill:url(#SVGID_10_);}
	.st9{opacity:0.7412;fill:url(#SVGID_11_);}
	.st10{opacity:0.7471;fill:url(#SVGID_12_);}
	.st11{opacity:0.7529;fill:url(#SVGID_13_);}
	.st12{opacity:0.7588;fill:url(#SVGID_14_);}
	.st13{opacity:0.7647;fill:url(#SVGID_15_);}
	.st14{opacity:0.7706;fill:url(#SVGID_16_);}
	.st15{opacity:0.7765;fill:url(#SVGID_17_);}
	.st16{opacity:0.7824;fill:url(#SVGID_18_);}
	.st17{opacity:0.7882;fill:url(#SVGID_19_);}
	.st18{opacity:0.7941;fill:url(#SVGID_20_);}
	.st19{opacity:0.8;fill:url(#SVGID_21_);}
	.st20{opacity:0.8059;fill:url(#SVGID_22_);}
	.st21{opacity:0.8118;fill:url(#SVGID_23_);}
	.st22{opacity:0.8176;fill:url(#SVGID_24_);}
	.st23{opacity:0.8235;fill:url(#SVGID_25_);}
	.st24{opacity:0.8294;fill:url(#SVGID_26_);}
	.st25{opacity:0.8353;fill:url(#SVGID_27_);}
	.st26{opacity:0.8412;fill:url(#SVGID_28_);}
	.st27{opacity:0.8471;fill:url(#SVGID_29_);}
	.st28{opacity:0.8529;fill:url(#SVGID_30_);}
	.st29{opacity:0.8588;fill:url(#SVGID_31_);}
	.st30{opacity:0.8647;fill:url(#SVGID_32_);}
	.st31{opacity:0.8706;fill:url(#SVGID_33_);}
	.st32{opacity:0.8765;fill:url(#SVGID_34_);}
	.st33{opacity:0.8824;fill:url(#SVGID_35_);}
	.st34{opacity:0.8882;fill:url(#SVGID_36_);}
	.st35{opacity:0.8941;fill:url(#SVGID_37_);}
	.st36{opacity:0.9;fill:url(#SVGID_38_);}
	.st37{opacity:0.9059;fill:url(#SVGID_39_);}
	.st38{opacity:0.9118;fill:url(#SVGID_40_);}
	.st39{opacity:0.9176;fill:url(#SVGID_41_);}
	.st40{opacity:0.9235;fill:url(#SVGID_42_);}
	.st41{opacity:0.9294;fill:url(#SVGID_43_);}
	.st42{opacity:0.9353;fill:url(#SVGID_44_);}
	.st43{opacity:0.9412;fill:url(#SVGID_45_);}
	.st44{opacity:0.9471;fill:url(#SVGID_46_);}
	.st45{opacity:0.9529;fill:url(#SVGID_47_);}
	.st46{opacity:0.9588;fill:url(#SVGID_48_);}
	.st47{opacity:0.9647;fill:url(#SVGID_49_);}
	.st48{opacity:0.9706;fill:url(#SVGID_50_);}
	.st49{opacity:0.9765;fill:url(#SVGID_51_);}
	.st50{opacity:0.9824;fill:url(#SVGID_52_);}
	.st51{opacity:0.9882;fill:url(#SVGID_53_);}
	.st52{opacity:0.9941;fill:url(#SVGID_54_);}
	.st53{fill:url(#SVGID_55_);}
	.st54{opacity:0.7;clip-path:url(#SVGID_3_);}
	.st55{opacity:0.3137;fill:#DCDCDC;}
	.st56{opacity:0.3;clip-path:url(#SVGID_3_);}
	.st57{opacity:0;fill:#FFFFFF;}
	.st58{opacity:1.960784e-02;fill:#FDFDFD;}
	.st59{opacity:3.921569e-02;fill:#FBFBFB;}
	.st60{opacity:5.882353e-02;fill:#F9F8F8;}
	.st61{opacity:7.843138e-02;fill:#F6F6F6;}
	.st62{opacity:9.803922e-02;fill:#F4F4F4;}
	.st63{opacity:0.1176;fill:#F2F2F2;}
	.st64{opacity:0.1373;fill:#F0F0EF;}
	.st65{opacity:0.1569;fill:#EEEDED;}
	.st66{opacity:0.1765;fill:#ECEBEB;}
	.st67{opacity:0.1961;fill:#E9E9E9;}
	.st68{opacity:0.2157;fill:#E7E7E7;}
	.st69{opacity:0.2353;fill:#E5E5E4;}
	.st70{opacity:0.2549;fill:#E3E2E2;}
	.st71{opacity:0.2745;fill:#E1E0E0;}
	.st72{opacity:0.2941;fill:#DFDEDE;}
	.st73{opacity:0.3333;fill:#DADAD9;}
	.st74{opacity:0.3529;fill:#D8D7D7;}
	.st75{opacity:0.3725;fill:#D6D5D5;}
	.st76{opacity:0.3922;fill:#D4D3D3;}
	.st77{opacity:0.4118;fill:#D2D1D0;}
	.st78{opacity:0.4314;fill:#D0CFCE;}
	.st79{opacity:0.451;fill:#CDCCCC;}
	.st80{opacity:0.4706;fill:#CBCACA;}
	.st81{opacity:0.4902;fill:#C9C8C8;}
	.st82{opacity:0.5098;fill:#C7C6C5;}
	.st83{opacity:0.5294;fill:#C5C4C3;}
	.st84{opacity:0.549;fill:#C3C2C1;}
	.st85{opacity:0.5686;fill:#C0BFBF;}
	.st86{opacity:0.5882;fill:#BEBDBD;}
	.st87{opacity:0.6078;fill:#BCBBBA;}
	.st88{opacity:0.6275;fill:#BAB9B8;}
	.st89{opacity:0.6471;fill:#B8B7B6;}
	.st90{opacity:0.6667;fill:#B6B4B4;}
	.st91{opacity:0.6863;fill:#B4B2B1;}
	.st92{opacity:0.7059;fill:#B1B0AF;}
	.st93{opacity:0.7255;fill:#AFAEAD;}
	.st94{opacity:0.7451;fill:#ADACAB;}
	.st95{opacity:0.7647;fill:#ABA9A9;}
	.st96{opacity:0.7843;fill:#A9A7A6;}
	.st97{opacity:0.8039;fill:#A7A5A4;}
	.st98{opacity:0.8235;fill:#A4A3A2;}
	.st99{opacity:0.8431;fill:#A2A1A0;}
	.st100{opacity:0.8627;fill:#A09E9E;}
	.st101{opacity:0.8824;fill:#9E9C9B;}
	.st102{opacity:0.902;fill:#9C9A99;}
	.st103{opacity:0.9216;fill:#9A9897;}
	.st104{opacity:0.9412;fill:#979695;}
	.st105{opacity:0.9608;fill:#959392;}
	.st106{opacity:0.9804;fill:#939190;}
	.st107{fill:#918F8E;}
	.st108{opacity:0.1;clip-path:url(#SVGID_3_);}
	.st109{opacity:0.5;clip-path:url(#SVGID_3_);}
	.st110{opacity:0.2;clip-path:url(#SVGID_3_);}
	.st111{opacity:0.2;}
	.st112{clip-path:url(#SVGID_57_);}
	.st113{fill:#FFFFFF;}
	.st114{opacity:0.3137;clip-path:url(#SVGID_3_);}
	.st115{fill:#DCDCDC;}
	.st116{opacity:0.2;fill:url(#SVGID_58_);}
	.st117{opacity:0.2;fill:url(#SVGID_59_);}
	.st118{opacity:0.2;fill:url(#SVGID_60_);}
	.st119{opacity:0.2;fill:url(#SVGID_61_);}
	.st120{opacity:0.2;fill:url(#SVGID_62_);}
	.st121{opacity:0.2;fill:url(#SVGID_63_);}
	.st122{fill:url(#SVGID_64_);}
	.st123{fill:url(#SVGID_65_);}
	.st124{fill:url(#SVGID_66_);}
	.st125{fill:url(#SVGID_67_);}
	.st126{fill:url(#SVGID_68_);}
	.st127{fill:url(#SVGID_69_);}
</style>
<radialGradient id="SVGID_1_" cx="282.2348" cy="403.3767" r="58.9374" gradientUnits="userSpaceOnUse">
	<stop  offset="0" style="stop-color:#4194FF"/>
	<stop  offset="1" style="stop-color:#175FE1"/>
</radialGradient>
<circle class="st0" cx="282.2" cy="403.4" r="58.9"/>
<g>
	<defs>
		<circle id="SVGID_2_" cx="282.2" cy="403.4" r="58.9"/>
	</defs>
	<clipPath id="SVGID_3_">
		<use xlink:href="#SVGID_2_"  style="overflow:visible;"/>
	</clipPath>
	<g class="st1">
		<radialGradient id="SVGID_4_" cx="282.2348" cy="403.3767" r="58.9374" gradientUnits="userSpaceOnUse">
			<stop  offset="0" style="stop-color:#4292FD"/>
			<stop  offset="1" style="stop-color:#175FDF"/>
		</radialGradient>
		<circle class="st2" cx="282.2" cy="403.4" r="58.9"/>
		
			<radialGradient id="SVGID_5_" cx="282.4766" cy="403.1247" r="59.2875" gradientTransform="matrix(1 0 0 1.0007 0 -0.2983)" gradientUnits="userSpaceOnUse">
			<stop  offset="0" style="stop-color:#4292FD"/>
			<stop  offset="1" style="stop-color:#175FDF"/>
		</radialGradient>
		<circle class="st3" cx="282.2" cy="403.4" r="58.9"/>
		
			<radialGradient id="SVGID_6_" cx="282.7178" cy="402.8735" r="59.6379" gradientTransform="matrix(1 0 0 1.0015 0 -0.5963)" gradientUnits="userSpaceOnUse">
			<stop  offset="0" style="stop-color:#4292FD"/>
			<stop  offset="1" style="stop-color:#175FDF"/>
		</radialGradient>
		<circle class="st4" cx="282.3" cy="403.4" r="58.8"/>
		
			<radialGradient id="SVGID_7_" cx="282.9584" cy="402.6229" r="59.9888" gradientTransform="matrix(1 0 0 1.0022 0 -0.8938)" gradientUnits="userSpaceOnUse">
			<stop  offset="0" style="stop-color:#4292FD"/>
			<stop  offset="1" style="stop-color:#175FDF"/>
		</radialGradient>
		<circle class="st5" cx="282.3" cy="403.5" r="58.7"/>
		
			<radialGradient id="SVGID_8_" cx="283.1984" cy="402.373" r="60.3401" gradientTransform="matrix(1 0 0 1.003 0 -1.191)" gradientUnits="userSpaceOnUse">
			<stop  offset="0" style="stop-color:#4292FD"/>
			<stop  offset="1" style="stop-color:#175FDF"/>
		</radialGradient>
		<circle class="st6" cx="282.3" cy="403.5" r="58.6"/>
		
			<radialGradient id="SVGID_9_" cx="283.4378" cy="402.1239" r="60.6918" gradientTransform="matrix(1 0 0 1.0037 0 -1.4879)" gradientUnits="userSpaceOnUse">
			<stop  offset="0" style="stop-color:#4292FD"/>
			<stop  offset="1" style="stop-color:#175FDF"/>
		</radialGradient>
		<circle class="st7" cx="282.3" cy="403.5" r="58.6"/>
		
			<radialGradient id="SVGID_10_" cx="283.6767" cy="401.8754" r="61.0441" gradientTransform="matrix(1 0 0 1.0044 0 -1.7843)" gradientUnits="userSpaceOnUse">
			<stop  offset="0" style="stop-color:#4292FD"/>
			<stop  offset="1" style="stop-color:#175FDF"/>
		</radialGradient>
		<circle class="st8" cx="282.3" cy="403.5" r="58.5"/>
		
			<radialGradient id="SVGID_11_" cx="283.915" cy="401.6276" r="61.3968" gradientTransform="matrix(1 0 0 1.0052 0 -2.0804)" gradientUnits="userSpaceOnUse">
			<stop  offset="0" style="stop-color:#4292FD"/>
			<stop  offset="1" style="stop-color:#175FDF"/>
		</radialGradient>
		<circle class="st9" cx="282.3" cy="403.6" r="58.4"/>
		
			<radialGradient id="SVGID_12_" cx="284.1527" cy="401.3806" r="61.75" gradientTransform="matrix(1 0 0 1.0059 0 -2.3762)" gradientUnits="userSpaceOnUse">
			<stop  offset="0" style="stop-color:#4292FD"/>
			<stop  offset="1" style="stop-color:#175FDF"/>
		</radialGradient>
		<circle class="st10" cx="282.3" cy="403.6" r="58.4"/>
		
			<radialGradient id="SVGID_13_" cx="284.3898" cy="401.1342" r="62.1038" gradientTransform="matrix(1 0 0 1.0067 0 -2.6716)" gradientUnits="userSpaceOnUse">
			<stop  offset="0" style="stop-color:#4292FD"/>
			<stop  offset="1" style="stop-color:#175FDF"/>
		</radialGradient>
		<circle class="st11" cx="282.3" cy="403.6" r="58.3"/>
		
			<radialGradient id="SVGID_14_" cx="284.6264" cy="400.8885" r="62.4581" gradientTransform="matrix(1 0 0 1.0074 0 -2.9666)" gradientUnits="userSpaceOnUse">
			<stop  offset="0" style="stop-color:#4292FD"/>
			<stop  offset="1" style="stop-color:#175FDF"/>
		</radialGradient>
		<circle class="st12" cx="282.3" cy="403.7" r="58.2"/>
		
			<radialGradient id="SVGID_15_" cx="284.8624" cy="400.6435" r="62.8129" gradientTransform="matrix(1 0 0 1.0081 0 -3.2612)" gradientUnits="userSpaceOnUse">
			<stop  offset="0" style="stop-color:#4292FD"/>
			<stop  offset="1" style="stop-color:#175FDF"/>
		</radialGradient>
		<circle class="st13" cx="282.3" cy="403.7" r="58.1"/>
		
			<radialGradient id="SVGID_16_" cx="285.0978" cy="400.3992" r="63.1683" gradientTransform="matrix(1 0 0 1.0089 0 -3.5555)" gradientUnits="userSpaceOnUse">
			<stop  offset="0" style="stop-color:#4292FD"/>
			<stop  offset="1" style="stop-color:#175FDF"/>
		</radialGradient>
		<circle class="st14" cx="282.3" cy="403.7" r="58.1"/>
		
			<radialGradient id="SVGID_17_" cx="285.3326" cy="400.1556" r="63.5243" gradientTransform="matrix(1 0 0 1.0096 0 -3.8495)" gradientUnits="userSpaceOnUse">
			<stop  offset="0" style="stop-color:#4292FD"/>
			<stop  offset="1" style="stop-color:#175FDF"/>
		</radialGradient>
		<circle class="st15" cx="282.4" cy="403.8" r="58"/>
		
			<radialGradient id="SVGID_18_" cx="285.5668" cy="399.9127" r="63.8809" gradientTransform="matrix(1 0 0 1.0104 0 -4.1431)" gradientUnits="userSpaceOnUse">
			<stop  offset="0" style="stop-color:#4292FD"/>
			<stop  offset="1" style="stop-color:#175FDF"/>
		</radialGradient>
		<circle class="st16" cx="282.4" cy="403.8" r="57.9"/>
		
			<radialGradient id="SVGID_19_" cx="285.8005" cy="399.6705" r="64.238" gradientTransform="matrix(1 0 0 1.0111 0 -4.4363)" gradientUnits="userSpaceOnUse">
			<stop  offset="0" style="stop-color:#4292FD"/>
			<stop  offset="1" style="stop-color:#175FDF"/>
		</radialGradient>
		<circle class="st17" cx="282.4" cy="403.8" r="57.8"/>
		
			<radialGradient id="SVGID_20_" cx="286.0336" cy="399.429" r="64.5958" gradientTransform="matrix(1 0 0 1.0118 0 -4.7292)" gradientUnits="userSpaceOnUse">
			<stop  offset="0" style="stop-color:#4292FD"/>
			<stop  offset="1" style="stop-color:#175FDF"/>
		</radialGradient>
		<circle class="st18" cx="282.4" cy="403.8" r="57.8"/>
		
			<radialGradient id="SVGID_21_" cx="286.2661" cy="399.1882" r="64.9542" gradientTransform="matrix(1 0 0 1.0126 0 -5.0218)" gradientUnits="userSpaceOnUse">
			<stop  offset="0" style="stop-color:#4292FD"/>
			<stop  offset="1" style="stop-color:#175FDF"/>
		</radialGradient>
		<circle class="st19" cx="282.4" cy="403.9" r="57.7"/>
		
			<radialGradient id="SVGID_22_" cx="286.498" cy="398.9481" r="65.3133" gradientTransform="matrix(1 0 0 1.0133 0 -5.314)" gradientUnits="userSpaceOnUse">
			<stop  offset="0" style="stop-color:#4292FD"/>
			<stop  offset="1" style="stop-color:#175FDF"/>
		</radialGradient>
		<circle class="st20" cx="282.4" cy="403.9" r="57.6"/>
		
			<radialGradient id="SVGID_23_" cx="286.7294" cy="398.7087" r="65.673" gradientTransform="matrix(1 0 0 1.0141 0 -5.6058)" gradientUnits="userSpaceOnUse">
			<stop  offset="0" style="stop-color:#4292FD"/>
			<stop  offset="1" style="stop-color:#175FDF"/>
		</radialGradient>
		<circle class="st21" cx="282.4" cy="403.9" r="57.5"/>
		
			<radialGradient id="SVGID_24_" cx="286.9602" cy="398.4699" r="66.0333" gradientTransform="matrix(1 0 0 1.0148 0 -5.8974)" gradientUnits="userSpaceOnUse">
			<stop  offset="0" style="stop-color:#4292FD"/>
			<stop  offset="1" style="stop-color:#175FDF"/>
		</radialGradient>
		<circle class="st22" cx="282.4" cy="404" r="57.5"/>
		
			<radialGradient id="SVGID_25_" cx="287.1904" cy="398.2319" r="66.3944" gradientTransform="matrix(1 0 0 1.0155 0 -6.1885)" gradientUnits="userSpaceOnUse">
			<stop  offset="0" style="stop-color:#4292FD"/>
			<stop  offset="1" style="stop-color:#175FDF"/>
		</radialGradient>
		<circle class="st23" cx="282.4" cy="404" r="57.4"/>
		
			<radialGradient id="SVGID_26_" cx="287.42" cy="397.9946" r="66.7561" gradientTransform="matrix(1 0 0 1.0163 0 -6.4794)" gradientUnits="userSpaceOnUse">
			<stop  offset="0" style="stop-color:#4292FD"/>
			<stop  offset="1" style="stop-color:#175FDF"/>
		</radialGradient>
		<circle class="st24" cx="282.4" cy="404" r="57.3"/>
		
			<radialGradient id="SVGID_27_" cx="287.649" cy="397.758" r="67.1185" gradientTransform="matrix(1 0 0 1.017 0 -6.7698)" gradientUnits="userSpaceOnUse">
			<stop  offset="0" style="stop-color:#4292FD"/>
			<stop  offset="1" style="stop-color:#175FDF"/>
		</radialGradient>
		<circle class="st25" cx="282.4" cy="404" r="57.3"/>
		
			<radialGradient id="SVGID_28_" cx="287.8775" cy="397.5221" r="67.4817" gradientTransform="matrix(1 0 0 1.0178 0 -7.06)" gradientUnits="userSpaceOnUse">
			<stop  offset="0" style="stop-color:#4292FD"/>
			<stop  offset="1" style="stop-color:#175FDF"/>
		</radialGradient>
		<circle class="st26" cx="282.5" cy="404.1" r="57.2"/>
		
			<radialGradient id="SVGID_29_" cx="288.1054" cy="397.2868" r="67.8455" gradientTransform="matrix(1 0 0 1.0185 0 -7.3498)" gradientUnits="userSpaceOnUse">
			<stop  offset="0" style="stop-color:#4292FD"/>
			<stop  offset="1" style="stop-color:#175FDF"/>
		</radialGradient>
		<circle class="st27" cx="282.5" cy="404.1" r="57.1"/>
		
			<radialGradient id="SVGID_30_" cx="288.3327" cy="397.0523" r="68.2101" gradientTransform="matrix(1 0 0 1.0192 0 -7.6393)" gradientUnits="userSpaceOnUse">
			<stop  offset="0" style="stop-color:#4292FD"/>
			<stop  offset="1" style="stop-color:#175FDF"/>
		</radialGradient>
		<circle class="st28" cx="282.5" cy="404.1" r="57"/>
		
			<radialGradient id="SVGID_31_" cx="288.5594" cy="396.8185" r="68.5754" gradientTransform="matrix(1 0 0 1.02 0 -7.9284)" gradientUnits="userSpaceOnUse">
			<stop  offset="0" style="stop-color:#4292FD"/>
			<stop  offset="1" style="stop-color:#175FDF"/>
		</radialGradient>
		<circle class="st29" cx="282.5" cy="404.2" r="57"/>
		
			<radialGradient id="SVGID_32_" cx="288.7856" cy="396.5853" r="68.9415" gradientTransform="matrix(1 0 0 1.0207 0 -8.2172)" gradientUnits="userSpaceOnUse">
			<stop  offset="0" style="stop-color:#4292FD"/>
			<stop  offset="1" style="stop-color:#175FDF"/>
		</radialGradient>
		<circle class="st30" cx="282.5" cy="404.2" r="56.9"/>
		
			<radialGradient id="SVGID_33_" cx="289.0112" cy="396.3528" r="69.3084" gradientTransform="matrix(1 0 0 1.0215 0 -8.5057)" gradientUnits="userSpaceOnUse">
			<stop  offset="0" style="stop-color:#4292FD"/>
			<stop  offset="1" style="stop-color:#175FDF"/>
		</radialGradient>
		<circle class="st31" cx="282.5" cy="404.2" r="56.8"/>
		
			<radialGradient id="SVGID_34_" cx="289.2361" cy="396.1211" r="69.676" gradientTransform="matrix(1 0 0 1.0222 0 -8.7939)" gradientUnits="userSpaceOnUse">
			<stop  offset="0" style="stop-color:#4292FD"/>
			<stop  offset="1" style="stop-color:#175FDF"/>
		</radialGradient>
		<circle class="st32" cx="282.5" cy="404.2" r="56.7"/>
		
			<radialGradient id="SVGID_35_" cx="289.4606" cy="395.89" r="70.0444" gradientTransform="matrix(1 0 0 1.0229 0 -9.0817)" gradientUnits="userSpaceOnUse">
			<stop  offset="0" style="stop-color:#4292FD"/>
			<stop  offset="1" style="stop-color:#175FDF"/>
		</radialGradient>
		<circle class="st33" cx="282.5" cy="404.3" r="56.7"/>
		
			<radialGradient id="SVGID_36_" cx="289.6844" cy="395.6597" r="70.4136" gradientTransform="matrix(1 0 0 1.0237 0 -9.3692)" gradientUnits="userSpaceOnUse">
			<stop  offset="0" style="stop-color:#4292FD"/>
			<stop  offset="1" style="stop-color:#175FDF"/>
		</radialGradient>
		<circle class="st34" cx="282.5" cy="404.3" r="56.6"/>
		
			<radialGradient id="SVGID_37_" cx="289.9077" cy="395.4301" r="70.7836" gradientTransform="matrix(1 0 0 1.0244 0 -9.6564)" gradientUnits="userSpaceOnUse">
			<stop  offset="0" style="stop-color:#4292FD"/>
			<stop  offset="1" style="stop-color:#175FDF"/>
		</radialGradient>
		<circle class="st35" cx="282.5" cy="404.3" r="56.5"/>
		
			<radialGradient id="SVGID_38_" cx="290.1304" cy="395.2011" r="71.1544" gradientTransform="matrix(1 0 0 1.0252 0 -9.9433)" gradientUnits="userSpaceOnUse">
			<stop  offset="0" style="stop-color:#4292FD"/>
			<stop  offset="1" style="stop-color:#175FDF"/>
		</radialGradient>
		<circle class="st36" cx="282.5" cy="404.4" r="56.5"/>
		
			<radialGradient id="SVGID_39_" cx="290.3525" cy="394.9728" r="71.526" gradientTransform="matrix(1 0 0 1.0259 0 -10.2298)" gradientUnits="userSpaceOnUse">
			<stop  offset="0" style="stop-color:#4292FD"/>
			<stop  offset="1" style="stop-color:#175FDF"/>
		</radialGradient>
		<circle class="st37" cx="282.5" cy="404.4" r="56.4"/>
		
			<radialGradient id="SVGID_40_" cx="290.574" cy="394.7452" r="71.8985" gradientTransform="matrix(1 0 0 1.0266 0 -10.516)" gradientUnits="userSpaceOnUse">
			<stop  offset="0" style="stop-color:#4292FD"/>
			<stop  offset="1" style="stop-color:#175FDF"/>
		</radialGradient>
		<circle class="st38" cx="282.6" cy="404.4" r="56.3"/>
		
			<radialGradient id="SVGID_41_" cx="290.795" cy="394.5184" r="72.2718" gradientTransform="matrix(1 0 0 1.0274 0 -10.8019)" gradientUnits="userSpaceOnUse">
			<stop  offset="0" style="stop-color:#4292FD"/>
			<stop  offset="1" style="stop-color:#175FDF"/>
		</radialGradient>
		<circle class="st39" cx="282.6" cy="404.4" r="56.2"/>
		
			<radialGradient id="SVGID_42_" cx="291.0154" cy="394.2922" r="72.6459" gradientTransform="matrix(1 0 0 1.0281 0 -11.0875)" gradientUnits="userSpaceOnUse">
			<stop  offset="0" style="stop-color:#4292FD"/>
			<stop  offset="1" style="stop-color:#175FDF"/>
		</radialGradient>
		<circle class="st40" cx="282.6" cy="404.5" r="56.2"/>
		
			<radialGradient id="SVGID_43_" cx="291.2351" cy="394.0667" r="73.0209" gradientTransform="matrix(1 0 0 1.0289 0 -11.3728)" gradientUnits="userSpaceOnUse">
			<stop  offset="0" style="stop-color:#4292FD"/>
			<stop  offset="1" style="stop-color:#175FDF"/>
		</radialGradient>
		<circle class="st41" cx="282.6" cy="404.5" r="56.1"/>
		
			<radialGradient id="SVGID_44_" cx="291.4544" cy="393.8419" r="73.3968" gradientTransform="matrix(1 0 0 1.0296 0 -11.6577)" gradientUnits="userSpaceOnUse">
			<stop  offset="0" style="stop-color:#4292FD"/>
			<stop  offset="1" style="stop-color:#175FDF"/>
		</radialGradient>
		<circle class="st42" cx="282.6" cy="404.5" r="56"/>
		
			<radialGradient id="SVGID_45_" cx="291.673" cy="393.6179" r="73.7735" gradientTransform="matrix(1 0 0 1.0303 0 -11.9424)" gradientUnits="userSpaceOnUse">
			<stop  offset="0" style="stop-color:#4292FD"/>
			<stop  offset="1" style="stop-color:#175FDF"/>
		</radialGradient>
		<circle class="st43" cx="282.6" cy="404.6" r="55.9"/>
		
			<radialGradient id="SVGID_46_" cx="291.8911" cy="393.3945" r="74.1511" gradientTransform="matrix(1 0 0 1.0311 0 -12.2267)" gradientUnits="userSpaceOnUse">
			<stop  offset="0" style="stop-color:#4292FD"/>
			<stop  offset="1" style="stop-color:#175FDF"/>
		</radialGradient>
		<circle class="st44" cx="282.6" cy="404.6" r="55.9"/>
		
			<radialGradient id="SVGID_47_" cx="292.1086" cy="393.1718" r="74.5296" gradientTransform="matrix(1 0 0 1.0318 0 -12.5107)" gradientUnits="userSpaceOnUse">
			<stop  offset="0" style="stop-color:#4292FD"/>
			<stop  offset="1" style="stop-color:#175FDF"/>
		</radialGradient>
		<circle class="st45" cx="282.6" cy="404.6" r="55.8"/>
		
			<radialGradient id="SVGID_48_" cx="292.3255" cy="392.9498" r="74.9089" gradientTransform="matrix(1 0 0 1.0326 0 -12.7944)" gradientUnits="userSpaceOnUse">
			<stop  offset="0" style="stop-color:#4292FD"/>
			<stop  offset="1" style="stop-color:#175FDF"/>
		</radialGradient>
		<circle class="st46" cx="282.6" cy="404.6" r="55.7"/>
		
			<radialGradient id="SVGID_49_" cx="292.5418" cy="392.7285" r="75.2892" gradientTransform="matrix(1 0 0 1.0333 0 -13.0779)" gradientUnits="userSpaceOnUse">
			<stop  offset="0" style="stop-color:#4292FD"/>
			<stop  offset="1" style="stop-color:#175FDF"/>
		</radialGradient>
		<circle class="st47" cx="282.6" cy="404.7" r="55.6"/>
		
			<radialGradient id="SVGID_50_" cx="292.7576" cy="392.5079" r="75.6704" gradientTransform="matrix(1 0 0 1.034 0 -13.361)" gradientUnits="userSpaceOnUse">
			<stop  offset="0" style="stop-color:#4292FD"/>
			<stop  offset="1" style="stop-color:#175FDF"/>
		</radialGradient>
		<circle class="st48" cx="282.6" cy="404.7" r="55.6"/>
		
			<radialGradient id="SVGID_51_" cx="292.9727" cy="392.288" r="76.0524" gradientTransform="matrix(1 0 0 1.0348 0 -13.6438)" gradientUnits="userSpaceOnUse">
			<stop  offset="0" style="stop-color:#4292FD"/>
			<stop  offset="1" style="stop-color:#175FDF"/>
		</radialGradient>
		<circle class="st49" cx="282.7" cy="404.7" r="55.5"/>
		
			<radialGradient id="SVGID_52_" cx="293.1873" cy="392.0688" r="76.4354" gradientTransform="matrix(1 0 0 1.0355 0 -13.9263)" gradientUnits="userSpaceOnUse">
			<stop  offset="0" style="stop-color:#4292FD"/>
			<stop  offset="1" style="stop-color:#175FDF"/>
		</radialGradient>
		<circle class="st50" cx="282.7" cy="404.8" r="55.4"/>
		
			<radialGradient id="SVGID_53_" cx="293.4014" cy="391.8503" r="76.8193" gradientTransform="matrix(1 0 0 1.0363 0 -14.2085)" gradientUnits="userSpaceOnUse">
			<stop  offset="0" style="stop-color:#4292FD"/>
			<stop  offset="1" style="stop-color:#175FDF"/>
		</radialGradient>
		<circle class="st51" cx="282.7" cy="404.8" r="55.4"/>
		
			<radialGradient id="SVGID_54_" cx="293.6148" cy="391.6325" r="77.2042" gradientTransform="matrix(1 0 0 1.037 0 -14.4904)" gradientUnits="userSpaceOnUse">
			<stop  offset="0" style="stop-color:#4292FD"/>
			<stop  offset="1" style="stop-color:#175FDF"/>
		</radialGradient>
		<circle class="st52" cx="282.7" cy="404.8" r="55.3"/>
		
			<radialGradient id="SVGID_55_" cx="293.8277" cy="391.4153" r="77.5899" gradientTransform="matrix(1 0 0 1.0377 0 -14.772)" gradientUnits="userSpaceOnUse">
			<stop  offset="0" style="stop-color:#4292FD"/>
			<stop  offset="1" style="stop-color:#175FDF"/>
		</radialGradient>
		<circle class="st53" cx="282.7" cy="404.8" r="55.2"/>
	</g>
	<g class="st54">
		<ellipse class="st55" cx="244.7" cy="392.9" rx="1.7" ry="1.7"/>
	</g>
	<g class="st56">
		<path class="st57" d="M280.8,415.5c-37.4-8.5-75.5-27.9-79.6-9.9c-4.1,18,23.5,60.3,61.1,67.1c34.6,6.3,91-6.1,90.7-35.4
			C353,418.9,318.2,424,280.8,415.5z"/>
		<path class="st58" d="M280.7,416.2c-36.9-8.4-74.4-27.5-78.4-9.9c-4,17.7,23.3,59.2,60.4,66c34.2,6.3,89.7-5.9,89.4-34.7
			C351.8,419.6,317.5,424.5,280.7,416.2z"/>
		<path class="st59" d="M280.5,416.9c-36.3-8.2-73.4-27.1-77.3-9.8c-3.9,17.3,23.1,58.2,59.6,64.9c33.8,6.2,88.3-5.8,88.1-34
			C350.7,420.2,316.7,425.1,280.5,416.9z"/>
		<path class="st60" d="M280.3,417.6c-35.8-8.1-72.3-26.8-76.2-9.8c-3.8,17,22.8,57.2,58.8,63.8c33.4,6.1,87-5.6,86.7-33.3
			C349.5,420.9,315.9,425.7,280.3,417.6z"/>
		<path class="st61" d="M280.1,418.3c-35.3-8-71.3-26.4-75-9.7c-3.8,16.7,22.6,56.1,58,62.7c32.9,6.1,85.6-5.5,85.4-32.6
			C348.3,421.5,315.1,426.2,280.1,418.3z"/>
		<path class="st62" d="M280,419c-34.8-7.9-70.2-26-73.9-9.6c-3.7,16.3,22.4,55.1,57.2,61.5c32.5,6,84.3-5.3,84-31.9
			C347.2,422.2,314.4,426.8,280,419z"/>
		<path class="st63" d="M279.8,419.7c-34.3-7.8-69.1-25.6-72.8-9.6c-3.6,16,22.1,54.1,56.4,60.4c32.1,5.9,82.9-5.2,82.7-31.2
			C346,422.9,313.6,427.4,279.8,419.7z"/>
		<path class="st64" d="M279.6,420.4c-33.8-7.7-68.1-25.2-71.6-9.5c-3.5,15.7,21.9,53.1,55.6,59.3c31.7,5.9,81.6-5,81.3-30.5
			C344.8,423.5,312.8,427.9,279.6,420.4z"/>
		<path class="st65" d="M279.4,421.1c-33.3-7.6-67-24.8-70.5-9.5c-3.5,15.4,21.6,52,54.8,58.2c31.3,5.8,80.2-4.9,80-29.8
			C343.7,424.2,312.1,428.5,279.4,421.1z"/>
		<path class="st66" d="M279.3,421.8c-32.7-7.5-65.9-24.4-69.3-9.4c-3.4,15,21.4,51,54.1,57c30.9,5.7,78.8-4.8,78.7-29.1
			C342.5,424.9,311.3,429.1,279.3,421.8z"/>
		<path class="st67" d="M279.1,422.4c-32.2-7.4-64.9-24-68.2-9.3c-3.3,14.7,21.2,50,53.3,55.9c30.5,5.7,77.5-4.6,77.3-28.4
			C341.4,425.5,310.5,429.6,279.1,422.4z"/>
		<path class="st68" d="M278.9,423.1c-31.7-7.3-63.8-23.7-67.1-9.3c-3.3,14.4,20.9,48.9,52.5,54.8c30.1,5.6,76.1-4.5,76-27.7
			C340.2,426.2,309.8,430.2,278.9,423.1z"/>
		<path class="st69" d="M278.7,423.8c-31.2-7.2-62.8-23.3-65.9-9.2c-3.2,14,20.7,47.9,51.7,53.7c29.7,5.6,74.8-4.3,74.6-27
			C339,426.9,309,430.8,278.7,423.8z"/>
		<path class="st70" d="M278.5,424.5c-30.7-7.1-61.7-22.9-64.8-9.2c-3.1,13.7,20.5,46.9,50.9,52.5c29.3,5.5,73.4-4.2,73.3-26.3
			C337.9,427.5,308.2,431.3,278.5,424.5z"/>
		<path class="st71" d="M278.4,425.2c-30.2-7-60.6-22.5-63.7-9.1c-3,13.4,20.2,45.8,50.1,51.4c28.9,5.4,72.1-4,71.9-25.6
			C336.7,428.2,307.5,431.9,278.4,425.2z"/>
		<path class="st72" d="M278.2,425.9c-29.7-6.9-59.6-22.1-62.5-9.1c-3,13,20,44.8,49.3,50.3c28.5,5.4,70.7-3.9,70.6-24.9
			C335.5,428.8,306.7,432.5,278.2,425.9z"/>
		<path class="st55" d="M278,426.6c-29.1-6.8-58.5-21.7-61.4-9c-2.9,12.7,19.7,43.8,48.5,49.2c28.1,5.3,69.4-3.7,69.2-24.2
			C334.4,429.5,305.9,433.1,278,426.6z"/>
		<path class="st73" d="M277.8,427.3c-28.6-6.7-57.4-21.3-60.2-8.9c-2.8,12.4,19.5,42.7,47.8,48c27.7,5.2,68-3.6,67.9-23.5
			C333.2,430.2,305.2,433.6,277.8,427.3z"/>
		<path class="st74" d="M277.7,428c-28.1-6.6-56.4-20.9-59.1-8.9c-2.7,12.1,19.3,41.7,47,46.9c27.3,5.2,66.7-3.4,66.6-22.8
			C332.1,430.8,304.4,434.2,277.7,428z"/>
		<path class="st75" d="M277.5,428.7c-27.6-6.5-55.3-20.6-58-8.8c-2.7,11.7,19,40.7,46.2,45.8c26.9,5.1,65.3-3.3,65.2-22.1
			C330.9,431.5,303.6,434.8,277.5,428.7z"/>
		<path class="st76" d="M277.3,429.4c-27.1-6.4-54.3-20.2-56.8-8.8c-2.6,11.4,18.8,39.7,45.4,44.7c26.5,5,63.9-3.1,63.9-21.4
			C329.7,432.2,302.8,435.3,277.3,429.4z"/>
		<path class="st77" d="M277.1,430.1c-26.6-6.3-53.2-19.8-55.7-8.7c-2.5,11.1,18.6,38.6,44.6,43.5c26.1,5,62.6-3,62.5-20.7
			C328.6,432.8,302.1,435.9,277.1,430.1z"/>
		<path class="st78" d="M276.9,430.8c-26.1-6.2-52.1-19.4-54.6-8.7c-2.4,10.7,18.3,37.6,43.8,42.4c25.7,4.9,61.2-2.8,61.2-20
			C327.4,433.5,301.3,436.5,276.9,430.8z"/>
		<path class="st79" d="M276.8,431.5c-25.6-6.1-51.1-19-53.4-8.6c-2.4,10.4,18.1,36.6,43,41.3c25.2,4.8,59.8-2.7,59.8-19.3
			C326.2,434.2,300.5,437,276.8,431.5z"/>
		<path class="st80" d="M276.6,432.2c-25-6-50-18.6-52.3-8.5c-2.3,10.1,17.8,35.5,42.3,40.2c24.8,4.8,58.5-2.6,58.5-18.6
			C325.1,434.8,299.8,437.6,276.6,432.2z"/>
		<path class="st81" d="M276.4,432.9c-24.5-5.9-48.9-18.2-51.2-8.5c-2.2,9.8,17.6,34.5,41.5,39c24.4,4.7,57.1-2.4,57.1-17.9
			C323.9,435.5,299,438.2,276.4,432.9z"/>
		<path class="st82" d="M276.2,433.6c-24-5.7-47.9-17.8-50-8.4c-2.1,9.4,17.4,33.5,40.7,37.9c24,4.7,55.8-2.3,55.8-17.2
			C322.7,436.2,298.2,438.7,276.2,433.6z"/>
		<path class="st83" d="M276.1,434.2c-23.5-5.6-46.8-17.5-48.9-8.4c-2.1,9.1,17.1,32.4,39.9,36.8c23.6,4.6,54.4-2.1,54.5-16.5
			C321.6,436.8,297.5,439.3,276.1,434.2z"/>
		<path class="st84" d="M275.9,434.9c-23-5.5-45.8-17.1-47.7-8.3c-2,8.8,16.9,31.4,39.1,35.7c23.2,4.5,53.1-2,53.1-15.8
			C320.4,437.5,296.7,439.9,275.9,434.9z"/>
		<path class="st85" d="M275.7,435.6c-22.5-5.4-44.7-16.7-46.6-8.2c-1.9,8.4,16.7,30.4,38.3,34.5c22.8,4.5,51.7-1.8,51.8-15.1
			C319.2,438.1,295.9,440.5,275.7,435.6z"/>
		<path class="st86" d="M275.5,436.3c-22-5.3-43.6-16.3-45.5-8.2c-1.8,8.1,16.4,29.3,37.5,33.4c22.4,4.4,50.3-1.7,50.4-14.4
			C318.1,438.8,295.1,441,275.5,436.3z"/>
		<path class="st87" d="M275.4,437c-21.5-5.2-42.6-15.9-44.3-8.1c-1.8,7.8,16.2,28.3,36.7,32.3c22,4.3,49-1.5,49.1-13.7
			C316.9,439.5,294.4,441.6,275.4,437z"/>
		<path class="st88" d="M275.2,437.7c-20.9-5.1-41.5-15.5-43.2-8.1c-1.7,7.4,15.9,27.3,36,31.2c21.6,4.3,47.6-1.4,47.7-13
			C315.7,440.1,293.6,442.2,275.2,437.7z"/>
		<path class="st89" d="M275,438.4c-20.4-5-40.5-15.1-42.1-8c-1.6,7.1,15.7,26.2,35.2,30c21.2,4.2,46.3-1.2,46.4-12.3
			C314.6,440.8,292.8,442.8,275,438.4z"/>
		<path class="st90" d="M274.8,439.1c-19.9-4.9-39.4-14.7-40.9-8c-1.5,6.8,15.5,25.2,34.4,28.9c20.8,4.1,44.9-1.1,45.1-11.6
			C313.4,441.5,292.1,443.3,274.8,439.1z"/>
		<path class="st91" d="M274.6,439.8c-19.4-4.8-38.3-14.4-39.8-7.9c-1.5,6.5,15.2,24.2,33.6,27.8c20.4,4.1,43.6-0.9,43.7-11
			C312.3,442.1,291.3,443.9,274.6,439.8z"/>
		<path class="st92" d="M274.5,440.5c-18.9-4.7-37.3-14-38.7-7.8c-1.4,6.1,15,23.2,32.8,26.7c20,4,42.2-0.8,42.4-10.3
			C311.1,442.8,290.5,444.5,274.5,440.5z"/>
		<path class="st93" d="M274.3,441.2c-18.4-4.5-36.2-13.6-37.5-7.8c-1.3,5.8,14.8,22.1,32,25.5c19.6,3.9,40.9-0.6,41-9.6
			C309.9,443.5,289.8,445,274.3,441.2z"/>
		<path class="st94" d="M274.1,441.9c-17.9-4.4-35.1-13.2-36.4-7.7c-1.2,5.5,14.5,21.1,31.2,24.4c19.2,3.9,39.5-0.5,39.7-8.9
			C308.8,444.1,289,445.6,274.1,441.9z"/>
		<path class="st95" d="M273.9,442.6c-17.3-4.3-34.1-12.8-35.2-7.7c-1.2,5.1,14.3,20.1,30.4,23.3c18.8,3.8,38.1-0.4,38.3-8.2
			C307.6,444.8,288.2,446.2,273.9,442.6z"/>
		<path class="st96" d="M273.8,443.3c-16.8-4.2-33-12.4-34.1-7.6c-1.1,4.8,14,19,29.7,22.2c18.4,3.8,36.8-0.2,37-7.5
			C306.4,445.5,287.5,446.7,273.8,443.3z"/>
		<path class="st97" d="M273.6,444c-16.3-4.1-32-12-33-7.6c-1,4.5,13.8,18,28.9,21c18,3.7,35.4-0.1,35.6-6.8
			C305.3,446.1,286.7,447.3,273.6,444z"/>
		<path class="st98" d="M273.4,444.7c-15.8-4-30.9-11.6-31.8-7.5c-0.9,4.1,13.6,17,28.1,19.9c17.5,3.6,34.1,0.1,34.3-6.1
			C304.1,446.8,285.9,447.9,273.4,444.7z"/>
		<path class="st99" d="M273.2,445.4c-15.3-3.9-29.8-11.3-30.7-7.4c-0.9,3.8,13.3,15.9,27.3,18.8c17.1,3.6,32.7,0.2,33-5.4
			C302.9,447.4,285.2,448.4,273.2,445.4z"/>
		<path class="st100" d="M273.1,446.1c-14.8-3.8-28.8-10.9-29.6-7.4c-0.8,3.5,13.1,14.9,26.5,17.7c16.7,3.5,31.4,0.4,31.6-4.7
			C301.8,448.1,284.4,449,273.1,446.1z"/>
		<path class="st101" d="M272.9,446.7c-14.3-3.7-27.7-10.5-28.4-7.3c-0.7,3.2,12.9,13.9,25.7,16.5c16.3,3.4,30,0.5,30.3-4
			C300.6,448.8,283.6,449.6,272.9,446.7z"/>
		<path class="st102" d="M272.7,447.4c-13.7-3.6-26.6-10.1-27.3-7.3c-0.6,2.8,12.6,12.8,24.9,15.4c15.9,3.4,28.7,0.7,28.9-3.3
			C299.5,449.4,282.9,450.1,272.7,447.4z"/>
		<path class="st103" d="M272.5,448.1c-13.2-3.5-25.6-9.7-26.2-7.2c-0.6,2.5,12.4,11.8,24.2,14.3c15.5,3.3,27.3,0.8,27.6-2.6
			C298.3,450.1,282.1,450.7,272.5,448.1z"/>
		<path class="st104" d="M272.3,448.8c-12.7-3.5-24.5-9.3-25-7.2c-0.5,2.2,12.1,10.8,23.4,13.2c15.1,3.2,26,1,26.2-1.9
			C297.1,450.8,281.3,451.2,272.3,448.8z"/>
		<path class="st105" d="M272.2,449.5c-12.2-3.3-23.5-8.9-23.9-7.1c-0.4,1.8,11.9,9.7,22.6,12c14.7,3.2,24.6,1.1,24.9-1.2
			C296,451.4,280.6,451.8,272.2,449.5z"/>
		<path class="st106" d="M272,450.2c-11.7-3.2-22.4-8.5-22.7-7c-0.3,1.5,11.7,8.7,21.8,10.9c14.3,3.1,23.3,1.3,23.6-0.5
			C294.8,452.1,279.8,452.4,272,450.2z"/>
		<path class="st107" d="M271.8,450.9c-11.2-3.1-21.3-8.2-21.6-7c-0.3,1.2,11.4,7.7,21,9.8c13.9,3,21.9,1.4,22.2,0.2
			C293.7,452.8,279,452.9,271.8,450.9z"/>
	</g>
	<g class="st108">
		<path class="st57" d="M299.6,393.5c-18.5-25.6-45.5-48.1-33.2-57c12.3-8.9,53.2-1.6,70.6,24.6c16,24.1,24.8,70.9,2.5,80.1
			C325.5,447,318.1,419,299.6,393.5z"/>
		<path class="st58" d="M300.1,393.1c-18.2-25.2-44.9-47.5-32.8-56.2c12.1-8.7,52.4-1.5,69.5,24.4c15.8,23.8,24.5,69.8,2.6,78.9
			C325.6,445.9,318.3,418.3,300.1,393.1z"/>
		<path class="st59" d="M300.5,392.8c-18-24.8-44.2-46.8-32.4-55.3c11.9-8.6,51.5-1.3,68.4,24.1c15.6,23.6,24.2,68.7,2.7,77.6
			C325.7,444.8,318.4,417.5,300.5,392.8z"/>
		<path class="st60" d="M301,392.4c-17.7-24.5-43.6-46.1-32-54.5c11.6-8.4,50.7-1.2,67.3,23.9c15.4,23.3,23.8,67.7,2.8,76.4
			C325.8,443.7,318.6,416.7,301,392.4z"/>
		<path class="st61" d="M301.5,392.1c-17.5-24.1-43-45.4-31.6-53.7c11.4-8.2,49.8-1,66.2,23.7c15.2,23,23.5,66.6,2.9,75.2
			C326,442.6,318.8,416,301.5,392.1z"/>
		<path class="st62" d="M301.9,391.7c-17.2-23.8-42.3-44.7-31.2-52.8c11.2-8.1,48.9-0.9,65,23.4c15.1,22.7,23.2,65.5,3,73.9
			C326.1,441.5,319,415.2,301.9,391.7z"/>
		<path class="st63" d="M302.4,391.3c-17-23.4-41.7-44.1-30.7-52c10.9-7.9,48.1-0.7,63.9,23.2c14.9,22.4,22.8,64.4,3.1,72.7
			C326.2,440.4,319.2,414.5,302.4,391.3z"/>
		<path class="st64" d="M302.9,391c-16.8-23.1-41.1-43.4-30.3-51.1c10.7-7.8,47.2-0.6,62.8,23c14.7,22.1,22.5,63.4,3.2,71.4
			C326.3,439.3,319.3,413.7,302.9,391z"/>
		<path class="st65" d="M303.3,390.6c-16.5-22.7-40.4-42.7-29.9-50.3c10.5-7.6,46.4-0.4,61.7,22.7c14.5,21.8,22.2,62.3,3.3,70.2
			C326.5,438.2,319.5,412.9,303.3,390.6z"/>
		<path class="st66" d="M303.8,390.3c-16.3-22.4-39.8-42-29.5-49.4c10.3-7.4,45.5-0.3,60.6,22.5c14.3,21.6,21.9,61.2,3.4,68.9
			C326.6,437.1,319.7,412.2,303.8,390.3z"/>
		<path class="st67" d="M304.3,389.9c-16-22-39.2-41.3-29.1-48.6c10-7.3,44.7-0.1,59.5,22.3c14.2,21.3,21.5,60.1,3.5,67.7
			C326.7,436,319.9,411.4,304.3,389.9z"/>
		<path class="st68" d="M304.7,389.5c-15.8-21.6-38.5-40.7-28.7-47.8c9.8-7.1,43.8,0,58.4,22c14,21,21.2,59.1,3.6,66.5
			C326.9,435,320.1,410.6,304.7,389.5z"/>
		<path class="st69" d="M305.2,389.2c-15.5-21.3-37.9-40-28.3-46.9c9.6-6.9,42.9,0.2,57.3,21.8c13.8,20.7,20.9,58,3.7,65.2
			C327,433.9,320.3,409.9,305.2,389.2z"/>
		<path class="st70" d="M305.7,388.8c-15.3-20.9-37.2-39.3-27.9-46.1c9.4-6.8,42.1,0.3,56.2,21.6c13.6,20.4,20.6,56.9,3.7,64
			C327.1,432.8,320.4,409.1,305.7,388.8z"/>
		<path class="st71" d="M306.2,388.5c-15-20.6-36.6-38.6-27.5-45.2c9.1-6.6,41.2,0.5,55.1,21.3c13.4,20.1,20.2,55.9,3.8,62.7
			C327.2,431.7,320.6,408.3,306.2,388.5z"/>
		<path class="st72" d="M306.6,388.1c-14.8-20.2-36-37.9-27.1-44.4c8.9-6.4,40.4,0.7,54,21.1c13.3,19.8,19.9,54.8,3.9,61.5
			C327.4,430.6,320.8,407.6,306.6,388.1z"/>
		<path class="st55" d="M307.1,387.8c-14.6-19.9-35.3-37.3-26.6-43.6c8.7-6.3,39.5,0.8,52.9,20.9c13.1,19.5,19.6,53.7,4,60.2
			C327.5,429.5,321,406.8,307.1,387.8z"/>
		<path class="st73" d="M307.6,387.4c-14.3-19.5-34.7-36.6-26.2-42.7c8.5-6.1,38.7,1,51.8,20.6c12.9,19.3,19.3,52.6,4.1,59
			C327.6,428.4,321.2,406,307.6,387.4z"/>
		<path class="st74" d="M308,387c-14.1-19.2-34.1-35.9-25.8-41.9c8.2-6,37.8,1.1,50.7,20.4c12.7,19,18.9,51.6,4.2,57.8
			C327.7,427.3,321.3,405.3,308,387z"/>
		<path class="st75" d="M308.5,386.7c-13.8-18.8-33.4-35.2-25.4-41c8-5.8,36.9,1.3,49.6,20.2c12.5,18.7,18.6,50.5,4.3,56.5
			C327.9,426.2,321.5,404.5,308.5,386.7z"/>
		<path class="st76" d="M309,386.3c-13.6-18.4-32.8-34.6-25-40.2c7.8-5.6,36.1,1.4,48.5,19.9c12.4,18.4,18.3,49.4,4.4,55.3
			C328,425.1,321.7,403.7,309,386.3z"/>
		<path class="st77" d="M309.4,386c-13.3-18.1-32.2-33.9-24.6-39.3c7.6-5.5,35.2,1.6,47.4,19.7c12.2,18.1,17.9,48.3,4.5,54
			C328.1,424,321.9,403,309.4,386z"/>
		<path class="st78" d="M309.9,385.6c-13.1-17.7-31.5-33.2-24.2-38.5c7.3-5.3,34.4,1.7,46.3,19.5c12,17.8,17.6,47.3,4.6,52.8
			C328.3,422.9,322.1,402.2,309.9,385.6z"/>
		<path class="st79" d="M310.4,385.2c-12.8-17.4-30.9-32.5-23.8-37.7c7.1-5.1,33.5,1.9,45.1,19.2c11.8,17.5,17.3,46.2,4.7,51.5
			C328.4,421.8,322.3,401.4,310.4,385.2z"/>
		<path class="st80" d="M310.8,384.9c-12.6-17-30.2-31.8-23.4-36.8c6.9-5,32.7,2,44,19c11.6,17.3,17,45.1,4.8,50.3
			C328.5,420.7,322.4,400.7,310.8,384.9z"/>
		<path class="st81" d="M311.3,384.5c-12.3-16.7-29.6-31.2-22.9-36c6.7-4.8,31.8,2.2,42.9,18.8c11.5,17,16.6,44,4.9,49.1
			C328.6,419.6,322.6,399.9,311.3,384.5z"/>
		<path class="st82" d="M311.8,384.2c-12.1-16.3-29-30.5-22.5-35.1c6.4-4.7,30.9,2.3,41.8,18.5c11.3,16.7,16.3,42.9,5,47.8
			C328.8,418.5,322.8,399.1,311.8,384.2z"/>
		<path class="st83" d="M312.2,383.8c-11.9-16-28.3-29.8-22.1-34.3c6.2-4.5,30.1,2.5,40.7,18.3c11.1,16.4,16,41.9,5.1,46.6
			C328.9,417.4,323,398.4,312.2,383.8z"/>
		<path class="st84" d="M312.7,383.5C301.1,367.8,285,354.3,291,350c6-4.3,29.2,2.6,39.6,18.1c10.9,16.1,15.7,40.8,5.2,45.3
			C329,416.3,323.2,397.6,312.7,383.5z"/>
		<path class="st85" d="M313.2,383.1c-11.3-15.3-27.1-28.4-21.3-32.6c5.8-4.2,28.4,2.8,38.5,17.9c10.7,15.8,15.3,39.7,5.3,44.1
			C329.1,415.2,323.4,396.8,313.2,383.1z"/>
		<path class="st86" d="M313.6,382.7c-11.1-14.9-26.4-27.8-20.9-31.8c5.5-4,27.5,3,37.4,17.6c10.6,15.5,15,38.7,5.4,42.8
			C329.3,414.1,323.6,396.1,313.6,382.7z"/>
		<path class="st87" d="M314.1,382.4c-10.8-14.6-25.8-27.1-20.5-30.9c5.3-3.8,26.7,3.1,36.3,17.4c10.4,15.3,14.7,37.6,5.5,41.6
			C329.4,413,323.7,395.3,314.1,382.4z"/>
		<path class="st88" d="M314.6,382c-10.6-14.2-25.2-26.4-20.1-30.1c5.1-3.7,25.8,3.3,35.2,17.2c10.2,15,14.3,36.5,5.5,40.4
			C329.5,411.9,323.9,394.5,314.6,382z"/>
		<path class="st89" d="M315.1,381.7c-10.4-13.9-24.5-25.7-19.7-29.2c4.9-3.5,24.9,3.4,34.1,16.9c10,14.7,14,35.4,5.6,39.1
			C329.6,410.8,324.1,393.8,315.1,381.7z"/>
		<path class="st90" d="M315.5,381.3c-10.1-13.5-23.9-25.1-19.2-28.4c4.6-3.4,24.1,3.6,33,16.7c9.8,14.4,13.7,34.4,5.7,37.9
			C329.8,409.8,324.3,393,315.5,381.3z"/>
		<path class="st91" d="M316,380.9c-9.9-13.1-23.2-24.4-18.8-27.6c4.4-3.2,23.2,3.7,31.9,16.5c9.7,14.1,13.4,33.3,5.8,36.6
			C329.9,408.7,324.5,392.2,316,380.9z"/>
		<path class="st92" d="M316.5,380.6c-9.6-12.8-22.6-23.7-18.4-26.7c4.2-3,22.4,3.9,30.8,16.2c9.5,13.8,13,32.2,5.9,35.4
			C330,407.6,324.6,391.5,316.5,380.6z"/>
		<path class="st93" d="M316.9,380.2c-9.4-12.4-22-23-18-25.9c4-2.9,21.5,4,29.7,16c9.3,13.5,12.7,31.1,6,34.1
			C330.2,406.5,324.8,390.7,316.9,380.2z"/>
		<path class="st94" d="M317.4,379.9c-9.1-12.1-21.3-22.3-17.6-25c3.7-2.7,20.7,4.2,28.6,15.8c9.1,13.3,12.4,30.1,6.1,32.9
			C330.3,405.4,325,389.9,317.4,379.9z"/>
		<path class="st95" d="M317.9,379.5c-8.9-11.7-20.7-21.7-17.2-24.2c3.5-2.5,19.8,4.3,27.5,15.5c9,13,12.1,29,6.2,31.7
			C330.4,404.3,325.2,389.2,317.9,379.5z"/>
		<path class="st96" d="M318.3,379.2c-8.6-11.4-20.1-21-16.8-23.4c3.3-2.4,18.9,4.5,26.3,15.3c8.8,12.7,11.7,27.9,6.3,30.4
			C330.5,403.2,325.4,388.4,318.3,379.2z"/>
		<path class="st97" d="M318.8,378.8c-8.4-11-19.4-20.3-16.4-22.5c3.1-2.2,18.1,4.6,25.2,15.1c8.6,12.4,11.4,26.8,6.4,29.2
			C330.7,402.1,325.5,387.6,318.8,378.8z"/>
		<path class="st98" d="M319.3,378.4c-8.2-10.7-18.8-19.6-16-21.7c2.8-2.1,17.2,4.8,24.1,14.8c8.4,12.1,11.1,25.8,6.5,27.9
			C330.8,401,325.7,386.9,319.3,378.4z"/>
		<path class="st99" d="M319.7,378.1c-7.9-10.3-18.2-18.9-15.5-20.8c2.6-1.9,16.4,4.9,23,14.6c8.2,11.8,10.7,24.7,6.6,26.7
			C330.9,399.9,325.9,386.1,319.7,378.1z"/>
		<path class="st100" d="M320.2,377.7c-7.7-9.9-17.5-18.3-15.1-20c2.4-1.7,15.5,5.1,21.9,14.4c8.1,11.5,10.4,23.6,6.7,25.4
			C331,398.8,326.1,385.3,320.2,377.7z"/>
		<path class="st101" d="M320.7,377.4c-7.4-9.6-16.9-17.6-14.7-19.1c2.2-1.6,14.6,5.2,20.8,14.1c7.9,11.3,10.1,22.6,6.8,24.2
			C331.2,397.7,326.3,384.6,320.7,377.4z"/>
		<path class="st102" d="M321.1,377c-7.2-9.2-16.2-16.9-14.3-18.3c1.9-1.4,13.8,5.4,19.7,13.9c7.7,11,9.8,21.5,6.9,23
			C331.3,396.6,326.4,383.8,321.1,377z"/>
		<path class="st103" d="M321.6,376.6c-6.9-8.9-15.6-16.2-13.9-17.5c1.7-1.2,12.9,5.6,18.6,13.7c7.5,10.7,9.4,20.4,7,21.7
			C331.4,395.5,326.6,383.1,321.6,376.6z"/>
		<path class="st104" d="M322.1,376.3c-6.7-8.5-15-15.6-13.5-16.6c1.5-1.1,12.1,5.7,17.5,13.4c7.3,10.4,9.1,19.3,7.1,20.5
			C331.5,394.4,326.8,382.3,322.1,376.3z"/>
		<path class="st105" d="M322.5,375.9c-6.5-8.1-14.3-14.9-13.1-15.8c1.3-0.9,11.2,5.9,16.4,13.2c7.2,10.1,8.8,18.3,7.2,19.2
			C331.7,393.3,327,381.5,322.5,375.9z"/>
		<path class="st106" d="M323,375.6c-6.2-7.8-13.7-14.2-12.7-14.9c1-0.7,10.4,6,15.3,13c7,9.8,8.5,17.2,7.2,18
			C331.8,392.3,327.2,380.8,323,375.6z"/>
		<path class="st107" d="M323.5,375.2c-6-7.4-13.1-13.5-12.3-14.1c0.8-0.6,9.5,6.2,14.2,12.7c6.8,9.5,8.2,16.2,7.3,16.7
			C331.9,391.2,327.3,380,323.5,375.2z"/>
	</g>
	<g class="st109">
		<ellipse class="st55" cx="315.3" cy="394.3" rx="2.3" ry="2.3"/>
	</g>
	<g class="st110">
		<defs>
			<path id="SVGID_56_" class="st111" d="M286.1,442c-31.6-1.1-55.3-26.7-50-59.9c0.2-1.4-0.2,1.4,0,0c-8.2,11.6-7.5,20.8-5.7,30.9
				c4.1,23.5,23.4,45.6,54.2,44.9c26.8-0.7,46.2-22.8,48.7-44.7C324.8,433.1,310,442.8,286.1,442z"/>
		</defs>
		<clipPath id="SVGID_57_">
			<use xlink:href="#SVGID_56_"  style="overflow:visible;"/>
		</clipPath>
		<g class="st112">
			<path class="st57" d="M293.1,375c-37-6.4-89.1,15.1-101.3,64.6c-12.3,49.5,23.1,77.3,61,79.4c34.9,2,80.6-24.6,92.9-74.1
				C358,395.3,330.1,381.4,293.1,375z"/>
			<path class="st58" d="M292.7,376.6c-36.4-6.3-87.4,14.8-99.4,63.4c-12,48.6,22.6,75.9,59.9,78c34.3,1.9,79.2-24.2,91.2-72.8
				C356.4,396.6,329.1,382.9,292.7,376.6z"/>
			<path class="st59" d="M292.3,378.2c-35.7-6.2-85.8,14.6-97.6,62.3c-11.8,47.7,22.2,74.5,58.8,76.6c33.6,1.9,77.7-23.7,89.5-71.4
				C354.8,397.9,328,384.4,292.3,378.2z"/>
			<path class="st60" d="M291.9,379.8c-35-6.1-84.1,14.3-95.7,61.1c-11.6,46.8,21.8,73.1,57.6,75.2c33,1.9,76.2-23.3,87.8-70.1
				C353.2,399.2,326.9,385.9,291.9,379.8z"/>
			<path class="st61" d="M291.5,381.5c-34.3-6-82.5,14.1-93.8,59.9c-11.4,45.9,21.3,71.7,56.5,73.7c32.4,1.8,74.7-22.8,86.1-68.7
				C351.6,400.5,325.8,387.4,291.5,381.5z"/>
			<path class="st62" d="M291.1,383.1c-33.6-5.8-80.8,13.8-92,58.8c-11.1,45,20.9,70.3,55.4,72.3c31.7,1.8,73.2-22.4,84.4-67.4
				C350,401.8,324.8,389,291.1,383.1z"/>
			<path class="st63" d="M290.7,384.7c-33-5.7-79.2,13.5-90.1,57.6c-10.9,44.1,20.4,68.9,54.2,70.9c31.1,1.8,71.7-22,82.7-66
				C348.4,403.1,323.7,390.5,290.7,384.7z"/>
			<path class="st64" d="M290.3,386.4c-32.3-5.6-77.5,13.3-88.2,56.4c-10.7,43.2,20,67.5,53.1,69.4c30.4,1.8,70.3-21.5,81-64.7
				C346.8,404.4,322.6,392,290.3,386.4z"/>
			<path class="st65" d="M289.9,388c-31.6-5.5-75.9,13-86.3,55.3c-10.5,42.3,19.5,66.1,51.9,68c29.8,1.7,68.8-21.1,79.2-63.3
				C345.2,405.7,321.5,393.5,289.9,388z"/>
			<path class="st66" d="M289.5,389.6c-30.9-5.4-74.2,12.8-84.5,54.1c-10.2,41.4,19.1,64.8,50.8,66.6c29.2,1.7,67.3-20.6,77.5-62
				C343.6,407,320.5,395,289.5,389.6z"/>
			<path class="st67" d="M289.1,391.3c-30.2-5.3-72.6,12.5-82.6,52.9c-10,40.4,18.7,63.4,49.7,65.2c28.5,1.7,65.8-20.2,75.8-60.6
				C342,408.3,319.4,396.5,289.1,391.3z"/>
			<path class="st68" d="M288.7,392.9c-29.6-5.1-70.9,12.2-80.7,51.8c-9.8,39.5,18.2,62,48.5,63.7c27.9,1.6,64.3-19.7,74.1-59.3
				C340.5,409.6,318.3,398,288.7,392.9z"/>
			<path class="st69" d="M288.3,394.5c-28.9-5-69.3,12-78.9,50.6c-9.6,38.6,17.8,60.6,47.4,62.3c27.3,1.6,62.9-19.3,72.4-57.9
				C338.9,410.9,317.2,399.5,288.3,394.5z"/>
			<path class="st70" d="M288,396.1c-28.2-4.9-67.6,11.7-77,49.5c-9.3,37.7,17.3,59.2,46.2,60.9c26.6,1.6,61.4-18.8,70.7-56.6
				C337.3,412.2,316.2,401.1,288,396.1z"/>
			<path class="st71" d="M287.6,397.8c-27.5-4.8-66,11.5-75.1,48.3c-9.1,36.8,16.9,57.8,45.1,59.5c26,1.5,59.9-18.4,69-55.2
				C335.7,413.5,315.1,402.6,287.6,397.8z"/>
			<path class="st72" d="M287.2,399.4c-26.9-4.7-64.3,11.2-73.2,47.1c-8.9,35.9,16.5,56.4,44,58c25.4,1.5,58.4-17.9,67.3-53.8
				C334.1,414.8,314,404.1,287.2,399.4z"/>
			<path class="st55" d="M286.8,401c-26.2-4.6-62.7,10.9-71.4,46c-8.7,35,16,55,42.8,56.6c24.7,1.5,56.9-17.5,65.6-52.5
				C332.5,416.1,312.9,405.6,286.8,401z"/>
			<path class="st73" d="M286.4,402.7c-25.5-4.4-61.1,10.7-69.5,44.8c-8.4,34.1,15.6,53.6,41.7,55.2c24.1,1.5,55.4-17,63.9-51.1
				C330.9,417.4,311.9,407.1,286.4,402.7z"/>
			<path class="st74" d="M286,404.3c-24.8-4.3-59.4,10.4-67.6,43.6c-8.2,33.2,15.1,52.2,40.5,53.8c23.4,1.4,54-16.6,62.2-49.8
				C329.3,418.7,310.8,408.6,286,404.3z"/>
			<path class="st75" d="M285.6,405.9c-24.1-4.2-57.8,10.2-65.8,42.5c-8,32.3,14.7,50.8,39.4,52.3c22.8,1.4,52.5-16.2,60.5-48.4
				C327.7,420,309.7,410.1,285.6,405.9z"/>
			<path class="st76" d="M285.2,407.6c-23.5-4.1-56.1,9.9-63.9,41.3c-7.8,31.4,14.2,49.4,38.3,50.9c22.2,1.4,51-15.7,58.8-47.1
				C326.1,421.3,308.6,411.6,285.2,407.6z"/>
			<path class="st77" d="M284.8,409.2c-22.8-4-54.5,9.7-62,40.1c-7.5,30.5,13.8,48,37.1,49.5c21.5,1.3,49.5-15.3,57.1-45.7
				C324.5,422.6,307.6,413.1,284.8,409.2z"/>
			<path class="st78" d="M284.4,410.8c-22.1-3.8-52.8,9.4-60.1,39c-7.3,29.6,13.4,46.6,36,48c20.9,1.3,48-14.8,55.4-44.4
				C322.9,423.9,306.5,414.7,284.4,410.8z"/>
			<path class="st79" d="M284,412.4c-21.4-3.7-51.2,9.1-58.3,37.8c-7.1,28.7,12.9,45.2,34.8,46.6c20.3,1.3,46.6-14.4,53.6-43
				C321.3,425.2,305.4,416.2,284,412.4z"/>
			<path class="st80" d="M283.6,414.1c-20.8-3.6-49.5,8.9-56.4,36.6c-6.9,27.7,12.5,43.9,33.7,45.2c19.6,1.2,45.1-13.9,51.9-41.7
				C319.7,426.5,304.3,417.7,283.6,414.1z"/>
			<path class="st81" d="M283.2,415.7c-20.1-3.5-47.9,8.6-54.5,35.5c-6.6,26.8,12,42.5,32.6,43.8c19,1.2,43.6-13.5,50.2-40.3
				C318.1,427.8,303.3,419.2,283.2,415.7z"/>
			<path class="st82" d="M282.8,417.3c-19.4-3.4-46.2,8.4-52.7,34.3c-6.4,25.9,11.6,41.1,31.4,42.3c18.4,1.2,42.1-13,48.5-39
				C316.5,429.1,302.2,420.7,282.8,417.3z"/>
			<path class="st83" d="M282.4,419c-18.7-3.3-44.6,8.1-50.8,33.1c-6.2,25,11.1,39.7,30.3,40.9c17.7,1.2,40.6-12.6,46.8-37.6
				C314.9,430.4,301.1,422.2,282.4,419z"/>
			<path class="st84" d="M282,420.6c-18-3.1-42.9,7.8-48.9,32c-6,24.1,10.7,38.3,29.2,39.5c17.1,1.1,39.1-12.1,45.1-36.3
				C313.3,431.7,300,423.7,282,420.6z"/>
			<path class="st85" d="M281.6,422.2c-17.4-3-41.3,7.6-47,30.8c-5.7,23.2,10.3,36.9,28,38.1c16.4,1.1,37.7-11.7,43.4-34.9
				C311.7,433,299,425.2,281.6,422.2z"/>
			<path class="st86" d="M281.2,423.9c-16.7-2.9-39.6,7.3-45.2,29.6c-5.5,22.3,9.8,35.5,26.9,36.6c15.8,1.1,36.2-11.2,41.7-33.5
				C310.1,434.3,297.9,426.8,281.2,423.9z"/>
			<path class="st87" d="M280.8,425.5c-16-2.8-38,7.1-43.3,28.5c-5.3,21.4,9.4,34.1,25.7,35.2c15.2,1,34.7-10.8,40-32.2
				C308.5,435.5,296.8,428.3,280.8,425.5z"/>
			<path class="st88" d="M280.4,427.1c-15.3-2.7-36.4,6.8-41.4,27.3c-5.1,20.5,8.9,32.7,24.6,33.8c14.5,1,33.2-10.4,38.3-30.8
				C307,436.8,295.7,429.8,280.4,427.1z"/>
			<path class="st89" d="M280,428.7c-14.6-2.5-34.7,6.5-39.6,26.1c-4.8,19.6,8.5,31.3,23.5,32.3c13.9,1,31.7-9.9,36.6-29.5
				C305.4,438.1,294.7,431.3,280,428.7z"/>
			<path class="st90" d="M279.6,430.4c-14-2.4-33.1,6.3-37.7,25c-4.6,18.7,8,29.9,22.3,30.9c13.3,0.9,30.3-9.5,34.9-28.1
				C303.8,439.4,293.6,432.8,279.6,430.4z"/>
			<path class="st91" d="M279.2,432c-13.3-2.3-31.4,6-35.8,23.8c-4.4,17.8,7.6,28.5,21.2,29.5c12.6,0.9,28.8-9,33.2-26.8
				C302.2,440.7,292.5,434.3,279.2,432z"/>
			<path class="st92" d="M278.8,433.6c-12.6-2.2-29.8,5.8-33.9,22.6c-4.2,16.9,7.2,27.1,20,28.1c12,0.9,27.3-8.6,31.5-25.4
				C300.6,442,291.4,435.8,278.8,433.6z"/>
			<path class="st93" d="M278.4,435.3c-11.9-2.1-28.1,5.5-32.1,21.5c-3.9,16,6.7,25.7,18.9,26.6c11.3,0.8,25.8-8.1,29.8-24.1
				C299,443.3,290.4,437.3,278.4,435.3z"/>
			<path class="st94" d="M278,436.9c-11.3-2-26.5,5.2-30.2,20.3c-3.7,15,6.3,24.4,17.8,25.2c10.7,0.8,24.3-7.7,28.1-22.7
				C297.4,444.6,289.3,438.8,278,436.9z"/>
			<path class="st95" d="M277.6,438.5c-10.6-1.8-24.8,5-28.3,19.1c-3.5,14.1,5.8,23,16.6,23.8c10.1,0.8,22.8-7.2,26.3-21.4
				C295.8,445.9,288.2,440.4,277.6,438.5z"/>
			<path class="st96" d="M277.2,440.2c-9.9-1.7-23.2,4.7-26.5,18c-3.3,13.2,5.4,21.6,15.5,22.4c9.4,0.8,21.4-6.8,24.6-20
				C294.2,447.2,287.1,441.9,277.2,440.2z"/>
			<path class="st97" d="M276.9,441.8c-9.2-1.6-21.5,4.5-24.6,16.8c-3.1,12.3,4.9,20.2,14.3,20.9c8.8,0.7,19.9-6.3,22.9-18.7
				C292.6,448.5,286.1,443.4,276.9,441.8z"/>
			<path class="st98" d="M276.5,443.4c-8.5-1.5-19.9,4.2-22.7,15.6c-2.8,11.4,4.5,18.8,13.2,19.5c8.2,0.7,18.4-5.9,21.2-17.3
				C291,449.8,285,444.9,276.5,443.4z"/>
			<path class="st99" d="M276.1,445c-7.9-1.4-18.2,3.9-20.8,14.5c-2.6,10.5,4.1,17.4,12.1,18.1c7.5,0.7,16.9-5.4,19.5-16
				C289.4,451.1,283.9,446.4,276.1,445z"/>
			<path class="st100" d="M275.7,446.7c-7.2-1.2-16.6,3.7-19,13.3c-2.4,9.6,3.6,16,10.9,16.7c6.9,0.6,15.4-5,17.8-14.6
				C287.8,452.4,282.8,447.9,275.7,446.7z"/>
			<path class="st101" d="M275.3,448.3c-6.5-1.1-14.9,3.4-17.1,12.1c-2.2,8.7,3.2,14.6,9.8,15.2c6.3,0.6,14-4.6,16.1-13.2
				C286.2,453.7,281.8,449.4,275.3,448.3z"/>
			<path class="st102" d="M274.9,449.9c-5.8-1-13.3,3.2-15.2,11c-1.9,7.8,2.7,13.2,8.6,13.8c5.6,0.6,12.5-4.1,14.4-11.9
				C284.6,455,280.7,450.9,274.9,449.9z"/>
			<path class="st103" d="M274.5,451.6c-5.1-0.9-11.7,2.9-13.4,9.8c-1.7,6.9,2.3,11.8,7.5,12.4c5,0.5,11-3.7,12.7-10.5
				C283,456.3,279.6,452.5,274.5,451.6z"/>
			<path class="st104" d="M274.1,453.2c-4.5-0.8-10,2.7-11.5,8.6c-1.5,6,1.8,10.4,6.4,10.9c4.3,0.5,9.5-3.2,11-9.2
				C281.4,457.6,278.5,454,274.1,453.2z"/>
			<path class="st105" d="M273.7,454.8c-3.8-0.7-8.4,2.4-9.6,7.5c-1.3,5.1,1.4,9,5.2,9.5c3.7,0.5,8-2.8,9.3-7.8
				C279.8,458.9,277.5,455.5,273.7,454.8z"/>
			<path class="st106" d="M273.3,456.4c-3.1-0.5-6.7,2.1-7.7,6.3c-1,4.2,1,7.6,4.1,8.1c3.1,0.5,6.5-2.3,7.6-6.5
				C278.2,460.2,276.4,457,273.3,456.4z"/>
			<path class="st107" d="M272.9,458.1c-2.4-0.4-5.1,1.9-5.9,5.1c-0.8,3.3,0.5,6.2,3,6.7c2.4,0.4,5.1-1.9,5.9-5.1
				C276.6,461.5,275.3,458.5,272.9,458.1z"/>
		</g>
	</g>
	<g class="st56">
		<g>
			<path class="st113" d="M227.1,407c-0.2-2.6-3.3-4.7-6.9-4.6c-3.6,0.1-6.2,2.2-6,4.9c0.2,2.6,3.3,4.7,6.9,4.6
				C224.6,411.8,227.3,409.7,227.1,407z"/>
		</g>
	</g>
	<g class="st114">
		<g>
			<path class="st115" d="M306,381.3c-1-0.9-0.8-2.8,0.4-4.2c1.2-1.4,2.9-1.7,3.9-0.8c1,0.9,0.8,2.8-0.4,4.2
				C308.7,381.9,306.9,382.2,306,381.3z"/>
		</g>
	</g>
</g>
<radialGradient id="SVGID_58_" cx="284.7941" cy="407.022" r="105.6064" gradientUnits="userSpaceOnUse">
	<stop  offset="0" style="stop-color:#000000"/>
	<stop  offset="1" style="stop-color:#000000;stop-opacity:0"/>
</radialGradient>
<path class="st116" d="M372.5,474.4c-39.8,0-77.1-15.5-105.2-43.6s-43.6-65.5-43.6-105.2s15.5-77.1,43.6-105.2
	c28.1-28.1,65.5-43.6,105.2-43.6s77.1,15.5,105.2,43.6c28.1,28.1,43.6,65.5,43.6,105.2s-15.5,77.1-43.6,105.2
	S412.3,474.4,372.5,474.4z M372.5,177.3c-81.8,0-148.3,66.5-148.3,148.3c0,81.8,66.5,148.3,148.3,148.3
	c81.8,0,148.3-66.5,148.3-148.3C520.8,243.8,454.3,177.3,372.5,177.3z"/>
<radialGradient id="SVGID_59_" cx="284.7941" cy="407.022" r="104.0537" gradientUnits="userSpaceOnUse">
	<stop  offset="0" style="stop-color:#000000"/>
	<stop  offset="1" style="stop-color:#000000;stop-opacity:0"/>
</radialGradient>
<path class="st117" d="M191.2,474.4c-39.8,0-77.1-15.5-105.2-43.6c-28.1-28.1-43.6-65.5-43.6-105.2S57.9,248.4,86,220.3
	c28.1-28.1,65.5-43.6,105.2-43.6s77.1,15.5,105.2,43.6c28.1,28.1,43.6,65.5,43.6,105.2s-15.5,77.1-43.6,105.2
	C268.4,458.9,231,474.4,191.2,474.4z M191.2,177.3C109.5,177.3,43,243.8,43,325.6c0,81.8,66.5,148.3,148.3,148.3
	s148.3-66.5,148.3-148.3C339.5,243.8,273,177.3,191.2,177.3z"/>
<radialGradient id="SVGID_60_" cx="282.7123" cy="400.7765" r="110.7243" gradientUnits="userSpaceOnUse">
	<stop  offset="0" style="stop-color:#000000"/>
	<stop  offset="1" style="stop-color:#000000;stop-opacity:0"/>
</radialGradient>
<path class="st118" d="M372.5,630c-39.8,0-77.1-15.5-105.2-43.6c-28.1-28.1-43.6-65.5-43.6-105.2s15.5-77.1,43.6-105.2
	s65.5-43.6,105.2-43.6s77.1,15.5,105.2,43.6s43.6,65.5,43.6,105.2s-15.5,77.1-43.6,105.2C449.7,614.5,412.3,630,372.5,630z
	 M372.5,332.9c-81.8,0-148.3,66.5-148.3,148.3c0,81.8,66.5,148.3,148.3,148.3c81.8,0,148.3-66.5,148.3-148.3
	C520.8,399.4,454.3,332.9,372.5,332.9z"/>
<radialGradient id="SVGID_61_" cx="281.9468" cy="363.3032" r="83.2358" gradientUnits="userSpaceOnUse">
	<stop  offset="0" style="stop-color:#000000"/>
	<stop  offset="1" style="stop-color:#000000;stop-opacity:0"/>
</radialGradient>
<path class="st119" d="M281.9,660.8c-39.8,0-77.1-15.5-105.2-43.6c-28.1-28.1-43.6-65.5-43.6-105.2s15.5-77.1,43.6-105.2
	c28.1-28.1,65.5-43.6,105.2-43.6s77.1,15.5,105.2,43.6c28.1,28.1,43.6,65.5,43.6,105.2s-15.5,77.1-43.6,105.2
	C359.1,645.4,321.7,660.8,281.9,660.8z M281.9,363.8c-81.8,0-148.3,66.5-148.3,148.3c0,81.8,66.5,148.3,148.3,148.3
	c81.8,0,148.3-66.5,148.3-148.3C430.2,430.3,363.7,363.8,281.9,363.8z"/>
<radialGradient id="SVGID_62_" cx="281.9468" cy="443.7383" r="61.7098" gradientUnits="userSpaceOnUse">
	<stop  offset="0" style="stop-color:#000000"/>
	<stop  offset="1" style="stop-color:#000000;stop-opacity:0"/>
</radialGradient>
<path class="st120" d="M281.9,443.6c-39.8,0-77.1-15.5-105.2-43.6c-28.1-28.1-43.6-65.5-43.6-105.2s15.5-77.1,43.6-105.2
	c28.1-28.1,65.5-43.6,105.2-43.6s77.1,15.5,105.2,43.6c28.1,28.1,43.6,65.5,43.6,105.2s-15.5,77.1-43.6,105.2
	C359.1,428.1,321.7,443.6,281.9,443.6z M281.9,146.5c-81.8,0-148.3,66.5-148.3,148.3S200.2,443,281.9,443
	c81.8,0,148.3-66.5,148.3-148.3S363.7,146.5,281.9,146.5z"/>
<radialGradient id="SVGID_63_" cx="290.2827" cy="399.6409" r="99.0149" gradientUnits="userSpaceOnUse">
	<stop  offset="0" style="stop-color:#000000"/>
	<stop  offset="1" style="stop-color:#000000;stop-opacity:0"/>
</radialGradient>
<path class="st121" d="M191.2,630c-39.8,0-77.1-15.5-105.2-43.6c-28.1-28.1-43.6-65.5-43.6-105.2S57.9,404.1,86,375.9
	c28.1-28.1,65.5-43.6,105.2-43.6s77.1,15.5,105.2,43.6c28.1,28.1,43.6,65.5,43.6,105.2s-15.5,77.1-43.6,105.2
	C268.4,614.5,231,630,191.2,630z M191.2,332.9C109.5,332.9,43,399.4,43,481.2c0,81.8,66.5,148.3,148.3,148.3s148.3-66.5,148.3-148.3
	C339.5,399.4,273,332.9,191.2,332.9z"/>
<linearGradient id="SVGID_64_" gradientUnits="userSpaceOnUse" x1="297.3538" y1="385.6471" x2="282.6871" y2="364.6471">
	<stop  offset="0" style="stop-color:#5C99EC"/>
	<stop  offset="1" style="stop-color:#71AEFF"/>
</linearGradient>
<circle class="st122" cx="281.9" cy="363.6" r="2.5"/>
<linearGradient id="SVGID_65_" gradientUnits="userSpaceOnUse" x1="259.5145" y1="412.0746" x2="244.8478" y2="391.0746">
	<stop  offset="0" style="stop-color:#5C99EC"/>
	<stop  offset="1" style="stop-color:#71AEFF"/>
</linearGradient>
<circle class="st123" cx="231.7" cy="372.3" r="2.5"/>
<linearGradient id="SVGID_66_" gradientUnits="userSpaceOnUse" x1="327.0192" y1="364.9284" x2="312.3526" y2="343.9284">
	<stop  offset="0" style="stop-color:#5C99EC"/>
	<stop  offset="1" style="stop-color:#71AEFF"/>
</linearGradient>
<circle class="st124" cx="332.2" cy="372.3" r="2.5"/>
<linearGradient id="SVGID_67_" gradientUnits="userSpaceOnUse" x1="259.9967" y1="411.7377" x2="245.33" y2="390.7377">
	<stop  offset="0" style="stop-color:#5C99EC"/>
	<stop  offset="1" style="stop-color:#71AEFF"/>
</linearGradient>
<circle class="st125" cx="281.9" cy="443.2" r="2.5"/>
<linearGradient id="SVGID_68_" gradientUnits="userSpaceOnUse" x1="230.3311" y1="432.4566" x2="215.6644" y2="411.4566">
	<stop  offset="0" style="stop-color:#5C99EC"/>
	<stop  offset="1" style="stop-color:#71AEFF"/>
</linearGradient>
<circle class="st126" cx="231.7" cy="434.5" r="2.5"/>
<linearGradient id="SVGID_69_" gradientUnits="userSpaceOnUse" x1="297.8358" y1="385.3104" x2="283.1692" y2="364.3104">
	<stop  offset="0" style="stop-color:#5C99EC"/>
	<stop  offset="1" style="stop-color:#71AEFF"/>
</linearGradient>
<circle class="st127" cx="332.2" cy="434.5" r="2.5"/>
</svg>
