<svg xmlns="http://www.w3.org/2000/svg" width="23" height="10" viewBox="0 0 23 10">
  <path fill-rule="evenodd" d="M22.5098194,26.0666977 C22.5098194,25.9511842 22.45848,25.8485055 22.381471,25.7714965 L17.4528937,21.2793036 C17.3245453,21.1766249 17.1576925,21.1509553 17.0036744,21.2151295 C16.8496564,21.2793036 16.7598125,21.4204868 16.7598125,21.5873397 L16.7598125,24.4623431 L0.74193628,24.4623431 C0.510909219,24.4623431 0.331221505,24.6420309 0.331221505,24.8730579 L0.331221505,27.3373466 C0.331221505,27.5683736 0.510909219,27.7480613 0.74193628,27.7480613 L16.7598125,27.7480613 L16.7598125,30.6230648 C16.7598125,30.7899177 16.8624912,30.9311009 17.0036744,30.995275 C17.1576925,31.0594492 17.3245453,31.0337796 17.4528937,30.918266 L22.381471,26.3747338 C22.45848,26.2977248 22.5098194,26.1822113 22.5098194,26.0666977 Z" transform="translate(0 -21)"/>
</svg>
