<?xml version="1.0" encoding="utf-8"?>
<!-- Generator: Adobe Illustrator 21.0.0, SVG Export Plug-In . SVG Version: 6.00 Build 0)  -->
<svg version="1.1" id="Слой_1" xmlns="http://www.w3.org/2000/svg" xmlns:xlink="http://www.w3.org/1999/xlink" x="0px" y="0px"
	 viewBox="0 0 126.4 119.7" style="enable-background:new 0 0 126.4 119.7;" xml:space="preserve">
<style type="text/css">
	.st0{fill:url(#SVGID_1_);}
	.st1{fill:url(#SVGID_2_);}
	.st2{fill:#FFFFFF;}
</style>
<linearGradient id="SVGID_1_" gradientUnits="userSpaceOnUse" x1="-387.1208" y1="-445.3701" x2="-469.0442" y2="-360.93" gradientTransform="matrix(-1.0332 6.768676e-02 -6.536987e-02 -0.9979 -402.8346 -318.5167)">
	<stop  offset="0" style="stop-color:#F3F8FA"/>
	<stop  offset="1" style="stop-color:#EAF0F4"/>
</linearGradient>
<path class="st0" d="M86.4,110.3L45,108.7c-8.3-0.3-15.8-4.8-19.7-11.9L2.8,56.3C-5.1,42,4.6,24.5,21.3,22.8l79.3-7.8
	c16.6-1.6,29.6,13.5,24.8,29L110,94C106.9,104,97.2,110.7,86.4,110.3z"/>
<linearGradient id="SVGID_2_" gradientUnits="userSpaceOnUse" x1="-432.6064" y1="16.8747" x2="-553.1063" y2="120.8747" gradientTransform="matrix(-1 0 0 1 -417.9998 0)">
	<stop  offset="0" style="stop-color:#4194FF"/>
	<stop  offset="1" style="stop-color:#175FE1"/>
</linearGradient>
<path class="st1" d="M51.9,118.9l50.7-12.3c15.2-3.7,24.6-19,20.9-34.2l-12.3-50.7c-3.7-15.2-19-24.6-34.2-20.9L26.2,13.1
	C11,16.8,1.7,32.1,5.4,47.3L17.7,98C21.4,113.2,36.7,122.6,51.9,118.9z"/>
<g>
	<path class="st2" d="M42.1,74.1h14.4v3.4c-3.6,0.7-6.3,3.9-6.3,7.8c0,0.9,0.7,1.6,1.6,1.6h25.4c0.9,0,1.6-0.7,1.6-1.6
		c0-3.8-2.7-7-6.3-7.8v-3.4h14.4c2.6,0,4.8-2.1,4.8-4.8V37.5c0-2.6-2.1-4.8-4.8-4.8H42.1c-2.6,0-4.8,2.1-4.8,4.8v31.9
		C37.3,72,39.4,74.1,42.1,74.1z M75.2,83.7H53.5c0.7-1.8,2.4-3.2,4.5-3.2h12.7C72.8,80.6,74.6,81.9,75.2,83.7z M69.1,77.4h-9.5v-3.3
		h9.5V77.4z M86.7,70.9c-2.4,0-42.3,0-44.7,0c-0.9,0-1.6-0.7-1.6-1.6v-1.6h47.8v1.6C88.3,70.2,87.6,70.9,86.7,70.9z M42.1,35.9h44.7
		c0.9,0,1.6,0.7,1.6,1.6v27.1H40.5V37.5C40.5,36.6,41.2,35.9,42.1,35.9z"/>
	<path class="st2" d="M48.4,45.5h6.5c0.9,0,1.6-0.7,1.6-1.6s-0.7-1.6-1.6-1.6h-6.5c-0.9,0-1.6,0.7-1.6,1.6S47.5,45.5,48.4,45.5z"/>
	<path class="st2" d="M48.4,51.9h6.5c0.9,0,1.6-0.7,1.6-1.6c0-0.9-0.7-1.6-1.6-1.6h-6.5c-0.9,0-1.6,0.7-1.6,1.6
		C46.8,51.2,47.5,51.9,48.4,51.9z"/>
	<path class="st2" d="M48.4,58.2h6.5c0.9,0,1.6-0.7,1.6-1.6c0-0.9-0.7-1.6-1.6-1.6h-6.5c-0.9,0-1.6,0.7-1.6,1.6
		C46.8,57.5,47.5,58.2,48.4,58.2z"/>
	<path class="st2" d="M63.6,56.4l7.9,4.8c0.5,0.3,1.1,0.3,1.6,0l7.9-4.8c0.5-0.3,0.8-0.8,0.8-1.4v-9.6c0-0.9-0.8-1.4-0.8-1.4
		c-0.2-0.1,1.4,0.9-7.9-4.8c-0.5-0.3-1.1-0.3-1.6,0l-7.9,4.8c-0.5,0.3-0.8,0.8-0.8,1.4V55C62.8,55.6,63.1,56.1,63.6,56.4z M66,48.3
		l4.8,2.9V57L66,54.1V48.3z M73.9,57v-5.9l4.8-2.9v5.9L73.9,57z M72.3,42.5l4.8,2.9l-4.9,2.9l-4.9-2.9L72.3,42.5z"/>
</g>
</svg>
