<?xml version="1.0" encoding="utf-8"?>
<!-- Generator: Adobe Illustrator 21.0.0, SVG Export Plug-In . SVG Version: 6.00 Build 0)  -->
<svg version="1.1" id="Слой_1" xmlns="http://www.w3.org/2000/svg" xmlns:xlink="http://www.w3.org/1999/xlink" x="0px" y="0px"
	 viewBox="0 0 404 207" style="enable-background:new 0 0 404 207;" xml:space="preserve">
<style type="text/css">
	.st0{fill:url(#SVGID_1_);}
	.st1{fill:url(#SVGID_2_);}
	.st2{fill:#FFFFFF;}
</style>
<linearGradient id="SVGID_1_" gradientUnits="userSpaceOnUse" x1="547.3146" y1="-522.066" x2="705.7842" y2="-522.066" gradientTransform="matrix(0.5337 0.8457 -0.8457 0.5337 -595.4936 -147.2619)">
	<stop  offset="0" style="stop-color:#F3F8FA"/>
	<stop  offset="1" style="stop-color:#EAF0F4"/>
</linearGradient>
<path class="st0" d="M109.5,108.1l60,65.3c5.7,6.2,14.6,8,22.3,4.6l69.4-31.3c4.8-2.2,6.8-8,4.4-12.7l-33.2-63.8
	c-8.1-15.5-22.1-27.1-38.9-32.1l-35-10.3c-3.9-1.2-8.1,0.5-10.2,3.9l-39.8,65.7C106.4,100.8,106.8,105.1,109.5,108.1z"/>
<linearGradient id="SVGID_2_" gradientUnits="userSpaceOnUse" x1="245.2746" y1="465.9853" x2="326.2746" y2="523.9853" gradientTransform="matrix(0.9713 0.2377 -0.2377 0.9713 36.5101 -431.8753)">
	<stop  offset="0" style="stop-color:#4194FF"/>
	<stop  offset="1" style="stop-color:#175FE1"/>
</linearGradient>
<path class="st1" d="M171.5,162.3l-40.8-32.5c-12.2-9.8-14.3-27.6-4.5-39.8l32.5-40.8c9.8-12.2,27.6-14.3,39.8-4.5l40.8,32.5
	c12.2,9.8,14.3,27.6,4.5,39.8l-32.5,40.8C201.6,170,183.8,172.1,171.5,162.3z"/>
<path class="st2" d="M157.8,109.3c0.2,0,0.5,0,0.7,0l6.8,13.4c-1,1-1.6,2.5-1.6,4c0,3.2,2.6,5.8,5.8,5.8c2.5,0,4.7-1.6,5.5-3.9h20
	c0.8,2.2,2.9,3.9,5.5,3.9c3.2,0,5.8-2.6,5.8-5.8c0-1.6-0.6-3-1.6-4l6.8-13.4c0.2,0,0.5,0,0.7,0c3.2,0,5.8-2.6,5.8-5.8
	c0-3.2-2.6-5.8-5.8-5.8c-0.2,0-0.5,0-0.7,0l-6.8-13.4c1-1,1.6-2.5,1.6-4c0-3.2-2.6-5.8-5.8-5.8c-2.5,0-4.7,1.6-5.5,3.9h-20
	c-0.8-2.2-2.9-3.9-5.5-3.9c-3.2,0-5.8,2.6-5.8,5.8c0,1.6,0.6,3,1.6,4l-6.8,13.4c-0.2,0-0.5,0-0.7,0c-3.2,0-5.8,2.6-5.8,5.8
	C152,106.7,154.6,109.3,157.8,109.3z M200.5,120.9c-1.1,0-2.2,0.3-3.1,0.9l-10.8-8.6c0.2-0.4,0.3-0.9,0.3-1.4l20.5-5.1
	c0.2,0.3,0.4,0.6,0.7,0.8l-6.8,13.4C201,120.9,200.7,120.9,200.5,120.9z M169.5,120.9c-0.2,0-0.5,0-0.7,0l-6.8-13.4
	c0.1-0.1,0.3-0.3,0.4-0.5l13,4.3c0,1.1,0.4,2.2,1,3.1l-5,6.7C170.7,121,170.1,120.9,169.5,120.9z M187.1,94.4
	c-0.1,0.5-0.2,0.9-0.2,1.4c0,1.2,0.4,2.3,1,3.2l-5,6.7c-0.5-0.2-1.1-0.3-1.7-0.3c0,0-0.1,0-0.1,0l-7.6-20.2L187.1,94.4z M186,108
	C186,108,186,108,186,108l5-6.7c0.5,0.2,1.1,0.3,1.7,0.3c1.6,0,3.1-0.7,4.2-1.8l9.4,3.2L186,108z M179.2,111.2
	c0-1.1,0.9-1.9,1.9-1.9c1.1,0,1.9,0.9,1.9,1.9s-0.9,1.9-1.9,1.9C180.1,113.2,179.2,112.3,179.2,111.2z M192.7,93.8
	c1.1,0,1.9,0.9,1.9,1.9s-0.9,1.9-1.9,1.9s-1.9-0.9-1.9-1.9S191.7,93.8,192.7,93.8z M174.4,123.5l5-6.7c0.5,0.2,1.1,0.3,1.7,0.3
	c1.1,0,2.2-0.3,3.1-0.9l10.8,8.6h-20C174.8,124.3,174.6,123.9,174.4,123.5z M198.5,96.3c0-0.2,0-0.3,0-0.5c0-1.7-0.8-3.3-2-4.4
	l3.9-5.3c0,0,0,0,0,0c0.2,0,0.5,0,0.7,0l6.8,13.4L198.5,96.3z M196.7,84.7l-3.9,5.3c0,0,0,0,0,0c-1.3,0-2.5,0.4-3.5,1.2l-13.3-8.9
	H195C195.3,83.2,195.9,84,196.7,84.7z M169.5,86.1c0,0,0.1,0,0.1,0l7.8,20.7c-0.3,0.3-0.6,0.6-0.8,0.9l-13-4.3
	c0-1.5-0.6-2.9-1.6-3.9l6.8-13.4C169,86.1,169.3,86.1,169.5,86.1z M169.5,128.6c-1.1,0-1.9-0.9-1.9-1.9s0.9-1.9,1.9-1.9
	c1.1,0,1.9,0.9,1.9,1.9S170.6,128.6,169.5,128.6z M200.5,128.6c-1.1,0-1.9-0.9-1.9-1.9s0.9-1.9,1.9-1.9c1.1,0,1.9,0.9,1.9,1.9
	S201.5,128.6,200.5,128.6z M214.1,103.5c0,1.1-0.9,1.9-1.9,1.9s-1.9-0.9-1.9-1.9s0.9-1.9,1.9-1.9S214.1,102.4,214.1,103.5z
	 M200.5,78.4c1.1,0,1.9,0.9,1.9,1.9c0,1.1-0.9,1.9-1.9,1.9c-1.1,0-1.9-0.9-1.9-1.9C198.5,79.2,199.4,78.4,200.5,78.4z M169.5,78.4
	c1.1,0,1.9,0.9,1.9,1.9c0,1.1-0.9,1.9-1.9,1.9c-1.1,0-1.9-0.9-1.9-1.9C167.6,79.2,168.5,78.4,169.5,78.4z M157.8,101.6
	c1.1,0,1.9,0.9,1.9,1.9s-0.9,1.9-1.9,1.9c-1.1,0-1.9-0.9-1.9-1.9S156.7,101.6,157.8,101.6z"/>
</svg>
