<?xml version="1.0" encoding="utf-8"?>
<!-- Generator: Adobe Illustrator 21.0.0, SVG Export Plug-In . SVG Version: 6.00 Build 0)  -->
<svg version="1.1" id="Слой_1" xmlns="http://www.w3.org/2000/svg" xmlns:xlink="http://www.w3.org/1999/xlink" x="0px" y="0px"
	 viewBox="0 0 128.7 119.7" style="enable-background:new 0 0 128.7 119.7;" xml:space="preserve">
<style type="text/css">
	.st0{fill:url(#SVGID_1_);}
	.st1{fill:url(#SVGID_2_);}
	.st2{fill:#FFFFFF;}
</style>
<linearGradient id="SVGID_1_" gradientUnits="userSpaceOnUse" x1="-912.8193" y1="-791.6851" x2="-808.5886" y2="-791.6851" gradientTransform="matrix(0.9524 0.7169 -0.4856 0.6451 501.2447 1173.3499)">
	<stop  offset="0" style="stop-color:#F3F8FA"/>
	<stop  offset="1" style="stop-color:#EAF0F4"/>
</linearGradient>
<path class="st0" d="M77.1,110.8L4.1,43.2c-6.4-5.9-5.2-16,2.3-19.9L42.9,4.7C46,3.2,49.7,3,53.1,4.3l67.3,25.9
	c7.1,2.7,10.4,10.9,7,17.4l-30.8,60.3C92.9,115.1,83.2,116.5,77.1,110.8z"/>
<linearGradient id="SVGID_2_" gradientUnits="userSpaceOnUse" x1="113.7505" y1="16.8747" x2="-6.7495" y2="120.8747">
	<stop  offset="0" style="stop-color:#4194FF"/>
	<stop  offset="1" style="stop-color:#175FE1"/>
</linearGradient>
<path class="st1" d="M76.5,118.9l-50.7-12.3c-15.2-3.7-24.6-19-20.9-34.2l12.3-50.7c3.7-15.2,19-24.6,34.2-20.9l50.7,12.3
	c15.2,3.7,24.6,19,20.9,34.2L110.7,98C107,113.2,91.7,122.6,76.5,118.9z"/>
<path class="st2" d="M36.8,65.6c0.2,0,0.5,0,0.7,0L44.3,79c-1,1-1.6,2.5-1.6,4c0,3.2,2.6,5.8,5.8,5.8c2.5,0,4.7-1.6,5.5-3.9h20
	c0.8,2.2,2.9,3.9,5.5,3.9c3.2,0,5.8-2.6,5.8-5.8c0-1.6-0.6-3-1.6-4l6.8-13.4c0.2,0,0.5,0,0.7,0c3.2,0,5.8-2.6,5.8-5.8
	S94.4,54,91.2,54c-0.2,0-0.5,0-0.7,0l-6.8-13.4c1-1,1.6-2.5,1.6-4c0-3.2-2.6-5.8-5.8-5.8c-2.5,0-4.7,1.6-5.5,3.9H54
	c-0.8-2.2-2.9-3.9-5.5-3.9c-3.2,0-5.8,2.6-5.8,5.8c0,1.6,0.6,3,1.6,4l-6.8,13.4c-0.2,0-0.5,0-0.7,0c-3.2,0-5.8,2.6-5.8,5.8
	C31,63,33.6,65.6,36.8,65.6z M79.4,77.2c-1.1,0-2.2,0.3-3.1,0.9l-10.8-8.6c0.2-0.4,0.3-0.9,0.3-1.4L86.3,63c0.2,0.3,0.4,0.6,0.7,0.8
	l-6.8,13.4C79.9,77.2,79.7,77.2,79.4,77.2z M48.5,77.2c-0.2,0-0.5,0-0.7,0L41,63.8c0.1-0.1,0.3-0.3,0.4-0.5l13,4.3
	c0,1.1,0.4,2.2,1,3.1l-5,6.7C49.7,77.3,49.1,77.2,48.5,77.2z M66.1,50.7c-0.1,0.5-0.2,0.9-0.2,1.4c0,1.2,0.4,2.3,1,3.2l-5,6.7
	c-0.5-0.2-1.1-0.3-1.7-0.3c0,0-0.1,0-0.1,0l-7.6-20.2L66.1,50.7z M64.9,64.4C64.9,64.4,64.9,64.4,64.9,64.4l5-6.7
	c0.5,0.2,1.1,0.3,1.7,0.3c1.6,0,3.1-0.7,4.2-1.8l9.4,3.2L64.9,64.4z M58.2,67.6c0-1.1,0.9-1.9,1.9-1.9c1.1,0,1.9,0.9,1.9,1.9
	s-0.9,1.9-1.9,1.9C59,69.5,58.2,68.6,58.2,67.6z M71.7,50.2c1.1,0,1.9,0.9,1.9,1.9c0,1.1-0.9,1.9-1.9,1.9s-1.9-0.9-1.9-1.9
	C69.8,51,70.6,50.2,71.7,50.2z M53.3,79.8l5-6.7c0.5,0.2,1.1,0.3,1.7,0.3c1.1,0,2.2-0.3,3.1-0.9l10.8,8.6H54
	C53.8,80.6,53.6,80.2,53.3,79.8z M77.5,52.6c0-0.2,0-0.3,0-0.5c0-1.7-0.8-3.3-2-4.4l3.9-5.3c0,0,0,0,0,0c0.2,0,0.5,0,0.7,0L87,55.8
	L77.5,52.6z M75.6,41l-3.9,5.3c0,0,0,0,0,0c-1.3,0-2.5,0.4-3.5,1.2l-13.3-8.9H74C74.3,39.5,74.9,40.4,75.6,41z M48.5,42.4
	c0,0,0.1,0,0.1,0l7.8,20.7c-0.3,0.3-0.6,0.6-0.8,0.9l-13-4.3c0-1.5-0.6-2.9-1.6-3.9l6.8-13.4C48,42.4,48.3,42.4,48.5,42.4z M48.5,85
	c-1.1,0-1.9-0.9-1.9-1.9c0-1.1,0.9-1.9,1.9-1.9c1.1,0,1.9,0.9,1.9,1.9C50.4,84.1,49.6,85,48.5,85z M79.4,85c-1.1,0-1.9-0.9-1.9-1.9
	c0-1.1,0.9-1.9,1.9-1.9c1.1,0,1.9,0.9,1.9,1.9C81.4,84.1,80.5,85,79.4,85z M93.1,59.8c0,1.1-0.9,1.9-1.9,1.9s-1.9-0.9-1.9-1.9
	c0-1.1,0.9-1.9,1.9-1.9S93.1,58.8,93.1,59.8z M79.4,34.7c1.1,0,1.9,0.9,1.9,1.9s-0.9,1.9-1.9,1.9c-1.1,0-1.9-0.9-1.9-1.9
	S78.4,34.7,79.4,34.7z M48.5,34.7c1.1,0,1.9,0.9,1.9,1.9s-0.9,1.9-1.9,1.9c-1.1,0-1.9-0.9-1.9-1.9S47.4,34.7,48.5,34.7z M36.8,57.9
	c1.1,0,1.9,0.9,1.9,1.9c0,1.1-0.9,1.9-1.9,1.9c-1.1,0-1.9-0.9-1.9-1.9C34.9,58.8,35.7,57.9,36.8,57.9z"/>
</svg>
