<?xml version="1.0" encoding="utf-8"?>
<!-- Generator: Adobe Illustrator 21.0.0, SVG Export Plug-In . SVG Version: 6.00 Build 0)  -->
<svg version="1.1" id="Слой_1" xmlns="http://www.w3.org/2000/svg" xmlns:xlink="http://www.w3.org/1999/xlink" x="0px" y="0px"
	 viewBox="0 0 296 212" style="enable-background:new 0 0 296 212;" xml:space="preserve">
<style type="text/css">
	.st0{fill:url(#SVGID_1_);}
	.st1{fill:url(#SVGID_2_);}
	.st2{fill:#FFFFFF;}
</style>
<linearGradient id="SVGID_1_" gradientUnits="userSpaceOnUse" x1="-990.9324" y1="-473.5796" x2="-856.7874" y2="-473.5796" gradientTransform="matrix(-0.7204 0.7425 -0.6291 -0.6104 -810.186 482.4373)">
	<stop  offset="0" style="stop-color:#F3F8FA"/>
	<stop  offset="1" style="stop-color:#EAF0F4"/>
</linearGradient>
<path class="st0" d="M70.3,79.9l87.2-69.4c7.6-6.1,20.4-1.6,25.1,8.7l22.9,50.2c2,4.3,2.1,8.9,0.4,12.6l-34.2,74.8
	c-3.6,7.8-14,9.5-22.2,3.5l-75.9-55.6C64.6,98.1,63,85.7,70.3,79.9z"/>
<linearGradient id="SVGID_2_" gradientUnits="userSpaceOnUse" x1="-50.121" y1="490.5547" x2="30.879" y2="548.5547" gradientTransform="matrix(0.7365 -0.6765 0.6765 0.7365 -177.866 -307.5269)">
	<stop  offset="0" style="stop-color:#4194FF"/>
	<stop  offset="1" style="stop-color:#175FE1"/>
</linearGradient>
<path class="st1" d="M190.5,127.6l-49.6,15.9c-14.9,4.8-30.9-3.4-35.7-18.3L89.3,75.6c-4.8-14.9,3.4-30.9,18.3-35.7L157.2,24
	c14.9-4.8,30.9,3.4,35.7,18.3l15.9,49.6C213.6,106.9,205.4,122.8,190.5,127.6z"/>
<g>
	<path class="st2" d="M176.2,56.6c-0.3-0.3-0.7-0.5-1.1-0.5h-12.3c-0.4,0-0.8,0.2-1.1,0.5l-6.8,6.8l-10.3-1.1
		c-0.5-0.1-1,0.1-1.3,0.5l-6.1,6.1c-0.4,0.4-0.5,0.9-0.4,1.5c0.1,0.5,0.5,1,1,1.2l6.4,2.7l-0.8,0.8c-0.6,0.6-0.6,1.7,0,2.3l2.4,2.4
		c-0.9,0.3-1.7,0.8-2.4,1.5c-1.1,1.1-1.7,2.6-1.7,4.2l0,4.3c0,0.9,0.7,1.6,1.6,1.6h4.3c1.6,0,3.1-0.6,4.2-1.7
		c0.7-0.7,1.2-1.5,1.5-2.4l2.4,2.4c0.3,0.3,0.7,0.5,1.1,0.5c0.4,0,0.8-0.2,1.1-0.5l0.8-0.8l2.7,6.4c0.2,0.5,0.7,0.9,1.2,1
		c0.1,0,0.2,0,0.3,0c0.4,0,0.8-0.2,1.1-0.5l6.1-6.1c0.3-0.3,0.5-0.8,0.5-1.3L169.4,78l6.8-6.8c0.3-0.3,0.5-0.7,0.5-1.1l0-12.3
		C176.7,57.3,176.5,56.9,176.2,56.6z M149.4,87.3c-0.5,0.5-1.2,0.8-1.9,0.8h-2.7l0-2.7c0-0.7,0.3-1.4,0.8-1.9
		c0.5-0.5,1.2-0.8,1.9-0.8c1.5,0,2.7,1.2,2.7,2.7C150.2,86.1,149.9,86.7,149.4,87.3z M173.5,66.1l-6.7-6.7h6.7L173.5,66.1z
		 M141.1,69.5l3.9-3.9l6.9,0.8l-5.4,5.4L141.1,69.5z M146.7,76.1l1.3-1.3c0,0,0,0,0,0l8.6-8.6c0,0,0,0,0,0l6.2-6.2l10,10l-6.2,6.2
		c0,0,0,0,0,0l-5.4,5.4l-4.5,4.5L146.7,76.1z M167.3,87.8l-3.9,3.9l-2.3-5.4l5.4-5.4L167.3,87.8z"/>
	<path class="st2" d="M156.7,74.5c-0.4,0-0.8,0.2-1.1,0.5c-0.3,0.3-0.5,0.7-0.5,1.1c0,0.4,0.2,0.8,0.5,1.1c0.3,0.3,0.7,0.5,1.1,0.5
		c0.4,0,0.8-0.2,1.1-0.5c0.3-0.3,0.5-0.7,0.5-1.1c0-0.4-0.2-0.8-0.5-1.1C157.5,74.7,157.1,74.5,156.7,74.5z"/>
	<path class="st2" d="M162.8,71.6c0.4,0,0.8-0.2,1.1-0.5c0.3-0.3,0.5-0.7,0.5-1.1c0-0.4-0.2-0.8-0.5-1.1c-0.3-0.3-0.7-0.5-1.1-0.5
		c-0.4,0-0.8,0.2-1.1,0.5c-0.3,0.3-0.5,0.7-0.5,1.1c0,0.4,0.2,0.8,0.5,1.1C162,71.4,162.4,71.6,162.8,71.6z"/>
	<path class="st2" d="M138.2,94.7c-0.6-0.6-1.7-0.6-2.3,0l-14,14c-0.6,0.6-0.6,1.7,0,2.3c0.3,0.3,0.7,0.5,1.1,0.5
		c0.4,0,0.8-0.2,1.1-0.5l14-14C138.8,96.3,138.8,95.3,138.2,94.7z"/>
	<path class="st2" d="M144.4,98.3l-9.1,9.1c-0.6,0.6-0.6,1.7,0,2.3c0.3,0.3,0.7,0.5,1.1,0.5c0.4,0,0.8-0.2,1.1-0.5l9.1-9.1
		c0.6-0.6,0.6-1.7,0-2.3C146.1,97.7,145.1,97.7,144.4,98.3z"/>
	<path class="st2" d="M123,99.1c0.4,0,0.8-0.2,1.1-0.5l9.1-9.1c0.6-0.6,0.6-1.7,0-2.3c-0.6-0.6-1.7-0.6-2.3,0l-9.1,9.1
		c-0.6,0.6-0.6,1.7,0,2.3C122.2,99,122.6,99.1,123,99.1z"/>
</g>
</svg>
