<?xml version="1.0" encoding="utf-8"?>
<!-- Generator: Adobe Illustrator 21.0.0, SVG Export Plug-In . SVG Version: 6.00 Build 0)  -->
<svg version="1.1" id="Слой_1" xmlns="http://www.w3.org/2000/svg" xmlns:xlink="http://www.w3.org/1999/xlink" x="0px" y="0px"
	 viewBox="0 0 460 321" style="enable-background:new 0 0 460 321;" xml:space="preserve">
<style type="text/css">
	.st0{fill:url(#SVGID_1_);}
	.st1{fill:url(#SVGID_2_);}
	.st2{fill:#FFFFFF;}
</style>
<linearGradient id="SVGID_1_" gradientUnits="userSpaceOnUse" x1="99.4443" y1="582.6832" x2="201.1311" y2="655.496" gradientTransform="matrix(-4.477580e-02 0.9639 -1.0294 -0.1375 752.5289 91.4374)">
	<stop  offset="0" style="stop-color:#F3F8FA"/>
	<stop  offset="1" style="stop-color:#EAF0F4"/>
</linearGradient>
<path class="st0" d="M44.9,131.6l35-60.6c7.8-13.6,25.2-18.2,38.7-10.4l73.8,42.6c13.6,7.8,18.2,25.2,10.4,38.7l-30.3,50.3
	c-7.8,13.6-25.2,18.2-38.7,10.4l-78.4-32.3C41.8,162.4,37.1,145.1,44.9,131.6z"/>
<linearGradient id="SVGID_2_" gradientUnits="userSpaceOnUse" x1="107.0969" y1="586.1362" x2="188.0969" y2="644.1362" gradientTransform="matrix(0.3713 0.9285 -0.9285 0.3713 632.3721 -215.5819)">
	<stop  offset="0" style="stop-color:#4194FF"/>
	<stop  offset="1" style="stop-color:#175FE1"/>
</linearGradient>
<path class="st1" d="M64.5,156l2.7-52.1C68,88.3,81.4,76.3,97,77.1l52.1,2.7c15.6,0.8,27.6,14.1,26.8,29.8l-2.7,52.1
	c-0.8,15.6-14.1,27.6-29.8,26.8l-52.1-2.7C75.7,185,63.7,171.6,64.5,156z"/>
<g>
	<path class="st2" d="M102.4,160c0,0.9,0.8,1.7,1.7,1.7h23.7c0.9,0,1.7-0.8,1.7-1.7v-4.4c0-0.5,0.4-0.9,0.9-0.9h7.6
		c2.8,0,5.1-2.3,5.1-5.1v-5.1h0.9c1.5,0,2.8-0.8,3.6-2c0.8-1.3,0.9-2.8,0.2-4.1l-4.7-9.5c-0.2-15.6-14.5-27.6-30.5-24.5
		c-10,1.9-18,10-19.9,20c-1.3,7.1,0.3,14.1,4.4,19.8C100.5,148.9,102.4,154.5,102.4,160z M96,125.1c1.6-8.7,8.5-15.7,17.2-17.3
		c13.9-2.7,26.4,7.8,26.4,21.6c0,0.3,0.1,0.5,0.2,0.8l4.9,9.8c0.2,0.4,0,0.7,0,0.9c-0.1,0.1-0.3,0.4-0.7,0.4h-2.6
		c-0.9,0-1.7,0.8-1.7,1.7v6.8c0,0.9-0.8,1.7-1.7,1.7h-7.6c-2.4,0-4.3,1.9-4.3,4.3v2.7h-20.4c-0.3-5.6-2.4-11.3-5.9-16
		C96.2,137.3,94.9,131.2,96,125.1z"/>
	<path class="st2" d="M101.9,137.3l9-9l5.7,5.7c0.7,0.7,1.7,0.7,2.4,0l10.6-10.6v2.5c0,0.9,0.8,1.7,1.7,1.7c0.9,0,1.7-0.8,1.7-1.7
		v-6.8c0-0.9-0.8-1.7-1.7-1.7h-6.8c-0.9,0-1.7,0.8-1.7,1.7s0.8,1.7,1.7,1.7h2.9l-9.5,9.5l-5.7-5.7c-0.3-0.3-0.7-0.5-1.2-0.5
		c-0.4,0-0.9,0.2-1.2,0.5l-10.2,10.2c-0.7,0.7-0.7,1.7,0,2.4C100.1,137.9,101.2,137.9,101.9,137.3z"/>
</g>
</svg>
