<?xml version="1.0" encoding="utf-8"?>
<!-- Generator: Adobe Illustrator 21.0.0, SVG Export Plug-In . SVG Version: 6.00 Build 0)  -->
<svg version="1.1" id="Слой_1" xmlns="http://www.w3.org/2000/svg" xmlns:xlink="http://www.w3.org/1999/xlink" x="0px" y="0px"
	 viewBox="0 0 404 212" style="enable-background:new 0 0 404 212;" xml:space="preserve">
<style type="text/css">
	.st0{fill:url(#SVGID_1_);}
	.st1{fill:url(#SVGID_2_);}
	.st2{fill:#FFFFFF;}
</style>
<linearGradient id="SVGID_1_" gradientUnits="userSpaceOnUse" x1="134.9274" y1="111.4014" x2="269.0725" y2="111.4014">
	<stop  offset="0" style="stop-color:#F3F8FA"/>
	<stop  offset="1" style="stop-color:#EAF0F4"/>
</linearGradient>
<path class="st0" d="M254,183.8l-106.8-16.2c-9.3-1.4-14.9-15.5-10.9-27.5l19.4-58.6c1.7-5,4.7-8.8,8.5-10.3L239,39.7
	c7.9-3.3,16,3.9,17.3,15.4l12.5,106.3C270.4,174,263,185.2,254,183.8z"/>
<linearGradient id="SVGID_2_" gradientUnits="userSpaceOnUse" x1="-1007.5817" y1="1075.041" x2="-926.5817" y2="1133.041" gradientTransform="matrix(-0.1176 -0.9931 0.9931 -0.1176 -994.5294 -734.6358)">
	<stop  offset="0" style="stop-color:#4194FF"/>
	<stop  offset="1" style="stop-color:#175FE1"/>
</linearGradient>
<path class="st1" d="M266.9,103.3l-16.1,49.6c-4.8,14.9-20.8,23-35.7,18.2L165.5,155c-14.9-4.8-23-20.8-18.2-35.7l16.1-49.6
	c4.8-14.9,20.8-23,35.7-18.2l49.6,16.1C263.6,72.4,271.8,88.4,266.9,103.3z"/>
<g>
	<path class="st2" d="M184.8,125.6h14.4v3.4c-3.6,0.7-6.3,3.9-6.3,7.8c0,0.9,0.7,1.6,1.6,1.6h25.4c0.9,0,1.6-0.7,1.6-1.6
		c0-3.8-2.7-7-6.3-7.8v-3.4h14.4c2.6,0,4.8-2.1,4.8-4.8V89c0-2.6-2.1-4.8-4.8-4.8h-44.7c-2.6,0-4.8,2.1-4.8,4.8v31.9
		C180,123.4,182.2,125.6,184.8,125.6z M217.9,135.2h-21.7c0.7-1.8,2.4-3.2,4.5-3.2h12.7C215.5,132,217.3,133.4,217.9,135.2z
		 M211.9,128.8h-9.5v-3.3h9.5V128.8z M229.4,122.4c-2.4,0-42.3,0-44.7,0c-0.9,0-1.6-0.7-1.6-1.6v-1.6H231v1.6
		C231,121.7,230.3,122.4,229.4,122.4z M184.8,87.4h44.7c0.9,0,1.6,0.7,1.6,1.6V116h-47.8V89C183.2,88.1,183.9,87.4,184.8,87.4z"/>
	<path class="st2" d="M191.1,97h6.5c0.9,0,1.6-0.7,1.6-1.6c0-0.9-0.7-1.6-1.6-1.6h-6.5c-0.9,0-1.6,0.7-1.6,1.6
		C189.5,96.3,190.3,97,191.1,97z"/>
	<path class="st2" d="M191.1,103.3h6.5c0.9,0,1.6-0.7,1.6-1.6c0-0.9-0.7-1.6-1.6-1.6h-6.5c-0.9,0-1.6,0.7-1.6,1.6
		C189.5,102.6,190.3,103.3,191.1,103.3z"/>
	<path class="st2" d="M191.1,109.7h6.5c0.9,0,1.6-0.7,1.6-1.6s-0.7-1.6-1.6-1.6h-6.5c-0.9,0-1.6,0.7-1.6,1.6
		S190.3,109.7,191.1,109.7z"/>
	<path class="st2" d="M206.3,107.8l7.9,4.8c0.5,0.3,1.1,0.3,1.6,0l7.9-4.8c0.5-0.3,0.8-0.8,0.8-1.4v-9.6c0-0.9-0.8-1.4-0.8-1.4
		c-0.2-0.1,1.4,0.9-7.9-4.8c-0.5-0.3-1.1-0.3-1.6,0l-7.9,4.8c-0.5,0.3-0.8,0.8-0.8,1.4v9.6C205.5,107,205.8,107.6,206.3,107.8z
		 M208.7,99.7l4.8,2.9v5.9l-4.8-2.9V99.7z M216.6,108.5v-5.9l4.8-2.9v5.9L216.6,108.5z M215.1,94l4.8,2.9l-4.9,2.9l-4.9-2.9
		L215.1,94z"/>
</g>
</svg>
