<?xml version="1.0" encoding="utf-8"?>
<!-- Generator: Adobe Illustrator 21.0.0, SVG Export Plug-In . SVG Version: 6.00 Build 0)  -->
<svg version="1.1" id="Слой_1" xmlns="http://www.w3.org/2000/svg" xmlns:xlink="http://www.w3.org/1999/xlink" x="0px" y="0px"
	 viewBox="0 0 120.1 119.7" style="enable-background:new 0 0 120.1 119.7;" xml:space="preserve">
<style type="text/css">
	.st0{fill:url(#SVGID_1_);}
	.st1{fill:url(#SVGID_2_);}
	.st2{fill:#FFFFFF;}
</style>
<linearGradient id="SVGID_1_" gradientUnits="userSpaceOnUse" x1="1.4841" y1="59.9522" x2="120.0598" y2="59.9522">
	<stop  offset="0" style="stop-color:#F3F8FA"/>
	<stop  offset="1" style="stop-color:#EAF0F4"/>
</linearGradient>
<path class="st0" d="M106.7,117.4l-94.4-12.9C4,103.4-0.9,92.3,2.6,82.7l17.2-46.5c1.5-4,4.2-7,7.5-8.2L93.5,3
	c6.9-2.6,14.1,3.1,15.3,12.2l11.1,84.4C121.2,109.7,114.6,118.5,106.7,117.4z"/>
<linearGradient id="SVGID_2_" gradientUnits="userSpaceOnUse" x1="109.6081" y1="16.8747" x2="-10.8919" y2="120.8747">
	<stop  offset="0" style="stop-color:#4194FF"/>
	<stop  offset="1" style="stop-color:#175FE1"/>
</linearGradient>
<path class="st1" d="M72.3,118.9l-50.7-12.3c-15.2-3.7-24.6-19-20.9-34.2l12.3-50.7c3.7-15.2,19-24.6,34.2-20.9L98,13.1
	c15.2,3.7,24.6,19,20.9,34.2L106.6,98C102.9,113.2,87.5,122.6,72.3,118.9z"/>
<g>
	<path class="st2" d="M87,32.7c-0.3-0.3-0.7-0.5-1.1-0.5H73.6c-0.4,0-0.8,0.2-1.1,0.5l-6.8,6.8l-10.3-1.1c-0.5-0.1-1,0.1-1.3,0.5
		l-6.1,6.1c-0.4,0.4-0.5,0.9-0.4,1.5c0.1,0.5,0.5,1,1,1.2l6.4,2.7L54,51.1c-0.6,0.6-0.6,1.7,0,2.3l2.4,2.4c-0.9,0.3-1.7,0.8-2.4,1.5
		c-1.1,1.1-1.7,2.6-1.7,4.2l0,4.3c0,0.9,0.7,1.6,1.6,1.6h4.3c1.6,0,3.1-0.6,4.2-1.7c0.7-0.7,1.2-1.5,1.5-2.4l2.4,2.4
		c0.3,0.3,0.7,0.5,1.1,0.5c0.4,0,0.8-0.2,1.1-0.5l0.8-0.8l2.7,6.4c0.2,0.5,0.7,0.9,1.2,1c0.1,0,0.2,0,0.3,0c0.4,0,0.8-0.2,1.1-0.5
		l6.1-6.1c0.3-0.3,0.5-0.8,0.5-1.3L80.2,54l6.8-6.8c0.3-0.3,0.5-0.7,0.5-1.1l0-12.3C87.5,33.4,87.3,33,87,32.7z M60.2,63.3
		c-0.5,0.5-1.2,0.8-1.9,0.8h-2.7l0-2.7c0-0.7,0.3-1.4,0.8-1.9c0.5-0.5,1.2-0.8,1.9-0.8c1.5,0,2.7,1.2,2.7,2.7
		C61,62.1,60.7,62.8,60.2,63.3z M84.2,42.2l-6.7-6.7h6.7L84.2,42.2z M51.9,45.5l3.9-3.9l6.9,0.8l-5.4,5.4L51.9,45.5z M57.5,52.2
		l1.3-1.3l0,0l8.6-8.6l0,0l6.2-6.2l10,10l-6.2,6.2c0,0,0,0,0,0L72,57.7l-4.5,4.5L57.5,52.2z M78,63.9l-3.9,3.9l-2.3-5.4l5.4-5.4
		L78,63.9z"/>
	<path class="st2" d="M67.5,50.6c-0.4,0-0.8,0.2-1.1,0.5c-0.3,0.3-0.5,0.7-0.5,1.1c0,0.4,0.2,0.8,0.5,1.1s0.7,0.5,1.1,0.5
		c0.4,0,0.8-0.2,1.1-0.5c0.3-0.3,0.5-0.7,0.5-1.1c0-0.4-0.2-0.8-0.5-1.1C68.3,50.8,67.9,50.6,67.5,50.6z"/>
	<path class="st2" d="M73.6,47.7c0.4,0,0.8-0.2,1.1-0.5c0.3-0.3,0.5-0.7,0.5-1.1c0-0.4-0.2-0.8-0.5-1.1c-0.3-0.3-0.7-0.5-1.1-0.5
		s-0.8,0.2-1.1,0.5c-0.3,0.3-0.5,0.7-0.5,1.1c0,0.4,0.2,0.8,0.5,1.1C72.7,47.5,73.2,47.7,73.6,47.7z"/>
	<path class="st2" d="M48.9,70.7c-0.6-0.6-1.7-0.6-2.3,0l-14,14c-0.6,0.6-0.6,1.7,0,2.3c0.3,0.3,0.7,0.5,1.1,0.5
		c0.4,0,0.8-0.2,1.1-0.5l14-14C49.6,72.4,49.6,71.4,48.9,70.7z"/>
	<path class="st2" d="M55.2,74.4l-9.1,9.1c-0.6,0.6-0.6,1.7,0,2.3c0.3,0.3,0.7,0.5,1.1,0.5c0.4,0,0.8-0.2,1.1-0.5l9.1-9.1
		c0.6-0.6,0.6-1.7,0-2.3C56.9,73.8,55.9,73.8,55.2,74.4z"/>
	<path class="st2" d="M33.8,75.2c0.4,0,0.8-0.2,1.1-0.5l9.1-9.1c0.6-0.6,0.6-1.7,0-2.3c-0.6-0.6-1.7-0.6-2.3,0l-9.1,9.1
		c-0.6,0.6-0.6,1.7,0,2.3C33,75.1,33.4,75.2,33.8,75.2z"/>
</g>
</svg>
