<svg xmlns="http://www.w3.org/2000/svg" width="904" height="646" viewBox="0 0 904 646">
  <defs>
    <linearGradient id="shape-main-2-a" x1="50%" x2="33.968%" y1="0%" y2="92.527%">
      <stop offset="0%" stop-color="#0D3497"/>
      <stop offset="100%" stop-color="#1857EB"/>
    </linearGradient>
  </defs>
  <path fill="url(#shape-main-2-a)" fill-rule="evenodd" d="M1116.48411,2080.97654 L867.483239,2591.94596 L867.483239,2591.94596 C853.450923,2620.74138 865.418783,2655.46011 894.214202,2669.49243 C907.282259,2675.86063 922.265253,2677.08931 936.196191,2672.93514 L1628.24332,2466.56852 L1628.24332,2466.56852 C1657.96241,2457.70636 1681.88801,2435.55728 1693.01222,2406.6088 L1751.55869,2254.25361 L1751.55869,2254.25361 C1771.36932,2202.7005 1745.63695,2144.84875 1694.08384,2125.03812 C1689.02138,2123.09274 1683.80905,2121.56241 1678.49843,2120.46229 L1261.41849,2034.06174 L1226.66335,2026.86201 L1226.66335,2026.86201 C1181.88383,2017.58567 1136.51692,2039.86762 1116.48411,2080.97654 Z" transform="rotate(1 116787.844 -47762.672)"/>
</svg>
