<svg xmlns="http://www.w3.org/2000/svg" width="517" height="153" viewBox="0 0 517 153">
  <defs>
    <linearGradient id="shape-header-bg-2-a" x1="33.968%" x2="50%" y1="92.527%" y2="0%">
      <stop offset="0%" stop-color="#F3F8FA"/>
      <stop offset="100%" stop-color="#EAF0F4"/>
    </linearGradient>
  </defs>
  <path fill="url(#shape-header-bg-2-a)" fill-rule="evenodd" d="M1060.52896,192.164248 L922.177723,476.071897 L922.177723,476.071897 C908.145407,504.867316 920.113266,539.586055 948.908685,553.618371 C961.976742,559.986575 976.959737,561.215246 990.890674,557.061078 L1400.30706,434.974199 L1400.30706,434.974199 C1430.02615,426.112043 1453.95175,403.962957 1465.07596,375.014478 L1487.31633,317.13847 L1487.31633,317.13847 C1506.02292,268.458387 1481.72461,213.83069 1433.04453,195.124095 C1428.2642,193.287127 1423.34235,191.842086 1418.32768,190.803268 L1168.62069,139.075007 L1168.62069,139.075007 L1168.62069,139.075007 C1124.68958,129.974422 1080.18222,151.834206 1060.52896,192.164248 Z" transform="rotate(-140 625.577 323.012)"/>
</svg>
