<svg width="283" height="212" xmlns="http://www.w3.org/2000/svg" xmlns:xlink="http://www.w3.org/1999/xlink"><defs><linearGradient x1="50%" y1="0%" x2="33.968%" y2="92.527%" id="a"><stop stop-color="#F3F8FA" offset="0%"/><stop stop-color="#EAF0F4" offset="100%"/></linearGradient><path id="b" d="M.021.59v14.694h19.59L9.592.304z"/><linearGradient x1="50%" y1="0%" x2="50%" y2="100%" id="c"><stop stop-color="#00F9B7" offset="0%"/><stop stop-color="#00C7BA" offset="100%"/></linearGradient><path id="e" d="M15.014 1.271v14.695L.359 4.836 8.526.464z"/><linearGradient x1="60.801%" y1="-8.378%" x2="0%" y2="113.884%" id="f"><stop stop-color="#4CC9FF" offset="0%"/><stop stop-color="#42E4D6" offset="100%"/></linearGradient><path id="h" d="M3.766 21.893l14.655-10.698L3.766.065.402 1.419z"/><linearGradient x1="0%" y1="-12.498%" x2="100%" y2="100%" id="i"><stop stop-color="#7DB3FF" offset="0%"/><stop stop-color="#D1E7FF" offset="100%"/></linearGradient><path id="k" d="M.359 10.99L15.014.29h23.272L17.698 15.496z"/><linearGradient x1="50%" y1="135.851%" x2="50%" y2="-19.194%" id="l"><stop stop-color="#8BBCFF" offset="0%"/><stop stop-color="#4D65ED" offset="100%"/></linearGradient><linearGradient x1="70.895%" y1="71.366%" x2="-3.205%" y2="30.008%" id="n"><stop stop-color="#2A7BE2" offset="0%"/><stop stop-color="#1345C1" offset="100%"/></linearGradient><linearGradient x1="50%" y1="0%" x2="50%" y2="100%" id="o"><stop stop-color="#00F9B7" offset="0%"/><stop stop-color="#00DB75" offset="100%"/></linearGradient><linearGradient x1="50%" y1="0%" x2="33.968%" y2="92.527%" id="p"><stop stop-color="#0D3497" offset="0%"/><stop stop-color="#1857EB" offset="100%"/></linearGradient><linearGradient x1="0%" y1="0%" x2="92.124%" y2="94.502%" id="r"><stop stop-color="#8FAEFF" offset="0%"/><stop stop-color="#1857EB" offset="100%"/></linearGradient><path id="q" d="M23.144.098l24.305 3.69-.554 30.22-22.935-6.555z"/><rect id="t" x="0" y="0" width="20.561" height="27.255" rx="2"/><filter x="-265.1%" y="-174.3%" width="630.1%" height="499.9%" filterUnits="objectBoundingBox" id="s"><feOffset dy="7" in="SourceAlpha" result="shadowOffsetOuter1"/><feGaussianBlur stdDeviation="17" in="shadowOffsetOuter1" result="shadowBlurOuter1"/><feColorMatrix values="0 0 0 0 0.295112344 0 0 0 0 0.460989234 0 0 0 0 0.61591199 0 0 0 0.3 0" in="shadowBlurOuter1"/></filter><linearGradient x1="50%" y1="0%" x2="52.772%" y2="97.375%" id="u"><stop stop-color="#0E27FE" offset="0%"/><stop stop-color="#75C0FF" offset="100%"/></linearGradient><linearGradient x1="100%" y1="103.424%" x2="5.58%" y2="0%" id="v"><stop stop-color="#0097D9" offset="0%"/><stop stop-color="#A1C8FF" offset="100%"/></linearGradient><linearGradient x1="7.346%" y1="17.515%" x2="100%" y2="63.69%" id="x"><stop stop-color="#9EDDFF" offset="0%"/><stop stop-color="#6A70FE" offset="100%"/></linearGradient><path id="w" d="M24.947 10.348l22.502-6.56-.554 30.22L25.8 45.391z"/><linearGradient x1="50%" y1="0%" x2="34.005%" y2="92.315%" id="y"><stop stop-color="#6F1BF6" offset="0%"/><stop stop-color="#4880EB" offset="100%"/></linearGradient><linearGradient x1="0%" y1="0%" x2="100%" y2="100%" id="A"><stop stop-color="#6F1BF6" offset="0%"/><stop stop-color="#4880EB" offset="100%"/></linearGradient><path id="z" d="M18.322.078l19.242 2.92-.44 23.924-18.155-5.188z"/><linearGradient x1="86.703%" y1="-22.053%" x2="0%" y2="100%" id="B"><stop stop-color="#474CFF" offset="0%"/><stop stop-color="#497DFF" offset="13.297%"/><stop stop-color="#5E4AFF" offset="100%"/></linearGradient><rect id="D" x="0" y="0" width="16.277" height="21.577" rx="2"/><filter x="-334.8%" y="-220.1%" width="769.6%" height="605.2%" filterUnits="objectBoundingBox" id="C"><feOffset dy="7" in="SourceAlpha" result="shadowOffsetOuter1"/><feGaussianBlur stdDeviation="17" in="shadowOffsetOuter1" result="shadowBlurOuter1"/><feColorMatrix values="0 0 0 0 0.295112344 0 0 0 0 0.460989234 0 0 0 0 0.61591199 0 0 0 0.3 0" in="shadowBlurOuter1"/></filter><linearGradient x1="57.765%" y1="-69.867%" x2="59.928%" y2="100%" id="E"><stop stop-color="#889EF3" offset="0%"/><stop stop-color="#A7A4FF" offset="100%"/></linearGradient><linearGradient x1="0%" y1="0%" x2="100%" y2="100%" id="F"><stop stop-color="#B1E5FF" offset="0%"/><stop stop-color="#5E4AFF" offset="100%"/></linearGradient><linearGradient x1="7.346%" y1="17.515%" x2="100%" y2="63.69%" id="H"><stop stop-color="#B4AEF5" offset="0%"/><stop stop-color="#A88DFF" offset="100%"/></linearGradient><path id="G" d="M19.75 8.192L37.563 3l-.44 23.923-16.699 9.014z"/><linearGradient x1="50%" y1="0%" x2="52.772%" y2="97.375%" id="I"><stop stop-color="#5BADFF" offset="0%"/><stop stop-color="#97F2FF" offset="100%"/></linearGradient><linearGradient x1="32.233%" y1="13.176%" x2="100%" y2="63.69%" id="K"><stop stop-color="#4CC9FF" offset="0%"/><stop stop-color="#82FFF5" offset="100%"/></linearGradient><path id="J" d="M32.787.139L67.22 5.366l-.786 42.81-32.49-9.284z"/><linearGradient x1="93.427%" y1="7.09%" x2="24.196%" y2="60.891%" id="L"><stop stop-color="#00B0FD" offset="0%"/><stop stop-color="#42E4D6" offset="100%"/></linearGradient><rect id="N" x="0" y="0" width="29.128" height="38.612" rx="2"/><filter x="-187.1%" y="-123%" width="474.2%" height="382.3%" filterUnits="objectBoundingBox" id="M"><feOffset dy="7" in="SourceAlpha" result="shadowOffsetOuter1"/><feGaussianBlur stdDeviation="17" in="shadowOffsetOuter1" result="shadowBlurOuter1"/><feColorMatrix values="0 0 0 0 0.295112344 0 0 0 0 0.460989234 0 0 0 0 0.61591199 0 0 0 0.3 0" in="shadowBlurOuter1"/></filter><linearGradient x1="100%" y1="103.424%" x2="5.58%" y2="0%" id="O"><stop stop-color="#0097D9" offset="0%"/><stop stop-color="#ADFFF8" offset="100%"/></linearGradient><linearGradient x1="7.346%" y1="17.515%" x2="100%" y2="63.69%" id="Q"><stop stop-color="#AEEDF5" offset="0%"/><stop stop-color="#8DFFF5" offset="100%"/></linearGradient><path id="P" d="M35.341 14.66l31.88-9.294-.787 42.81-29.883 16.13z"/></defs><g fill="none" fill-rule="evenodd"><path fill="#FFF" d="M17 0h246v210H17z"/><g transform="translate(19 22)"><rect fill-opacity=".6" fill="#CEDBE2" x="97.715" y=".229" width="97.037" height="128.63" rx="3"/><rect fill="url(#a)" x="60.226" y="9.958" width="97.037" height="150" rx="3"/><rect fill="#FFF" x="77.971" y="18.974" width="97.037" height="128.63" rx="3"/><g transform="translate(103.867 39.87)"><mask id="d" fill="#fff"><use xlink:href="#b"/></mask><use fill="#FFF" xlink:href="#b"/><circle fill="url(#c)" mask="url(#d)" cy="14.311" r="11.585"/></g><g transform="translate(87.512 40.552)"><mask id="g" fill="#fff"><use xlink:href="#e"/></mask><use fill="#FFF" xlink:href="#e"/><path d="M14.993 26.578c4.683 0 8.718-2.78 10.544-6.778a11.543 11.543 0 0 0 1.041-4.807c0-6.399-5.187-11.586-11.585-11.586-6.399 0-11.586 5.187-11.586 11.586 0 6.398 5.187 11.585 11.586 11.585z" fill="url(#f)" mask="url(#g)"/></g><g transform="translate(84.104 45.322)"><mask id="j" fill="#fff"><use xlink:href="#h"/></mask><use fill="#FFF" xlink:href="#h"/><path d="M18.4 21.808c4.684 0 8.718-2.78 10.544-6.779a11.543 11.543 0 0 0 1.041-4.807c0-6.398-5.187-11.585-11.585-11.585-6.398 0-11.585 5.187-11.585 11.585 0 6.399 5.187 11.586 11.585 11.586z" fill="url(#i)" mask="url(#j)"/></g><g transform="translate(87.512 56.226)"><mask id="m" fill="#fff"><use xlink:href="#k"/></mask><use fill="#FFF" xlink:href="#k"/><path d="M14.993 10.904c4.683 0 8.718-2.78 10.544-6.779A11.543 11.543 0 0 0 26.578-.68c0-6.399-5.187-11.586-11.585-11.586C8.594-12.267 3.407-7.08 3.407-.68c0 6.398 5.187 11.585 11.586 11.585z" fill="url(#l)" mask="url(#m)"/></g><g transform="translate(124.312 42.596)"><rect fill="url(#l)" width="4.77" height="24.534" rx="1"/><rect fill="url(#i)" x="7.496" y="4.77" width="4.77" height="19.763" rx="1"/><rect fill="url(#c)" x="14.993" y="6.815" width="4.77" height="17.719" rx="1"/><rect fill="url(#f)" x="22.489" y="14.311" width="4.77" height="10.222" rx="1"/></g><g stroke="#3B7FEA" stroke-width="2" stroke-linecap="round" stroke-linejoin="round"><path d="M91.524 78.034h56.583" stroke-dasharray="11,4"/><path d="M91.524 84.167h63.354" stroke-dasharray="16,4"/><path d="M91.524 90.3h65.61" stroke-dasharray="24,7"/><path d="M91.524 96.434h36.273" stroke-dasharray="7,4"/></g><path d="M91.524 33.056h58.84" stroke="#3B7FEA" stroke-width="4" stroke-linecap="round" stroke-linejoin="round" stroke-dasharray="35,7"/><path stroke="url(#n)" stroke-linecap="round" stroke-linejoin="round" d="M91.603 120.486l7.219-3.773 9.275 10.087 3.585-6.156 1.936 2.999 7.586-5.591 2.92 1.76 1.993 2.86 3.232-.6 2.761.992 3.967-7.643 3.055 5.026 2.46-1.361 4.646 6.314 2.888.862 1.896-.927 1.354-2.84 3.71.457 5.643-7.335"/><path stroke="url(#o)" stroke-linecap="round" stroke-linejoin="round" transform="matrix(-1 0 0 1 253.332 0)" d="M91.603 130.027l7.219-3.773 9.275 10.087 3.585-6.156 1.936 2.998 7.586-5.59 2.92 1.759 1.993 2.86 3.232-.6 2.761.992 3.967-7.642 3.055 5.026 2.46-1.361 4.646 6.314 2.888.862 1.896-.927 1.354-2.84 3.71.457 5.643-7.335"/><path stroke="#A7B8C1" stroke-width="2" opacity=".9" stroke-linecap="round" stroke-linejoin="round" d="M32.923 96.416l34.37-15.121-22.84-3.686 42.115-18.064M222.084 55.082l-23.518-7.844-16.851 2.36L157 40M184.08 123.764l-50-15.882"/><g><g transform="translate(1 77.546)"><path fill="url(#p)" opacity=".5" d="M25.755 45.223L1.905 36.18l21.98-8.693 23.368 6.323z"/><use fill="url(#r)" opacity=".5" xlink:href="#q"/><path fill="url(#p)" opacity=".4" d="M23.034.045L0 5.05l2.069 31.131 22.137-8.683z"/><g transform="translate(13.933 7.621)"><use fill="#000" filter="url(#s)" xlink:href="#t"/><use fill="#FFF" xlink:href="#t"/></g><path d="M16.805 11.327h10.554M16.805 14.196h13.902" stroke="#3B7FEA" stroke-width="1.5" stroke-linecap="round" stroke-linejoin="round" stroke-dasharray="7,4"/><path d="M16.805 17.065h11.989" stroke="#3B7FEA" stroke-width="1.5" stroke-linecap="round" stroke-linejoin="round" stroke-dasharray="11,4"/><path d="M16.805 19.934h13.423M16.805 22.803h13.902" stroke="#3B7FEA" stroke-width="1.5" stroke-linecap="round" stroke-linejoin="round" stroke-dasharray="7,4"/><path d="M16.805 25.672h7.686" stroke="#3B7FEA" stroke-width="1.5" stroke-linecap="round" stroke-linejoin="round" stroke-dasharray="4,4"/><path d="M16.805 28.54h12.467" stroke="#3B7FEA" stroke-width="1.5" stroke-linecap="round" stroke-linejoin="round" stroke-dasharray="5,4"/><path d="M16.805 31.41h13.902" stroke="#3B7FEA" stroke-width="1.5" stroke-linecap="round" stroke-linejoin="round" stroke-dasharray="7,4"/><path fill="url(#u)" opacity=".6" d="M24.975 10.334L0 5.01 23.262 0l23.99 3.81z"/><path fill="url(#v)" opacity=".35" d="M24.95 10.334L0 5.05l2.069 31.131 23.744 9.196z"/><use fill="url(#x)" opacity=".3" xlink:href="#w"/></g><g transform="translate(204 35.546)"><path fill="url(#y)" opacity=".56" d="M20.39 35.802l-18.882-7.16 17.401-6.881 18.5 5.005z"/><use fill="url(#A)" opacity=".4" xlink:href="#z"/><path fill="url(#B)" opacity=".4" d="M18.235.036L0 3.998l1.638 24.645 17.525-6.874z"/><g transform="translate(11.03 6.034)"><use fill="#000" filter="url(#C)" xlink:href="#D"/><use fill="#FFF" xlink:href="#D"/></g><path d="M13.304 10.534h8.356" stroke="#3B7FEA" stroke-linecap="round" stroke-linejoin="round" stroke-dasharray="7,4"/><path d="M13.304 8.534h8.356M13.304 12.534h11.005" stroke="#3B7FEA" stroke-linecap="round" stroke-linejoin="round" stroke-dasharray="4,2"/><path d="M13.304 14.534h9.491" stroke="#3B7FEA" stroke-linecap="round" stroke-linejoin="round" stroke-dasharray="11,4"/><path d="M13.304 16.534H23.93" stroke="#3B7FEA" stroke-linecap="round" stroke-linejoin="round" stroke-dasharray="3,2"/><path d="M13.304 18.534h11.005" stroke="#3B7FEA" stroke-linecap="round" stroke-linejoin="round" stroke-dasharray="7,4"/><path d="M13.304 20.534h6.084" stroke="#3B7FEA" stroke-linecap="round" stroke-linejoin="round" stroke-dasharray="2,2"/><path d="M13.304 22.534h9.87" stroke="#3B7FEA" stroke-linecap="round" stroke-linejoin="round" stroke-dasharray="5,4"/><path d="M13.304 24.534h11.005" stroke="#3B7FEA" stroke-linecap="round" stroke-linejoin="round" stroke-dasharray="2,2"/><path fill="url(#E)" opacity=".6" d="M19.772 8.18L0 3.968 18.416 0l18.993 3.016z"/><path fill="url(#F)" opacity=".35" d="M19.753 8.181L0 3.998l1.638 24.645 18.797 7.28z"/><use fill="url(#H)" opacity=".3" xlink:href="#G"/></g><g transform="translate(154 100.546)"><path fill="url(#I)" opacity=".6" d="M36.486 64.066L2.7 51.254 33.837 38.94l33.105 8.957z"/><use fill="url(#K)" opacity=".5" xlink:href="#J"/><path fill="url(#L)" opacity=".4" d="M32.632.064L0 7.154l2.93 44.103 31.362-12.302z"/><g transform="translate(19.738 10.797)"><use fill="#000" filter="url(#M)" xlink:href="#N"/><use fill="#FFF" xlink:href="#N"/></g><path d="M23.807 16.047h14.952M23.807 20.111H43.5" stroke="#3B7FEA" stroke-width="1.5" stroke-linecap="round" stroke-linejoin="round" stroke-dasharray="7,4"/><path d="M23.807 24.175H40.79" stroke="#3B7FEA" stroke-width="1.5" stroke-linecap="round" stroke-linejoin="round" stroke-dasharray="11,4"/><path d="M23.807 28.24h19.017M23.807 32.304H43.5" stroke="#3B7FEA" stroke-width="1.5" stroke-linecap="round" stroke-linejoin="round" stroke-dasharray="7,4"/><path d="M23.807 36.369h10.888" stroke="#3B7FEA" stroke-width="1.5" stroke-linecap="round" stroke-linejoin="round" stroke-dasharray="4,4"/><path d="M23.807 40.433h17.662" stroke="#3B7FEA" stroke-width="1.5" stroke-linecap="round" stroke-linejoin="round" stroke-dasharray="5,4"/><path d="M23.807 44.497H43.5" stroke="#3B7FEA" stroke-width="1.5" stroke-linecap="round" stroke-linejoin="round" stroke-dasharray="7,4"/><path fill="url(#I)" opacity=".6" d="M35.38 14.64L0 7.098 32.954 0l33.988 5.397z"/><path fill="url(#O)" opacity=".35" d="M35.347 14.64L0 7.155l2.93 44.102 33.638 13.027z"/><use fill="url(#Q)" opacity=".3" xlink:href="#P"/></g></g></g></g></svg>