<svg width="246" height="210" xmlns="http://www.w3.org/2000/svg"><defs><linearGradient x1="50%" y1="0%" x2="33.968%" y2="92.527%" id="a"><stop stop-color="#F3F8FA" offset="0%"/><stop stop-color="#EAF0F4" offset="100%"/></linearGradient><linearGradient x1="72.687%" y1="100%" x2="50%" y2="0%" id="b"><stop stop-color="#4194FF" offset="0%"/><stop stop-color="#175FE1" offset="100%"/></linearGradient><linearGradient x1="32.233%" y1="13.176%" x2="100%" y2="63.69%" id="c"><stop stop-color="#4CC9FF" offset="0%"/><stop stop-color="#82FFF5" offset="100%"/></linearGradient><linearGradient x1="50%" y1="135.851%" x2="50%" y2="-19.194%" id="d"><stop stop-color="#AA8BFF" offset="0%"/><stop stop-color="#514DED" offset="100%"/></linearGradient></defs><g fill="none" fill-rule="evenodd"><path fill="#FFF" d="M0 0h246v210H0z"/><g stroke="#D8EAF2" stroke-width="2"><path d="M125.117 192.57c9.347-14.835 14.43-23.668 15.246-26.497.818-2.83 2.544-7.206 5.18-13.129l2.494-5.765M148.966 104.737l54.631-49.851M140.496 112.52c-.553-8.404-7.669-14.263-21.346-17.578-13.678-3.314-20.594-8.34-20.75-15.077L44.536 43.639M93.235 109.39l5.837 22.76 6.747 16.348 3.242 17.504 3.778.183M115.494 155.433l25.6 7.578" stroke-linecap="round" stroke-linejoin="round"/><path stroke-linecap="round" stroke-linejoin="round" d="M122.818 114.033l13.916-10.514 5.178-3.137 12.1-10.454 1.847-8.472 7.75-32.963M145.569 149.466l31.153 20.103M88.191 109.469c2.112 13.58-1.865 21.89-11.93 24.927-10.066 3.038-31.708 10.762-64.927 23.174M84.4 129.78l16.069 40.508M146.483 134.091l13.666-9.857"/><path d="M149.093 146.67l-11.67-8.762-11.444-6.512"/><path d="M119.261 125.156l6.176 6.138" stroke-linecap="round" stroke-linejoin="round"/></g><g stroke="#AAC2D1" stroke-width="2" stroke-linecap="round" stroke-linejoin="round"><path d="M50.033 171.137l40.765-.877c10.754.21 18.743 1.303 23.967 3.279s14.724 2.822 28.5 2.538c15.217-4.656 25.296-7.04 30.237-7.153 7.412-.168 19.317 3.064 25.871 6.473 6.555 3.41 23.202-.784 28.935-14.525 3.822-9.16 9.338-20.953 16.55-35.379M35.967 120.169l20.128-8.431c7.694-1.57 12.125-4.533 13.295-8.888 1.17-4.355 7.148-14.267 17.936-29.737L99.05 53.134c1.235-2.71 4.502-4.658 9.8-5.843 7.948-1.778 15.583 5.933 16.314 12.082.487 4.1 3.08 10.01 7.778 17.728l5.83 21.006"/><path d="M10.117 99.86l85.879 10.375c5.78 1.236 13.469.924 23.068-.934 9.599-1.858 16.597-.927 20.993 2.794l5.233 21.214 10.733 13.861c8.173 5.682 13.035 9.547 14.588 11.595 1.552 2.048 6.61 3.295 15.173 3.742l16.232 7.978 4.666-3.506 22.91 15.608M207.85 167.887L161.2 139.66"/><path d="M143.156 148.56c-2.72-.096-7.407-.139-14.06-.128-6.654.01-14.342-.045-23.066-.166-12.23 3.425-20.506 6.22-24.828 8.386-4.323 2.167-16.131 7.494-35.423 15.984l-13.299 5.376M21.633 159.85l104.755-37.094 11.175 3.686 6.063-.061c5.006.202 8.92-1.7 11.742-5.706"/><path d="M155.207 120.78l2.06-6.422 4.287-3.771c3.89-11.2 3.805-19.115-.256-23.746-4.06-4.63-10.188-7.811-18.383-9.54l-24.187 17.618-.11 14.49"/><path d="M111.624 171.958l4.844-23.871 12.95-24.766 5.593-6.24c-10.237-1.344-15.598-4.04-16.085-8.088M134.6 116.874c10.146 2.79 16.833.79 20.063-5.998M92.533 109.371l9.41-22.745c4.316-5.214 7.575-7.599 9.778-7.156 2.203.443 4.745 5.585 7.626 15.424M139.146 126.948l-.508 7.827-11.142 13.29-6.322 26.612"/><path d="M122.376 190.505l12.318-34.305c1.631-4.992 4.276-7.518 7.933-7.58 5.486-.092 18.716-5.137 19.075-11.884.24-4.497-.618-10.255-2.573-17.274-1.27-5.155-3.833-9.033-7.69-11.635-5.788-3.902-19.185-13.223-23.798-22.637-3.076-6.277-13.016-16.982-29.82-32.115-8.974-6.884-14.994-13.139-18.06-18.765"/></g><path fill="url(#a)" d="M37.117 11.437l44.65 27.73-7.483 9.724-15.607-7.162-4.51 4.04-9.616-.129 5.035 7.247 7.772 4.357 9.318-2.313 2.334 2.88-4.39 9.468-43.737-6.448-3.76-10.16-9.94-.579-6.685 2.413L2.45 34.747l13.77-.608v-5.824l10.845-4.858zM99.614 80.574l1.45 10.276 8.909-1.096 4.991-3.49 8.08-.128-1.379-3.599-7.96-2.397zM164.44 80.611v11.68h10.224l-1.264 4.553-4.755.263v6.602l10.51 5.316h15.75l1.496 6.68 5.226 8.344 15.975 6.815 5.83-11.545 7.738-16.123-7.842-3.715 10.296-2.928 1.27-6.228-5.292-7.184 5.428-12.211-4.544-6.313H214.22l-3.433 7.255-10.921-4.126 4.79-16.52-5.98-9.716h-6.012l-6.162 3.792-12.369 7.642-1.523 4.932v7.07l-.213 10.012zM83.974 107.652l2.184 3.103 1.565 3.106-20.035 10.467-21.999 9.593-11.955 5.391-11.497.161-3.748-2.837-.642-4.693z" transform="translate(0 34)"/><g transform="translate(4 123)" fill="#009FFF"><ellipse fill-opacity=".13" cx="34.5" cy="12.5" rx="34.5" ry="12.5"/><ellipse fill-opacity=".19" cx="35" cy="12.5" rx="18" ry="6.5"/><ellipse fill-opacity=".28" cx="35" cy="12.5" rx="7" ry="2.5"/></g><path d="M38.509 118.465c14-10.403 21-19.446 21-27.13 0-11.526-9.402-20.87-21-20.87s-21 9.344-21 20.87c0 7.684 7 16.727 21 27.13z" fill="url(#b)" transform="translate(0 17)"/><g stroke="#FFF" stroke-linecap="round" stroke-linejoin="round"><path d="M46.62 104.937c0 2.909-2.371 5.267-5.296 5.267-2.925 0-5.296-2.358-5.296-5.267 0-2.91 2.371-5.268 5.296-5.268 2.925 0 5.296 2.358 5.296 5.268" fill="#2D7AF0"/><path d="M42.465 108.504a3.385 3.385 0 0 0-3.378-3.702 3.39 3.39 0 0 0-1.92.594 4.842 4.842 0 0 0-4.46-2.94c-2.672 0-4.84 2.155-4.84 4.814 0 .482.074.947.206 1.386-1.737.251-3.073 1.736-3.073 3.534 0 1.974 1.61 3.575 3.594 3.575h13.152c2.035 0 3.685-1.641 3.685-3.666a3.671 3.671 0 0 0-2.966-3.595" fill="#2B78EF"/><path d="M40.587 97.708v-3.516M48.775 104.583h3.535M35.787 100.192l-2.5-2.486M48.983 112.583l-2.5-2.486M45.862 100l2.5-2.486"/></g><g transform="translate(124 53)" fill="#00F9E6"><ellipse fill-opacity=".14" cx="34.5" cy="12.5" rx="34.5" ry="12.5"/><ellipse fill-opacity=".2" cx="35" cy="12.5" rx="18" ry="6.5"/><ellipse fill-opacity=".12" cx="35" cy="12.5" rx="7" ry="2.5"/></g><path d="M159.229 48.951c14-10.403 21-19.446 21-27.13 0-11.526-9.402-20.87-21-20.87s-21 9.344-21 20.87c0 7.684 7 16.727 21 27.13z" fill="url(#c)" transform="translate(0 17)"/><g stroke="#FFF" stroke-linecap="round" stroke-linejoin="round"><path d="M154.801 32.66c.187-.2.506-.2.693 0 1.28 1.37 5.669 6.388 5.669 10.712a6.014 6.014 0 0 1-6.016 6.012 6.014 6.014 0 0 1-6.015-6.012c0-4.324 4.39-9.341 5.669-10.712M155.147 47.172a4.144 4.144 0 0 1-4.145-4.143M164.994 26.248a.327.327 0 0 1 .479 0c.885.948 3.917 4.415 3.917 7.403a4.155 4.155 0 0 1-4.156 4.155 4.155 4.155 0 0 1-4.157-4.155c0-2.988 3.033-6.455 3.917-7.403M165.952 35.559a2.864 2.864 0 0 1-2.864-2.863"/></g><g transform="translate(138 145)" fill="#A78DF2"><ellipse fill-opacity=".3" cx="34.5" cy="12.5" rx="34.5" ry="12.5"/><ellipse fill-opacity=".4" cx="35" cy="12.5" rx="18" ry="6.5"/><ellipse fill-opacity=".8" cx="35" cy="12.5" rx="7" ry="2.5"/></g><path d="M172.754 140.86c14-10.402 21-19.446 21-27.13 0-11.525-9.402-20.87-21-20.87s-21 9.345-21 20.87c0 7.684 7 16.728 21 27.13z" fill="url(#d)" transform="translate(0 17)"/><g stroke="#FFF" stroke-linecap="round" stroke-linejoin="round"><path d="M173.165 118.887a4.226 4.226 0 0 1 6.721 3.412 4.226 4.226 0 0 1-4.228 4.225h-12.525s-4.203.056-4.203 4.703M173.165 122.3a2.492 2.492 0 1 1 2.493 2.491M179.693 141.645a4.226 4.226 0 0 0 4.227-4.225 4.226 4.226 0 0 0-4.227-4.225h-14.627M177.2 137.42a2.492 2.492 0 1 0 2.493-2.492M173.892 124.605h-5.043M163.47 128.605h17.818M167.167 130.605h19.416"/></g></g></svg>