<svg width="360" height="302" xmlns="http://www.w3.org/2000/svg" xmlns:xlink="http://www.w3.org/1999/xlink"><defs><linearGradient x1="-17.717%" y1="-40.756%" x2="100%" y2="100%" id="a"><stop stop-color="#A5C1CC" offset="0%"/><stop stop-color="#BED2E0" offset="100%"/></linearGradient><linearGradient x1="50%" y1="0%" x2="53.518%" y2="100%" id="b"><stop stop-color="#D5E9F1" offset="0%"/><stop stop-color="#DEECF5" offset="100%"/></linearGradient><filter x="-26%" y="-60.7%" width="152.1%" height="221.3%" filterUnits="objectBoundingBox" id="c"><feGaussianBlur stdDeviation="15" in="SourceGraphic"/></filter><filter x="-33.7%" y="-108.9%" width="167.4%" height="317.8%" filterUnits="objectBoundingBox" id="d"><feGaussianBlur stdDeviation="15" in="SourceGraphic"/></filter><linearGradient x1="45.064%" y1="45.91%" x2="45.064%" y2="2.633%" id="e"><stop stop-color="#7DB3FF" offset="0%"/><stop stop-color="#D1E7FF" stop-opacity="0" offset="100%"/></linearGradient><linearGradient x1="57.765%" y1="-69.867%" x2="59.928%" y2="100%" id="f"><stop stop-color="#A4CAFF" offset="0%"/><stop stop-color="#D1E7FF" offset="100%"/></linearGradient><linearGradient x1="60.01%" y1="2.191%" x2="60.01%" y2="43.976%" id="g"><stop stop-color="#E6EEF9" stop-opacity="0" offset="0%"/><stop stop-color="#AED0FF" offset="100%"/></linearGradient><linearGradient x1="0%" y1="-12.498%" x2="100%" y2="100%" id="h"><stop stop-color="#7DB3FF" offset="0%"/><stop stop-color="#D1E7FF" offset="100%"/></linearGradient><linearGradient x1="50%" y1="0%" x2="33.968%" y2="92.527%" id="i"><stop stop-color="#A1C4F5" offset="0%"/><stop stop-color="#EAEFF6" offset="100%"/></linearGradient><path d="M5.21 14.113L51.914.483 48.43 49.185l-.92-.37-1.462.623-1.578-.636-18.84 7.954-.584 9.62 20.246 3.638 1.707-.825-1.606 22.456L.12 116.3 5.21 14.113zm13.41 8.763l-.315 1.316-.158 1.352.009 1.295.176 1.148.329.923.459.636.557.305 1.867.263.616-.044.633-.389.609-.706.543-.974.442-1.177.31-1.3.16-1.338-.004-1.285-.166-1.145-.318-.93-.45-.648-.55-.323-1.873-.244-.618.026-.639.375-.617.7-.553.976-.449 1.188zm-8.525 2.772l-.323 1.345-.158 1.382.017 1.322.19 1.17.35.94.484.644.586.306 1.89.276.645-.05.66-.403.634-.725.564-1 .455-1.204.318-1.33.16-1.365-.011-1.31-.18-1.168-.339-.946-.474-.659-.578-.325-1.898-.254-.645.031-.668.388-.642.719-.573 1-.464 1.216zm-.817 15.58l-.32 1.336-.156 1.365.017 1.298.19 1.143.348.908.482.612.583.277 1.875.305.641-.078.658-.424.63-.74.56-1.006.452-1.204.316-1.32.158-1.35-.012-1.288-.18-1.14-.336-.914-.473-.627-.575-.295-1.882-.284-.643.058-.663.41-.64.734-.57 1.009-.46 1.215zm8.481-3.092l-.313 1.307-.156 1.336.01 1.273.175 1.122.328.893.457.604.555.277 1.852.292.613-.07.63-.41.605-.72.54-.982.44-1.176.308-1.292.157-1.322-.004-1.263-.166-1.118-.317-.9-.448-.618-.548-.294-1.858-.272-.614.052-.636.396-.614.714-.55.985-.446 1.186zm-.848 15.04l-.31 1.298-.156 1.32.01 1.251.176 1.095.326.865.456.575.553.248 1.836.32.61-.096.627-.43.602-.734.537-.988.437-1.175.306-1.284.156-1.306-.005-1.241-.165-1.093-.317-.871-.446-.589-.546-.265-1.843-.3-.611.078-.632.416L17.9 51l-.546.99-.444 1.186zm-8.437 3.4l-.318 1.328-.155 1.348.018 1.276.19 1.115.346.878.48.582.58.247 1.86.334.637-.104.654-.445.627-.755.556-1.013.45-1.203.314-1.312.156-1.333-.012-1.265-.18-1.113-.335-.885-.47-.596-.573-.265-1.867-.313-.639.085-.66.431-.635.749-.566 1.016-.458 1.214zM7.68 71.702l-.315 1.318-.154 1.332.019 1.254.189 1.088.345.849.478.552.577.218 1.845.361.634-.129.65-.465.623-.768.554-1.02.447-1.202.312-1.303.154-1.317-.013-1.244-.179-1.087-.334-.855-.468-.566-.57-.236-1.852-.342-.636.111-.656.452-.632.763-.563 1.023-.455 1.213zM16.075 68l-.308 1.29-.154 1.305.01 1.23.175 1.07.326.835.454.547.55.22 1.822.346.607-.119.624-.45.599-.747.534-.995.433-1.174.304-1.275.155-1.292-.005-1.22-.166-1.067-.315-.843-.445-.56-.543-.237-1.828-.327-.608.102-.63.436-.607.743-.543.998-.441 1.184zm29.039-28.45l1.966-28.26-19.058 6.073-1.803 29.685 18.895-7.497z" id="j"/><linearGradient x1="49.957%" y1="16.396%" x2="49.957%" y2="91.979%" id="l"><stop stop-color="#8FDDFF" stop-opacity="0" offset="0%"/><stop stop-color="#9FE9FF" offset="100%"/></linearGradient><linearGradient x1="50%" y1="0%" x2="52.772%" y2="97.375%" id="m"><stop stop-color="#5BADFF" offset="0%"/><stop stop-color="#97F2FF" offset="100%"/></linearGradient><linearGradient x1="65.686%" y1="69.402%" x2="59.878%" y2="5.775%" id="n"><stop stop-color="#0074D6" offset="0%"/><stop stop-color="#82FFF4" stop-opacity="0" offset="100%"/></linearGradient><linearGradient x1="46.665%" y1="5.641%" x2="50%" y2="93.103%" id="o"><stop stop-color="#4DC9FF" stop-opacity="0" offset="0%"/><stop stop-color="#B2FFF9" offset="100%"/></linearGradient><linearGradient x1="93.427%" y1="7.09%" x2="24.196%" y2="60.891%" id="p"><stop stop-color="#00B0FD" offset="0%"/><stop stop-color="#42E4D6" offset="100%"/></linearGradient><linearGradient x1="32.233%" y1="13.176%" x2="100%" y2="63.69%" id="q"><stop stop-color="#4CC9FF" offset="0%"/><stop stop-color="#82FFF5" offset="100%"/></linearGradient><path d="M.24 25.299L86.265.193l-2.15 117.427-80.71 43.955L.24 25.3zm10.67 32.325L59.244 40.32l.105-19.253L10.525 36.62l.326 17.77.06 3.234zm48.197 7.813l.103-18.78L11.037 64.53l.375 20.44 47.695-19.533zM75.894 17.05l-1.354-.504-.913.092-.557.056-1.487.797-1.401 1.393-1.216 1.9-.943 2.27-.604 2.486-.222 2.523.175 2.384.56 2.076.9 1.626 1.175 1.068 1.37.441 1.466-.209 1.466-.839 1.367-1.408 1.178-1.88.912-2.224.588-2.423.225-2.463-.154-2.34-.524-2.062-.863-1.646-1.144-1.114zM67.78 48.11l-.596 2.458-.22 2.474.175 2.314.552 1.995.89 1.536 1.163.976 1.353.354 1.451-.285 1.45-.9 1.35-1.45 1.165-1.899.902-2.222.58-2.397.222-2.415-.152-2.274-.52-1.982-.852-1.557-1.133-1.023-1.337-.415-1.454.227-1.47.86-1.385 1.437-1.201 1.92-.933 2.268zm-54.708 49.64l.585 33.232-.188.3-.356.85-.218.89-.064.871.094.792.245.656.379.478.195.106.127 7.233 1.829-.952-.093-5.57.535.187.56.036.595-.195.59-.411.547-.6.464-.75.352-.844.216-.886.065-.866-.09-.788-.239-.657-.372-.482-.48-.272-2.11-.72-.558-.045-.196.061-.54-32.468-1.053.458-.821.357zm9.321-4.052l.044 3.377-.25.39-.351.835-.217.888-.067.878.09.809.237.683.369.511.255.164.467 36.188 1.688-.879-.418-34.708.608.184.548.077.583-.154.58-.376.537-.57.458-.725.349-.831.214-.882.068-.873-.084-.806-.231-.683-.363-.515-.47-.311-2.128-.625-.546-.086-.209.052-.033-2.763-1.05.456-.678.295zm8.844-3.845l.21 24.962-.145.235-.34.818-.21.864-.067.85.08.776.225.65.35.48.148.09.12 14.344 1.71-.89-.097-12.808.66.213.523.054.557-.17.555-.382.514-.57.44-.715.336-.815.208-.858.069-.845-.077-.773-.218-.651-.344-.483-.447-.283-2.093-.654-.52-.063-.216.062-.183-24.198-1.047.456-.701.304zm8.626-3.75l.019 4.527-.128.203-.334.805-.21.857-.068.85.076.785.216.665.339.5.128.088.14 34.148 1.654-.86-.107-32.678.723.209.509.082.544-.142.543-.355.503-.544.432-.697.33-.801.208-.852.07-.845-.072-.782-.21-.666-.333-.504-.434-.308-2.102-.586-.507-.091-.226.055-.012-3.798-1.045.454-.646.28zm8.341-3.627v19.571l-.108.175-.324.79-.203.837-.07.827.07.76.204.64.323.477.107.073-.001 18.656 1.6-.834.016-17.223.768.23.487.067.522-.15.522-.358.485-.542.416-.686.32-.786.202-.832.071-.822-.066-.757-.198-.642-.318-.48-.415-.288-2.072-.602-.486-.076-.233.063.017-18.799-1.04.453-.596.258zm8.072-3.51l-.052 12.849-.09.147-.317.776-.2.826-.07.819.063.755.195.64.311.482.089.063-.101 24.844 1.55-.807.115-23.458.817.232.472.079.507-.138.506-.343.473-.526.407-.671.313-.773.199-.821.072-.814-.061-.753-.19-.64-.306-.485-.401-.296-2.066-.568-.471-.086-.24.061.059-12.081-1.037.45-.546.238z" id="r"/><linearGradient x1="50%" y1="0%" x2="33.968%" y2="92.527%" id="t"><stop stop-color="#F3F8FA" offset="0%"/><stop stop-color="#EAF0F4" offset="100%"/></linearGradient><linearGradient x1="34.733%" y1="0%" x2="64.192%" y2="100%" id="u"><stop stop-color="#C4E1ED" offset="0%"/><stop stop-color="#CBDCE8" offset="100%"/></linearGradient><linearGradient x1="50%" y1="0%" x2="33.968%" y2="92.527%" id="v"><stop stop-color="#0D3497" offset="0%"/><stop stop-color="#1857EB" offset="100%"/></linearGradient><linearGradient x1="50%" y1="100%" x2="50%" y2="0%" id="w"><stop stop-color="#00F98B" offset="0%"/><stop stop-color="#00DB75" offset="100%"/></linearGradient><linearGradient x1="-21.597%" y1="0%" x2="167.95%" y2="117.532%" id="x"><stop stop-color="#A1C4F5" offset="0%"/><stop stop-color="#E8EEF6" offset="96.303%"/><stop stop-color="#EAEFF6" offset="100%"/></linearGradient><linearGradient x1="50%" y1="0%" x2="74.253%" y2="90.817%" id="y"><stop stop-color="#D3E6FF" offset="0%"/><stop stop-color="#EAEFF6" offset="100%"/></linearGradient><linearGradient x1="21.329%" y1="34.959%" x2="116.147%" y2="34.959%" id="z"><stop stop-color="#FBFEFF" offset="0%"/><stop stop-color="#EAF0F4" offset="100%"/></linearGradient><linearGradient x1="50%" y1="135.851%" x2="50%" y2="-19.194%" id="A"><stop stop-color="#FEC5E6" offset="0%"/><stop stop-color="#FF66DC" offset="100%"/></linearGradient><linearGradient x1="50%" y1="135.851%" x2="50%" y2="-19.194%" id="B"><stop stop-color="#8BBCFF" offset="0%"/><stop stop-color="#4D65ED" offset="100%"/></linearGradient><linearGradient x1="35.079%" y1="0%" x2="100%" y2="100%" id="C"><stop stop-color="#5CB2FF" offset="0%"/><stop stop-color="#58D1C9" offset="100%"/></linearGradient><linearGradient x1="0%" y1="0%" x2="77.188%" y2="113.648%" id="D"><stop stop-color="#2556D3" offset="0%"/><stop stop-color="#1857EB" offset="100%"/></linearGradient><linearGradient x1="0%" y1="0%" x2="50%" y2="118.318%" id="E"><stop stop-color="#0173DA" offset="0%"/><stop stop-color="#379CDD" offset="100%"/></linearGradient><linearGradient x1="0%" y1="-28.77%" x2="100%" y2="115.939%" id="F"><stop stop-color="#4E68E9" offset="0%"/><stop stop-color="#879FFA" offset="51.005%"/><stop stop-color="#1F4EE5" offset="100%"/></linearGradient><linearGradient x1="0%" y1="-12.498%" x2="100%" y2="100%" id="G"><stop stop-color="#A6B2FF" offset="0%"/><stop stop-color="#E3F0FE" offset="100%"/></linearGradient><linearGradient x1="0%" y1="-12.498%" x2="100%" y2="100%" id="H"><stop stop-color="#D2D8FF" offset="0%"/><stop stop-color="#D1E7FF" offset="100%"/></linearGradient><linearGradient x1="0%" y1="-12.498%" x2="100%" y2="100%" id="I"><stop stop-color="#B0B7FF" offset="0%"/><stop stop-color="#EAF4FF" offset="100%"/></linearGradient><linearGradient x1="0%" y1="-12.498%" x2="97.893%" y2="97.63%" id="J"><stop stop-color="#CBC6FF" offset="0%"/><stop stop-color="#F3F7FF" offset="100%"/></linearGradient><linearGradient x1="50%" y1="100%" x2="145.611%" y2="31.809%" id="K"><stop stop-color="#AFB5FA" offset="0%"/><stop stop-color="#1F4EE5" offset="100%"/></linearGradient><linearGradient x1="60.801%" y1="-8.378%" x2="0%" y2="113.884%" id="L"><stop stop-color="#0097DA" offset="0%"/><stop stop-color="#1BB6E0" offset="100%"/></linearGradient><path id="M" d="M36.05 44.683l-33.539-9.41L.3.203l34.036 7.81z"/><linearGradient x1="50%" y1="0%" x2="50%" y2="100%" id="N"><stop stop-color="#00F9B7" offset="0%"/><stop stop-color="#00C7BA" stop-opacity="0" offset="100%"/></linearGradient><linearGradient x1="50%" y1="0%" x2="50%" y2="100%" id="P"><stop stop-color="#00F9B7" offset="0%"/><stop stop-color="#00C7BA" offset="100%"/></linearGradient><linearGradient x1="70.895%" y1="71.366%" x2="-3.205%" y2="30.008%" id="Q"><stop stop-color="#2A7BE2" offset="0%"/><stop stop-color="#1345C1" offset="100%"/></linearGradient><linearGradient x1="100%" y1="67.08%" x2="16.863%" y2="41.231%" id="R"><stop stop-color="#2A7BE2" offset="0%"/><stop stop-color="#1345C1" offset="100%"/></linearGradient><linearGradient x1="50%" y1="0%" x2="50%" y2="84.807%" id="S"><stop stop-color="#0097DA" offset="0%"/><stop stop-color="#1BB6E0" offset="100%"/></linearGradient><linearGradient x1="50%" y1="0%" x2="50%" y2="100%" id="T"><stop stop-color="#00F9B7" offset="0%"/><stop stop-color="#00DB75" offset="100%"/></linearGradient><linearGradient x1="50%" y1="0%" x2="34.005%" y2="92.315%" id="U"><stop stop-color="#755CEA" offset="0%"/><stop stop-color="#4D85ED" offset="100%"/></linearGradient><path id="V" d="M14.723 26.636L.371 32.235 2.019 5.096 16.487.486z"/><linearGradient x1="50%" y1="0%" x2="34.005%" y2="92.315%" id="W"><stop stop-color="#6F1BF6" offset="0%"/><stop stop-color="#4880EB" offset="100%"/></linearGradient><linearGradient x1="4.603%" y1="50%" x2="100%" y2="126.493%" id="X"><stop stop-color="#768FED" offset="0%"/><stop stop-color="#6170E2" offset="100%"/></linearGradient><rect id="Z" x="91.124" y="49.968" width="58" height="24" rx="2"/><filter x="-94%" y="-197.9%" width="287.9%" height="554.2%" filterUnits="objectBoundingBox" id="Y"><feOffset dy="7" in="SourceAlpha" result="shadowOffsetOuter1"/><feGaussianBlur stdDeviation="17" in="shadowOffsetOuter1" result="shadowBlurOuter1"/><feColorMatrix values="0 0 0 0 0.295112344 0 0 0 0 0.460989234 0 0 0 0 0.61591199 0 0 0 0.3 0" in="shadowBlurOuter1"/></filter><rect id="ab" x="235.367" y="27.475" width="53" height="21" rx="1"/><filter x="-102.8%" y="-226.2%" width="305.7%" height="619%" filterUnits="objectBoundingBox" id="aa"><feOffset dy="7" in="SourceAlpha" result="shadowOffsetOuter1"/><feGaussianBlur stdDeviation="17" in="shadowOffsetOuter1" result="shadowBlurOuter1"/><feColorMatrix values="0 0 0 0 0.295112344 0 0 0 0 0.460989234 0 0 0 0 0.61591199 0 0 0 0.3 0" in="shadowBlurOuter1"/></filter></defs><g fill="none" fill-rule="evenodd"><path fill="#FFF" d="M0 0h360v302H0z"/><path fill="#EEF7FC" d="M249.859 226.479l-.16 4.57-110.497 69.918-.124-5.542z"/><path fill="url(#a)" d="M129.078 105.064l.124 5.542L.836 53.092l-.418-4.749z" transform="translate(10 190.36)"/><path fill="url(#b)" d="M239.859 36.118l-110.781 68.946L.418 48.344 41.274 31.27l85.277 33.161 74.05-40.328z" transform="translate(10 190.36)"/><path fill="#698DA9" opacity=".4" filter="url(#c)" d="M35.16 38.634l91.368 35.76 81.43-44.039L117.98.205z" transform="translate(10 190.36)"/><path fill="#D9EAF3" d="M349.963 164.178l-.303 3.619-61.39 38.845.23-4.211z"/><path fill="url(#a)" d="M95.007 60.15l-.228 4.212-70.583-19.154.072-3.922z" transform="translate(193.492 142.28)"/><path fill="url(#b)" d="M95.007 60.15L24.268 41.287l.412-22.467 62.772 15.057 35.105-19.119 33.914 7.141z" transform="translate(193.492 142.28)"/><path fill="#698DA9" opacity=".33" filter="url(#d)" d="M.326 20.481l87.443 21.042 46.105-25.396L56.654.205z" transform="translate(193.492 142.28)"/><path fill="url(#e)" opacity=".2" d="M127.466 143.512l9.927-136.789L54.775.113l-6.008 137.293z" transform="translate(198.398 8.34)"/><path fill="url(#f)" d="M.45 54.627L52.63 43.356l81.707 8.642-46.704 13.63z" transform="translate(198.398 8.34)"/><path fill="url(#e)" opacity=".9" d="M82.328 167.553l7.965-151.018L.316 9.925l.86 137.294z" transform="translate(198.398 8.34)"/><path fill="url(#g)" d="M81.67 167.047l45.838-25.501 9.908-128.964-47.025 6.623z" transform="translate(198.398 8.34)"/><path d="M82.545 167.815L19.773 152.76l1.24-67.688-20.79-3.31.227-27.134 87.184 11-5.089 102.188zM28.453 83.14l48.452 7.536.71-15.672-48.837-6.74-.325 14.876zm-.107 4.911l-.32 14.598 47.95 8.563.695-15.363-45.56-7.351-2.765-.447zm-15.59-21.747l-1.469.532-1.264.99-.974 1.378-.62 1.673-.227 1.855.18 1.91.576 1.839.932 1.646 1.226 1.343 1.44.95 1.557.489 1.57-.005 1.478-.501 1.283-.967.999-1.37.644-1.68.243-1.874-.175-1.94-.584-1.869-.95-1.668-1.251-1.352-1.464-.943-1.574-.47-.371.008-.457.01-.747.016zm60.28 79.671l1.11-24.907-1.308-.249-.514-.097-1.076 24.622-.487.112-1.051.499-.481.288-.379.43-.248.54-.104.617.05.65.198.64.334.585.448.493.53.365.578.214.374.03-.194 4.442 1.789.41.244-5.486.455-.269.381-.427.252-.54.105-.619-.048-.652-.199-.64-.335-.588-.424-.463zm-8.1-24.406l.09-2.233-1.184-.226-.522-.098-.079 2.026-.492.13-1.073.437-.476.306-.373.445-.245.556-.1.627.051.656.2.64.333.584.445.484.527.354.573.199.417.022-1.05 26.747 1.675.383 1.11-27.693.044-.02.478-.302.377-.444.247-.554.103-.628-.05-.658-.2-.643-.335-.584-.447-.485-.043-.028zm-9.362 14.923l.673-18.824-1.222-.232-.528-.1-.647 18.53-.487.12-1.076.466-.461.29-.36.429-.236.537-.095.61.052.64.197.63.325.574.435.48.513.355.557.205.448.031-.35 10.009 1.72.393.395-11.028.417-.259.363-.426.239-.537.097-.61-.052-.644-.196-.63-.327-.576-.394-.433zm-8.11-17.346l.1-3.128-1.717-.325-.087 2.848-.489.134-1.095.422-.454.301-.355.439-.23.546-.091.615.054.644.195.627.325.571.43.474.508.345.551.194.487.024-.78 25.42 1.686.385.833-26.41.402-.263.358-.437.233-.545.093-.616-.053-.645-.196-.63-.326-.572-.381-.418zm-8.82 10.093l.405-14.838-1.683-.32-.385 14.533-.484.128-1.1.44-.44.29-.345.425-.222.532-.086.602.055.631.193.619.318.562.42.47.497.345.538.197.516.032-.358 13.501 1.653.379.397-14.5.383-.248.346-.423.225-.531.088-.603-.054-.634-.193-.62-.32-.563-.365-.406zm-8.169-6.764l.225-9.66-1.65-.313-.21 9.353-.484.134-1.111.42-.433.293-.336.426-.217.531-.082.6.056.63.192.613.315.559.415.464.489.34.529.19.533.029.016-.004-.414 18.437 1.623.371.451-19.416.367-.244.338-.424.22-.531.084-.601-.055-.63-.192-.616-.316-.56-.353-.39z" fill="url(#h)" transform="translate(198.398 8.34)"/><path d="M87.634 65.628l46.704-13.63-3.484 48.702-.92-.37-1.462.623-1.578-.636-18.84 7.954-.584 9.62 20.246 3.638 1.707-.825-1.606 22.456-45.272 24.655 5.09-102.187zm13.41 8.763l-.315 1.316-.158 1.352.01 1.295.175 1.149.329.922.46.636.557.305 1.866.263.616-.044.633-.389.609-.706.543-.974.442-1.177.31-1.3.16-1.338-.003-1.285-.167-1.145-.318-.93-.449-.648-.551-.323-1.873-.244-.617.026-.64.375-.617.7-.552.977-.45 1.187zm-8.525 2.772l-.323 1.346-.158 1.381.017 1.322.19 1.17.35.94.485.644.585.306 1.891.276.644-.05.66-.403.634-.725.564-1 .456-1.204.318-1.33.159-1.365-.01-1.31-.18-1.168-.34-.946-.473-.659-.579-.325-1.897-.254-.646.031-.667.388-.643.719-.573 1.001-.464 1.215zm-.817 15.58l-.32 1.336-.156 1.365.017 1.298.19 1.143.348.908.483.612.582.277 1.876.305.64-.078.658-.423.63-.74.56-1.007.452-1.204.316-1.32.158-1.35-.011-1.288-.18-1.14-.337-.914-.473-.627-.575-.295-1.882-.284-.643.058-.663.41-.639.734-.57 1.01-.46 1.214zm8.481-3.092l-.312 1.307-.157 1.336.01 1.273.175 1.122.328.893.458.605.555.276 1.851.292.613-.07.63-.41.605-.72.54-.982.44-1.176.308-1.292.158-1.322-.005-1.262-.166-1.119-.317-.9-.447-.618-.549-.294-1.857-.272-.615.052-.636.396-.614.715-.55.984-.446 1.186zm-.848 15.04l-.31 1.298-.156 1.32.011 1.252.175 1.095.327.864.455.575.553.248 1.837.32.609-.095.627-.43.603-.735.536-.988.437-1.175.306-1.284.156-1.306-.004-1.241-.166-1.093-.317-.871-.446-.589-.546-.265-1.842-.3-.612.078-.632.417-.611.728-.546.99-.444 1.187zm-8.437 3.401l-.318 1.327-.155 1.348.018 1.276.19 1.115.346.878.48.582.58.247 1.86.334.638-.104.654-.445.626-.754.557-1.014.45-1.203.313-1.311.156-1.333-.011-1.266-.18-1.113-.336-.885-.47-.596-.573-.265-1.866-.313-.64.085-.66.431-.635.75-.566 1.015-.458 1.214zm-.793 15.124l-.315 1.318-.154 1.332.019 1.254.189 1.088.345.849.478.552.577.218 1.845.362.634-.13.65-.465.623-.768.554-1.02.447-1.202.312-1.303.154-1.317-.012-1.244-.18-1.087-.334-.855-.468-.566-.57-.236-1.852-.342-.636.111-.656.452-.632.764-.563 1.023-.455 1.212zm8.394-3.702l-.308 1.29-.154 1.305.011 1.23.175 1.07.325.836.454.546.55.22 1.822.346.607-.119.624-.45.599-.747.534-.994.433-1.175.305-1.275.154-1.291-.005-1.22-.166-1.068-.315-.843-.444-.56-.544-.237-1.828-.327-.608.102-.63.437-.607.742-.543.998-.441 1.184zm29.039-28.449l1.967-28.26-19.058 6.072-1.804 29.685 18.895-7.497z" fill="url(#i)" transform="translate(198.398 8.34)"/><g transform="translate(280.823 59.856)"><mask id="k" fill="#fff"><use xlink:href="#j"/></mask><use fill="url(#i)" xlink:href="#j"/><path fill-opacity=".4" fill="#FFF" style="mix-blend-mode:overlay" mask="url(#k)" d="M-28.42-8.256l52.54-8.08L1.86 140.798l-51.118 38.817zM28.002-17.578l8.384-.23-23.24 156.644-8.926 2.51z"/></g><path fill="url(#l)" opacity=".9" d="M99.822 229.846l87.05-19.123 3.53-194.707L94.808.071z" transform="translate(30.115)"/><path fill="url(#m)" d="M103.27 118.517L6.17 98.079l90.15-19.471 92.976 14.803z" transform="translate(30.115)"/><path fill="url(#n)" opacity=".5" d="M106.86 254.883l-5.773-224.61L.317 13.85l14.106 205z" transform="translate(30.115)"/><path fill="url(#o)" opacity=".8" d="M106.2 254.377l80.673-43.654 3.53-194.707-89.218 8.586z" transform="translate(30.115)"/><path d="M58.006 187.368l-.598-12.77-38.528-11.67-1.601.976-.05-.016-4.963 3.024.01.04-1.255.765L6.17 98.08l97.1 20.438 3.165 136.276L14.6 219.081l-2.146-30.792 22.826 7.85 22.726-8.771zm16.875-55.866l-.572-1.786-.865-1.621-1.096-1.344-1.25-.972-1.319-.536-1.295-.065-2.064.59-1.183.409-.991.852-.733 1.237-.427 1.535-.093 1.729.245 1.807.567 1.766.85 1.605 1.078 1.339 1.234.981 1.307.557 1.294.092 2.047-.637 1.19-.38 1.008-.83.754-1.223.447-1.535.107-1.741-.24-1.829zm17.787 4.207l-.584-1.83-.893-1.662-1.14-1.38-1.305-1.002-1.381-.556-1.361-.074-2.05.62-1.25.41-1.05.864-.782 1.259-.464 1.565-.115 1.767.24 1.849.579 1.807.878 1.646 1.12 1.375 1.288 1.011 1.369.577 1.358.103 1.257-.38 2.032-.669 1.068-.84.805-1.246.485-1.565.13-1.78-.234-1.869zm.6 20.967l-.578-1.809-.884-1.654-1.129-1.385-1.292-1.02-1.369-.586-1.348-.115-1.237.363-2.027.688-1.041.814-.776 1.208-.46 1.519-.115 1.725.237 1.816.573 1.787.87 1.638 1.109 1.38 1.275 1.029 1.356.607 1.346.142 1.246-.334 2.01-.737 1.057-.79.798-1.194.481-1.518.13-1.737-.232-1.837zm-17.623-4.66l-.566-1.766-.856-1.613-1.086-1.348-1.24-.99-1.306-.566-1.283-.103-1.174.364-2.04.656-.983.804-.727 1.187-.424 1.49-.093 1.69.242 1.777.56 1.746.844 1.598 1.067 1.343 1.223.998 1.295.585 1.282.13 1.18-.336 2.025-.702 1-.782.747-1.174.443-1.49.107-1.7-.237-1.797zm.749 20.108l-.561-1.747-.848-1.606-1.075-1.352-1.228-1.007-1.295-.593-1.273-.14-1.163.32-2.018.72-.974.757-.722 1.14-.42 1.446-.094 1.652.24 1.747.555 1.727.834 1.59 1.058 1.348 1.212 1.014 1.285.613 1.27.165 1.17-.293 2.002-.765.99-.735.742-1.127.44-1.445.108-1.663-.235-1.766zm17.462 5.093l-.573-1.788-.875-1.646-1.117-1.39-1.281-1.038-1.355-.615-1.336-.153-1.226.318-2.005.754-1.031.765-.77 1.159-.456 1.472-.115 1.686.235 1.785.566 1.767.861 1.63 1.1 1.385 1.263 1.045 1.344.635 1.334.18 1.233-.29 1.987-.801 1.049-.742.79-1.145.478-1.471.129-1.697-.23-1.805zm.575 20.127l-.566-1.767-.867-1.639-1.106-1.393-1.269-1.055-1.343-.643-1.324-.19-1.214.275-1.983.817-1.022.718-.763 1.112-.454 1.428-.113 1.646.231 1.756.561 1.747.853 1.622 1.089 1.388 1.251 1.062 1.332.662 1.322.216 1.222-.246 1.965-.864 1.04-.696.783-1.098.473-1.426.129-1.658-.227-1.774zm-17.303-5.508l-.555-1.727-.84-1.598-1.066-1.357-1.217-1.023-1.283-.62-1.262-.175-1.153.279-1.995.78-.967.712-.716 1.095-.418 1.403-.093 1.615.236 1.718.55 1.708.827 1.583 1.048 1.351 1.201 1.03 1.273.638 1.26.201 1.16-.252 1.98-.825.982-.69.736-1.083.437-1.4.107-1.626-.232-1.737zm-61.536-79.03l2.481 37.82 38.73 11.037-1.861-39.825-34.036-7.812-5.314-1.22z" fill="url(#p)" transform="translate(30.115)"/><path d="M103.27 118.517l86.026-25.106-2.15 117.427-80.71 43.955-3.165-136.276zm10.67 32.325l48.334-17.305.106-19.253-48.824 15.554.325 17.77.06 3.234zm48.197 7.813l.103-18.78-48.173 17.873.375 20.439 47.695-19.532zm16.787-48.388l-1.353-.503-.914.092-.557.056-1.487.797-1.4 1.393-1.217 1.9-.943 2.27-.604 2.486-.221 2.523.175 2.384.559 2.076.9 1.626 1.175 1.068 1.37.441 1.467-.209 1.466-.839 1.367-1.408 1.178-1.88.912-2.224.587-2.424.225-2.462-.154-2.34-.524-2.062-.862-1.646-1.145-1.115zm-8.113 31.062l-.597 2.458-.219 2.474.174 2.314.552 1.994.89 1.537 1.163.976 1.354.354 1.45-.285 1.45-.9 1.35-1.45 1.165-1.9.902-2.22.58-2.398.222-2.415-.152-2.274-.52-1.982-.852-1.558-1.132-1.022-1.338-.416-1.454.228-1.47.86-1.385 1.437-1.2 1.92-.933 2.268zm-54.71 49.64l.586 33.232-.188.3-.356.85-.218.89-.063.871.093.792.246.656.378.478.195.106.128 7.233 1.828-.952-.093-5.57.535.187.56.036.595-.195.59-.411.547-.601.464-.748.352-.846.216-.885.065-.866-.09-.788-.238-.657-.373-.482-.48-.272-2.11-.72-.558-.045-.195.061-.54-32.468-1.053.457-.822.358zm9.323-4.052l.043 3.377-.249.39-.352.835-.217.888-.066.878.089.809.237.683.369.511.256.163.466 36.189 1.688-.88-.418-34.708.608.185.548.077.584-.155.58-.375.537-.57.458-.725.348-.831.215-.882.067-.873-.084-.806-.231-.683-.363-.515-.47-.311-2.127-.626-.547-.085-.208.052-.033-2.763-1.05.456-.678.295zm8.843-3.845l.21 24.962-.145.235-.34.818-.21.864-.067.85.081.776.224.65.35.48.148.09.121 14.344 1.709-.89-.097-12.808.661.213.522.054.557-.17.555-.383.514-.568.44-.717.336-.814.209-.859.068-.844-.077-.774-.218-.65-.344-.483-.447-.283-2.092-.654-.521-.063-.215.062-.183-24.198-1.048.455-.7.305zm8.626-3.75l.019 4.527-.128.203-.334.804-.209.858-.069.85.077.785.215.665.339.5.128.088.14 34.148 1.654-.861-.107-32.677.723.209.51.082.543-.142.543-.355.504-.544.432-.697.33-.801.207-.852.07-.845-.072-.782-.21-.666-.333-.504-.434-.308-2.101-.586-.508-.091-.226.055-.012-3.798-1.045.454-.646.28zm8.342-3.627l-.001 19.571-.108.175-.323.79-.204.837-.069.827.07.76.203.64.323.477.107.072v18.657l1.6-.834.015-17.223.768.23.487.067.522-.15.522-.358.485-.542.417-.686.32-.786.202-.832.07-.822-.066-.757-.198-.642-.317-.48-.416-.288-2.072-.602-.486-.076-.232.063.016-18.799-1.04.453-.595.258zm8.071-3.51l-.052 12.849-.09.147-.317.776-.2.826-.07.819.064.755.194.64.311.482.09.063-.102 24.844 1.55-.807.115-23.458.817.232.472.079.507-.138.506-.343.473-.526.407-.672.313-.772.2-.821.07-.814-.06-.754-.19-.64-.305-.485-.402-.295-2.065-.569-.472-.085-.24.06.06-12.08-1.038.45-.546.238z" fill="url(#q)" transform="translate(30.115)"/><g transform="translate(133.146 93.218)"><mask id="s" fill="#fff"><use xlink:href="#r"/></mask><use fill="url(#q)" xlink:href="#r"/><path fill-opacity=".4" fill="#FFF" style="mix-blend-mode:overlay" mask="url(#s)" d="M-8.304 7.444l52.54-8.08-22.26 157.134-51.118 38.817zM48.117-1.878l8.385-.23L33.26 154.536l-8.925 2.51z"/></g><path fill="url(#t)" d="M61.333 11.712l.598 12.77-22.726 8.77-.384-6.58z" transform="translate(26.19 162.886)"/><path fill="url(#u)" d="M22.805.041l38.528 11.671-22.512 14.96L.27 13.776l8.86-5.401.964 3.401 4.317 1.41 1.351-.839.392 1.408 4.397 1.436 1.38-.868.395 1.448 4.48 1.462 1.408-.9.4 1.49 4.564 1.49 1.438-.93.404 1.533 4.651 1.518 5.042-3.314-.54-2.114 2.535.802 4.935-3.245-.875-3.525-4.654-1.42-1.463.942-.381-1.505-4.569-1.394-1.433.91-.378-1.462-4.485-1.37-1.404.88-.374-1.421-4.404-1.344-1.376.85-.37-1.382-4.274-1.304z" transform="translate(26.19 162.886)"/><path fill="#0E38A1" d="M40.603 176.072l-4.318-1.41-.974-3.442 4.323 1.392z"/><path fill="#2389E9" d="M41.954 175.233l-1.351.839-.969-3.46 5.067-3.117.382 1.391-3.703 2.287z"/><path fill="#00C46B" d="M46.743 178.077l-4.397-1.436-.966-3.468 4.404 1.417z"/><path fill="#69FFAB" d="M48.122 177.209l-1.38.868-.958-3.487 5.067-3.16.386 1.43-3.676 2.302z"/><path fill="#0E38A1" d="M52.997 180.119l-4.48-1.462-.956-3.495 4.487 1.444z"/><path fill="#2389E9" d="M54.405 179.22l-1.408.899-.949-3.513 5.067-3.205.39 1.473-3.645 2.315z"/><path fill="#0E38A1" d="M59.37 182.2l-4.565-1.49-.945-3.52 4.57 1.47z"/><path fill="#2389E9" d="M60.808 181.268l-1.439.932-.938-3.54 5.066-3.25.394 1.515-3.615 2.33z"/><path fill="#0E38A1" d="M65.863 184.32l-4.651-1.518-.936-3.548 4.659 1.499z"/><path fill="#2389E9" d="M70.904 181.006l-5.041 3.314-.928-3.567 5.064-3.297.366 1.436z"/><path fill="#00C46B" d="M72.9 179.694l-2.535-.802-.366-1.436-2.116-.666-.536-2.091 4.656 1.452z"/><path fill="#69FFAB" d="M77.835 176.45l-4.935 3.244-.897-3.543 4.957-3.227z"/><path fill="url(#a)" d="M38.82 26.672l.385 6.58L.755 20.03.27 13.776z" transform="translate(26.19 162.886)"/><path fill="url(#v)" d="M16.19 4.026l4.963-3.024 4.325 1.32-4.962 3.053z" transform="translate(26.19 162.886)"/><path fill="#2389E9" d="M46.706 168.26l4.963-3.052.37 1.382-3.587 2.215.555 2.045-1.744-.55z"/><path fill="#0E38A1" d="M42.381 166.912l4.325 1.349.557 2.04-.817-.257-1.363.842-.382-1.391-1.76-.554-.549-1.99z"/><path fill="url(#v)" d="M27.224 2.854l4.404 1.344-4.962 3.095L22.26 5.92l3.587-2.215z" transform="translate(26.19 162.886)"/><path fill="#2389E9" d="M52.856 170.18l4.963-3.096.374 1.421-3.559 2.228.542 2.033-.027.017-1.742-.549z"/><path fill="#0E38A1" d="M48.452 168.805l4.404 1.374.551 2.055-.778-.245-1.365.855-.035-.01-.378-1.404-1.844-.58z"/><path fill="url(#w)" d="M33.406 4.74l4.485 1.369-4.961 3.138-4.486-1.4 3.558-2.228z" transform="translate(26.19 162.886)"/><path fill="#00C46B" d="M54.634 170.733l4.486 1.4.545 2.07-.739-.232-1.365.867-.071-.023-.375-1.414-1.932-.607-.007-.028z"/><path fill="#69FFAB" d="M59.12 172.133l4.962-3.138.377 1.462-3.528 2.24.528 2.018-.056.036-1.738-.547z"/><path fill="url(#v)" d="M39.702 6.661l4.569 1.394-4.96 3.182-4.57-1.426 3.528-2.24z" transform="translate(26.19 162.886)"/><path fill="#0E38A1" d="M60.931 172.697l4.57 1.426.54 2.087-.699-.22-1.364.88-.11-.036-.371-1.424-2.023-.637-.015-.058z"/><path fill="#2389E9" d="M65.501 174.123l4.96-3.182.381 1.505-3.495 2.253.513 2-.087.056-1.733-.545z"/><path fill="url(#w)" d="M46.115 8.618l4.654 1.42-4.956 3.227-4.657-1.452 3.496-2.253z" transform="translate(26.19 162.886)"/><path fill="url(#v)" d="M43.808 14.57l-5.064 3.297-4.658-1.499 5.066-3.264 2.43.765.11.035zM37.306 12.524l-5.066 3.25-4.571-1.47 5.067-3.219 2.477.78.071.022zM25.858 13.72l-4.487-1.444 3.676-2.301.026-.017 1.365-.855 2.52.794.035.01 1.931.608z" transform="translate(26.19 162.886)"/><path fill="url(#w)" d="M19.593 11.704l-4.403-1.417 5.066-3.129 4.404 1.386z" transform="translate(26.19 162.886)"/><path fill="url(#v)" d="M13.444 9.726L9.121 8.334l5.064-3.086.051.016 4.274 1.345z" transform="translate(26.19 162.886)"/><path fill="url(#x)" d="M295.868 126.23l.584-9.618 20.009 8.363-.347 4.894z" transform="translate(10)"/><path fill="url(#y)" d="M296.452 116.612l18.84-7.954 1.578.636-.638.27-.186.628-.66-.267-2.136.91-.188.64-.673-.273-2.171.924-.191.653-.685-.28-2.209.941-.194.667-.697-.287-2.247.957-.788 2.724 4.389 1.826 2.23-.987.199-.675.038.015-.7 2.382 4.44 1.847 2.205-1.008.203-.678.671.277 2.167-.991.2-.665.659.272 2.13-.975.197-.651.647.264 2.094-.958.195-.638.635.258 2.059-.942.478-1.558 6.275 2.528-18.157 8.53z" transform="translate(10)"/><path fill="url(#z)" d="M316.114 129.87l.347-4.895 18.157-8.531-.37 4.662-16.426 7.938z" transform="translate(10)"/><path fill="#D5E6FF" d="M332.29 111.477l.607.245-.63.277-.19.63-.12-.048z"/><g><path fill="#6370EB" d="M320.063 117.68l-.038-.015.6-2.042-3.686-1.516.194-.667 4.376 1.797-.507 1.722-.835.367zM332.882 117.754l-.647-.264.617-2.036-3.726-1.514.193-.643 4.378 1.777zM335.806 116.416l-.635-.258.618-2.028-3.713-1.5.19-.63 4.353 1.755z"/><path fill="#F7D" d="M317.596 119.327l-4.389-1.826.788-2.724 4.4 1.818z"/><path fill="#6370EB" d="M323.803 121.91l-4.44-1.848.804-2.736 4.453 1.84z"/><path fill="#F7D" d="M326.882 120.5l-.671-.277.613-2.05-3.752-1.544.198-.669 4.428 1.818z"/><path fill="#6370EB" d="M329.908 119.116l-.66-.272.616-2.042-3.74-1.53.196-.655 4.403 1.797z"/><path fill="#F7D" d="M326.046 110.192l.186-.627 4.304 1.736-.507 1.683-.71.313-.13.431-.1-.04.607-2.02z"/><path fill="#6370EB" d="M323.25 110.835l4.328 1.756-.507 1.696-.75.33-.122.407-.08-.033.604-2.028-3.661-1.488zM320.218 112.126l4.352 1.776-.508 1.71-.792.348-.113.38-.06-.024.603-2.034-3.673-1.503z"/></g><g><path fill="#96ABF9" d="M337.865 115.474l-2.059.942.813-2.66 2.058-.929-.334 1.089z"/><path fill="#FDC4F3" d="M319.826 118.34l-2.23.987.8-2.732 2.23-.972-.601 2.042z"/><path fill="#96ABF9" d="M326.008 120.9l-2.205 1.01.817-2.743 2.204-.994-.613 2.05z"/><path fill="#FDC4F3" d="M329.049 119.509l-2.167.991.816-2.722 2.166-.976-.615 2.042z"/><path fill="#96ABF9" d="M332.037 118.14l-2.13.976.816-2.702 2.13-.96-.618 2.036zM334.976 116.796l-2.094.958.815-2.68 2.092-.944-.618 2.028z"/><path fill="#FDC4F3" d="M330.536 111.3l2.082-.907-.661 2.188-.527-.213-1.4.616z"/><path fill="#96ABF9" d="M327.578 112.59l2.118-.923-.67 2.232-.559-.227-1.396.615zM324.57 113.902l2.153-.939-.678 2.277-.59-.242-1.393.613zM321.51 115.237l2.19-.955-.688 2.323-.623-.257-1.387.611z"/></g><g><path fill="url(#A)" d="M16.842 2.874l-4.304-1.736 2.1-.894 4.286 1.721z" transform="translate(313.694 108.427)"/><path fill="url(#B)" d="M9.556 2.408l2.135-.91 4.31 1.742-2.117.923zM6.524 3.7l2.171-.926 4.334 1.762-2.153.94zM3.44 5.013l2.208-.94 4.358 1.782-2.19.955z" transform="translate(313.694 108.427)"/><path fill="url(#A)" d="M.301 6.35l2.247-.958L6.93 7.195l-2.23.973z" transform="translate(313.694 108.427)"/><path fill="url(#B)" d="M10.926 10.74L6.473 8.9l2.222-.979 4.435 1.825z" transform="translate(313.694 108.427)"/><path fill="url(#A)" d="M14.004 9.351L9.576 7.533l2.184-.962.59.242.08.033 3.74 1.528z" transform="translate(313.694 108.427)"/><path fill="url(#B)" d="M19.158 7.027l-2.13.96-4.402-1.797 2.147-.945.559.227.1.04zM22.095 5.702l-2.092.944-4.378-1.776 2.11-.93.647.262zM24.983 4.4l-2.058.928-4.353-1.756.63-.277 1.446-.637z" transform="translate(313.694 108.427)"/></g><path fill="#C4E1EC" d="M41.137 167.717l1.255-.765.55 1.99-2.515-.792z"/><g><g transform="translate(95.859 125.108)" fill="url(#q)"><path d="M8.566 4.607l.572 1.787-2.054.616-.575-1.792 2.057-.61zm.572 1.787l.24 1.828-2.052.622-.242-1.834 2.054-.616zm.24 1.828l-.107 1.742-2.05.628.105-1.748 2.052-.622zm-1.308 4.5l-1.008.829-2.046.637 1.006-.83 2.048-.636zm.754-1.223l-.754 1.223-2.048.635.753-1.226 2.049-.632zm.447-1.535l-.447 1.535-2.049.632.446-1.54 2.05-.627zm-2.666-8.32l1.096 1.342-2.058.604-1.098-1.348 2.06-.599zM5.355.67l1.25.972-2.06.599-1.252-.977L5.355.671zM4.036.135L5.355.67l-2.062.594-1.32-.539L4.036.135zM2.741.07l1.295.065-2.063.591L.677.66 2.741.07zm4.96 2.916l.865 1.621-2.057.61-.866-1.627L7.7 2.986zm-.639 10.565l-1.19.38-2.048.638 1.192-.38 2.046-.638zM26.34 8.771l.585 1.83-2.04.647-.586-1.837 2.042-.64zm.585 1.83l.235 1.87-2.037.653-.237-1.876 2.039-.647zm.235 1.87l-.13 1.779-2.036.659.129-1.785 2.037-.653zm-1.421 4.59l-1.068.84-2.032.668 1.067-.842 2.033-.667zm.805-1.246l-.805 1.245-2.033.667.804-1.248 2.034-.664zm.485-1.565l-.485 1.565-2.034.664.484-1.57 2.035-.66zm-2.72-8.521l1.139 1.38-2.044.633-1.142-1.385 2.046-.628zm-1.306-1.002l1.305 1.002-2.046.628-1.307-1.006 2.048-.624zm-1.381-.556l1.38.556-2.047.624-1.383-.56 2.05-.62zm-1.361-.074l1.36.074-2.049.62-1.362-.075 2.05-.62zm5.187 3.012l.893 1.662-2.042.64-.895-1.669 2.044-.633zM26.947 29.76l.578 1.808-2.016.716-.58-1.815 2.018-.71zm.578 1.808l.232 1.837-2.014.722-.234-1.843 2.016-.716zm.232 1.837l-.13 1.737-2.012.728.128-1.743 2.014-.722zm-1.41 4.449l-1.057.79-2.01.737 1.058-.792 2.01-.735zm.799-1.194l-.798 1.194-2.01.735.797-1.197 2.011-.732zm.48-1.518l-.48 1.518-2.011.732.48-1.522 2.012-.728zm-2.692-8.422l1.129 1.385-2.021.703-1.13-1.39 2.022-.698zm-1.292-1.02l1.292 1.02-2.023.697-1.295-1.025 2.026-.692zm-1.369-.587l1.369.587-2.026.692-1.37-.59 2.027-.689zM20.925 25l1.348.114-2.026.69-1.35-.116 2.028-.688zm-1.237.363L20.925 25l-2.027.688-1.238.363 2.028-.688zm6.375 2.743l.884 1.654-2.019.71-.886-1.66 2.02-.704zM9.336 25.142l.566 1.767-2.031.683-.569-1.774 2.034-.676zm.566 1.767l.237 1.796-2.028.689-.24-1.802 2.03-.683zm.237 1.796l-.107 1.702-2.027.693.106-1.706 2.028-.689zM8.841 33.07l-1 .781-2.023.703.999-.783 2.024-.7zm.748-1.174L8.84 33.07l-2.024.701.746-1.177 2.026-.698zm.443-1.49l-.443 1.49-2.026.698.442-1.494 2.027-.693zM7.394 22.18l1.085 1.349-2.035.67-1.087-1.353 2.037-.666zm-1.24-.99l1.24.99-2.037.666-1.241-.995 2.038-.66zm-1.306-.565l1.306.565-2.038.661-1.308-.568 2.04-.658zm-1.284-.103l1.284.103-2.04.658-1.285-.105 2.041-.656zM8.48 23.53l.857 1.613-2.034.676-.858-1.619 2.035-.67zm-6.088-2.643l1.173-.364-2.04.656-1.174.364 2.04-.656zM10.09 45.27l.56 1.746-2.007.746-.563-1.753 2.01-.74zm.56 1.746l.235 1.766-2.005.752-.237-1.772 2.007-.746zm.235 1.766l-.107 1.663-2.004.757.106-1.668 2.005-.752zm-1.288 4.235l-.992.735-2 .764.99-.735 2.002-.764zm.74-1.128l-.74 1.128-2.002.764.74-1.13 2.003-.762zm.441-1.444l-.44 1.444-2.002.761.438-1.448 2.004-.757zM8.166 42.31l1.076 1.352-2.012.735-1.078-1.359 2.014-.728zm-1.228-1.008l1.228 1.008-2.014.728-1.23-1.011 2.016-.725zm-1.294-.592l1.294.592-2.016.725-1.295-.596 2.017-.721zm-1.273-.14l1.273.14-2.017.72-1.274-.14 2.018-.72zm-1.163.32l1.163-.32-2.018.72-1.163.32 2.018-.72zm6.034 2.772l.848 1.606-2.01.74-.85-1.611 2.012-.735zM27.54 50.32l.573 1.788-1.994.783-.574-1.794 1.995-.777zm.573 1.788l.229 1.806-1.992.788-.23-1.811 1.993-.783zm.229 1.806l-.13 1.696-1.989.794.127-1.702 1.992-.788zm-1.398 4.313l-1.048.742-1.987.801 1.048-.743 1.987-.8zm.791-1.145l-.79 1.145-1.988.8.79-1.148 1.988-.797zm.478-1.472l-.478 1.472-1.988.797.476-1.475 1.99-.794zm-2.665-8.325l1.117 1.39-1.998.77-1.12-1.396 2-.764zm-1.281-1.038l1.28 1.038-2 .764-1.282-1.043 2.002-.76zm-1.356-.615l1.356.615-2.002.76-1.357-.62 2.003-.755zm-1.335-.153l1.335.153-2.003.756-1.337-.155 2.005-.754zm-1.226.318l1.226-.318-2.005.754-1.226.318 2.005-.754zm6.315 2.877l.875 1.646-1.995.777-.878-1.653 1.998-.77zM28.122 70.468l.566 1.768-1.971.846-.568-1.774 1.973-.84zm.566 1.768l.227 1.774-1.97.852-.228-1.78 1.971-.846zm.227 1.774l-.129 1.658-1.967.857.126-1.663 1.97-.852zm-1.386 4.182l-1.039.695-1.965.864 1.039-.696 1.965-.863zm.784-1.098l-.784 1.098-1.965.863.783-1.1 1.966-.86zm.473-1.426l-.473 1.426-1.966.861.472-1.43 1.967-.857zm-2.637-8.232l1.106 1.394-1.976.834-1.108-1.4 1.978-.828zm-1.27-1.054l1.27 1.054-1.978.828-1.27-1.059 1.979-.823zm-1.342-.643l1.343.643-1.98.823-1.344-.646 1.981-.82zm-1.324-.19l1.324.19-1.981.82-1.325-.192 1.982-.818zM21 65.824l1.214-.275-1.982.818-1.215.274 1.983-.817zm6.256 3.006l.867 1.638-1.973.84-.87-1.644 1.976-.834zM10.83 65l.555 1.728-1.986.807-.557-1.733L10.829 65zm.555 1.728l.231 1.737-1.983.813-.234-1.743 1.986-.807zm.231 1.737l-.106 1.625-1.982.817.105-1.63 1.983-.812zm-1.28 4.109l-.981.69-1.98.825.983-.692 1.979-.823zm.737-1.083l-.736 1.083-1.98.823.736-1.084 1.98-.822zm.437-1.401l-.437 1.401-1.98.822.435-1.406 1.982-.817zm-2.586-8.045l1.066 1.357-1.99.796-1.068-1.362 1.992-.79zm-1.217-1.023l1.217 1.023-1.992.79-1.218-1.027 1.993-.786zm-1.283-.619l1.283.62-1.993.785-1.285-.623 1.995-.782zm-1.262-.175l1.262.175-1.995.782-1.262-.177 1.995-.78zm-1.154.279l1.154-.279-1.995.78-1.153.278 1.994-.78zm5.982 2.895L10.83 65l-1.988.802L8 64.198l1.99-.796z"/></g><g transform="translate(92.915 125.599)" fill="url(#C)"><path d="M9.453 4.727l.574 1.793.243 1.834-.105 1.747-.446 1.54-.753 1.226-1.007.83-1.19.381-1.294-.092-1.307-.557-1.234-.981-1.078-1.338-.85-1.606L.439 7.74.194 5.93l.093-1.73.426-1.534.733-1.236.991-.853L3.621.17l1.296.065 1.32.54 1.251.976L8.586 3.1l.867 1.627zM6.17 4.85l-.532-.416-.148-.062-.32-.132-.093-.038-.487-.028-.064-.003-.505.17-.424.36-.315.526-.184.655-.04.738.103.774.242.755.364.687.462.571.528.418.558.235.552.036.506-.166.36-.301.067-.056.318-.523.188-.655.043-.742-.104-.778-.243-.76-.367-.691-.465-.574zM27.243 8.92l.586 1.837.237 1.876-.128 1.785-.484 1.57-.804 1.248-1.068.843-1.256.38-1.359-.102-1.369-.578-1.287-1.011-1.12-1.375-.879-1.646-.578-1.807-.24-1.849.115-1.767.463-1.565.783-1.259 1.05-.865 1.25-.41 1.361.076 1.383.56 1.307 1.005 1.141 1.386.896 1.668zm-3.455.104l-.555-.429-.27-.11-.293-.12-.024-.01-.563-.035-.017-.001-.533.171-.45.366-.335.535-.2.667-.05.755.101.791.247.773.377.704.48.588.55.43.585.243.58.041.534-.166.012-.01.44-.351.013-.02.327-.513.204-.669.053-.758-.102-.796-.248-.778-.38-.709-.483-.589zM27.872 29.978l.58 1.815.235 1.843-.128 1.743-.48 1.522-.797 1.197-1.058.792-1.245.335-1.346-.143-1.356-.607-1.275-1.029-1.11-1.38-.87-1.638-.572-1.787-.237-1.816.114-1.725.46-1.519.776-1.208 1.041-.814 1.237-.363 1.35.116 1.369.59 1.295 1.025 1.13 1.39.887 1.66zm-3.423-.004l-.549-.437-.582-.253-.216-.02-.358-.033-.528.15-.446.345-.333.513-.198.648-.05.736.1.778.245.764.373.701.475.589.545.438.58.257.574.057.529-.146.448-.34.337-.512.202-.648.053-.74-.1-.782-.246-.77-.376-.704-.479-.591zM10.246 25.328l.569 1.773.24 1.802-.106 1.707-.442 1.493-.747 1.178-.998.782-1.18.336-1.283-.13-1.296-.584-1.222-.999-1.068-1.343-.843-1.598-.56-1.746-.243-1.777.093-1.69.424-1.49.727-1.187.983-.804 1.173-.363 1.285.104 1.308.569 1.24.994 1.088 1.354.858 1.619zm-3.255.019l-.526-.424-.555-.244-.095-.009-.453-.039-.5.152-.42.34-.313.504-.182.635-.042.722.103.76.24.747.36.683.458.574.523.425.554.247.546.052.502-.146.423-.336.316-.503.186-.636.044-.725-.103-.765-.24-.752-.364-.687-.462-.575zM11.023 45.519l.563 1.752.237 1.772-.105 1.669-.439 1.448-.74 1.13-.99.736-1.171.294-1.27-.166-1.285-.613-1.212-1.014-1.058-1.348-.834-1.59-.556-1.727-.24-1.747.094-1.652.42-1.445.722-1.141.974-.757 1.164-.32 1.273.141 1.296.596 1.23 1.012 1.078 1.358.85 1.612zm-3.226-.08l-.522-.432-.55-.256-.291-.034-.251-.03-.497.134-.417.32-.31.484-.18.616-.042.706.101.748.238.738.358.68.453.576.518.432.549.258.541.068.498-.128.42-.316.313-.483.185-.617.043-.708-.101-.752-.24-.744-.36-.683-.456-.578zM28.488 50.606l.575 1.794.231 1.812-.127 1.702-.476 1.475-.79 1.147-1.048.744-1.234.29-1.334-.18-1.344-.636-1.263-1.045-1.099-1.385-.861-1.63-.567-1.766-.234-1.786.114-1.685.457-1.473.77-1.159 1.031-.765 1.226-.317 1.337.154 1.357.619 1.282 1.042 1.12 1.396.877 1.652zm-3.39-.108l-.545-.444-.417-.193-.16-.073-.4-.049-.168-.02-.523.132-.442.323-.33.492-.197.628-.05.72.1.764.241.756.37.697.47.59.54.446.574.269.569.073.525-.127.444-.32.334-.49.2-.627.053-.723-.1-.769-.243-.76-.371-.702-.475-.593zM29.092 70.818l.568 1.773.23 1.78-.127 1.663-.472 1.43-.783 1.1-1.04.697-1.222.247-1.321-.217-1.332-.662-1.252-1.061-1.088-1.389-.853-1.622-.561-1.747-.232-1.755.114-1.647.453-1.428.763-1.111 1.023-.719 1.215-.274 1.325.192 1.344.647 1.27 1.059 1.109 1.4.87 1.644zm-3.36-.208l-.54-.451-.54-.263-.03-.015-.537-.08-.027-.004-.519.113-.437.303-.327.472-.196.609-.05.703.098.751.24.747.366.694.466.593.535.452.569.28.564.09.52-.11.44-.299.007-.009.324-.46.004-.012.195-.597.052-.707-.098-.755-.241-.753-.368-.697-.47-.595zM11.786 65.311l.557 1.734.234 1.742-.105 1.63-.436 1.405-.735 1.085-.982.691-1.16.252-1.26-.2-1.273-.638-1.201-1.03-1.049-1.352-.826-1.583L3 67.34l-.237-1.719.093-1.615.418-1.403.716-1.095.967-.712 1.154-.278 1.262.177 1.284.622 1.22 1.028 1.067 1.363.842 1.603zm-3.199-.176l-.517-.438-.335-.164-.093-.045-.117-.058-.437-.064-.101-.014-.492.115-.414.3-.307.466-.18.598-.042.69.1.735.236.73.354.677.45.577.513.439.544.27.537.082.493-.11.417-.297.31-.464.184-.598.043-.693-.1-.739-.237-.735-.356-.68-.453-.58z"/></g><path d="M.435.695L.584.446l.148.062.531.416.465.574.367.69.244.76.104.779-.043.742-.188.655-.137.225-.171-.072-.527-.416-.461-.57-.364-.683-.24-.753-.104-.77.042-.737.185-.653zM17.887 4.83l.17-.27.27.11.555.43.483.588.38.709.248.778.102.796-.053.758-.204.669-.157.246-.295-.123-.55-.428-.478-.585-.376-.7-.246-.772-.101-.788.051-.752.201-.666zm.666 20.78l.096-.148.345.15.549.437.479.591.376.705.246.77.1.781-.053.74-.202.649-.083.125-.37-.162-.544-.436-.474-.587-.371-.698-.244-.762-.1-.774.051-.735.199-.646zM1.258 21.03l.08-.13.22.098.527.424.461.575.364.687.241.752.102.765-.043.725-.186.636-.068.107-.243-.108-.523-.423-.456-.571-.36-.681-.24-.744-.101-.758.042-.72.183-.633zm.808 19.937l.012-.02.291.135.522.431.457.578.36.683.239.744.101.752-.044.708-.184.616-.315-.147-.517-.43-.452-.574-.357-.677-.237-.736-.1-.745.041-.704.183-.614zm17.14 5.006l.024-.037.417.193.544.444.474.593.372.701.244.761.099.769-.053.723-.2.628-.01.015-.443-.206-.54-.443-.469-.589-.368-.694-.241-.754-.099-.761.051-.718.197-.625zm.443 20.562l.171-.528.467.227.539.451.47.595.368.697.241.753.098.755-.053.707-.165.508-.486-.238-.534-.45-.466-.59-.364-.691-.239-.746-.098-.748.051-.702zM2.677 61.111l.152-.503.335.164.517.438.452.58.357.68.237.735.1.74-.043.692-.148.482-.353-.174-.513-.437-.448-.574-.353-.675-.235-.728-.1-.732.043-.688z" transform="translate(97.821 129.524)" fill="url(#D)"/><g transform="translate(95.859 129.524)" fill="url(#E)"><path d="M2.546.446l-.149.25L.34 1.3.653.776 2.226.314l.32.132zm-.149.25l-.185.652-2.057.608.184-.655L2.397.695zm-.185.652l-.042.736-2.057.61.042-.738 2.057-.608zm-.042.736l.104.77-2.057.614-.104-.774 2.057-.61zm.104.77l.24.754-2.054.615-.243-.755 2.057-.613zm.24.754l.364.684-2.054.618-.364-.687 2.055-.615zm.364.684l.461.57-2.054.62-.461-.572 2.054-.618zm.461.57l.527.415-2.053.622-.528-.418 2.054-.62zm.527.415l.172.072-.182.299-.066.055-1.418.43-.559-.234 2.053-.622zm-.437.727l-.506.166-.551-.036 1.418-.431-.36.301zM.653.776l.424-.36.57-.168.487.028.092.038L.653.776zm.424-.36l.505-.171.065.003-.57.167zM20.02 4.56l-.17.27-2.046.636.336-.535 1.586-.491.294.12zm-.17.27l-.201.666-2.045.637.2-.667 2.046-.636zm-.201.666l-.052.752-2.044.64.051-.755 2.045-.637zm-.052.752l.101.788-2.043.643-.102-.79 2.044-.64zm.101.788l.247.771-2.042.645-.248-.773 2.043-.643zm.247.771l.375.701-2.041.648-.376-.704 2.042-.645zm.375.701l.479.585-2.04.65-.48-.587 2.041-.648zm.479.585l.55.428-2.04.653-.55-.43 2.04-.65zm.55.428l.295.123-.171.267-1.578.506-.585-.243 2.039-.653zm-.875.937l-.58-.04 1.579-.507-.012.02-.44.352-.547.175zM18.14 4.931l.45-.366.55-.17.562.035.024.01-1.586.491zm.45-.366l.532-.171.017.001-.55.17zm2.418 5.727l-.534.166.546-.175-.012.01zM20.612 25.462l-.097.148-2.022.704.334-.513 1.331-.462.216.02.238.103zm-.097.148l-.198.646-2.022.706.198-.648 2.022-.704zm-.198.646l-.052.735-2.02.707.05-.736 2.022-.706zm-.052.735l.1.774-2.02.71-.1-.777 2.02-.707zm.1.774l.244.762-2.019.713-.245-.764 2.02-.71zm.244.762l.371.698-2.017.716-.373-.7 2.019-.714zm.371.698l.474.587-2.016.718-.475-.589 2.017-.716zm.474.587l.545.436-2.016.72-.545-.438 2.016-.718zm.545.436l.37.162-.145.22-1.661.595-.58-.257 2.016-.72zm-.862 1.034l-.574-.057 1.661-.596-.11.167-.338.257-.64.229zm-2.31-5.48l.445-.345.528-.151.358.033-1.331.462zm2.84 5.334l-.53.146.639-.23-.11.084zM3.301 20.9l-.08.13-2.036.672.312-.505 1.374-.452.095.009.335.147zm-.08.13l-.184.634-2.034.673.182-.635 2.035-.671zm-.184.634l-.042.72-2.033.675.04-.722 2.035-.673zm-.042.72l.102.758-2.032.677-.103-.76 2.033-.675zm.102.758l.24.744-2.032.68-.24-.747 2.032-.677zm.24.744l.36.68-2.032.683-.36-.683 2.031-.68zm.36.68l.456.572-2.03.685-.458-.574 2.031-.682zm.456.572l.522.423-2.03.687-.523-.425 2.03-.685zm.522.423l.244.108-.193.308-1.527.518-.554-.247 2.03-.687zm-.93.986l-.546-.052 1.527-.518-.055.088-.37.294-.556.188zm-2.248-5.35l.421-.34.5-.15.453.038-1.374.452zm2.75 5.204l-.502.146.555-.188-.053.042zM4.04 40.947l-.012.02-2.012.733.31-.484 1.164-.424.291.034.26.12zm-.012.02l-.182.614-2.012.736.182-.617 2.012-.733zm-.182.614l-.042.704-2.01.738.04-.706 2.012-.736zm-.042.704l.1.745-2.01.74-.1-.747 2.01-.738zm.1.745l.238.736-2.01.742-.237-.738 2.01-.74zm.238.736l.356.677-2.008.746-.357-.68 2.009-.743zm.356.677l.452.573-2.007.748-.453-.575 2.008-.746zm.452.573l.518.43-2.007.75-.518-.432 2.007-.748zm.518.43l.314.148-.168.26-1.604.6-.549-.258 2.007-.75zm-.917 1.076l-.541-.068 1.604-.6-.145.224-.266.2-.652.244zm-2.225-5.306l.417-.32.496-.133.25.03-1.163.423zm2.723 5.178l-.498.128.652-.244-.154.116zM21.192 45.936l-.024.037-1.999.768.33-.492 1.133-.435.4.05.16.072zm-.024.037l-.197.625-2 .77.198-.627 1.999-.768zm-.197.625l-.051.718-1.998.773.05-.72 1.999-.77zm-.051.718l.098.761-1.997.776-.1-.764 1.999-.773zm.098.761l.242.754-1.996.778-.243-.756 1.997-.776zm.242.754l.368.694-1.995.78-.37-.696 1.997-.778zm.368.694l.47.589-1.995.783-.47-.591 1.995-.78zm.47.589l.539.443-1.994.785-.54-.445 1.994-.783zm.539.443l.442.206-.105.155-1.757.693-.574-.269 1.994-.785zm-.851 1.127l-.569-.073 1.757-.693-.219.32-.195.14-.774.306zm-2.287-5.435l.442-.323.523-.132.168.02-1.133.435zm2.812 5.308l-.525.127.774-.306-.249.18zM21.783 66.007l-.171.528-1.976.834.195-.609 1.877-.79.075.037zm-.171.528l-.051.702-1.975.835.05-.703 1.976-.834zm-.051.702l.097.748-1.974.838-.098-.75 1.975-.836zm.097.748l.24.746-1.974.84-.24-.748 1.974-.838zm.24.746l.364.69-1.973.843-.365-.694 1.973-.84zm.364.69l.465.591-1.972.845-.466-.593 1.973-.843zm.465.591l.535.45-1.972.847-.535-.452 1.972-.845zm.535.45l.485.238-.029.089-1.859.8-.569-.28 1.972-.847zm.121.808l-.44.3-.52.108.967-.417-.007.01zm-.96.408l-.564-.089 1.86-.8-.005.011-.324.461-.967.417zM19.83 66.76l.327-.472.983-.412.538.08.029.015-1.877.79zm.327-.472l.438-.303.518-.113.027.004-.983.412zM4.791 60.608l-.152.503-1.99.795.18-.598 1.87-.745.092.045zm-.152.503l-.042.688-1.988.797.04-.69 1.99-.795zm-.042.688l.1.732-1.988.8-.1-.735 1.988-.797zm.1.732l.234.728-1.987.802-.235-.73 1.988-.8zm.234.728l.353.675-1.986.804-.354-.677 1.987-.802zm.353.675l.448.574-1.985.807-.449-.577 1.986-.804zm.448.574l.514.437-1.985.809-.514-.439 1.985-.807zm.514.437l.352.174-.035.116-.065.097-1.693.692-.544-.27 1.985-.81zm-.41 1.05l-.494.111.793-.324-.3.214zm-.494.111l-.537-.082 1.693-.692-.246.367-.117.083-.793.324zM2.83 61.308l.308-.465 1.007-.401.436.063.118.058-1.87.745zm.308-.465l.413-.3.492-.116.102.015-1.007.4z"/></g><path d="M5.833 7.257c-2.713.825-4.285 2.772-4.715 5.84-.645 4.604-.46 27.94 1.469 36.815 1.928 8.875 11.665 10.622 14.408.227 2.744-10.395.864-17.44 7.298-17.467M24.627 52.835c-2.431 0-3.647 2.447-3.647 7.342 0 7.342.58 15.602.58 22.749 0 7.147-.808 14.947-8.237 14.909-7.428-.039-10.007-7.224-10.007-15.596S2.34 68.217 8.147 67.672" stroke="url(#v)" stroke-width="4" stroke-linecap="round" stroke-linejoin="round" transform="translate(92.915 125.108)"/></g><g><g fill="url(#F)" transform="translate(287.691 78.99)"><path d="M11.436 5.057l.315-1.316 1.879.252-.315 1.318-1.879-.254zm-.158 1.352l.158-1.352 1.879.254-.16 1.356-1.877-.258zm.01 1.296l-.01-1.296 1.877.258.008 1.297-1.876-.26zm.963 2.706l-.459-.635 1.871.263.458.636-1.87-.264zm-.459-.635l-.33-.923 1.875.261.326.925-1.87-.263zm-.33-.923l-.175-1.148 1.876.259.174 1.15-1.874-.26zm.739-6.299l.552-.977 1.878.247-.552.98-1.878-.25zm.552-.977l.617-.7 1.878.246-.617.701-1.878-.247zm.617-.7l.64-.374 1.875.244-.637.376L13.37.878zm.64-.374l.617-.026L16.5.72l-.615.026L14.01.503zM11.75 3.74l.45-1.187 1.878.25-.45 1.19-1.878-.253zm1.058 6.976l-.558-.306 1.87.264.554.305-1.866-.263zM2.903 7.86l.323-1.346 1.903.263-.322 1.348-1.904-.266zm-.157 1.38l.157-1.38 1.904.265-.16 1.384-1.901-.268zm.016 1.323L2.746 9.24l1.901.268.015 1.324-1.9-.27zm1.025 2.753l-.485-.644 1.896.275.482.645-1.893-.276zm-.485-.644l-.35-.939 1.898.273.348.941-1.896-.275zm-.35-.939l-.19-1.17 1.9.27.188 1.173-1.897-.273zM3.69 5.3l.573-1.002 1.903.258-.573 1.004-1.903-.26zm.573-1.002l.643-.718 1.9.256-.64.72-1.903-.258zm.643-.718l.667-.388 1.9.255-.666.389-1.901-.256zm.667-.388l.646-.031 1.897.254-.643.032-1.9-.255zM3.226 6.514l.464-1.215 1.903.26-.464 1.218-1.903-.263zm1.146 7.11l-.585-.308 1.893.276.583.307-1.891-.276zM2.09 23.43l.32-1.336 1.887.293-.32 1.338-1.887-.295zm-.157 1.364l.157-1.364 1.886.295-.157 1.368-1.886-.299zm.017 1.299l-.017-1.299 1.886.299.016 1.3-1.885-.3zm1.02 2.663l-.482-.613 1.88.305.48.613-1.877-.305zm-.482-.613l-.348-.908 1.882.304.346.909-1.88-.305zm-.348-.908l-.19-1.142 1.885.3.187 1.146-1.882-.304zm.73-6.356l.57-1.009 1.887.288-.569 1.011-1.888-.29zm.57-1.009l.639-.734 1.885.286-.637.736-1.887-.288zm.639-.734l.663-.41 1.884.285-.662.411-1.885-.286zm.663-.41l.643-.058 1.882.284-.64.06-1.885-.286zM2.41 22.094l.461-1.215 1.888.29-.461 1.218-1.888-.293zm1.144 6.938l-.582-.276 1.877.305.58.277-1.875-.306zM10.578 20.309l.312-1.307 1.864.28-.313 1.31-1.863-.283zm-.157 1.336l.157-1.336 1.863.283-.158 1.339-1.862-.286zm.01 1.273l-.01-1.273 1.862.286.009 1.275-1.86-.288zm.96 2.62l-.457-.606 1.856.292.456.605-1.854-.292zm-.457-.606l-.328-.893 1.859.29.325.895-1.856-.292zm-.328-.893l-.175-1.121 1.86.288.174 1.123-1.859-.29zm.73-6.224l.55-.984 1.863.276-.549.986-1.863-.278zm.55-.984l.615-.714 1.86.274-.612.716-1.863-.276zm.615-.714l.635-.396 1.86.273-.634.397-1.861-.274zm.635-.396l.615-.053 1.857.273-.612.053-1.86-.273zm-2.246 3.28l.447-1.186 1.863.278-.446 1.19-1.864-.281zm1.057 6.813l-.555-.277 1.854.292.552.276-1.851-.291zM9.732 35.34l.31-1.299 1.848.309-.31 1.3-1.848-.31zm-.156 1.32l.156-1.32 1.848.31-.157 1.324-1.847-.314zm.011 1.251l-.01-1.25 1.846.313.01 1.253-1.846-.316zm.957 2.535l-.455-.575 1.84.319.454.575-1.839-.32zm-.455-.575l-.327-.865 1.843.318.325.866-1.841-.32zm-.327-.865l-.175-1.095 1.845.316.173 1.097-1.843-.318zm.724-6.15l.546-.992 1.848.305-.546.993-1.848-.307zm.546-.992l.61-.728 1.847.302-.61.73-1.847-.304zm.61-.728l.633-.416 1.845.3-.63.418-1.847-.302zm.633-.416l.612-.078 1.842.3-.609.078-1.845-.3zm-2.233 3.321l.444-1.186 1.848.307-.444 1.188-1.848-.309zm1.055 6.653l-.553-.248 1.84.32.55.247-1.837-.32zM1.287 38.77l.318-1.327 1.872.322-.318 1.33-1.872-.325zm-.155 1.348l.155-1.348 1.872.325-.156 1.35-1.87-.327zm.018 1.276l-.018-1.276 1.87.328.017 1.278-1.869-.33zm1.017 2.574l-.48-.581 1.864.333.478.583-1.862-.335zm-.48-.581l-.348-.878 1.867.332.345.88-1.865-.334zm-.348-.878l-.189-1.115 1.869.33.187 1.117-1.867-.332zm.724-6.28l.566-1.016 1.871.317-.565 1.019-1.872-.32zm.566-1.016l.636-.749 1.87.316-.635.75-1.87-.317zm.636-.749l.66-.431 1.868.314-.659.433-1.87-.316zm.66-.431l.639-.085 1.866.313-.637.086-1.869-.314zm-2.32 3.41l.458-1.214 1.872.32-.458 1.216-1.872-.322zm1.141 6.773l-.58-.248 1.863.335.577.246-1.86-.333zM.497 53.885l.315-1.318 1.857.35-.316 1.322-1.856-.354zm-.154 1.332l.154-1.332 1.856.354-.155 1.334-1.855-.356zm.02 1.253l-.02-1.253 1.855.356.017 1.256-1.853-.359zm1.011 2.49l-.478-.553 1.85.362.475.552-1.847-.362zm-.478-.553l-.345-.848 1.851.36.344.85-1.85-.362zm-.345-.848L.362 56.47l1.853.36.187 1.09-1.851-.36zm.716-6.205l.564-1.023 1.855.346-.562 1.026-1.857-.349zm.564-1.023l.63-.763 1.855.344-.63.765-1.855-.346zm.63-.763l.657-.452 1.853.342-.655.454-1.854-.344zm.657-.452l.636-.11 1.852.341-.635.111-1.853-.342zM.812 52.567l.455-1.213 1.857.349-.455 1.215-1.857-.351zm1.14 6.61l-.578-.218 1.847.362.575.218-1.845-.361zM8.898 50.155l.308-1.29 1.833.336-.308 1.292-1.833-.338zm-.154 1.305l.154-1.305 1.833.338-.155 1.308-1.832-.341zm.011 1.23l-.01-1.23 1.83.34.01 1.233-1.83-.343zm.954 2.451l-.453-.546 1.826.346.452.547-1.825-.347zm-.453-.546l-.326-.836 1.828.345.324.837-1.826-.346zm-.326-.836l-.175-1.07 1.83.344.173 1.07-1.828-.344zm.717-6.079l.543-.997 1.833.33-.543 1-1.833-.333zm.543-.997l.608-.743 1.831.33-.606.744-1.833-.331zm.608-.743l.629-.436 1.83.328-.628.437-1.831-.329zm.629-.436l.608-.102 1.828.327-.606.103-1.83-.328zm-2.221 3.36l.441-1.184 1.833.334-.44 1.187-1.834-.336zm1.053 6.498l-.55-.22 1.825.346.548.22-1.823-.346z"/></g><path d="M11.352 4.82l.315-1.317.45-1.19.552-.98.616-.7.637-.377.616-.026.55.323.45.649.318.929.166 1.145.004 1.285-.16 1.337-.31 1.3-.442 1.178-.544.974-.608.706-.633.39-.616.043-.555-.305-.457-.636-.327-.924-.173-1.15-.008-1.298.16-1.355zm1.308.313l-.067.575.002.551.073.49.139.394.072.102.121.17.236.133.262-.017.27-.164.26-.3.233-.416.19-.503.132-.556.068-.572-.002-.548-.071-.49-.137-.395-.192-.274-.235-.136-.262.014-.272.161-.083.096-.178.204-.078.139-.156.277-.19.506-.011.045-.124.514zM2.844 7.635l.323-1.349.464-1.218.572-1.004.641-.72.666-.389.644-.032.578.325.474.66.339.945.18 1.167.01 1.311-.159 1.366-.318 1.33-.456 1.204-.563.999-.634.725-.66.403-.644.05-.584-.306-.481-.646-.348-.94-.188-1.173-.015-1.324.16-1.384zm1.509-.264l-.137.572-.068.587.006.562.08.5.146.4.204.277.1.054.148.08.274-.02.282-.17.271-.308.241-.427.195-.514.136-.569.069-.584-.006-.56-.077-.498-.146-.402-.203-.28-.246-.135-.275.015-.067.04-.216.128-.272.307-.242.427-.145.38-.052.138z" fill="url(#G)" transform="translate(289.654 79.48)"/><path d="M2.014 23.235l.32-1.34.462-1.216.569-1.011.637-.736.662-.412.64-.059.576.295.473.627.336.914.18 1.14.011 1.288-.157 1.35-.316 1.32-.453 1.204-.56 1.006-.63.74-.657.424-.64.078-.581-.277-.48-.613-.346-.91-.188-1.144-.015-1.3.157-1.368zm1.5-.325l-.135.568-.067.58.006.553.004.03.075.457.008.023.138.365.012.015.192.248.246.12.273-.03.28-.18.27-.315.24-.429.194-.514.135-.565.067-.577-.006-.55-.077-.486-.145-.39-.202-.265-.245-.123-.274.027-.02.013-.26.164-.023.026-.249.288-.02.036-.22.394-.137.361-.06.156zM10.478 20.101l.313-1.31.447-1.189.549-.986.612-.716.635-.397.612-.053.548.294.448.618.317.9.166 1.119.004 1.262-.157 1.322-.309 1.292-.439 1.176-.54.982-.606.72-.63.41-.612.07-.553-.276-.455-.606-.326-.894-.173-1.124-.008-1.275.157-1.339zm1.302.25l-.067.569V20.99l.003.471.073.479.018.048.12.333.026.035.167.225.235.12.26-.028.27-.173.259-.307.23-.418.189-.503.132-.553.066-.565-.002-.539-.071-.477-.137-.383-.19-.262-.235-.123-.26.025-.032.02-.239.15-.26.306-.232.42-.19.505-.004.016-.129.54z" fill="url(#H)" transform="translate(289.654 79.48)"/><path d="M9.617 35.16l.31-1.3.445-1.19.545-.992.61-.73.63-.419.61-.078.546.265.446.589.316.87.166 1.094.005 1.241-.156 1.306-.307 1.284-.436 1.175-.537.988-.602.734-.627.43-.61.096-.55-.248-.454-.576-.324-.865-.173-1.097-.01-1.254.157-1.323zm3.07 1.019l.131-.55.067-.557-.003-.53-.07-.467-.137-.37-.19-.25-.234-.11-.238.032-.021.003-.253.17-.016.01-.259.311-.217.397-.014.025-.188.505-.002.01-.13.542-.06.514-.001.004-.005.044.003.49v.042l.067.428.006.039.126.34.011.03.179.229.013.017.234.108.26-.038.267-.182.258-.312.23-.422.186-.502zM1.196 38.604l.319-1.33.457-1.216.566-1.018.634-.751.658-.433.638-.086.573.265.47.596.336.885.18 1.113.011 1.266-.156 1.333-.313 1.311-.45 1.203-.557 1.014-.627.754-.654.445-.637.104-.578-.247-.477-.582-.345-.88-.188-1.117-.016-1.278.156-1.35zm1.493-.383l-.135.564-.066.574.005.464.001.078.068.407.011.069.146.375.178.22.025.03.245.107.271-.042.28-.188.267-.321.238-.433.193-.513.135-.562.066-.57-.006-.54-.077-.475-.144-.376-.202-.252-.244-.11-.22.03-.052.008-.24.16-.04.026-.269.32-.24.433-.128.341-.066.176z" fill="url(#I)" transform="translate(289.654 79.48)"/><path d="M.39 53.748l.316-1.32.455-1.216.563-1.026.63-.765.655-.453.634-.112.57.236.469.566.334.855.18 1.087.012 1.244-.155 1.317-.311 1.303-.448 1.202-.553 1.02-.623.768-.65.466-.634.129-.575-.219-.476-.552-.343-.85-.187-1.09-.017-1.256.155-1.334zm1.486-.441l-.134.56-.066.567v.014l.007.52.078.463.146.363.201.237.245.095.27-.052.278-.197.265-.327.237-.436.192-.513.133-.557.066-.564-.006-.53-.077-.464-.144-.364-.2-.24-.244-.097-.141.026-.129.023-.173.121-.105.073-.268.327-.239.436-.12.322-.072.194zM8.768 50.003l.309-1.293.44-1.187.543-1 .607-.744.627-.438.606-.103.544.238.445.559.315.843.165 1.067.006 1.22-.155 1.292-.304 1.275-.434 1.175-.533.994-.6.748-.624.45-.606.118-.548-.22-.451-.546-.324-.838-.173-1.071-.01-1.232.155-1.307zm3.056.87l.13-.545.067-.552-.003-.522-.072-.455-.135-.358-.19-.237-.232-.1-.158.029-.1.018-.268.188-.257.317-.23.426-.187.504-.015.064-.116.484-.04.342-.008.061-.018.152.004.523.073.456.136.358.192.234.233.096.258-.048.266-.19.256-.319.229-.424.185-.502z" fill="url(#J)" transform="translate(289.654 79.48)"/><g transform="translate(291.126 82.424)" fill="url(#K)"><path d="M11.312 1.825v-.15l.01-.045.127-.335 1.729.233.002.548-1.868-.251zm-.067.57l.067-.57 1.868.251-.069.572-1.866-.253zm-.124.516l.124-.516 1.866.253-.133.557-1.856-.253V2.91zm.906 1.676l-.262.017-.126-.07.388.053zm.27-.164l-.27.164-.388-.053-.11-.062-.122-.171.89.122zm.26-.3l-.26.3-.89-.122-.072-.102-.09-.256 1.312.18zm.232-.415l-.232.415-1.312-.18-.049-.138-.048-.322 1.641.225zm.19-.503l-.19.503-1.64-.225-.026-.167-.001-.364 1.856.253zm.127-2.166l.072.489-1.73-.233.065-.17.156-.278 1.437.192zm-.137-.395l.137.395-1.437-.192.078-.139.178-.204 1.044.14zm-.192-.275l.192.275-1.044-.14.083-.095.195-.117.574.077zm-.235-.135l.235.135-.574-.077.077-.045.262-.013zM2.936 4.604l-.003-.314.088-.233 1.801.25.006.56-1.892-.263zm-.067.583l.067-.583 1.892.263-.068.584-1.891-.264zm-.136.567l.136-.567 1.89.264-.135.569-1.891-.266zm-.054.141l.054-.141 1.89.266-.195.515-1.723-.244-.023-.143-.003-.253zm.956 1.544l-.275.02-.147-.08.422.06zm.282-.17l-.282.17-.422-.06-.1-.054-.141-.19.945.135zm.27-.308l-.27.309-.945-.135-.064-.086-.104-.284 1.383.196zm.241-.426l-.24.426-1.384-.196-.043-.118-.056-.356 1.723.244zm.317-2.726l.077.498-1.8-.25.056-.148.174-.306 1.493.206zM4.6 3.407l.145.402-1.493-.206.068-.12.199-.225 1.08.149zm-.204-.279l.204.279-1.081-.149.073-.083.216-.128.588.081zm-.246-.136l.246.136-.588-.08.067-.04.275-.016zM2.104 20.022l-.002-.212.12-.318 1.753.273.005.55-1.876-.293zm-.066.576l.066-.576 1.876.293-.067.577-1.875-.294zm-.135.564l.135-.564 1.875.294-.135.565-1.875-.295zm-.06.16l.06-.16 1.875.295-.194.514-1.733-.273-.005-.03-.004-.346zm.952 1.573l-.274.03-.226-.11.5.08zm.28-.18l-.28.18-.5-.08-.02-.01-.192-.247.992.158zm.27-.314l-.27.315-.992-.158-.012-.015-.137-.366 1.41.224zm.239-.43l-.24.43-1.41-.224-.009-.023-.074-.456 1.733.273zm.313-2.692l.078.486-1.753-.273.016-.042.221-.394 1.438.223zm-.145-.39l.145.39-1.438-.223.02-.037.249-.288 1.024.159zm-.201-.265l.201.266-1.024-.159.022-.026.261-.164.54.083zm-.246-.123l.246.123-.54-.083.02-.012.274-.028zM10.438 16.93v-.062l.003-.016.163-.435 1.684.254.002.54-1.852-.28zm-.067.564l.067-.564 1.852.28-.067.566-1.852-.282zm-.13.542l.13-.542 1.852.282-.132.552-1.85-.282v-.01zm.903 1.693l-.261.028-.191-.098.452.07zm.269-.173l-.269.173-.452-.07-.044-.022-.167-.225.932.144zm.259-.307l-.26.307-.93-.144-.027-.034-.12-.334 1.337.205zm.23-.418l-.23.418-1.337-.205-.018-.048-.064-.418 1.65.253zm.189-.503l-.188.503-1.65-.253-.009-.06-.002-.472 1.849.282zm.125-2.134l.072.477-1.684-.254.027-.07.2-.361 1.385.208zm-.136-.383l.136.383-1.385-.208.032-.058.226-.265.99.148zm-.192-.261l.192.261-.991-.148.034-.041.24-.151.525.079zm-.234-.123l.234.123-.526-.08.031-.019.261-.024zM9.51 32.377l.061-.514.002-.008.013-.034 1.827.307-.066.558-1.837-.309zm-.13.543l.13-.543 1.837.31-.131.548-1.836-.31v-.005zm.634 1.771l-.233-.108-.014-.017.507.087-.26.038zm.527-.22l-.267.182-.507-.087-.179-.23-.011-.03.964.165zm.258-.312l-.258.312-.964-.164-.126-.34-.006-.039 1.354.231zm.23-.422l-.23.422-1.354-.23-.067-.428v-.044l1.65.28zm.187-.502l-.187.502-1.651-.28-.003-.489.005-.043 1.836.31zm.194-1.638l.003.53-1.827-.306.175-.471.015-.026 1.634.273zm-.07-.466l.07.466-1.634-.273.216-.397.016-.018 1.331.222zm-.137-.37l.136.37-1.331-.222.244-.293.015-.01.936.155zm-.19-.25l.19.25-.936-.156.253-.169.021-.003.471.079zm-.234-.11l.233.11-.471-.078.238-.032zM1.284 35.215V35.1l.128-.34.03-.057 1.697.292.006.54-1.86-.321zm-.065.569l.065-.57 1.86.323-.065.57-1.86-.323zm-.134.56l.134-.56 1.86.323-.135.561-1.86-.324zm-.068.18l.068-.18 1.86.324-.194.514-1.73-.303-.004-.356zm.678 1.641l-.245-.107-.025-.03.541.095-.27.042zm.55-.23l-.279.188-.54-.095-.179-.22-.02-.052 1.019.18zm.268-.321l-.267.321-1.02-.179-.125-.323-.011-.068 1.423.249zm.238-.432l-.238.432-1.423-.25-.068-.407v-.078l1.73.303zm.311-2.66l.077.474-1.696-.292.208-.377.036-.042 1.375.237zm-.144-.377l.144.377-1.375-.237.233-.278.04-.026.958.164zm-.201-.252l.2.252-.957-.164.24-.16.053-.007.464.079zm-.245-.11l.245.11-.464-.08.219-.03zM.477 50.187v-.018l.12-.321.083-.152 1.636.31.006.53-1.845-.349zm-.065.562l.065-.562 1.845.35-.066.563-1.844-.35zm-.133.556l.133-.556 1.844.351-.133.557-1.844-.352zm-.075.2l.075-.2 1.844.352-.191.514-1.723-.33-.005-.337zm.677 1.678l-.245-.095-.058-.069.573.11-.27.054zm.548-.25l-.278.197-.573-.11-.143-.17-.047-.117 1.04.2zm.266-.327l-.266.327-1.041-.2-.099-.245-.026-.157 1.432.275zm.237-.435l-.237.435-1.432-.275-.052-.307-.002-.183 1.723.33zm.307-2.63l.077.465-1.636-.31.156-.285.094-.115 1.309.246zm-.144-.363l.144.364-1.309-.246.173-.211.105-.073.887.166zm-.2-.24l.2.24-.887-.166.173-.122.129-.023.385.072zm-.244-.097l.244.098-.385-.072.141-.026zM8.661 47.048l.04-.341.016-.065.051-.138 1.78.328-.065.552-1.822-.336zm-.115.484l.115-.484 1.822.336-.13.545-1.815-.335.008-.062zm.612 1.88l-.233-.095-.043-.053.534.1-.258.048zm.524-.239l-.266.19-.534-.1-.148-.18-.036-.093.984.183zm.256-.318l-.256.318-.984-.183-.101-.265-.02-.123 1.361.253zm.23-.424l-.23.424-1.361-.253-.053-.333v-.143l1.643.305zm.185-.502l-.186.502-1.644-.305-.002-.38.017-.152 1.815.335zm.193-1.618l.003.521-1.78-.328.135-.366.063-.117 1.579.29zm-.072-.456l.072.456-1.579-.29.167-.308.072-.09 1.268.232zm-.135-.358l.135.358-1.268-.231.185-.229.08-.056.868.158zm-.19-.237l.19.237-.868-.158.188-.132.1-.018.39.071zm-.232-.099l.232.1-.39-.072.158-.028z"/></g><path d="M14.91 21.004c1.763.571 2.641 2.015 2.633 4.332-.012 3.474 0 18.683 0 27.854 0 9.172-.495 13.938-5.03 13.938-4.534 0-5.348-4.162-5.348-7.75 0-3.59-.684-4.222-2.236-4.838" stroke="url(#v)" stroke-width="3" stroke-linecap="round" stroke-linejoin="round" transform="translate(287.691 78.99)"/><path d="M7.453 8.52c1.247.79 1.87 2.228 1.87 4.316 0 3.132-.225 14.778-.225 17.351 0 2.573.366 7.238 4.658 7.238 4.292 0 4.187-5.779 4.292-11.942.104-6.164.104-7.782.104-11.963 0-4.181 0-6.03-2.354-7.13" stroke="url(#v)" stroke-width="3" stroke-linecap="round" stroke-linejoin="round" transform="translate(287.691 78.99)"/></g><path fill="url(#L)" d="M38.189 150.626l-2.482-37.82 5.314 1.22 2.212 35.07z" transform="translate(10)"/><path fill="#1C86E9" d="M86.919 161.663l-38.73-11.037 5.044-1.53 33.539 9.41z"/><g><g transform="translate(50.722 113.824)"><mask id="O" fill="#fff"><use xlink:href="#M"/></mask><use fill="url(#v)" xlink:href="#M"/><path d="M.832 19.856c.479 2.91 1.88 4.477 4.206 4.702 3.488.34 3.145-8.694 7.203-7.327 4.058 1.366 1.928 5.646 5.45 5.646 3.52 0 1.148-8.382 5.497-7.014 4.349 1.368 1.51 10.237 5.364 11.843 3.854 1.607 1.562-11.81 5.623-9.83 2.707 1.32 3.733 3.803 3.08 7.45l.847 21.64-40.834-11.688L.832 19.856z" fill-opacity=".6" fill="url(#N)" mask="url(#O)"/><path d="M.832 19.856c.479 2.91 1.88 4.477 4.206 4.702 3.488.34 3.145-8.694 7.203-7.327 4.058 1.366 1.928 5.646 5.45 5.646 3.52 0 1.148-8.382 5.497-7.014 4.349 1.368 1.51 10.237 5.364 11.843 3.854 1.607 1.562-11.81 5.623-9.83 2.707 1.32 3.733 3.803 3.08 7.45" stroke="url(#P)" mask="url(#O)"/></g><path fill="url(#Q)" d="M136.433 22.028l-43.158 15.19-.325-17.77L136.48 5.58z" transform="translate(50.722 110.39)"/><path fill="url(#R)" d="M136.36 47.001l-42.59 17.15-.309-16.792 42.944-15.934z" transform="translate(50.722 110.39)"/><path fill="url(#v)" d="M150.356 15.351l-.56-2.076-.174-2.383.22-2.523.605-2.486.943-2.272 1.216-1.898 1.401-1.394.315-.168.814 1.53.533 2.052.161 2.327-.219 2.448-.585 2.408-.911 2.21-1.18 1.867-1.37 1.396-.484.273zM149.608 33.398l.596-2.458.933-2.269 1.201-1.92 1.385-1.437.506-.296.616 1.108.527 1.973.16 2.262-.217 2.4-.578 2.383-.9 2.207-1.167 1.885-1.355 1.438-.674.414-.526-.908-.552-1.995-.174-2.314z" transform="translate(50.722 110.39)"/><path d="M147.26 133.296l14.882-4.816" stroke="#36C0F5" opacity=".5" stroke-linecap="round" stroke-linejoin="round" stroke-dasharray="10,5"/><path d="M147.26 136.73l23.222-7.76" stroke="#36C0F5" opacity=".5" stroke-linecap="round" stroke-linejoin="round" stroke-dasharray="8,5"/><path d="M147.75 161.261l22.242-8.74" stroke="#36C0F5" opacity=".5" stroke-linecap="round" stroke-linejoin="round" stroke-dasharray="10,5"/><path d="M147.75 164.696l20.28-7.76" stroke="#36C0F5" opacity=".5" stroke-linecap="round" stroke-linejoin="round" stroke-dasharray="8,5"/></g><path fill="#36C0F5" d="M192.39 133.537l-48.334 17.305-.06-3.234 43.158-15.19z"/><path fill="url(#L)" d="M182.495 114.284l-.105 19.253-5.236-1.119.048-16.448zM182.355 139.874l-.102 18.78-5.171-1.263.045-15.577z" transform="translate(10)"/><path fill="#36C0F5" d="M192.253 158.655l-47.695 19.532-.067-3.647 42.59-17.149z"/><path d="M197.686 109.764l1.353.503-2.266-.41.913-.093zm1.353.503l1.145 1.115-5.007-.914 1.039-.556.557-.056 2.266.411zm1.145 1.115l.862 1.646-5.188-.957-.815-1.53.134-.073 5.007.914zm.862 1.646l.524 2.062-5.18-.967-.532-2.052 5.188.957zm.524 2.062l.155 2.34-5.173-.98-.162-2.327 5.18.967zm.155 2.34l-.225 2.462-5.167-.994.219-2.448 5.173.98zm-.225 2.462l-.588 2.424-5.164-1.01.585-2.408 5.167.994zm-.588 2.424L200 124.54l-5.164-1.025.912-2.21 5.164 1.01zM200 124.54l-1.178 1.88-5.165-1.039 1.18-1.866 5.163 1.025zm-1.178 1.88l-1.367 1.407-5.17-1.05 1.372-1.396 5.165 1.038zm-1.367 1.407l-1.466.84-3.33-.681-.682-.62-.175-.315.484-.273 5.17 1.05zm-1.466.84l-1.467.208-1.37-.44-.493-.45 3.33.681zM195.694 153.151l-1.451.285-1.354-.354-.97-.814 3.775.883zm1.45-.9l-1.45.9-3.774-.883-.193-.162-.364-.629.674-.413 5.106 1.187zm1.35-1.45l-1.35 1.45-5.107-1.187 1.355-1.438 5.102 1.175zm1.164-1.9l-1.164 1.9-5.102-1.175 1.166-1.885 5.1 1.16zm.902-2.22l-.902 2.22-5.1-1.16.9-2.207 5.102 1.146zm.581-2.398l-.58 2.397-5.102-1.146.578-2.383 5.104 1.132zm.222-2.415l-.222 2.415-5.104-1.132.216-2.4 5.11 1.117zm-.153-2.274l.153 2.274-5.11-1.118-.16-2.262 5.117 1.106zm-.519-1.982l.52 1.982-5.117-1.106-.527-1.972 5.124 1.096zm-.852-1.558l.852 1.558-5.124-1.096-.616-1.109.489-.286 4.399.933zm-1.133-1.022l1.133 1.022-4.4-.933.476-.277 1.093-.171 1.698.359zm-1.338-.416l1.338.416-1.698-.36.36-.056z" fill="url(#S)" transform="translate(10)"/><g transform="translate(202.323 111.37)"><path fill="url(#P)" d="M.013 7.594L4.006.156 1.882 8.163z"/><circle fill="url(#T)" cx=".981" cy="7.85" r="1"/></g><g transform="rotate(104 48.525 153.695)"><path fill="url(#P)" d="M.013 6.122L3.886.232l-2.004 6.46z"/><circle fill="url(#T)" cx=".981" cy="6.378" r="1"/></g><g fill="#36C0F5"><path d="M148.846 235.425l-1.829.952-.016-.908.803-.417zM157.803 230.76l-1.687.88-.012-.896.663-.344zM166.463 226.251l-1.709.89-.007-.883.685-.355zM174.84 221.889l-1.653.861-.004-.87.633-.328zM182.949 217.667l-1.601.834v-.858l.582-.302zM190.8 213.579l-1.55.807.003-.846.535-.278z"/></g><g transform="translate(146.883 171.227)" fill="url(#L)"><path d="M1.87 58.628l.092 5.57-1.042-.372-.095-5.564zM1.208 18.929l.541 32.467-.402.126-.594.405-.037.04-.56-32.581zM10.503 24.826l.417 34.708-1.036-.36-.436-34.668zM10.384 14.94l.033 2.762-.377.094-.584.369-.086.09-.036-2.86zM19.484 42.216l.096 12.809-1.03-.349-.104-12.793zM19.248 11.086l.183 24.197-.344.1-.558.377-.131.143L18.2 11.54zM27.85 17.986l.108 32.676-1.025-.337-.124-32.64zM27.816 7.36l.012 3.799-.32.078-.545.35-.176.186-.015-3.958zM36.08 29.217l-.014 17.224-1.019-.327.006-17.204zM36.103 3.758l-.017 18.799-.291.08-.525.352-.215.236.007-19.015zM44.031 18.895l-.114 23.457-1.012-.316.102-23.431zM44.122.271l-.059 12.081-.268.069-.51.338-.254.278.053-12.315z"/></g><g transform="translate(145.902 171.717)" fill="url(#v)"><path d="M.9 52.484L.316 19.252l.822-.357.56 32.581-.514.558zM1.902 63.335l-.803.417-.111-6.325.292.16.526.184zM9.68 18.576L9.637 15.2l.678-.295.036 2.859-.456.476zM10.865 58.683l-.663.344-.455-35.293.22.141.463.14zM18.691 36.317l-.21-24.962.7-.305.198 24.362-.389.423zM19.53 54.186l-.685.355-.114-13.46.305.185.391.126zM27.125 12.132l-.018-4.527.646-.281.015 3.959-.333.355zM27.914 49.835l-.633.328-.136-33.278.312.214.333.096zM35.447 23.549l.001-19.571.595-.259-.007 19.015-.275.303zM36.034 28.42l-.006 17.204-.582.302V28.127l.314.21zM43.468 13.316L43.52.47l.546-.237-.054 12.315-.223.244zM43.886 41.545l-.535.278.098-23.998.317.226.222.063z"/></g><g transform="translate(145.902 182.02)" fill="url(#a)"><path d="M.793 47.018l-.379-.478 2.108.738.379.478-2.108-.738zm-.379-.478l-.245-.657 2.11.737.243.658-2.108-.738zm-.245-.657l-.094-.791 2.11.735.093.793-2.11-.737zm1.565-4.75l.594-.405 2.112.721-.595.407-2.111-.722zM.357 43.33l.356-.85 2.112.728-.357.852-2.111-.73zm-.218.891l.218-.89 2.111.73-.218.893-2.111-.733zm-.064.87l.064-.87 2.111.733-.065.873-2.11-.735zm2.85-4.55l.559.047 2.11.718-.559-.044-2.11-.72zm2.11.72l-.595.188-2.112-.72.598-.187 2.11.72zm-1.19.595l-.55.6-2.112-.725.515-.558.036-.04 2.111.723zm-.55.6l-.47.752-2.112-.728.47-.749 2.112.725zm-.394 5.3l.485.265-2.106-.737-.487-.266 2.108.738zM9.492 13.268l-.37-.511 2.127.643.369.512-2.126-.644zm-.37-.511l-.237-.683 2.128.642.236.684-2.126-.643zm-.237-.683l-.089-.809 2.13.64.087.81-2.128-.641zm1.552-4.703l.584-.369 2.13.627-.583.37-2.13-.628zM9.08 9.5l.353-.836 2.13.634-.352.838-2.13-.636zm-.216.887l.216-.887 2.13.636-.216.89-2.13-.639zm-.067.88l.067-.88 2.13.639-.067.88-2.13-.64zm2.81-4.41l.547.086 2.127.625-.545-.085-2.128-.626zm2.129.626l-.584.147-2.13-.627.377-.094.209-.052 2.128.626zM12.568 8l-.542.568-2.131-.63.542-.567 2.13.629zm-.542.568l-.464.729-2.13-.634.463-.726 2.13.631zm-.408 5.344l.474.305-2.125-.645-.475-.304 2.126.644zM18.583 30.686l-.35-.479 2.093.672.349.48-2.092-.673zm-.35-.479l-.223-.65 2.094.67.222.652-2.093-.672zm-.223-.65l-.081-.777 2.094.67.08.778-2.093-.671zm1.5-4.59l.558-.378 2.095.657-.558.378-2.095-.658zm-1.304 2.1l.34-.818 2.095.662-.34.82-2.095-.664zm-.21.864l.21-.864 2.096.665-.211.866-2.096-.667zm-.067.85l.066-.85 2.096.667-.068.851-2.094-.669zm2.698-4.353l.521.062 2.093.655-.52-.063-2.094-.654zm2.094.654l-.558.164-2.095-.657.344-.1.215-.061 2.094.654zm-1.116.542l-.519.568-2.096-.66.52-.566 2.095.658zm-.519.568l-.445.719-2.096-.662.445-.717 2.096.66zm-.411 5.167l.45.277-2.09-.673-.452-.277 2.092.673zM27.017 6.494l-.34-.5 2.101.604.338.5-2.1-.604zm-.34-.5l-.215-.665 2.102.602.214.667-2.1-.604zm-.215-.665l-.076-.785 2.103.6.075.787-2.102-.602zM27.944.793l.546-.35 2.103.589-.545.35-2.104-.59zm-1.28 2.043l.334-.804 2.105.594-.335.807-2.104-.597zm-.21.857l.21-.857 2.104.597-.21.86-2.103-.6zm-.068.85l.069-.85 2.104.6-.07.852-2.103-.601zM29.036.31l.507.09 2.102.587-.507-.09L29.035.31zm2.102.587l-.545.135L28.49.444l.32-.079.225-.055 2.103.587zm-1.09.486l-.509.543-2.104-.592.509-.541 2.104.59zm-.509.543l-.436.7-2.105-.594.437-.698 2.104.592zM29.116 7.1l.439.302-2.098-.605-.44-.302 2.1.605zM35.34 17.752l-.323-.477 2.072.618.322.478-2.071-.619zm-.323-.477l-.204-.641 2.073.617.203.642-2.072-.618zm-.204-.641l-.07-.76 2.075.616.068.761-2.073-.617zm1.438-4.439l.525-.352 2.074.604-.524.353-2.075-.605zm-1.235 2.015l.324-.79 2.075.61-.324.792-2.075-.612zm-.203.837l.203-.837 2.075.612-.203.84-2.075-.615zm-.07.828l.07-.828 2.075.614-.07.829-2.074-.615zM37.3 11.7l.487.075 2.072.602-.486-.075L37.3 11.7zm2.073.602l-.522.145-2.074-.604.291-.08.232-.063 2.073.602zm-1.046.498l-.49.54-2.075-.606.49-.539 2.075.605zm-.49.54l-.42.69-2.076-.61.421-.686 2.076.606zm-.425 5.031l.419.282-2.07-.619-.42-.282 2.07.62zM43.36 7.458l-.311-.48 2.066.583.31.482-2.065-.585zm-.311-.48l-.195-.641 2.067.583.194.641-2.066-.584zm-.195-.641l-.064-.756 2.067.582.064.757-2.067-.583zm1.412-4.372l.51-.338 2.067.57-.509.34-2.068-.572zM43.06 3.937l.317-.776 2.069.575-.317.778-2.07-.577zm-.2.825l.2-.825 2.069.577-.2.828-2.07-.58zm-.071.82l.07-.82 2.07.58-.073.821-2.067-.582zm4.56-3.516l-.507.131-2.067-.57.508-.13 2.067.57zm-1.016.47l-.476.525-2.07-.573.478-.523 2.068.572zm-.476.525l-.411.675-2.07-.575.412-.673 2.069.573zm-.433 4.982l.405.29-2.064-.585-.406-.29 2.065.585zm-.141-6.546l.471.086 2.066.569-.47-.086-2.067-.569z"/></g><g fill="#FFF"><path d="M152.677 225.526l-.065.866-.216.885-.353.846-.464.748-.546.6-.59.412-.596.195-.56-.036-.485-.266-.378-.478-.244-.658-.093-.793.065-.873.218-.894.356-.852.47-.751.551-.6.595-.408.595-.187.558.045.48.272.373.482.24.657zM161.33 191.903l-.067.873-.215.882-.348.831-.458.725-.537.57-.58.375-.583.155-.548-.077-.474-.305-.369-.511-.236-.685-.087-.81.067-.881.217-.89.352-.838.463-.729.543-.568.582-.37.585-.147.545.085.47.31.363.516.232.683zM170.228 209.355l-.068.844-.208.86-.336.813-.44.717-.515.568-.554.383-.557.17-.522-.054-.451-.277-.35-.48-.221-.651-.08-.778.067-.852.21-.866.34-.82.445-.72.52-.568.557-.378.558-.163.52.062.447.283.343.483.218.65zM178.596 185.267l-.07.845-.207.852-.331.8-.432.698-.504.544-.542.355-.544.142-.51-.082-.438-.302-.338-.5-.214-.668-.075-.786.07-.852.209-.86.335-.807.436-.7.508-.543.546-.351.545-.134.506.09.435.307.333.504.21.666zM186.757 196.565l-.07.822-.203.832-.32.786-.416.686-.486.542-.521.358-.522.15-.487-.067-.42-.283-.321-.478-.203-.642-.068-.761.07-.829.203-.84.324-.791.422-.69.489-.54.524-.353.522-.144.486.075.415.288.317.48.199.642zM194.68 186.346l-.071.814-.2.82-.312.773-.407.672-.473.526-.506.343-.507.138-.472-.079-.405-.29-.31-.481-.194-.642-.064-.757.072-.82.2-.829.318-.778.41-.674.477-.525.51-.34.507-.13.47.085.401.295.306.485.19.64z"/></g><path fill="url(#B)" d="M317.903 71.145l-1.967 28.26-4.388-.648 1.765-26.15z" transform="translate(10)"/><path fill="#879FFA" d="M325.936 99.406l-18.894 7.496.154-2.546 14.352-5.599z"/><path fill="url(#B)" d="M216.851 91.48l.325-14.875 2.793.385-.317 13.671zM216.424 110.99l.32-14.598 2.765.446-.307 13.22z" transform="translate(10)"/><path d="M199.685 75.176l1.47-.532.747-.015-2.217.547zm-1.263.99l1.263-.99 2.217-.547.457-.01-1.07.835-2.867.712zm-.975 1.379l.975-1.379 2.868-.712-.974 1.372-2.869.719zm-.62 1.673l.62-1.673 2.87-.72-.621 1.664-2.869.729zm-.227 1.854l.227-1.854 2.869-.729-.229 1.844-2.867.74zm.181 1.91l-.18-1.91 2.866-.74.178 1.9-2.864.75zm.576 1.84l-.576-1.84 2.864-.75.571 1.828-2.86.761zm.931 1.645l-.931-1.646 2.86-.761.927 1.636-2.856.771zm1.226 1.343l-1.226-1.343 2.856-.771 1.221 1.334-2.85.78zm1.44.95l-1.44-.95 2.851-.78 1.435.942-2.846.788zm1.557.49l-1.557-.49 2.846-.788 1.553.486-2.842.791zm1.57-.005l-1.57.004 2.842-.791.588-.003-.382.288-1.477.502z" fill="url(#F)" transform="translate(10)"/><g><path fill="url(#U)" d="M113.828 26.636l-14.352 5.599 1.649-27.139 14.468-4.61z" transform="translate(207.72 72.121)"/><use fill="url(#U)" xlink:href="#V" transform="translate(306.825 72.121)"/><path fill="url(#W)" d="M67.643 25.583l-45.71-7.043.316-13.671 46.043 6.354zM66.721 45.94l-45.239-8.003.307-13.22 45.56 7.35z" transform="translate(207.72 72.121)"/><path d="M233.119 82.762l17.334 2.544" stroke="#879FFA" opacity=".6" stroke-linecap="round" stroke-linejoin="round" stroke-dasharray="4,7"/><path d="M233.119 85.706l20.769 3.034" stroke="#879FFA" opacity=".6" stroke-linecap="round" stroke-linejoin="round" stroke-dasharray="6,4"/><path d="M233.119 102.387l15.372 2.543" stroke="#879FFA" opacity=".6" stroke-linecap="round" stroke-linejoin="round" stroke-dasharray="4,7"/><path d="M233.119 105.33L248 107.875" stroke="#879FFA" opacity=".6" stroke-linecap="round" stroke-linejoin="round" stroke-dasharray="10,4"/><path fill="url(#W)" d="M10.121 14.285l-.999 1.37-.9.68-.59.002-1.552-.486-1.435-.943-1.221-1.334-.928-1.635-.571-1.828-.178-1.9.229-1.843.62-1.663.974-1.373 1.069-.834.372-.008 1.574.469 1.463.943L9.3 5.254l.95 1.669.584 1.869.176 1.94-.244 1.874z" transform="translate(207.72 72.121)"/><g transform="rotate(-50 188.064 -183.901)" fill="url(#A)"><path d="M.011 6.328L3.561.13 1.673 6.803z"/><ellipse cx=".872" cy="6.542" rx="1" ry="1"/></g></g><path fill="url(#X)" d="M265.304 99.017L216.85 91.48l2.801-.819 45.71 7.044zM264.374 119.553l-47.95-8.563 2.778-.932 45.24 8.004z" transform="translate(10)"/><g><g fill="#7692FB"><path d="M271.003 163.999l-1.789-.41.521-.26 1.285.294zM262.05 161.949l-1.674-.383.527-.254 1.163.265zM253.43 159.976l-1.719-.394.532-.25 1.2.275zM244.9 158.023l-1.686-.386.538-.245 1.16.265zM236.535 156.108l-1.654-.38.542-.24 1.122.257zM228.33 154.229l-1.623-.371.547-.236 1.083.248z"/></g><g fill="#879FFA"><path d="M269.214 163.59l.194-4.443.211.017.302-.067-.186 4.233zM269.647 153.684l1.075-24.622.514.098-1.078 24.543-.447-.033zM260.376 161.566l1.05-26.748.164.008.362-.093-1.05 26.579zM261.64 129.379l.079-2.027.521.099-.076 1.934-.47-.021zM251.711 159.582l.35-10.008.115.007.414-.1-.347 9.851zM252.248 144.206l.647-18.53.528.1-.648 18.45-.483-.031zM243.214 157.637l.78-25.42.07.004.47-.125-.782 25.296zM244.158 126.882l.087-2.849.536.102-.086 2.76-.503-.023zM234.88 155.729l.36-13.502.025.002.51-.131.008-.003-.36 13.394zM235.379 136.955l.385-14.533.543.103-.388 14.452-.515-.03zM226.707 153.858l.414-18.438.484-.13.066-.026-.417 18.358zM227.238 130.196l.21-9.354.548.105-.21 9.27-.532-.025z"/></g><g transform="translate(226.854 120.693)" fill="url(#U)"><path d="M45.69 8.716l-1.11 24.907-.026-.029-.533-.363-.579-.21-.138-.011 1.078-24.543zM44.166 42.93l-1.285-.293.186-4.233.252-.056 1.046-.51.028-.018zM36.57 6.983l-.09 2.234-.486-.324-.574-.195-.11-.005.076-1.935zM35.211 40.884l-1.162-.265 1.049-26.578.186-.048 1.022-.43zM27.791 5.316l-.673 18.824-.043-.048-.515-.353-.559-.2-.08-.006.648-18.45zM26.59 38.914l-1.2-.274.345-9.85.118-.029 1.072-.478.046-.028zM19.107 3.666l-.098 3.128-.051-.056-.51-.344-.553-.19-.054-.003.085-2.759zM18.058 36.965l-1.16-.266.782-25.296.055-.015 1.09-.433.054-.035zM10.593 2.05l-.406 14.837-.058-.065-.498-.343-.539-.193-.027-.002.387-14.452zM8.57 34.796l.358-13.394 1.088-.448.061-.04-.386 14.138zM2.244.463l-.225 9.66-.065-.073-.491-.338-.53-.188H.931l.211-9.27zM1.483 33.177L.4 32.93l.417-18.358 1.042-.405.068-.046z"/></g><g transform="translate(225.382 126.58)" fill="url(#a)"><path d="M46.701 31.237l-.381.428-1.046.51.382-.428 1.045-.51zm.252-.54l-.252.54-1.045.51.252-.542 1.045-.508zm.105-.618l-.105.618-1.045.508.105-.619 1.045-.507zm-2.144-2.946l.58.21-1.05.5-.58-.211 1.05-.5zm1.561 1.066l.336.587-1.046.504-.336-.589 1.046-.502zm-.982-.856l.533.364-1.048.5-.534-.364 1.05-.5zm1.318 1.443l.2.64-1.046.507-.2-.643 1.046-.504zm.2.64l.047.653-1.045.507-.048-.653 1.045-.506zm-3.732-1.838l-.553.127 1.05-.499.488-.112.065-.014-1.05.498zm.586.044l-.586-.044 1.05-.498.446.032.14.01-1.05.5zm1.564 1.07l-.45-.494 1.047-.501.45.492-1.047.502zm-.638 3.758l.483-.285 1.046-.51-.455.268-.028.017-1.046.51zM38.678 6.91l-.377.444-1.067.448.376-.444 1.068-.448zm-.377.444l-.478.302-.045.02-1.022.43.478-.304 1.067-.448zm.624-.999l-.247.555-1.068.448.248-.556 1.067-.447zm.102-.627l-.102.627-1.067.447.103-.63 1.066-.444zM36.892 2.81l.574.196-1.07.438-.575-.197 1.07-.437zm1.551 1.033l.335.583-1.068.442-.336-.585 1.07-.44zm-.447-.485l.447.485-1.069.44-.448-.486 1.07-.44zm.782 1.068l.2.644-1.068.443-.2-.645 1.068-.442zm.2.644l.05.658-1.067.444-.05-.659 1.066-.443zM35.24 3.22l-.548.145 1.073-.436.546-.145-1.071.436zm.58.027l-.58-.027 1.071-.436.47.021.11.005-1.07.437zm1.106.55l-.53-.353 1.07-.438.53.352-1.07.439zM29.223 21.682l-.363.427-1.072.477.364-.427 1.071-.477zm.239-.536l-.239.536-1.071.477.238-.538 1.072-.475zm.096-.611l-.096.61-1.072.476.097-.612 1.071-.474zm-2.085-2.884l.559.2-1.075.468-.56-.201 1.076-.467zm1.51 1.034l.328.576-1.073.471-.328-.577 1.073-.47zm-.951-.833l.515.353-1.074.469-.516-.355 1.075-.467zm1.279 1.409l.196.63-1.072.474-.197-.633 1.073-.471zm.196.63l.051.644-1.071.474-.052-.644 1.072-.473zm-3.673-1.81l-.531.132 1.076-.467.486-.12.045-.011-1.076.466zm1.491 4.793l.463-.288 1.072-.477-.417.258-.046.028-1.072.479zm-.927-4.756l-.564-.037 1.076-.466.482.03.081.006-1.075.467zm1.512 1.037l-.437-.481 1.074-.469.043.047.393.433-1.073.47zM21.11 4.333l-.357.436-1.09.433.358-.437 1.09-.432zm.233-.545l-.233.545-1.09.432.234-.546 1.09-.431zm.094-.617l-.094.617-1.089.43.094-.617 1.09-.43zM19.367.316l.552.19-1.092.423-.553-.19 1.093-.423zm1.495 1.009l.326.571-1.09.427-.327-.573 1.091-.425zM19.92.507l.51.344-1.092.423-.51-.345 1.092-.422zm1.269 1.39l.196.63-1.09.428-.197-.632 1.09-.427zm.196.63l.053.644-1.09.43-.053-.646 1.09-.429zM17.716.713l-.524.144 1.095-.422.489-.134.034-.01-1.094.422zm.558.024l-.558-.024L18.81.292l.503.022.054.002-1.093.422zM19.77 1.75l-.434-.476L20.43.851l.433.474-1.091.425zm-.564 3.75l.457-.298 1.09-.433-.404.263-.054.035-1.09.434zM12.278 14.356l-.347.423-1.094.452.346-.425 1.095-.45zm.224-.53l-.224.53-1.095.45.225-.532 1.094-.449zm.09-.604l-.09.603-1.094.45.089-.605 1.094-.448zm-2.028-2.824l.539.194-1.098.441-.539-.194 1.098-.44zm1.46 1.007l.32.564-1.096.445-.32-.566 1.096-.443zm-.921-.813l.498.343-1.097.442-.499-.344 1.098-.441zm1.24 1.377l.194.62-1.095.447-.194-.622 1.096-.445zm.194.62l.054.633-1.094.448-.055-.634 1.095-.447zm-3.614-1.781l-.51.134 1.1-.44.483-.127.026-.007-1.1.44zm.543.03l-.543-.03 1.099-.44.515.029.027.001-1.098.44zm1.462 1.01l-.424-.471 1.097-.442.423.47-1.096.443zm-.535 3.67l.444-.287 1.094-.452-.382.248-.061.04-1.088.448-.007.003zM4.103 7.564l-.338.425-1.107.431.338-.425 1.107-.43zm.22-.531l-.22.531-1.107.43.22-.531 1.106-.43zm.084-.601l-.085.601-1.106.43.084-.603 1.107-.428zM2.405 3.637l.53.188-1.11.421-.53-.188 1.11-.421zm1.439.99l.315.56-1.108.424-.316-.56 1.109-.424zm-.91-.802l.492.338-1.11.422-.49-.339 1.109-.421zM4.16 5.186l.193.616-1.108.426-.193-.617 1.108-.425zm.193.616l.055.63L3.3 6.86l-.056-.632 1.108-.426zM.76 4.032l-.5.138 1.111-.42.484-.134.016-.005-1.111.42zm.533.026L.761 4.03l1.11-.42.532.026h.002l-1.11.42zm1.44.992l-.417-.465 1.109-.422.418.464-1.11.423zm-.511 3.66l.435-.29 1.107-.431-.367.244-.068.045-1.042.406-.065.025z"/></g><g fill="#FFF"><path d="M266.946 156.821l-.05-.65.104-.617.249-.541.378-.43.481-.288.553-.127.586.044.58.211.534.365.45.493.336.589.2.643.049.653-.106.619-.252.542-.381.428-.484.286-.554.123-.21-.017-.375-.03-.578-.213-.53-.366-.447-.492-.334-.585zM258.932 132.536l-.052-.657.1-.627.245-.555.373-.446.477-.306.547-.144.581.027.576.196.53.353.448.486.335.586.2.644.051.66-.102.629-.248.556-.376.444-.479.304-.186.047-.362.093-.164-.008-.417-.021-.573-.2-.527-.353-.445-.485-.333-.583zM249.586 147.3l-.053-.642.095-.61.235-.537.361-.429.461-.29.531-.13.564.036.56.201.515.355.437.481.329.577.197.633.051.644-.096.612-.239.538-.363.427-.463.288-.118.028-.414.1-.116-.008-.448-.032-.557-.204-.513-.355-.434-.48-.326-.575zM241.498 129.982l-.054-.644.091-.615.23-.545.355-.44.455-.3.523-.144.558.024.553.191.51.345.434.476.327.573.196.632.054.646-.093.618-.234.546-.357.437-.457.299-.055.015-.47.125-.07-.003-.487-.025-.55-.193-.509-.345-.43-.474-.324-.571zM232.757 140.003l-.055-.631.086-.602.223-.532.343-.426.442-.29.51-.134.542.03.54.195.499.344.423.472.32.565.195.622.054.634-.088.604-.225.533-.347.424-.443.287-.511.13h-.026l-.516-.033-.538-.196-.496-.345-.42-.47-.319-.563zM224.632 133.229l-.057-.629.083-.6.216-.531.336-.427.433-.292.5-.138.534.026.53.188.492.339.418.466.317.56.193.618.056.631-.085.603-.22.532-.338.425-.435.29-.484.13-.017.005-.533-.03-.529-.19-.488-.34-.416-.464-.314-.558z"/></g></g><path d="M130.148 95.246l-.592-43.654c-.621-10.014 2.509-15.402 9.39-16.164 8.754-1.593 49.14-8.504 121.161-20.732 8.176-.777 12.103 2.174 11.783 8.852 0 6.021-.3 18.155-.9 36.402" stroke="#86969F" stroke-width="2" stroke-linecap="round" stroke-dasharray="2,5"/><g transform="translate(10)"><use fill="#000" filter="url(#Y)" xlink:href="#Z"/><use fill="#FFF" xlink:href="#Z"/></g><text font-family="NunitoSans-Black, Nunito Sans" font-size="13" font-weight="700" fill="#547B92" transform="translate(10)"><tspan x="96.849" y="66.385">- </tspan> <tspan x="106.365" y="66.385" font-family="NunitoSans-SemiBold, Nunito Sans" font-weight="500">$</tspan> <tspan x="114.165" y="66.385">0.01</tspan></text><g transform="translate(10)"><use fill="#000" filter="url(#aa)" xlink:href="#ab"/><use fill="#FFF" xlink:href="#ab"/></g><text font-family="NunitoSans-Black, Nunito Sans" font-size="11" font-weight="700" fill="#547B92" transform="translate(10)"><tspan x="241.686" y="41.879">+ </tspan> <tspan x="251.432" y="41.879" font-family="NunitoSans-SemiBold, Nunito Sans" font-weight="500">$</tspan> <tspan x="258.032" y="41.879">0.01</tspan></text></g></svg>