<svg width="246" height="212" xmlns="http://www.w3.org/2000/svg" xmlns:xlink="http://www.w3.org/1999/xlink"><defs><path id="a" d="M.029.07v156.586h197.469V.07z"/><linearGradient x1="72.687%" y1="100%" x2="50%" y2="0%" id="d"><stop stop-color="#4194FF" offset="0%"/><stop stop-color="#175FE1" offset="100%"/></linearGradient><rect id="c" x="50.69" y="60.828" width="109.345" height="89.069" rx="4"/><filter x="-33.8%" y="-39.3%" width="167.7%" height="183.1%" filterUnits="objectBoundingBox" id="b"><feOffset dy="2" in="SourceAlpha" result="shadowOffsetOuter1"/><feGaussianBlur stdDeviation="12" in="shadowOffsetOuter1" result="shadowBlurOuter1"/><feColorMatrix values="0 0 0 0 0.0901960784 0 0 0 0 0.321568627 0 0 0 0 0.870588235 0 0 0 0.6 0" in="shadowBlurOuter1"/></filter><linearGradient x1="32.233%" y1="13.176%" x2="100%" y2="63.69%" id="g"><stop stop-color="#4CC9FF" offset="0%"/><stop stop-color="#82FFF5" offset="100%"/></linearGradient><rect id="f" x="74.586" y="122.379" width="62.276" height="13.759" rx="3"/><filter x="-35.3%" y="-123.6%" width="170.7%" height="419.8%" filterUnits="objectBoundingBox" id="e"><feOffset dy="5" in="SourceAlpha" result="shadowOffsetOuter1"/><feGaussianBlur stdDeviation="6.5" in="shadowOffsetOuter1" result="shadowBlurOuter1"/><feColorMatrix values="0 0 0 0 0.0901960784 0 0 0 0 0.321568627 0 0 0 0 0.870588235 0 0 0 0.6 0" in="shadowBlurOuter1"/></filter><linearGradient x1="50%" y1="0%" x2="33.968%" y2="92.527%" id="h"><stop stop-color="#F3F8FA" offset="0%"/><stop stop-color="#EAF0F4" offset="100%"/></linearGradient><linearGradient x1="50%" y1="0%" x2="50%" y2="100%" id="i"><stop stop-color="#00FF70" offset="0%"/><stop stop-color="#00C7BA" offset="100%"/></linearGradient></defs><g fill="none" fill-rule="evenodd"><path fill="#FFF" d="M0 1h246v210H0z"/><g transform="translate(18 1)"><g transform="translate(6.517 26.793)"><path d="M187.282.07H10.216C4.573.07 0 4.642 0 10.283v136.16c0 5.64 4.573 10.213 10.216 10.213h177.066c5.64 0 10.216-4.573 10.216-10.212V10.283c0-5.641-4.576-10.213-10.216-10.213zm3.405 146.374a3.405 3.405 0 0 1-3.405 3.404H10.216a3.404 3.404 0 0 1-3.405-3.404V23.898a3.405 3.405 0 0 1 3.405-3.404h177.066a3.406 3.406 0 0 1 3.405 3.404v122.546z" fill="#CFE7F1"/><rect fill="#EDF3F7" width="197.69" height="156.414" rx="2"/><rect fill="#FFF" x="7.241" y="15.931" width="183.207" height="133.241" rx="2"/><rect fill="#ECF2F6" x="15.931" y="27.517" width="39.828" height="39.828" rx="4"/><rect fill="#ECF2F6" x="15.931" y="72.414" width="39.828" height="39.828" rx="4"/><rect fill="#ECF2F6" x="15.931" y="117.31" width="39.828" height="21.724" rx="4"/><rect fill="#ECF2F6" x="60.828" y="27.517" width="57.207" height="70.241" rx="4"/><rect fill="#ECF2F6" x="60.828" y="102.828" width="57.207" height="36.207" rx="4"/><rect fill="#ECF2F6" x="123.103" y="27.517" width="57.207" height="111.517" rx="4"/></g><g transform="translate(13.034 32.586)"><path d="M4.597 2.437A2.203 2.203 0 1 1 .19 2.434a2.203 2.203 0 0 1 4.406.003zM11.206 2.437A2.203 2.203 0 1 1 9.002.234c1.218 0 2.204.986 2.204 2.203zM17.816 2.437a2.203 2.203 0 1 1-4.406-.003 2.203 2.203 0 0 1 4.406.003z" fill="#9BBBCD"/><path d="M26.629 4.638h-2.204a2.203 2.203 0 1 1 0-4.404h2.204a2.202 2.202 0 1 1 0 4.404zM35.442 4.638H33.24a2.203 2.203 0 1 1 0-4.404h2.203a2.202 2.202 0 1 1 0 4.404zM172.6 4.638h-2.204a2.203 2.203 0 1 1 0-4.404h2.204a2.203 2.203 0 1 1 0 4.404zM181.413 4.638h-2.203a2.203 2.203 0 1 1 0-4.404h2.203a2.203 2.203 0 1 1 0 4.404z" fill="#CFE7F1"/><rect fill="#FFF" x="43.448" width="114.414" height="4.345" rx="2.172"/></g><circle stroke="#A7B8C1" stroke-width="2" opacity=".3" cx="105" cy="105" r="84"/><circle stroke="#A7B8C1" stroke-width="2" opacity=".6" cx="105.362" cy="105.362" r="64.81"/><circle stroke="#A7B8C1" opacity=".2" cx="105" cy="105" r="105"/><use fill="#000" filter="url(#b)" xlink:href="#c"/><use fill="url(#d)" xlink:href="#c"/><use fill="#000" filter="url(#e)" xlink:href="#f"/><use fill="url(#g)" xlink:href="#f"/><path d="M86.815 129.62h38.4" stroke="#FFF" stroke-width="4" stroke-linecap="round" stroke-linejoin="round" stroke-dasharray="12,6"/><path d="M65.091 105.724h81.125" stroke="#FFF" stroke-width="2" stroke-linecap="round" stroke-linejoin="round" stroke-dasharray="19,4"/><path d="M65.091 112.241h59.4" stroke="#FFF" stroke-width="2" stroke-linecap="round" stroke-linejoin="round" stroke-dasharray="30,4"/><g><path d="M14.288 13.464V7.425c0-2.456-2.024-4.455-4.512-4.455-2.488 0-4.512 1.999-4.512 4.455v6.04H2.256v-6.04C2.256 3.331 5.63 0 9.776 0c4.146 0 7.52 3.331 7.52 7.425v6.04h-3.008z" fill="url(#h)" transform="translate(95.586 70.966)"/><path d="M17.296 25.345H2.256c-1.244 0-2.256-1-2.256-2.228v-8.91c0-1.228 1.012-2.228 2.256-2.228h15.04c1.244 0 2.256 1 2.256 2.228v8.91c0 1.229-1.012 2.228-2.256 2.228" fill="url(#i)" transform="translate(95.586 70.966)"/><path d="M17.296 11.98h-7.52v13.365h7.52c1.244 0 2.256-1 2.256-2.228v-8.91c0-1.228-1.012-2.228-2.256-2.228" fill="url(#i)" transform="translate(95.586 70.966)"/><path d="M107.618 88.143c0 .967-.63 1.783-1.504 2.09v2.365c0 .41-.336.742-.752.742a.747.747 0 0 1-.752-.742v-2.364c-.873-.308-1.504-1.124-1.504-2.091 0-1.229 1.012-2.228 2.256-2.228 1.244 0 2.256 1 2.256 2.228z" fill="#FFF"/></g></g></g></svg>