<svg width="388" height="311" xmlns="http://www.w3.org/2000/svg" xmlns:xlink="http://www.w3.org/1999/xlink"><defs><path d="M.038 10.303C2.28 6.35 7.192.44 14.882.44c7.69 0 12.097 5.77 14.843 9.573L15.306 25.266.038 10.303z" id="a"/><linearGradient x1="50%" y1="0%" x2="50%" y2="100%" id="c"><stop stop-color="#00FF70" offset="0%"/><stop stop-color="#00C7BA" offset="100%"/></linearGradient><linearGradient x1="50%" y1="0%" x2="50%" y2="100%" id="d"><stop stop-color="#DDE9F0" offset="0%"/><stop stop-color="#A1BCCB" offset="100%"/></linearGradient><linearGradient x1="57.765%" y1="-69.867%" x2="59.928%" y2="100%" id="e"><stop stop-color="#A4CAFF" offset="0%"/><stop stop-color="#D1E7FF" offset="100%"/></linearGradient><linearGradient x1="-17.717%" y1="-40.756%" x2="100%" y2="100%" id="f"><stop stop-color="#A5C1CC" offset="0%"/><stop stop-color="#BED2E0" offset="100%"/></linearGradient><linearGradient x1="4.087%" y1="53.044%" x2="100%" y2="47.708%" id="g"><stop stop-color="#00B0FD" offset="0%"/><stop stop-color="#61DEF7" offset="48.064%"/><stop stop-color="#42E4D6" offset="100%"/></linearGradient><linearGradient x1="50%" y1="0%" x2="52.772%" y2="97.375%" id="h"><stop stop-color="#5BADFF" offset="0%"/><stop stop-color="#97F2FF" offset="100%"/></linearGradient><linearGradient x1="50%" y1="0%" x2="53.518%" y2="100%" id="i"><stop stop-color="#D5E9F1" offset="0%"/><stop stop-color="#DEECF5" offset="100%"/></linearGradient><linearGradient x1="0%" y1="-12.498%" x2="100%" y2="100%" id="j"><stop stop-color="#7DB3FF" offset="0%"/><stop stop-color="#D1E7FF" offset="100%"/></linearGradient><linearGradient x1="3.998%" y1="50%" x2="100%" y2="50%" id="k"><stop stop-color="#34BBF7" offset="0%"/><stop stop-color="#5DD3FF" offset="11.631%"/><stop stop-color="#8DEEFF" offset="45.658%"/><stop stop-color="#85FBF8" offset="85.056%"/><stop stop-color="#6DEDE2" offset="100%"/></linearGradient><linearGradient x1="52.772%" y1="-70.226%" x2="52.772%" y2="97.375%" id="l"><stop stop-color="#5BADFF" offset="0%"/><stop stop-color="#97F2FF" offset="100%"/></linearGradient><linearGradient x1="50%" y1="0%" x2="33.968%" y2="92.527%" id="m"><stop stop-color="#A1C4F5" offset="0%"/><stop stop-color="#EAEFF6" offset="100%"/></linearGradient><linearGradient x1="0%" y1="43.999%" x2="100%" y2="43.999%" id="n"><stop stop-color="#89B3ED" offset="0%"/><stop stop-color="#AECCF8" offset="12.008%"/><stop stop-color="#DEECFF" offset="58.985%"/><stop stop-color="#BCD3F2" offset="100%"/></linearGradient><linearGradient x1="88.54%" y1="41.288%" x2="0%" y2="41.288%" id="o"><stop stop-color="#03E2AF" offset="0%"/><stop stop-color="#09EEB1" offset="8.368%"/><stop stop-color="#30F79D" offset="45.485%"/><stop stop-color="#0EE481" offset="82.647%"/><stop stop-color="#00B35F" offset="100%"/></linearGradient><linearGradient x1="0%" y1="-28.77%" x2="100%" y2="115.939%" id="p"><stop stop-color="#4E68E9" offset="0%"/><stop stop-color="#879FFA" offset="51.005%"/><stop stop-color="#1F4EE5" offset="100%"/></linearGradient><linearGradient x1="0%" y1="-12.498%" x2="100%" y2="100%" id="q"><stop stop-color="#D2D8FF" offset="0%"/><stop stop-color="#D1E7FF" offset="100%"/></linearGradient><linearGradient x1="50%" y1="0%" x2="34.005%" y2="92.315%" id="r"><stop stop-color="#C8BFF3" offset="0%"/><stop stop-color="#92B1ED" offset="100%"/></linearGradient><linearGradient x1="44.27%" y1="85.558%" x2="44.27%" y2="-2.982%" id="s"><stop stop-color="#03E2AF" offset="0%"/><stop stop-color="#09EEB1" offset="8.368%"/><stop stop-color="#30F79D" offset="45.485%"/><stop stop-color="#0EE481" offset="82.647%"/><stop stop-color="#00B35F" offset="100%"/></linearGradient><linearGradient x1="50%" y1="0%" x2="34.005%" y2="92.315%" id="t"><stop stop-color="#755CEA" offset="0%"/><stop stop-color="#4D85ED" offset="100%"/></linearGradient><linearGradient x1="50%" y1="100%" x2="145.611%" y2="31.809%" id="u"><stop stop-color="#AFB5FA" offset="0%"/><stop stop-color="#1F4EE5" offset="100%"/></linearGradient><path id="v" d="M.059.232h7.918L7.839 5.19l-7.417.397z"/><linearGradient x1="100%" y1="30.008%" x2="-3.205%" y2="30.008%" id="x"><stop stop-color="#2A7BE2" offset="0%"/><stop stop-color="#3E80EC" offset="42.233%"/><stop stop-color="#1345C1" offset="100%"/></linearGradient><linearGradient x1="50%" y1="0%" x2="33.968%" y2="92.527%" id="y"><stop stop-color="#F3F8FA" offset="0%"/><stop stop-color="#EAF0F4" offset="100%"/></linearGradient><radialGradient cx="63.503%" cy="36.11%" fx="63.503%" fy="36.11%" r="44.738%" gradientTransform="matrix(0 -.99916 .99177 0 .277 .996)" id="z"><stop stop-color="#8E9DF8" stop-opacity=".83" offset="0%"/><stop stop-color="#0029F3" offset="100%"/></radialGradient><ellipse id="A" cx="18.427" cy="18.443" rx="18.427" ry="18.443"/><filter x="-25.8%" y="-25.8%" width="151.6%" height="151.5%" filterUnits="objectBoundingBox" id="B"><feGaussianBlur stdDeviation="6.5" in="SourceAlpha" result="shadowBlurInner1"/><feOffset dx="3" dy="-4" in="shadowBlurInner1" result="shadowOffsetInner1"/><feComposite in="shadowOffsetInner1" in2="SourceAlpha" operator="arithmetic" k2="-1" k3="1" result="shadowInnerInner1"/><feColorMatrix values="0 0 0 0 0 0 0 0 0 0.191903283 0 0 0 0 0.919536565 0 0 0 1 0" in="shadowInnerInner1"/></filter><rect id="D" x="0" y="0" width="18.644" height="24.735" rx="3"/><filter x="-292.3%" y="-192%" width="684.6%" height="540.7%" filterUnits="objectBoundingBox" id="C"><feOffset dy="7" in="SourceAlpha" result="shadowOffsetOuter1"/><feGaussianBlur stdDeviation="17" in="shadowOffsetOuter1" result="shadowBlurOuter1"/><feColorMatrix values="0 0 0 0 0.295112344 0 0 0 0 0.460989234 0 0 0 0 0.61591199 0 0 0 0.3 0" in="shadowBlurOuter1"/></filter><radialGradient cx="63.503%" cy="36.11%" fx="63.503%" fy="36.11%" r="60.046%" gradientTransform="matrix(0 -.99916 .99177 0 .277 .996)" id="E"><stop stop-color="#8E9DF7" stop-opacity="0" offset="0%"/><stop stop-color="#002AF2" stop-opacity=".5" offset="100%"/></radialGradient><ellipse id="F" cx="18.427" cy="18.443" rx="18.427" ry="18.443"/><filter x="-25.8%" y="-25.8%" width="151.6%" height="151.5%" filterUnits="objectBoundingBox" id="G"><feGaussianBlur stdDeviation="6.5" in="SourceAlpha" result="shadowBlurInner1"/><feOffset dx="3" dy="-4" in="shadowBlurInner1" result="shadowOffsetInner1"/><feComposite in="shadowOffsetInner1" in2="SourceAlpha" operator="arithmetic" k2="-1" k3="1" result="shadowInnerInner1"/><feColorMatrix values="0 0 0 0 0 0 0 0 0 0.191903283 0 0 0 0 0.919536565 0 0 0 1 0" in="shadowInnerInner1"/></filter><radialGradient cx="63.503%" cy="36.11%" fx="63.503%" fy="36.11%" r="44.738%" gradientTransform="matrix(0 -.99916 .99177 0 .277 .996)" id="H"><stop stop-color="#8E9DF8" stop-opacity=".83" offset="0%"/><stop stop-color="#0029F3" offset="100%"/></radialGradient><ellipse id="I" cx="16.988" cy="17.002" rx="16.988" ry="17.002"/><filter x="-28%" y="-27.9%" width="155.9%" height="155.9%" filterUnits="objectBoundingBox" id="J"><feGaussianBlur stdDeviation="6.5" in="SourceAlpha" result="shadowBlurInner1"/><feOffset dx="3" dy="-4" in="shadowBlurInner1" result="shadowOffsetInner1"/><feComposite in="shadowOffsetInner1" in2="SourceAlpha" operator="arithmetic" k2="-1" k3="1" result="shadowInnerInner1"/><feColorMatrix values="0 0 0 0 0 0 0 0 0 0.191903283 0 0 0 0 0.919536565 0 0 0 1 0" in="shadowInnerInner1"/></filter><rect id="L" x="0" y="0" width="17.187" height="22.803" rx="3"/><filter x="-317.1%" y="-208.3%" width="734.2%" height="578%" filterUnits="objectBoundingBox" id="K"><feOffset dy="7" in="SourceAlpha" result="shadowOffsetOuter1"/><feGaussianBlur stdDeviation="17" in="shadowOffsetOuter1" result="shadowBlurOuter1"/><feColorMatrix values="0 0 0 0 0.295112344 0 0 0 0 0.460989234 0 0 0 0 0.61591199 0 0 0 0.3 0" in="shadowBlurOuter1"/></filter><radialGradient cx="63.503%" cy="36.11%" fx="63.503%" fy="36.11%" r="60.046%" gradientTransform="matrix(0 -.99916 .99177 0 .277 .996)" id="M"><stop stop-color="#8E9DF7" stop-opacity="0" offset="0%"/><stop stop-color="#002AF2" stop-opacity=".5" offset="100%"/></radialGradient><ellipse id="N" cx="16.988" cy="17.002" rx="16.988" ry="17.002"/><filter x="-28%" y="-27.9%" width="155.9%" height="155.9%" filterUnits="objectBoundingBox" id="O"><feGaussianBlur stdDeviation="6.5" in="SourceAlpha" result="shadowBlurInner1"/><feOffset dx="3" dy="-4" in="shadowBlurInner1" result="shadowOffsetInner1"/><feComposite in="shadowOffsetInner1" in2="SourceAlpha" operator="arithmetic" k2="-1" k3="1" result="shadowInnerInner1"/><feColorMatrix values="0 0 0 0 0 0 0 0 0 0.191903283 0 0 0 0 0.919536565 0 0 0 1 0" in="shadowInnerInner1"/></filter><linearGradient x1="50%" y1="100%" x2="50%" y2="0%" id="P"><stop stop-color="#596EEB" offset="0%"/><stop stop-color="#1F4EE5" offset="100%"/></linearGradient><radialGradient cx="63.503%" cy="36.11%" fx="63.503%" fy="36.11%" r="44.738%" gradientTransform="matrix(0 -.99916 .99177 0 .277 .996)" id="Q"><stop stop-color="#8E9DF8" stop-opacity=".83" offset="0%"/><stop stop-color="#0029F3" offset="100%"/></radialGradient><ellipse id="R" cx="17.851" cy="17.866" rx="17.851" ry="17.866"/><filter x="-26.6%" y="-26.6%" width="153.2%" height="153.2%" filterUnits="objectBoundingBox" id="S"><feGaussianBlur stdDeviation="6.5" in="SourceAlpha" result="shadowBlurInner1"/><feOffset dx="3" dy="-4" in="shadowBlurInner1" result="shadowOffsetInner1"/><feComposite in="shadowOffsetInner1" in2="SourceAlpha" operator="arithmetic" k2="-1" k3="1" result="shadowInnerInner1"/><feColorMatrix values="0 0 0 0 0 0 0 0 0 0.191903283 0 0 0 0 0.919536565 0 0 0 1 0" in="shadowInnerInner1"/></filter><rect id="U" x="0" y="0" width="18.061" height="23.962" rx="3"/><filter x="-301.7%" y="-198.2%" width="703.5%" height="554.9%" filterUnits="objectBoundingBox" id="T"><feOffset dy="7" in="SourceAlpha" result="shadowOffsetOuter1"/><feGaussianBlur stdDeviation="17" in="shadowOffsetOuter1" result="shadowBlurOuter1"/><feColorMatrix values="0 0 0 0 0.295112344 0 0 0 0 0.460989234 0 0 0 0 0.61591199 0 0 0 0.3 0" in="shadowBlurOuter1"/></filter><radialGradient cx="63.503%" cy="36.11%" fx="63.503%" fy="36.11%" r="60.046%" gradientTransform="matrix(0 -.99916 .99177 0 .277 .996)" id="V"><stop stop-color="#8E9DF7" stop-opacity="0" offset="0%"/><stop stop-color="#002AF2" stop-opacity=".5" offset="100%"/></radialGradient><ellipse id="W" cx="17.851" cy="17.866" rx="17.851" ry="17.866"/><filter x="-23.8%" y="-23.8%" width="147.6%" height="147.6%" filterUnits="objectBoundingBox" id="X"><feGaussianBlur stdDeviation="6.5" in="SourceAlpha" result="shadowBlurInner1"/><feOffset dx="3" dy="-4" in="shadowBlurInner1" result="shadowOffsetInner1"/><feComposite in="shadowOffsetInner1" in2="SourceAlpha" operator="arithmetic" k2="-1" k3="1" result="shadowInnerInner1"/><feColorMatrix values="0 0 0 0 0 0 0 0 0 0.191903283 0 0 0 0 0.919536565 0 0 0 1 0" in="shadowInnerInner1"/></filter><radialGradient cx="63.503%" cy="36.11%" fx="63.503%" fy="36.11%" r="44.738%" gradientTransform="matrix(0 -.99916 .99177 0 .277 .996)" id="Y"><stop stop-color="#8E9DF8" stop-opacity=".83" offset="0%"/><stop stop-color="#0029F3" offset="100%"/></radialGradient><ellipse id="Z" cx="20.94" cy="20.957" rx="20.94" ry="20.957"/><filter x="-22.7%" y="-22.7%" width="145.4%" height="145.3%" filterUnits="objectBoundingBox" id="aa"><feGaussianBlur stdDeviation="6.5" in="SourceAlpha" result="shadowBlurInner1"/><feOffset dx="3" dy="-4" in="shadowBlurInner1" result="shadowOffsetInner1"/><feComposite in="shadowOffsetInner1" in2="SourceAlpha" operator="arithmetic" k2="-1" k3="1" result="shadowInnerInner1"/><feColorMatrix values="0 0 0 0 0 0 0 0 0 0.191903283 0 0 0 0 0.919536565 0 0 0 1 0" in="shadowInnerInner1"/></filter><rect id="ac" x="0" y="0" width="21.186" height="28.108" rx="3"/><filter x="-257.2%" y="-169%" width="614.5%" height="487.8%" filterUnits="objectBoundingBox" id="ab"><feOffset dy="7" in="SourceAlpha" result="shadowOffsetOuter1"/><feGaussianBlur stdDeviation="17" in="shadowOffsetOuter1" result="shadowBlurOuter1"/><feColorMatrix values="0 0 0 0 0.295112344 0 0 0 0 0.460989234 0 0 0 0 0.61591199 0 0 0 0.3 0" in="shadowBlurOuter1"/></filter><radialGradient cx="63.503%" cy="36.11%" fx="63.503%" fy="36.11%" r="60.046%" gradientTransform="matrix(0 -.99916 .99177 0 .277 .996)" id="ad"><stop stop-color="#8E9DF7" stop-opacity="0" offset="0%"/><stop stop-color="#002AF2" stop-opacity=".5" offset="100%"/></radialGradient><ellipse id="ae" cx="20.94" cy="20.957" rx="20.94" ry="20.957"/><filter x="-22.7%" y="-22.7%" width="145.4%" height="145.3%" filterUnits="objectBoundingBox" id="af"><feGaussianBlur stdDeviation="6.5" in="SourceAlpha" result="shadowBlurInner1"/><feOffset dx="3" dy="-4" in="shadowBlurInner1" result="shadowOffsetInner1"/><feComposite in="shadowOffsetInner1" in2="SourceAlpha" operator="arithmetic" k2="-1" k3="1" result="shadowInnerInner1"/><feColorMatrix values="0 0 0 0 0 0 0 0 0 0.191903283 0 0 0 0 0.919536565 0 0 0 1 0" in="shadowInnerInner1"/></filter><rect id="ah" x="0" y="0" width="25.913" height="25.935" rx="12.957"/><filter x="-210.3%" y="-183.1%" width="520.6%" height="520.3%" filterUnits="objectBoundingBox" id="ag"><feOffset dy="7" in="SourceAlpha" result="shadowOffsetOuter1"/><feGaussianBlur stdDeviation="17" in="shadowOffsetOuter1" result="shadowBlurOuter1"/><feColorMatrix values="0 0 0 0 0.295112344 0 0 0 0 0.460989234 0 0 0 0 0.61591199 0 0 0 0.3 0" in="shadowBlurOuter1"/></filter><linearGradient x1="50%" y1="0%" x2="50%" y2="97.768%" id="ai"><stop stop-color="#00FF70" offset="0%"/><stop stop-color="#28FFB9" offset="100%"/></linearGradient><rect id="ak" x="0" y="0" width="25.913" height="25.935" rx="12.957"/><filter x="-210.3%" y="-183.1%" width="520.6%" height="520.3%" filterUnits="objectBoundingBox" id="aj"><feOffset dy="7" in="SourceAlpha" result="shadowOffsetOuter1"/><feGaussianBlur stdDeviation="17" in="shadowOffsetOuter1" result="shadowBlurOuter1"/><feColorMatrix values="0 0 0 0 0.295112344 0 0 0 0 0.460989234 0 0 0 0 0.61591199 0 0 0 0.3 0" in="shadowBlurOuter1"/></filter></defs><g fill="none" fill-rule="evenodd"><path fill="#FFF" d="M0 0h360v302H0z"/><g transform="translate(5 21)"><path fill="#A2BFD0" d="M174.482 116.968l.607.03.612-.006.574-.04.496-.073.386-.099.248-.119.094-.13.018-1.106 4.723 1.137-14.679 2.862-6.747-1.704 12.008-2.29-.015 1.009.062.134.217.128.358.113.477.091z"/><g transform="translate(57.836 1.46)"><mask id="b" fill="#fff"><use xlink:href="#a"/></mask><use fill="#FFF" xlink:href="#a"/><g mask="url(#b)"><g transform="translate(-2.43 1.46)"><ellipse fill-opacity=".07" fill="#2AF398" cx="17.983" cy="24.094" rx="17.983" ry="24.094"/><ellipse fill-opacity=".05" fill="#24F4A3" cx="17.983" cy="23.12" rx="14.095" ry="18.739"/><ellipse fill-opacity=".12" fill="#24F4A3" cx="17.74" cy="22.877" rx="9.477" ry="12.655"/><ellipse fill-opacity=".17" fill="url(#c)" cx="17.74" cy="22.877" rx="5.103" ry="6.814"/></g></g></g><path d="M73.382 90.476l-.104-.026-.742-28.457.108.07.246.061.736 28.412-.244-.06zm4.255 43.373l-.23.034-.256.05-1.79-71.734.5-.04 1.776 71.69zm.192-.046l-.192.046-1.776-71.69.42-.053 1.762 71.656-.214.041zM76.8 61.897l1.752 71.768-.035.007-1.751-71.702.034-.073zm0 0l-.034.073-3.128-36.388.01-.004 3.152 36.32zm-.034.073l1.75 71.702-.172.033-1.755-71.664.177-.071zm0 0l-.177.071-2.998-36.455.047-.004 3.128 36.388zm-.177.071l1.755 71.664-.3.057-1.764-71.656.309-.065zm0 0l-.309.065-2.768-36.516.08-.004 2.997 36.455zm-1.229.158l1.79 71.733-.531.102L74.81 62.22l.55-.022zm0 0l-.549.022-1.675-36.624.14-.001 2.084 36.603zm-.549.022l1.808 71.813-.54.103-1.826-71.913.558-.003zm0 0l-.558.003-1.26-36.627h.143l1.675 36.624zm-.558.003l1.825 71.913-.512.097-1.113-43.496-.73-28.53.53.016zm0 0l-.53-.016-.864-36.612.135.001 1.259 36.627zm.2 28.514l1.113 43.496-.449.086-1.126-43.695.462.113zm-.73-28.53l.73 28.53-.462-.113-.733-28.451.465.034zm0 0l-.465-.034-.518-36.58.119.002.864 36.612zm.268 28.417l1.126 43.695-.355.068-1.136-43.852.365.089zm-.733-28.451l.733 28.45-.365-.088-.736-28.412.368.05zm0 0l-.368-.05-.244-36.533.094.003.518 36.58zm.368 28.362l1.136 43.852-.236.045-1.144-43.957.244.06zm-.736-28.412l-.246-.062-.061-36.474.063.003.244 36.533zm.492 28.352l1.144 43.957-.102.02-1.146-44.003.104.026zm2.898-28.37l-.419.054-2.456-36.566.107-.004 2.768 36.516zm-.419.054l-.5.04-2.084-36.604.128-.002L75.86 62.16zm-3.217-.098l-.108-.07.02-36.409.027.005.06 36.474z" fill="url(#d)"/><path d="M76.042 192.263l-.105-.173-1.339-51.424.102-.02 1.342 51.617zm.236.153l-.236-.153-1.342-51.617.236-.047 1.342 51.817zm.352.123l-.352-.123-1.342-51.817.354-.07 1.34 52.01zm.443.084l-.443-.084-1.34-52.01.447-.09 1.336 52.184zm.504.04l-.504-.04-1.336-52.184.512-.101 1.328 52.325zm.53-.008l-.53.008-1.328-52.325.539-.108 1.32 52.425zm.52-.054l-.52.054-1.32-52.425.53-.105 1.31 52.476zm.474-.097l-.474.097-1.31-52.476.485-.096 1.3 52.475zm.397-.134l-.397.134-1.3-52.475.407-.081 1.29 52.422zm.29-.16l-.29.16-1.29-52.422.3-.06 1.28 52.322zm.166-.177l-.166.177-1.28-52.322.172-.035 1.274 52.18zm.03-.18l-.03.18-1.274-52.18.035-.007 1.269 52.007z" fill="#A1BCCB"/><path d="M175.089 116.997l-.607-.03 1.025-69.055.617.015h.007l-1.042 69.07zm.612-.005l-.612.005 1.042-69.07.628-.003-1.058 69.068zm.574-.04l-.574.04 1.058-69.068h.065l.524-.018-1.073 69.045zm-1.793.016l-.561-.063 1.01-69.022.499.028.077.001-1.025 69.056zm2.29-.089l-.497.072 1.073-69.045.131-.005.379-.027-1.087 69.005zm-2.851.026l-.477-.09.996-68.972.348.032.142.008-1.01 69.022zm3.236-.125l-.386.1 1.087-69.006.189-.013.206-.026-1.096 68.945zm-3.713.034l-.358-.113.985-68.903.172.026.197.019-.996 68.971zm3.961-.153l-.248.119 1.096-68.945.233-.03.02-.004-1.101 68.86zm-4.32.04l-.216-.128.611-43.027.026-.137.012-.188-.007-.196-.021-.155.356-25.107.225.035-.985 68.903zm4.414-.17l-.094.13 1.1-68.86.096-.023-.383 23.93v.013l-.024 1.449v.037l-.677 42.218-.018 1.105zm-4.63.042l-.062-.134.605-42.603h.003l.024-.04.022-.089.017-.13.002-.031-.611 43.027zm.62-43.703v-.035l-.013-.176-.018-.146-.022-.108-.004-.009v-.055l.001-.014.349-24.581.05.015.014.002-.356 25.107z" fill="#B8CEDB"/><path d="M173.506 73.41l-.026.136-.002.03-6.046.794-.014-.162 6.088-.799zm-.016-.54l.021.155-6.127.8-.016-.193 6.12-.797.002.035zm.028.351l-.012.188-6.088.799-.016-.186 6.116-.8zm-.007-.196l.007.196-6.116.8-.018-.196 6.127-.8zm-.072.77l-.024.04-.003.001-5.995.79.004-.038 6.018-.792zm.022-.088l-.022.089-6.018.792.01-.088 6.03-.793zm.017-.13l-.017.13-6.03.793.006-.064-.005-.066 6.046-.794zm-.046-1.18l.004.008-6.123.794-.019-.062 6.139-.796v.055zm.004.008l.022.108-6.118.794-.003-.032-.024-.076 6.123-.794zm.022.108l.018.146-6.124.796-.012-.148 6.118-.794zm.018.146l.013.176-6.121.797-.016-.177 6.124-.796zm-6.186.464l6.143-.796v.014l-6.139.796-.004-.014z" fill="#B8CEDB"/><path fill="#D8EAF2" d="M182.24 116.562l-.052 2.883-24.722 4.922-.267.053-.403.08-.51.102-.585.117-.617.122-.608.122-.556.11-.467.093-.346.07-.2.039-.043.008-44.787 8.917-6.253-1.96 65.737-12.816z"/><path fill="#B8CEDB" d="M160.814 117.72l6.747 1.704L55.61 141.249l-.11-3.442 15.035-2.868.102-.02.237-.045.355-.067.449-.086.512-.097 1.072-.205.257-.049.23-.034.192-.046.214-.041.474-.09.035-.007z"/><path fill="url(#e)" d="M76.719 137.134l25.105-4.895 6.253 1.961.406.127-25.245 5.033z"/><ellipse fill="url(#f)" cx="73.146" cy="26.04" rx="1" ry="1"/><path d="M4.442 148.51l-1.514-1.535-2.513-47.45 1.52 1.116 2.507 47.87zm3.136 1.315l-3.136-1.314-2.508-47.87 3.176.956 2.468 48.228zm4.56.99l-4.56-.99-2.468-48.228 4.634.721 2.395 48.498zm5.67.588l-5.67-.587-2.394-48.498 5.77.427 2.293 48.658zm6.356.134l-6.357-.134-2.294-48.658 6.478.098 2.173 48.694zm6.562-.33l-6.562.33-2.173-48.694 6.692-.24 2.043 48.604zm6.269-.766l-6.27.766-2.042-48.604 6.4-.558 1.912 48.396zm5.512-1.14l-5.512 1.14-1.912-48.396 5.63-.828 1.794 48.085zm4.365-1.42l-4.365 1.42-1.794-48.084 4.463-1.034 1.696 47.698zm2.933-1.595l-2.933 1.595-1.696-47.698 3.004-1.16 1.625 47.263zM48.18 99.023l1.379-1.2 1.583 46.81-1.337 1.653-1.625-47.263z" fill="url(#g)"/><path fill="url(#h)" d="M1.934 100.641L.415 99.525l.199-1.194 1.853-1.187.046-.016-.239 1.186-.17 1.112 1.43 1.039 2.966.888 4.32.669 5.368.396 6.024.09 6.223-.222 5.955-.517 5.244-.77 4.166-.96 2.812-1.08 1.3-1.12-.258-1.082-.332-1.15.046.012 1.703.937.194.107.294 1.16-1.379 1.2-3.004 1.16-4.463 1.034-5.63.828-6.4.558-6.692.24-6.478-.098-5.77-.427-4.633-.72z"/><path fill="url(#i)" d="M49.559 97.823l-.294-1.16-.194-.107-.016-.486 5.086-.705 1.469 45.884-4.552.887z"/><path fill="#D8EAF2" d="M51.058 142.136l25.661-5.002.078 3.294-1.97.392-.036.007-.172.034-.3.06-.405.081-.485.096-2.028.404-.353.07-.236.047-.102.02-20.439 4.07.87-1.076z"/><path fill="url(#j)" d="M76.797 140.428l-.078-3.294 6.52 2.226 7.39 30.598 1.31 61.469-12.93-7.127z"/><path d="M3.534 100.465l-1.43-1.04 5.603-27.912 1.04.558-5.213 28.394zm2.966.888l-2.966-.888L8.747 72.07l2.109.474L6.5 101.353zm4.32.669l-4.32-.67 4.356-28.807 3.042.357-3.079 29.12zm5.368.396l-5.369-.396 3.079-29.12 3.764.21-1.474 29.306zm6.024.09l-6.024-.09 1.474-29.306 4.216.048.334 29.348zm6.223-.222l-6.223.222-.334-29.348 4.357-.118 2.2 29.244zm5.955-.517l-5.955.517-2.2-29.244 4.18-.275 3.975 29.002zm5.244-.77l-5.244.77-3.975-29.002 3.701-.41 5.518 28.642zm4.166-.96l-4.166.96-5.518-28.642 2.963-.515 6.72 28.196zm2.812-1.08l-2.812 1.08-6.72-28.197 2.028-.58 7.504 27.697zm1.3-1.12l-1.3 1.12-7.504-27.698.97-.606 7.834 27.185z" fill="url(#k)"/><path fill="#938D00" d="M47.654 96.757l.258 1.083-7.833-27.185-.132-.589 7.375 25.54z"/><path fill="#A7A000" d="M2.105 99.426l.17-1.112L7.79 70.912l-.083.6z"/><path fill="url(#l)" d="M13.898 72.902l-3.042-.357-2.109-.474-1.04-.558.083-.6 1.177-.602 2.172-.562 3.005-.485 3.63-.38 4.016-.25 4.142-.107 4.01.044 3.62.19 3 .327 2.18.445 1.205.533.132.59-.971.605-2.029.581-2.963.515-3.701.41-4.18.275-4.357.118-4.216-.048z"/><path fill="url(#i)" d="M54.141 95.365l-5.086.705-.06-1.763 21.926-2.996.044 1.72-.353.048-.457.064-.36.05-.241.033-.105.014z"/><path fill="#A0BACA" d="M49.055 96.07l.016.486-1.703-.937z"/><path fill="url(#m)" d="M83.238 139.36l25.245-5.033 7.24 29.603-25.093 6.028z"/><path fill="url(#m)" d="M90.63 169.958l25.094-6.028.575 59.423-24.36 8.074z"/><path fill="#A65B00" d="M68.803.26l.107-.003.128-.002h.14l.143-.001h.135l.119.003.093.002.064.004.027.004-.01.005-.046.004-.079.004-.107.003-.129.002-.14.002h-.142L68.97.286l-.118-.002-.094-.003-.063-.004-.028-.004.01-.004.046-.005z"/><path fill="url(#e)" d="M.358 26.976l.193-.82.955-.77 1.644-.668 2.215-.523 2.639-.346 1.826-.094-.02 2.965.042.167.197.16.341.142.46.114.55.078.6.036.61-.006.578-.05.505-.091.4-.124.264-.148.113-.164.025-3.012 2.17.203 2.51.452 2.034.61 1.415.733.695.806-.083.825-.866.789-1.6.696-2.229.553-2.705.37-2.99.159-3.061-.065-2.912-.282-2.555-.48-2.02-.642-1.348-.756z" transform="translate(127.337 127.038)"/><path d="M137.727 154.227l-.34-.142.167-25.93.346-.068-.173 26.14zm-.34-.142l-.198-.16.165-25.73.2-.04-.168 25.93zm-.198-.16l-.041-.167.163-25.554.043-.009-.165 25.73zm4.618-.052l-.113.163.22-26.748.112-.023-.194 23.595-.025 3.013zm-.113.163l-.265.149.217-26.844.267-.053-.22 26.748zm-.265.149l-.399.123.214-26.887.402-.08-.217 26.844zm-.399.123l-.506.091.209-26.876.51-.102-.213 26.887zm-.506.091l-.577.05.201-26.81.585-.116-.209 26.876zm-.577.05l-.61.007.194-26.694.617-.123-.2 26.81zm-.61.007l-.6-.037.187-26.536.607-.121-.194 26.694zm-.6-.037l-.55-.078.18-26.347.557-.111-.187 26.536zm-.55-.078l-.46-.114.173-26.14.467-.093-.18 26.347z" fill="#B8CEDB"/><path d="M8.708 29.849l.03-.303-.003.305 1.05.102-.125 19.461-1.203-.13-.027.288.004-.29-1.663-.18.102-19.431 1.835.178zm-8.35-2.873l.592.817-.055 19.236-.588-.902.05-19.151zm.592.817l1.348.756-.065 19.315-1.338-.835.055-19.236zm1.348.756l2.02.641-.082 19.382-2.003-.708.065-19.315zm2.02.641l2.555.48-.102 19.432-2.535-.53.082-19.382zm5.467.763l3.06.065-.148 19.468-3.037-.072.125-19.46zm3.06.065l2.99-.16-.17 19.452-2.968.176.148-19.468zm2.99-.16l2.706-.369-.192 19.413-2.685.408.172-19.451zm2.706-.369l2.229-.553-.208 19.355-2.213.611.192-19.413zm2.229-.553l1.6-.696-.22 19.282-1.588.769.208-19.355zm1.6-.696l.866-.789-.225 19.2-.86.871.219-19.282z" fill="url(#n)" transform="translate(127.337 127.038)"/><path fill="#B8CEDB" d="M70.921 91.311l-21.926 2.996-2.217-.585-.447-1.546 16.235-2.17-.09 1.326.116.107.275.095.414.077.526.052.601.025.635-.005.626-.034.573-.06.481-.083.356-.1.207-.11.045-.112-.096-.773 2.154.526.349.085.827.202z"/><path fill="#A0BACA" d="M46.778 93.722l2.217.585.06 1.763-1.687-.451-.046-.013z"/><path d="M63.281 91.61l-.414-.076.359-6.854.303.052-.248 6.879zm.526.053l-.526-.052.248-6.879.384.036-.106 6.895zm.601.025l-.601-.025.106-6.895.44.017.055 6.903zm.635-.005l-.635.005-.055-6.903.465-.003.225 6.9zm.626-.034l-.626.034-.225-6.901.457-.023.394 6.89zm.573-.06l-.573.06-.394-6.89.42-.042.547 6.872zm.481-.083l-.48.083-.548-6.872.352-.057.676 6.846zm.356-.1l-.356.1-.676-6.846.26-.068.772 6.814zm.207-.11l-.207.11-.771-6.814.152-.075.826 6.78zm.045-.112l-.045.112-.826-6.78.033-.077.742 5.972.096.773zm-4.739.255l-.116-.107.463-6.791.085.073-.432 6.825zm.275.095l-.275-.095.432-6.825.202.066-.36 6.854z" fill="url(#o)"/><path fill="#95FBD8" d="M63.529 84.732l-.303-.052-.202-.066-.085-.073.036-.077.154-.075.262-.069.352-.056.418-.04.456-.024.461-.003.438.016.383.036.304.052.202.065.088.073-.033.078-.152.075-.261.068-.352.057-.42.042-.457.023-.465.003-.44-.017z"/><path d="M161.852 70.351l.882-.265 1.376.225-.883.266-1.375-.226zm.882-.265l.876.046 1.376.225-.876-.046-1.376-.225zm-.968 9.064l-.815-.341 1.37.247.816.342-1.37-.248zm-.815-.341l-.698-.628 1.37.246.698.629-1.37-.247zm-.698-.628l-.534-.87 1.37.244.534.872-1.37-.246zm-.534-.87l-.332-1.055 1.37.242.332 1.057-1.37-.244zm-.332-1.055l-.106-1.167 1.371.239.106 1.17-1.37-.242zm-.106-1.167l.127-1.198 1.372.235-.128 1.202-1.371-.239zm.127-1.198l.352-1.148 1.373.233-.353 1.15-1.372-.235zm.352-1.148l.552-1.016 1.373.23-.552 1.02-1.373-.234zm.552-1.016l.714-.816 1.374.228-.715.818-1.373-.23zm.714-.816l.826-.56 1.375.226-.827.562-1.374-.228z" fill="url(#p)"/><path d="M163.227 70.577l.883-.266.876.046.811.354.692.636.524.875.277.901.004.014.043.138.1 1.16-.128 1.19-.348 1.14-.546 1.01-.706.817-.819.565-.877.275-.876-.034-.816-.342-.698-.629-.534-.872-.331-1.057-.106-1.17.128-1.202.353-1.15.552-1.02.715-.817.827-.562zm.876.358l-.762.23-.714.485-.617.707-.476.88-.305.992-.11 1.038.09 1.01.287.912.46.754.603.543.704.296.757.03.757-.237.708-.488.61-.705.472-.873.301-.984.111-1.029-.087-1.003-.28-.91-.453-.755-.598-.55-.701-.304-.437-.023-.32-.016z" fill="url(#q)"/><path fill="url(#r)" d="M188.037 66.797l.75.345.636.615.479.843.29 1.015.084 1.117-.13 1.143-.334 1.093-.515.97-.662.781-.765.539-.817.26-.812-.038-.753-.334-.642-.608-.488-.841-.297-1.018-.02-.242 3.65-.481.125-.053.109-.098.084-.137.055-.167.022-.186-.014-.19-.048-.184-.079-.164-.104-.131-.123-.093-.132-.046-.134.004-3.412.442.062-.554.337-1.104.522-.977.67-.782.772-.536.821-.251z"/><path d="M187.224 66.749l-.82.251-1.377-.208.82-.25 1.377.207zm.813.048l-.813-.048-1.377-.208.813.05 1.377.206zm-2.55 8.35l.754.333-1.372-.228-.753-.333 1.372.227zm-.641-.609l.642.608-1.372-.227-.643-.607 1.373.226zm-.488-.841l.488.841-1.373-.226-.487-.84 1.372.225zm-.297-1.018l.297 1.018-1.372-.225-.253-.863.495-.065.833.135zm-.02-.242l.02.242-.833-.135.814-.107zm.06-2.038l-.06.554-1.42.184.107-.955 1.374.217zm.338-1.104l-.337 1.104-1.374-.217.337-1.1 1.374.213zm.522-.977l-.522.977-1.374-.214.52-.975 1.376.212zm.67-.782l-.67.782-1.375-.212.67-.78 1.375.21zm.772-.536l-.772.536-1.376-.21.772-.534 1.376.208z" fill="url(#p)"/><path d="M187.452 70.511l.134-.004-9.369 1.214v-.013l4.404-.57 1.42-.185 3.411-.442zm.364 1.392l-.125.053-3.65.48-.813.108-.495.065-4.54.598.001-.037 9.622-1.267zm.109-.098l-.109.098-9.622 1.267.001-.085 9.73-1.28zm.084-.137l-.084.137-9.73 1.28.003-.129 9.811-1.288zm.055-.167l-.055.167-9.811 1.288.002-.162 9.864-1.293zm.022-.186l-.022.186-9.864 1.293.003-.186 9.883-1.293zm-.014-.19l.014.19-9.883 1.293.003-.196 9.866-1.287zm-.048-.184l.048.184-9.866 1.287.003-.192 9.815-1.279zm-.079-.164l.08.164-9.816 1.279.003-.177 9.733-1.266zm-.104-.131l.104.131-9.733 1.266.003-.148 9.626-1.25zm-.123-.093l.123.093-9.626 1.249.001-.11 9.502-1.232zm-.132-.046l.132.046-9.502 1.232.001-.064 9.369-1.214z" fill="#B8CEDB"/><path fill="#00A4A5" d="M192.102 34.766l7.042-.108.136.043-7.047.108z"/><path fill="#8F743F" d="M159.452 46.607l-.054.007-2.579.048.053-.008z"/><path d="M159.502 46.532l-.05.075-2.58.047.05-.075 2.58-.047zm.044-.138l-.044.138-2.58.047.044-.137 2.58-.048zm-.078-1.719l.05.124-2.583.047-.048-.125 2.581-.046zm-.053-.06l.053.06-2.58.046-.053-.06 2.58-.046zm-2.45 1.827l.034-.19 2.582-.048-.019.104-.01.057v.005l-.006.024-2.58.048zm.034-.19l.022-.232 2.583-.048-.023.232-2.582.047zm.022-.232l.01-.256 2.582-.047-.006.168-.003.087-2.583.048zm.01-.256l-.005-.263 2.582-.047.001.038.004.2v.025l-2.582.047zm-.005-.263l-.019-.251 2.583-.047.018.251-2.582.047zm-.019-.251l-.03-.224 2.582-.047.002.016.029.208-2.583.047zm-.03-.224l-.042-.18 2.582-.047.042.18-2.583.047z" fill="url(#s)"/><path d="M156.732 44.745l.05-.076.053-.008.052.06.048.125.041.18.031.224.019.251.005.263-.01.256-.022.231-.033.191-.044.137-.05.075-.053.008-.052-.061-.048-.125-.04-.18-.031-.223-.018-.251-.006-.262.01-.255.021-.231.034-.191.043-.138zm.1.158l-.039.006-.038.058-.032.104-.026.145-.017.175-.007.193.004.199.014.19.023.17.031.136.037.095.04.046.04-.006.028-.042.009-.015.033-.104.02-.115.006-.03.013-.14.003-.035.007-.194-.003-.16v-.039l-.014-.19-.02-.138-.004-.032-.025-.112-.006-.025-.03-.079-.006-.015-.035-.04-.005-.006z" fill="#2CF6A0"/><path fill="url(#t)" d="M163.341 71.165l.762-.23.32.016.518.226.597.548.454.755.28.909.088 1.002-.111 1.027-.3.983-.472.873-.61.704-.708.487-.758.237-.365-.015-.477-.201-.603-.543-.46-.754-.286-.913-.091-1.01.11-1.037.305-.992.476-.88.617-.707z"/><path d="M164.86 70.974l.701.305-.62-.102-.518-.226.437.023zm.701.305l.598.549-.62-.103-.598-.548.62.102zm.598.549l.454.755-.62-.103-.455-.755.62.103zm.454.755l.279.91-.62-.104-.28-.91.62.104zm.279.91l.087 1.003-.62-.105-.087-1.002.62.104zm.087 1.003l-.11 1.029-.62-.107.11-1.027.62.105zm-.11 1.029l-.302.984-.619-.108.301-.983.62.107zm-.302.984l-.472.873-.618-.108.471-.873.619.108zm-.472.873l-.61.705-.618-.11.61-.703.618.108zm-.61.705l-.708.488-.618-.11.708-.487.618.11zm-.708.488l-.757.238-.619-.111.758-.237.618.11zm-.757.238l-.757-.03-.227-.096.365.015.619.11z" fill="url(#u)"/><path fill="#0D8900" d="M156.793 44.91l.04-.007.005.005z"/><g transform="translate(111.784 39.426)" fill="#36C0F5"><ellipse opacity=".1" cx="64.64" cy="8.275" rx="46.658" ry="5.354"/><ellipse opacity=".1" cx="64.64" cy="8.518" rx="64.64" ry="8.518"/><ellipse opacity=".14" cx="64.883" cy="7.788" rx="33.292" ry="3.407"/><ellipse opacity=".25" cx="65.126" cy="7.788" rx="19.927" ry="1.947"/></g><path d="M191 45.516l-.015.11-12.319.227-.016-.143 12.362-.227-.012.033zm-.015.11l-.031.103-12.276.227-.012-.103 12.32-.227zm-.031.103l-.03.04.002.017-12.242.226-.006-.056 12.276-.227zm.126-.612l-.029.192-12.421.228-.023-.193 12.473-.227zm-.029.192l-.04.174-12.361.227-.02-.173 12.421-.228zm.044-.39l-.015.198-12.473.227-.022-.197 12.51-.228zm0-.19v.19l-12.51.228-.022-.19 12.533-.227zm-.012-.167l.013.168-12.533.228-.02-.17 12.54-.226zm-.027-.136l.027.136-12.54.227-.015-.136 12.528-.227zm-.027-.066l.027.066-12.528.227-.01-.095 12.514-.225-.003.027zm-12.517.153l12.525-.226-.005.046-12.515.225-.005-.045zm12.414 1.277l-12.24.227-.002-.005 12.242-.226v.004z" fill="#B8CEDB"/><path fill="#009D9E" d="M191 45.516l.012-.033.039-.174.029-.192-.047.412z"/><path fill="#88B3EF" d="M192.102 34.766l.131.043-1.153 10.308.015-.198v-.19l-.012-.167-.027-.136-.027-.066.003-.027.005-.046z"/><path fill="url(#m)" d="M1.714.25L8.761.143l-.506 21.276-6.99.15-.75-10.598.045-.413z" transform="translate(190.52 34.558)"/><path fill="#88B3EF" d="M191.033 45.529l.75 10.598-.13-.06-.727-10.277v-.004l-.002-.016.03-.04.031-.104.015-.11zM192.102 34.766l.131.043-1.153 10.308.015-.198v-.19l-.012-.167-.027-.136-.027-.066.003-.027.005-.046z"/><g transform="translate(191.005 47.214)"><mask id="w" fill="#fff"><use xlink:href="#v"/></mask><use fill-opacity="0" fill="#CADCF6" xlink:href="#v"/><g opacity=".6" mask="url(#w)" fill="#36C0F5"><g transform="translate(-61.238 -4.867)"><ellipse opacity=".1" cx="46.658" cy="5.354" rx="46.658" ry="5.354"/><ellipse opacity=".14" cx="46.901" cy="4.867" rx="33.292" ry="3.407"/><ellipse opacity=".25" cx="47.144" cy="4.867" rx="19.927" ry="1.947"/></g></g></g><path d="M159.53 44.855l14.422-.26-.007.046-14.404.26-.01-.046zm14.201 1.253l-14.18.262v-.005l14.181-.262v.005zm.001-.005l-14.18.262.01-.057 14.178-.261-.008.056zm.008-.056l-14.178.261.02-.103 14.174-.261-.016.103zm.016-.103l-14.175.26.014-.144 14.181-.26-.02.144zm.02-.144l-14.18.26.008-.088.003-.087 14.195-.26-.026.175zm.026-.175l-14.195.26.006-.168v-.025l14.217-.26-.028.193zm.028-.193l-14.217.26-.004-.2 14.25-.259-.03.199zm.03-.199l-14.25.26-.002-.039-.01-.152 14.289-.26-.028.191zm.027-.19l-14.29.259-.007-.1-.01-.07 14.332-.26-.025.17zm.025-.17l-14.332.26-.02-.138 14.371-.26-.02.138zm.02-.137l-14.371.26-.002-.017-.018-.078 14.404-.26-.014.095z" fill="#B8CEDB"/><path d="M156.862 46.414l-.04.006-.04-.046.108-.002-.028.042zm-.08-.04l-.037-.095.18-.003-.026.081-.01.015-.107.002zm-.037-.095l-.03-.136.237-.005-.02.115-.007.023-.18.003zm-.03-.136l-.024-.17.28-.005-.013.14-.006.03-.238.005zm-.024-.17l-.014-.19.303-.005-.006.155-.003.035-.28.005zm-.014-.19l-.004-.199.305-.005.003.16v.039l-.304.005zm-.004-.199l.007-.193.286-.005.012.154v.04l-.305.004zm.007-.193l.017-.175.248-.004.019.137.002.037-.286.005zm.017-.175l.026-.145.192-.003.025.112.005.032-.248.004zm.026-.145l.032-.104.124-.003.03.08.006.024-.192.003zm.032-.104l.038-.058h.045l.035.04.006.015-.124.003z" fill="#0FB26B"/><g><path d="M.074 6.803l-.07-.075.219-1.506v-.005L.896.607l.05.049-.871 6.147zm5.293-.024l-.107.073L4.584.687l.074-.046.345 2.986.005.045.168 1.454v.005l.19 1.648zM1.12.701l.289.04-.676 6.197-.172-.026-.224-.035-.015-.002L1.121.7zM.946.656L1.12.7.323 6.875l-.05-.015-.2-.057L.947.656zM4.385.73l.199-.043.676 6.165-.167.04-.096.023-.02.004L4.386.73zm-.309.035L4.385.73l.593 6.19-.234.029-.206.026-.462-6.21zM3.68.791l.397-.026.462 6.21-.19.013-.377.027L3.679.791zm-.46.014l.46-.014.292 6.224-.131.005-.525.018L3.22.805zm-.49.002l.49-.002.096 6.233H3.25l-.628.003h-.006L2.729.807zm-.487-.01l.487.01-.113 6.234-.617-.015-.078-.001.321-6.228zm-.45-.023l.45.023-.32 6.228-.643-.035.513-6.216zM1.41.742l.382.032-.513 6.216-.347-.033-.198-.019L1.41.742z" fill="url(#x)" transform="translate(173.509 40.886)"/><path fill="#879FFA" d="M174.454 41.542l-.05-.048.078-.047.2-.042.31-.035.396-.026.457-.014.487-.002.484.011.449.022.382.032.29.04.177.046.053.047-.075.047-.199.043-.308.035-.398.026-.46.014-.49.002-.486-.01-.45-.023-.382-.032-.29-.04z"/></g><g transform="translate(109.354 63.276)" fill="#5376FB"><ellipse opacity=".1" cx="66.623" cy="10.083" rx="46.658" ry="7.05"/><ellipse opacity=".1" cx="66.623" cy="10.718" rx="66.604" ry="10.698"/><ellipse opacity=".14" cx="66.91" cy="9.964" rx="33.51" ry="5.225"/><ellipse opacity=".2" cx="66.91" cy="9.708" rx="20.906" ry="2.625"/></g></g><path d="M86.697 69.608c-2.632-17.492-4.409-36.286 23.905-42.642 28.313-6.355 74.46-8.336 89.342-20.737 14.882-12.4 48.414-5.628 46.775 16.226-1.64 21.853-7.493 40.246.258 59.403 7.752 19.156 2.614 28.488-7.355 35.474-9.97 6.985-31.01 6.058-39.12 12.357-8.11 6.3-28.714 36.973-47.112 35.139-18.398-1.835-47.897-12.473-47.463-47.722.435-35.248-16.598-30.005-19.23-47.498z" fill="url(#y)" transform="translate(103.47 113.214)"/><path d="M104.256 175.128l-.695-33.99c.474-16.053 4.148-22.383 11.022-18.988 9.719 4.799 72.076 35.186 99.544 50.817" stroke="#1752DE" stroke-width="2" stroke-linecap="round" stroke-dasharray="2,5"/><g opacity=".5" transform="translate(196.759 149.523)"><use fill-opacity=".6" fill="url(#z)" xlink:href="#A"/><use fill="#000" filter="url(#B)" xlink:href="#A"/><ellipse stroke="#2421DC" cx="18.427" cy="18.443" rx="18.927" ry="18.943"/></g><g transform="translate(205.864 155.164)"><use fill="#000" filter="url(#C)" xlink:href="#D"/><use fill="#FFF" xlink:href="#D"/></g><path d="M208.468 158.527h9.57M208.468 161.131h12.606" stroke="#3B7FEA" stroke-width="1.5" stroke-linecap="round" stroke-linejoin="round" stroke-dasharray="7,4"/><path d="M208.468 163.735h10.871" stroke="#3B7FEA" stroke-width="1.5" stroke-linecap="round" stroke-linejoin="round" stroke-dasharray="11,4"/><path d="M208.468 166.338h12.172M208.468 168.942h12.606" stroke="#3B7FEA" stroke-width="1.5" stroke-linecap="round" stroke-linejoin="round" stroke-dasharray="7,4"/><path d="M208.468 171.546h6.97" stroke="#3B7FEA" stroke-width="1.5" stroke-linecap="round" stroke-linejoin="round" stroke-dasharray="4,4"/><path d="M208.468 174.15h11.305" stroke="#3B7FEA" stroke-width="1.5" stroke-linecap="round" stroke-linejoin="round" stroke-dasharray="5,4"/><path d="M208.468 176.753h12.606" stroke="#3B7FEA" stroke-width="1.5" stroke-linecap="round" stroke-linejoin="round" stroke-dasharray="7,4"/><g opacity=".5" transform="translate(196.759 149.523)"><use fill="url(#E)" xlink:href="#F"/><use fill="#000" filter="url(#G)" xlink:href="#F"/><ellipse stroke="#2421DC" cx="18.427" cy="18.443" rx="18.927" ry="18.943"/></g><path d="M227.792 177.645l80.873 21.039M227.792 177.645l24.005 62.005" stroke="#1752DE" stroke-width="2" stroke-linecap="round" stroke-dasharray="2,5"/><g opacity=".7"><g opacity=".3" transform="translate(302.715 127.622)"><use fill-opacity=".6" fill="url(#H)" xlink:href="#I"/><use fill="#000" filter="url(#J)" xlink:href="#I"/><ellipse stroke="#2421DC" cx="16.988" cy="17.002" rx="17.488" ry="17.502"/></g><g transform="translate(311.11 132.823)"><use fill="#000" filter="url(#K)" xlink:href="#L"/><use fill="#FFF" xlink:href="#L"/></g><path d="M313.51 135.923h8.823M313.51 138.323h11.62" stroke="#3B7FEA" stroke-width="1.5" stroke-linecap="round" stroke-linejoin="round" stroke-dasharray="7,4"/><path d="M313.51 140.724h10.022" stroke="#3B7FEA" stroke-width="1.5" stroke-linecap="round" stroke-linejoin="round" stroke-dasharray="11,4"/><path d="M313.51 143.124h11.221M313.51 145.524h11.62" stroke="#3B7FEA" stroke-width="1.5" stroke-linecap="round" stroke-linejoin="round" stroke-dasharray="7,4"/><path d="M313.51 147.924h6.424" stroke="#3B7FEA" stroke-width="1.5" stroke-linecap="round" stroke-linejoin="round" stroke-dasharray="4,4"/><path d="M313.51 150.325h10.422" stroke="#3B7FEA" stroke-width="1.5" stroke-linecap="round" stroke-linejoin="round" stroke-dasharray="5,4"/><path d="M313.51 152.725h11.62" stroke="#3B7FEA" stroke-width="1.5" stroke-linecap="round" stroke-linejoin="round" stroke-dasharray="7,4"/><g opacity=".6" transform="translate(302.715 127.622)"><use fill="url(#M)" xlink:href="#N"/><use fill="#000" filter="url(#O)" xlink:href="#N"/><ellipse stroke="#2421DC" cx="16.988" cy="17.002" rx="17.488" ry="17.502"/></g></g><path d="M326.555 201.283l-6.481-52.886" stroke="#1752DE" stroke-width="2" stroke-linecap="round" stroke-dasharray="2,5"/><path d="M221.165 54.158l1.275 3.688a1 1 0 0 1-.818 1.319l-3.797.486a1 1 0 0 1-.983-1.51l2.522-4.173a1 1 0 0 1 1.8.19z" fill="url(#P)" transform="rotate(51 152.653 221.644)"/><g><g opacity=".5" transform="translate(308.474 184.68)"><use fill-opacity=".1" fill="url(#Q)" xlink:href="#R"/><use fill="#000" filter="url(#S)" xlink:href="#R"/><ellipse stroke="#2421DC" cx="17.851" cy="17.866" rx="18.351" ry="18.366"/></g><path d="M326.61 203.432l-17.679-4.509" stroke="#879FFA" stroke-width="4"/><g transform="translate(317.294 190.144)"><use fill="#000" filter="url(#T)" xlink:href="#U"/><use fill="#FFF" xlink:href="#U"/></g><path d="M319.817 193.402h9.272M319.817 195.925h12.212" stroke="#3B7FEA" stroke-width="1.5" stroke-linecap="round" stroke-linejoin="round" stroke-dasharray="7,4"/><path d="M319.817 198.447h10.532" stroke="#3B7FEA" stroke-width="1.5" stroke-linecap="round" stroke-linejoin="round" stroke-dasharray="11,4"/><path d="M319.817 200.97h11.792M319.817 203.492h12.212" stroke="#3B7FEA" stroke-width="1.5" stroke-linecap="round" stroke-linejoin="round" stroke-dasharray="7,4"/><path d="M319.817 206.014h6.752" stroke="#3B7FEA" stroke-width="1.5" stroke-linecap="round" stroke-linejoin="round" stroke-dasharray="4,4"/><path d="M319.817 208.536h10.952" stroke="#3B7FEA" stroke-width="1.5" stroke-linecap="round" stroke-linejoin="round" stroke-dasharray="5,4"/><path d="M319.817 211.059h12.212" stroke="#3B7FEA" stroke-width="1.5" stroke-linecap="round" stroke-linejoin="round" stroke-dasharray="7,4"/><g opacity=".5" transform="translate(308.474 184.68)"><use fill-opacity=".6" fill="url(#V)" xlink:href="#W"/><use fill="#000" filter="url(#X)" xlink:href="#W"/></g></g><path d="M256.663 243.394l69.17-39.669" stroke="#1752DE" stroke-width="2" stroke-linecap="round" stroke-dasharray="2,5"/><g><g opacity=".7" transform="translate(231.375 221.117)"><use fill-opacity=".2" fill="url(#Y)" xlink:href="#Z"/><use fill="#000" filter="url(#aa)" xlink:href="#Z"/><ellipse stroke="#2421DC" cx="20.94" cy="20.957" rx="21.44" ry="21.457"/></g><g transform="translate(241.722 227.527)"><use fill="#000" filter="url(#ab)" xlink:href="#ac"/><use fill="#FFF" xlink:href="#ac"/></g><path d="M244.68 231.35h10.877M244.68 234.308h14.326" stroke="#3B7FEA" stroke-width="1.5" stroke-linecap="round" stroke-linejoin="round" stroke-dasharray="7,4"/><path d="M244.68 237.266h12.355" stroke="#3B7FEA" stroke-width="1.5" stroke-linecap="round" stroke-linejoin="round" stroke-dasharray="11,4"/><path d="M244.68 240.225h13.833M244.68 243.184h14.326" stroke="#3B7FEA" stroke-width="1.5" stroke-linecap="round" stroke-linejoin="round" stroke-dasharray="7,4"/><path d="M244.68 246.143h7.92" stroke="#3B7FEA" stroke-width="1.5" stroke-linecap="round" stroke-linejoin="round" stroke-dasharray="4,4"/><path d="M244.68 249.101h12.848" stroke="#3B7FEA" stroke-width="1.5" stroke-linecap="round" stroke-linejoin="round" stroke-dasharray="5,4"/><path d="M244.68 252.06h14.326" stroke="#3B7FEA" stroke-width="1.5" stroke-linecap="round" stroke-linejoin="round" stroke-dasharray="7,4"/><g opacity=".2" transform="translate(231.375 221.117)"><use fill="url(#ad)" xlink:href="#ae"/><use fill="#000" filter="url(#af)" xlink:href="#ae"/><ellipse stroke="#2421DC" cx="20.94" cy="20.957" rx="21.44" ry="21.457"/></g></g><path d="M169.431 72.477l1.276 3.687a1 1 0 0 1-.818 1.319l-3.798.486a1 1 0 0 1-.982-1.51l2.521-4.172a1 1 0 0 1 1.801.19z" fill="url(#P)" transform="rotate(-16 622.377 -236.618)"/><path d="M193.16 105.579l1.275 3.687a1 1 0 0 1-.818 1.32l-3.798.485a1 1 0 0 1-.982-1.509l2.521-4.173a1 1 0 0 1 1.801.19z" fill="url(#P)" transform="rotate(107 201.44 202.882)"/><path d="M136.596 87.614l1.276 3.687a1 1 0 0 1-.818 1.32l-3.798.485a1 1 0 0 1-.983-1.509l2.522-4.173a1 1 0 0 1 1.8.19z" fill="url(#P)" transform="rotate(43 43.058 277.972)"/><path d="M59.194 28.58l1.275 3.688a1 1 0 0 1-.818 1.319l-3.797.486a1 1 0 0 1-.983-1.51l2.522-4.173a1 1 0 0 1 1.8.19z" fill="url(#P)" transform="translate(103.47 113.214)"/><g><g transform="translate(254.92 246.347)"><use fill="#000" filter="url(#ag)" xlink:href="#ah"/><use fill="#FFF" xlink:href="#ah"/></g><path d="M21.142 6.91l-.516-.523a1.45 1.45 0 0 0-2.061 0l-8.761 8.871-3.11-3.145a1.447 1.447 0 0 0-2.058 0l-.517.523a1.496 1.496 0 0 0 0 2.088l4.652 4.713a1.45 1.45 0 0 0 2.062 0l10.31-10.44a1.496 1.496 0 0 0 0-2.088z" fill="url(#ai)" transform="translate(254.92 246.347)"/></g><g><g transform="translate(329.78 201.97)"><use fill="#000" filter="url(#aj)" xlink:href="#ak"/><use fill="#FFF" xlink:href="#ak"/></g><path d="M21.142 6.91l-.516-.523a1.45 1.45 0 0 0-2.061 0l-8.761 8.871-3.11-3.145a1.447 1.447 0 0 0-2.058 0l-.517.523a1.496 1.496 0 0 0 0 2.088l4.652 4.713a1.45 1.45 0 0 0 2.062 0l10.31-10.44a1.496 1.496 0 0 0 0-2.088z" fill="url(#ai)" transform="translate(329.78 201.97)"/></g></g></svg>