<?xml version="1.0" encoding="utf-8"?>
<!-- Generator: Adobe Illustrator 21.0.0, SVG Export Plug-In . SVG Version: 6.00 Build 0)  -->
<svg version="1.1" id="Слой_1" xmlns="http://www.w3.org/2000/svg" xmlns:xlink="http://www.w3.org/1999/xlink" x="0px" y="0px"
	 viewBox="0 0 120.1 119.7" style="enable-background:new 0 0 120.1 119.7;" xml:space="preserve">
<style type="text/css">
	.st0{fill:url(#SVGID_1_);}
	.st1{fill:url(#SVGID_2_);}
	.st2{fill:#FFFFFF;}
</style>
<linearGradient id="SVGID_1_" gradientUnits="userSpaceOnUse" x1="1.4841" y1="59.9522" x2="120.0598" y2="59.9522">
	<stop  offset="0" style="stop-color:#F3F8FA"/>
	<stop  offset="1" style="stop-color:#EAF0F4"/>
</linearGradient>
<path class="st0" d="M106.7,117.4l-94.4-12.9C4,103.4-0.9,92.3,2.6,82.7l17.2-46.5c1.5-4,4.2-7,7.5-8.2L93.5,3
	c6.9-2.6,14.1,3.1,15.3,12.2l11.1,84.4C121.2,109.7,114.6,118.5,106.7,117.4z"/>
<linearGradient id="SVGID_2_" gradientUnits="userSpaceOnUse" x1="109.6081" y1="16.8747" x2="-10.8919" y2="120.8747">
	<stop  offset="0" style="stop-color:#4194FF"/>
	<stop  offset="1" style="stop-color:#175FE1"/>
</linearGradient>
<path class="st1" d="M72.3,118.9l-50.7-12.3c-15.2-3.7-24.6-19-20.9-34.2l12.3-50.7c3.7-15.2,19-24.6,34.2-20.9L98,13.1
	c15.2,3.7,24.6,19,20.9,34.2L106.6,98C102.9,113.2,87.5,122.6,72.3,118.9z"/>
<path class="st2" d="M81.9,67.7h-1.6v-1.6c0-2.6-2.1-4.7-4.7-4.7H61.4v-3.1c1.5,0,3.2,0,4.7,0c0.9,0,1.6-0.7,1.6-1.6
	c0-0.9-0.7-1.6-1.6-1.6h-1.6V52h4.7c2.6,0,4.7-2.1,4.7-4.7v-9.5c0-2.6-2.1-4.7-4.7-4.7H50.4c-2.6,0-4.7,2.1-4.7,4.7v9.5
	c0,2.6,2.1,4.7,4.7,4.7h4.7v3.1h-1.6c-0.9,0-1.6,0.7-1.6,1.6c0,0.9,0.7,1.6,1.6,1.6c1.5,0,3.2,0,4.7,0v3.1H44.1
	c-2.6,0-4.7,2.1-4.7,4.7v1.6h-1.6c-2.6,0-4.7,2.1-4.7,4.7v3.1c0,2.6,2.1,4.7,4.7,4.7h1.6v3.2h-1.6c-0.9,0-1.6,0.7-1.6,1.6
	s0.7,1.6,1.6,1.6h6.3c0.9,0,1.6-0.7,1.6-1.6s-0.7-1.6-1.6-1.6h-1.6v-3.2h1.6c2.6,0,4.7-2.1,4.7-4.7v-3.1c0-2.6-2.1-4.7-4.7-4.7h-1.6
	v-1.6c0-0.9,0.7-1.6,1.6-1.6h14.2v3.1h-1.6c-2.6,0-4.7,2.1-4.7,4.7v3.1c0,2.6,2.1,4.7,4.7,4.7h1.6v3.2h-1.6c-0.9,0-1.6,0.7-1.6,1.6
	s0.7,1.6,1.6,1.6H63c0.9,0,1.6-0.7,1.6-1.6s-0.7-1.6-1.6-1.6h-1.6v-3.2H63c2.6,0,4.7-2.1,4.7-4.7v-3.1c0-2.6-2.1-4.7-4.7-4.7h-1.6
	v-3.1h14.2c0.9,0,1.6,0.7,1.6,1.6v1.6h-1.6c-2.6,0-4.7,2.1-4.7,4.7v3.1c0,2.6,2.1,4.7,4.7,4.7h1.6v3.2h-1.6c-0.9,0-1.6,0.7-1.6,1.6
	s0.7,1.6,1.6,1.6h6.3c0.9,0,1.6-0.7,1.6-1.6s-0.7-1.6-1.6-1.6h-1.6v-3.2h1.6c2.6,0,4.7-2.1,4.7-4.7v-3.1
	C86.6,69.8,84.5,67.7,81.9,67.7z M48.9,47.3v-9.5c0-0.9,0.7-1.6,1.6-1.6h18.8c0.9,0,1.6,0.7,1.6,1.6v9.5c0,0.9-0.7,1.6-1.6,1.6
	c-3.8,0-15,0-18.8,0C49.6,48.9,48.9,48.2,48.9,47.3z M58.3,52h3.1v3.1h-3.1V52z M45.6,72.4v3.1c0,0.9-0.7,1.6-1.6,1.6h-6.3
	c-0.9,0-1.6-0.7-1.6-1.6v-3.1c0-0.9,0.7-1.6,1.6-1.6h6.3C44.9,70.8,45.6,71.5,45.6,72.4z M64.5,72.4v3.1c0,0.9-0.7,1.6-1.6,1.6h-6.3
	c-0.9,0-1.6-0.7-1.6-1.6v-3.1c0-0.9,0.7-1.6,1.6-1.6H63C63.8,70.8,64.5,71.5,64.5,72.4z M83.4,75.5c0,0.9-0.7,1.6-1.6,1.6h-6.3
	c-0.9,0-1.6-0.7-1.6-1.6v-3.1c0-0.9,0.7-1.6,1.6-1.6h6.3c0.9,0,1.6,0.7,1.6,1.6V75.5z"/>
</svg>
