<?xml version="1.0" encoding="utf-8"?>
<!-- Generator: Adobe Illustrator 21.0.0, SVG Export Plug-In . SVG Version: 6.00 Build 0)  -->
<svg version="1.1" id="Слой_1" xmlns="http://www.w3.org/2000/svg" xmlns:xlink="http://www.w3.org/1999/xlink" x="0px" y="0px"
	 viewBox="0 0 126.4 119.7" style="enable-background:new 0 0 126.4 119.7;" xml:space="preserve">
<style type="text/css">
	.st0{fill:url(#SVGID_1_);}
	.st1{fill:url(#SVGID_2_);}
	.st2{fill:#FFFFFF;}
</style>
<linearGradient id="SVGID_1_" gradientUnits="userSpaceOnUse" x1="133.1163" y1="97.8859" x2="51.1929" y2="182.326" gradientTransform="matrix(-1.0332 6.768676e-02 -6.536987e-02 -0.9979 170.2014 188.3643)">
	<stop  offset="0" style="stop-color:#F3F8FA"/>
	<stop  offset="1" style="stop-color:#EAF0F4"/>
</linearGradient>
<path class="st0" d="M86.4,110.3L45,108.7c-8.3-0.3-15.8-4.8-19.7-11.9L2.8,56.3C-5.1,42,4.6,24.5,21.3,22.8l79.3-7.8
	c16.6-1.6,29.6,13.5,24.8,29L110,94C106.9,104,97.2,110.7,86.4,110.3z"/>
<linearGradient id="SVGID_2_" gradientUnits="userSpaceOnUse" x1="114.1553" y1="16.8747" x2="-6.3447" y2="120.8747" gradientTransform="matrix(-1 0 0 1 128.7618 0)">
	<stop  offset="0" style="stop-color:#4194FF"/>
	<stop  offset="1" style="stop-color:#175FE1"/>
</linearGradient>
<path class="st1" d="M51.9,118.9l50.7-12.3c15.2-3.7,24.6-19,20.9-34.2l-12.3-50.7c-3.7-15.2-19-24.6-34.2-20.9L26.2,13.1
	C11,16.8,1.7,32.1,5.4,47.3L17.7,98C21.4,113.2,36.7,122.6,51.9,118.9z"/>
<g>
	<g>
		<path class="st2" d="M83.4,47.1l-3.9-3.9c1.4-2.6,2.2-5.5,2.2-8.5v-1.6H47.2v1.6c0,3,0.8,5.9,2.2,8.5l-3.9,3.9
			c-1.8,1.8-1.8,4.8,0,6.6c1.8,1.8,4.8,1.8,6.6,0l3.9-3.9c1.2,0.7,2.4,1.2,3.7,1.5v5.3c0,2.6,2.1,4.7,4.7,4.7c2.6,0,4.7-2.1,4.7-4.7
			v-5.3c1.3-0.4,2.5-0.9,3.7-1.5l3.9,3.9c1.8,1.8,4.8,1.8,6.6,0C85.2,51.9,85.2,48.9,83.4,47.1L83.4,47.1z M81.2,51.5
			c-0.6,0.6-1.6,0.6-2.2,0l-5.7-5.7c-0.7,0.4-2.6,2.1-6,2.8l-1.3,0.3v7.9c0,0.9-0.7,1.6-1.6,1.6c-0.9,0-1.6-0.7-1.6-1.6v-7.9
			l-1.3-0.3c-3.4-0.7-5.3-2.4-6-2.8l-5.7,5.7c-0.6,0.6-1.6,0.6-2.2,0c-0.6-0.6-0.6-1.6,0-2.2l5.7-5.7c-0.3-0.6-2.5-3-3-7.4h28
			c-0.5,4.4-2.6,6.8-3,7.4l5.7,5.7c0.3,0.3,0.5,0.7,0.5,1.1C81.6,50.9,81.4,51.2,81.2,51.5L81.2,51.5z M81.2,51.5"/>
	</g>
	<path class="st2" d="M47.7,81.2c1.4,1.4,3.4,1.8,5.3,1.6l0.6,3.8h21.5l3.1-18.9h3.4v-3.1H47.2v3.1h3.1c-1.8,2.1-3.2,4.4-3.8,6.6
		C45.6,77.2,46.1,79.6,47.7,81.2L47.7,81.2z M72.5,83.4H56.3L56.1,82c3.5-1.4,6.9-4.4,9.1-8.1h3.9v-3.1h-9.4v3.1h1.7
		c-1.8,2.3-3.9,3.9-5.9,4.9l-1.8-11.1h21.4L72.5,83.4z M49.4,75.1c0.3-1.2,0.9-2.4,1.7-3.6l1.4,8.2c-0.9,0.1-1.9,0-2.6-0.7
		C49.1,78.3,49,76.8,49.4,75.1L49.4,75.1z M49.4,75.1"/>
</g>
</svg>
