<?xml version="1.0" encoding="utf-8"?>
<!-- Generator: Adobe Illustrator 21.0.0, SVG Export Plug-In . SVG Version: 6.00 Build 0)  -->
<svg version="1.1" id="Слой_1" xmlns="http://www.w3.org/2000/svg" xmlns:xlink="http://www.w3.org/1999/xlink" x="0px" y="0px"
	 viewBox="0 0 120.1 119.7" style="enable-background:new 0 0 120.1 119.7;" xml:space="preserve">
<style type="text/css">
	.st0{fill:url(#SVGID_1_);}
	.st1{fill:url(#SVGID_2_);}
	.st2{fill:#FFFFFF;}
</style>
<linearGradient id="SVGID_1_" gradientUnits="userSpaceOnUse" x1="1.4841" y1="59.9522" x2="120.0598" y2="59.9522">
	<stop  offset="0" style="stop-color:#F3F8FA"/>
	<stop  offset="1" style="stop-color:#EAF0F4"/>
</linearGradient>
<path class="st0" d="M106.7,117.4l-94.4-12.9C4,103.4-0.9,92.3,2.6,82.7l17.2-46.5c1.5-4,4.2-7,7.5-8.2L93.5,3
	c6.9-2.6,14.1,3.1,15.3,12.2l11.1,84.4C121.2,109.7,114.6,118.5,106.7,117.4z"/>
<linearGradient id="SVGID_2_" gradientUnits="userSpaceOnUse" x1="109.6081" y1="16.8747" x2="-10.8919" y2="120.8747">
	<stop  offset="0" style="stop-color:#4194FF"/>
	<stop  offset="1" style="stop-color:#175FE1"/>
</linearGradient>
<path class="st1" d="M72.3,118.9l-50.7-12.3c-15.2-3.7-24.6-19-20.9-34.2l12.3-50.7c3.7-15.2,19-24.6,34.2-20.9L98,13.1
	c15.2,3.7,24.6,19,20.9,34.2L106.6,98C102.9,113.2,87.5,122.6,72.3,118.9z"/>
<path class="st2" d="M81.6,67.4V52.3c1.6-0.6,2.8-2.2,2.8-4.1c0-2.4-2-4.4-4.4-4.4c-1,0-2,0.4-2.7,0.9l-13.1-7.6c0-0.2,0-0.4,0-0.6
	c0-2.4-2-4.4-4.4-4.4s-4.4,2-4.4,4.4c0,0.2,0,0.4,0,0.6l-13.1,7.6c-0.7-0.6-1.7-0.9-2.7-0.9c-2.4,0-4.4,2-4.4,4.4
	c0,1.8,1.1,3.4,2.8,4.1v15.2c-1.6,0.6-2.8,2.2-2.8,4.1c0,2.4,2,4.4,4.4,4.4c1,0,2-0.4,2.7-0.9l13.1,7.6c0,0.2,0,0.4,0,0.6
	c0,2.4,2,4.4,4.4,4.4c2.4,0,4.4-2,4.4-4.4c0-0.2,0-0.4,0-0.6l13.1-7.6c0.7,0.6,1.7,0.9,2.7,0.9c2.4,0,4.4-2,4.4-4.4
	C84.4,69.6,83.2,68.1,81.6,67.4z M77.3,68l-10.6-6.1c0.2-0.7,0.3-1.3,0.3-2.1c0-0.7-0.1-1.4-0.3-2.1l10.6-6.1
	c0.3,0.3,0.7,0.5,1.1,0.6v15.2C78,67.6,77.6,67.8,77.3,68z M75.7,48.8L65,55c-0.9-1-2.2-1.7-3.6-2.1V40.6c0.4-0.2,0.8-0.4,1.1-0.6
	l13.1,7.6c0,0.2,0,0.4,0,0.6C75.6,48.4,75.6,48.6,75.7,48.8z M59.8,63.7c-2.1,0-3.9-1.7-3.9-3.9c0-2.1,1.7-3.9,3.9-3.9
	c2.1,0,3.9,1.7,3.9,3.9C63.7,62,62,63.7,59.8,63.7z M58.2,40.6v12.3c-1.4,0.3-2.6,1.1-3.6,2.1L44,48.8c0-0.2,0-0.4,0-0.6
	s0-0.4,0-0.6L57.1,40C57.5,40.3,57.8,40.5,58.2,40.6z M42.4,51.6L53,57.8c-0.2,0.7-0.3,1.3-0.3,2.1c0,0.7,0.1,1.4,0.3,2.1L42.4,68
	c-0.3-0.3-0.7-0.5-1.1-0.6V52.3C41.7,52.1,42.1,51.9,42.4,51.6z M44,70.8l10.6-6.1c0.9,1,2.2,1.7,3.6,2.1V79
	c-0.4,0.2-0.8,0.4-1.1,0.6L44,72.1c0-0.2,0-0.4,0-0.6C44.1,71.3,44,71,44,70.8z M61.5,79V66.8c1.4-0.3,2.6-1.1,3.6-2.1l10.6,6.1
	c0,0.2,0,0.4,0,0.6c0,0.2,0,0.4,0,0.6l-13.1,7.6C62.2,79.4,61.8,79.2,61.5,79z M80,47.1c0.6,0,1.1,0.5,1.1,1.1
	c0,0.6-0.5,1.1-1.1,1.1c-0.6,0-1.1-0.5-1.1-1.1C78.9,47.6,79.4,47.1,80,47.1z M59.8,35.4c0.6,0,1.1,0.5,1.1,1.1s-0.5,1.1-1.1,1.1
	s-1.1-0.5-1.1-1.1S59.2,35.4,59.8,35.4z M39.7,47.1c0.6,0,1.1,0.5,1.1,1.1c0,0.6-0.5,1.1-1.1,1.1c-0.6,0-1.1-0.5-1.1-1.1
	C38.5,47.6,39.1,47.1,39.7,47.1z M39.7,72.6c-0.6,0-1.1-0.5-1.1-1.1c0-0.6,0.5-1.1,1.1-1.1c0.6,0,1.1,0.5,1.1,1.1
	C40.8,72.1,40.3,72.6,39.7,72.6z M59.8,84.2c-0.6,0-1.1-0.5-1.1-1.1c0-0.6,0.5-1.1,1.1-1.1c0.6,0,1.1,0.5,1.1,1.1
	C61,83.7,60.5,84.2,59.8,84.2z M80,72.6c-0.6,0-1.1-0.5-1.1-1.1c0-0.6,0.5-1.1,1.1-1.1c0.6,0,1.1,0.5,1.1,1.1
	C81.1,72.1,80.6,72.6,80,72.6z"/>
</svg>
