<?xml version="1.0" encoding="utf-8"?>
<!-- Generator: Adobe Illustrator 21.0.0, SVG Export Plug-In . SVG Version: 6.00 Build 0)  -->
<svg version="1.1" id="Слой_1" xmlns="http://www.w3.org/2000/svg" xmlns:xlink="http://www.w3.org/1999/xlink" x="0px" y="0px"
	 viewBox="0 0 138.1 119.7" style="enable-background:new 0 0 138.1 119.7;" xml:space="preserve">
<style type="text/css">
	.st0{fill:url(#SVGID_1_);}
	.st1{fill:url(#SVGID_2_);}
	.st2{fill:url(#SVGID_3_);}
	.st3{fill:#FFFFFF;}
</style>
<linearGradient id="SVGID_1_" gradientUnits="userSpaceOnUse" x1="-130.3834" y1="149.3513" x2="-34.6756" y2="149.3513" gradientTransform="matrix(0.9722 -0.2339 0.2339 0.9722 92.3546 -92.1969)">
	<stop  offset="0" style="stop-color:#F3F8FA"/>
	<stop  offset="1" style="stop-color:#EAF0F4"/>
</linearGradient>
<path class="st0" d="M73.7,111.7L35,117.1c-15.7,2.2-30.2-8.9-32.1-24.7l-2.7-22c-1.3-10.9,3.7-21.5,13-27.4L31,31.8
	c11.9-7.6,27.6-5.2,36.8,5.6l23.6,27.8C105.8,82.3,95.8,108.6,73.7,111.7z"/>
<linearGradient id="SVGID_2_" gradientUnits="userSpaceOnUse" x1="246.1672" y1="-549.6305" x2="352.7118" y2="-549.6305" gradientTransform="matrix(0.4198 0.9076 -0.9076 0.4198 -534.7338 9.9826)">
	<stop  offset="0" style="stop-color:#F3F8FA"/>
	<stop  offset="1" style="stop-color:#EAF0F4"/>
</linearGradient>
<path class="st1" d="M67.4,88.3L38.3,38c-7.8-13.5,3.9-29.9,19.2-26.9l52.2,10.3c10.2,2,18.3,9.9,20.6,20.1l7.4,32.6
	c2.1,9.1-4.3,17.9-13.6,18.8l-40.4,3.8C77.1,97.3,70.7,94.1,67.4,88.3z"/>
<linearGradient id="SVGID_3_" gradientUnits="userSpaceOnUse" x1="-674.995" y1="16.8747" x2="-795.495" y2="120.8747" gradientTransform="matrix(-1 0 0 1 -659.8956 0)">
	<stop  offset="0" style="stop-color:#4194FF"/>
	<stop  offset="1" style="stop-color:#175FE1"/>
</linearGradient>
<path class="st2" d="M52.4,118.9l50.7-12.3c15.2-3.7,24.6-19,20.9-34.2l-12.3-50.7c-3.7-15.2-19-24.6-34.2-20.9L26.7,13.1
	c-15.2,3.7-24.6,19-20.9,34.2L18.2,98C21.8,113.2,37.2,122.6,52.4,118.9z"/>
<g>
	<path class="st3" d="M85.4,39.3c-5.5-5.5-12.8-8.5-20.5-8.5c-7.7,0-15,3-20.5,8.5c-5.5,5.5-8.5,12.8-8.5,20.5s3,15,8.5,20.5
		c5.5,5.5,12.8,8.5,20.5,8.5c7.7,0,15-3,20.5-8.5c5.5-5.5,8.5-12.8,8.5-20.5S90.9,44.8,85.4,39.3z M64.9,85.4
		c-14.1,0-25.6-11.5-25.6-25.6s11.5-25.6,25.6-25.6s25.6,11.5,25.6,25.6S79,85.4,64.9,85.4z"/>
	<path class="st3" d="M66.7,58.1h-3.6c-2.1,0-3.8-1.7-3.8-3.8c0-2.1,1.7-3.8,3.8-3.8h7.3c0.9,0,1.7-0.8,1.7-1.7s-0.8-1.7-1.7-1.7
		h-3.8v-3.8c0-0.9-0.8-1.7-1.7-1.7c-0.9,0-1.7,0.8-1.7,1.7v3.8h-0.1c-3.9,0-7.2,3.2-7.2,7.2s3.2,7.2,7.2,7.2h3.6
		c2.1,0,3.8,1.7,3.8,3.8s-1.7,3.8-3.8,3.8h-7.3c-0.9,0-1.7,0.8-1.7,1.7c0,0.9,0.8,1.7,1.7,1.7h3.8v3.8c0,0.9,0.8,1.7,1.7,1.7
		c0.9,0,1.7-0.8,1.7-1.7v-3.8h0.1c3.9,0,7.2-3.2,7.2-7.2S70.6,58.1,66.7,58.1z"/>
</g>
</svg>
