<?xml version="1.0" encoding="utf-8"?>
<!-- Generator: Adobe Illustrator 21.0.0, SVG Export Plug-In . SVG Version: 6.00 Build 0)  -->
<svg version="1.1" id="Слой_1" xmlns="http://www.w3.org/2000/svg" xmlns:xlink="http://www.w3.org/1999/xlink" x="0px" y="0px"
	 viewBox="0 0 138.1 119.7" style="enable-background:new 0 0 138.1 119.7;" xml:space="preserve">
<style type="text/css">
	.st0{fill:url(#SVGID_1_);}
	.st1{fill:url(#SVGID_2_);}
	.st2{fill:url(#SVGID_3_);}
	.st3{fill:#FFFFFF;}
</style>
<linearGradient id="SVGID_1_" gradientUnits="userSpaceOnUse" x1="-117.2115" y1="57.9433" x2="-21.5037" y2="57.9433" gradientTransform="matrix(0.9722 -0.2339 0.2339 0.9722 100.9329 -0.244)">
	<stop  offset="0" style="stop-color:#F3F8FA"/>
	<stop  offset="1" style="stop-color:#EAF0F4"/>
</linearGradient>
<path class="st0" d="M73.7,111.7L35,117.1c-15.7,2.2-30.2-8.9-32.1-24.7l-2.7-22c-1.3-10.9,3.7-21.5,13-27.4L31,31.8
	c11.9-7.6,27.6-5.2,36.8,5.6l23.6,27.8C105.8,82.3,95.8,108.6,73.7,111.7z"/>
<linearGradient id="SVGID_2_" gradientUnits="userSpaceOnUse" x1="464.64" y1="-188.2468" x2="571.1846" y2="-188.2468" gradientTransform="matrix(0.4198 0.9076 -0.9076 0.4198 -298.4396 -340.0083)">
	<stop  offset="0" style="stop-color:#F3F8FA"/>
	<stop  offset="1" style="stop-color:#EAF0F4"/>
</linearGradient>
<path class="st1" d="M67.4,88.3L38.3,38c-7.8-13.5,3.9-29.9,19.2-26.9l52.2,10.3c10.2,2,18.3,9.9,20.6,20.1l7.4,32.6
	c2.1,9.1-4.3,17.9-13.6,18.8l-40.4,3.8C77.1,97.3,70.7,94.1,67.4,88.3z"/>
<linearGradient id="SVGID_3_" gradientUnits="userSpaceOnUse" x1="108.7763" y1="16.8747" x2="-11.7237" y2="120.8747" gradientTransform="matrix(-1 0 0 1 123.8757 0)">
	<stop  offset="0" style="stop-color:#4194FF"/>
	<stop  offset="1" style="stop-color:#175FE1"/>
</linearGradient>
<path class="st2" d="M52.4,118.9l50.7-12.3c15.2-3.7,24.6-19,20.9-34.2l-12.3-50.7c-3.7-15.2-19-24.6-34.2-20.9L26.7,13.1
	c-15.2,3.7-24.6,19-20.9,34.2L18.2,98C21.8,113.2,37.2,122.6,52.4,118.9z"/>
<g>
	<path class="st3" d="M72.3,71.8c0.5-0.6,0.3-1.5-0.3-2l-5.7-4.2v-5.8c0-0.8-0.6-1.4-1.4-1.4c-0.8,0-1.4,0.6-1.4,1.4v5.8l-5.7,4.2
		c-0.6,0.5-0.8,1.4-0.3,2c0.5,0.6,1.4,0.8,2,0.3l5.4-4l5.4,4c0.3,0.2,0.6,0.3,0.9,0.3C71.6,72.4,72,72.2,72.3,71.8L72.3,71.8z
		 M72.3,71.8"/>
	<path class="st3" d="M64.9,44.8c3.5,0,6.3-2.8,6.3-6.3c0-3.5-2.8-6.3-6.3-6.3c-3.5,0-6.3,2.8-6.3,6.3C58.6,42,61.4,44.8,64.9,44.8
		L64.9,44.8z M64.9,35.1c1.9,0,3.4,1.5,3.4,3.4s-1.5,3.4-3.4,3.4s-3.4-1.5-3.4-3.4S63,35.1,64.9,35.1L64.9,35.1z M64.9,35.1"/>
	<path class="st3" d="M56.8,55.7H73c0.8,0,1.4-0.6,1.4-1.4v-3.6c0-2.6-2.1-4.7-4.7-4.7h-9.6c-2.6,0-4.7,2.1-4.7,4.7v3.6
		C55.3,55.1,56,55.7,56.8,55.7L56.8,55.7z M71.5,50.7v2.1h-5.2v-4h3.4C70.7,48.9,71.5,49.7,71.5,50.7L71.5,50.7z M58.2,50.7
		c0-1,0.8-1.8,1.8-1.8h3.4v4h-5.2V50.7z M58.2,50.7"/>
	<path class="st3" d="M49.1,76.5c3.5,0,6.3-2.8,6.3-6.3c0-3.5-2.8-6.3-6.3-6.3c-3.5,0-6.3,2.8-6.3,6.3
		C42.8,73.7,45.6,76.5,49.1,76.5L49.1,76.5z M49.1,66.8c1.9,0,3.4,1.5,3.4,3.4c0,1.9-1.5,3.4-3.4,3.4c-1.9,0-3.4-1.5-3.4-3.4
		C45.7,68.3,47.2,66.8,49.1,66.8L49.1,66.8z M49.1,66.8"/>
	<path class="st3" d="M53.9,77.8h-9.6c-2.6,0-4.7,2.1-4.7,4.7V86c0,0.8,0.6,1.4,1.4,1.4h16.2c0.8,0,1.4-0.6,1.4-1.4v-3.6
		C58.6,79.9,56.5,77.8,53.9,77.8L53.9,77.8z M42.4,82.5c0-1,0.8-1.8,1.8-1.8h3.4v4h-5.2V82.5z M55.7,84.6h-5.2v-4h3.4
		c1,0,1.8,0.8,1.8,1.8V84.6z M55.7,84.6"/>
	<path class="st3" d="M80.7,76.5c3.5,0,6.3-2.8,6.3-6.3c0-3.5-2.8-6.3-6.3-6.3c-3.5,0-6.3,2.8-6.3,6.3
		C74.4,73.7,77.2,76.5,80.7,76.5L80.7,76.5z M80.7,66.8c1.9,0,3.4,1.5,3.4,3.4c0,1.9-1.5,3.4-3.4,3.4c-1.9,0-3.4-1.5-3.4-3.4
		C77.2,68.3,78.8,66.8,80.7,66.8L80.7,66.8z M80.7,66.8"/>
	<path class="st3" d="M85.5,77.8h-9.6c-2.6,0-4.7,2.1-4.7,4.7V86c0,0.8,0.6,1.4,1.4,1.4h16.2c0.8,0,1.4-0.6,1.4-1.4v-3.6
		C90.2,79.9,88.1,77.8,85.5,77.8L85.5,77.8z M74,82.5c0-1,0.8-1.8,1.8-1.8h3.4v4H74V82.5z M87.3,84.6h-5.2v-4h3.4
		c1,0,1.8,0.8,1.8,1.8V84.6z M87.3,84.6"/>
</g>
</svg>
