<?xml version="1.0" encoding="utf-8"?>
<!-- Generator: Adobe Illustrator 21.0.0, SVG Export Plug-In . SVG Version: 6.00 Build 0)  -->
<svg version="1.1" id="Слой_1" xmlns="http://www.w3.org/2000/svg" xmlns:xlink="http://www.w3.org/1999/xlink" x="0px" y="0px"
	 viewBox="0 0 119.7 119.7" style="enable-background:new 0 0 119.7 119.7;" xml:space="preserve">
<style type="text/css">
	.st0{fill:url(#SVGID_1_);}
	.st1{fill:url(#SVGID_2_);}
	.st2{fill:#FFFFFF;}
</style>
<linearGradient id="SVGID_1_" gradientUnits="userSpaceOnUse" x1="-1363.2557" y1="1567.4465" x2="-1234.0251" y2="1567.4465" gradientTransform="matrix(0.2528 -0.6872 0.7042 0.2591 -715.4909 -1238.6637)">
	<stop  offset="0" style="stop-color:#F3F8FA"/>
	<stop  offset="1" style="stop-color:#EAF0F4"/>
</linearGradient>
<path class="st0" d="M117.4,42.1l-8.3,63.4c-1.1,8.4-9.6,13.8-17.9,11.2L13.1,92.9C6.6,91,2.4,84.8,3,78.2L8.8,20
	c0.8-8.2,8.8-13.8,17-11.9l80.6,18.5C113.6,28.3,118.4,35,117.4,42.1z"/>
<linearGradient id="SVGID_2_" gradientUnits="userSpaceOnUse" x1="109.6081" y1="16.8747" x2="-10.8919" y2="120.8747">
	<stop  offset="0" style="stop-color:#4194FF"/>
	<stop  offset="1" style="stop-color:#175FE1"/>
</linearGradient>
<path class="st1" d="M72.3,118.9l-50.7-12.3c-15.2-3.7-24.6-19-20.9-34.2l12.3-50.7c3.7-15.2,19-24.6,34.2-20.9L98,13.1
	c15.2,3.7,24.6,19,20.9,34.2L106.6,98C102.9,113.2,87.5,122.6,72.3,118.9z"/>
<path class="st2" d="M91.9,63c-1.8,0-3.8-2.1-5.4-5.7c-1.8-4.1-2.8-9.7-2.8-15.7v-0.7c0-0.6-0.5-1.1-1.1-1.1h-9
	c-0.6,0-1.1,0.5-1.1,1.1v0.5c0,5.9-1.4,11.5-4,15.6c-2.4,3.9-5.5,6-8.7,6c-3.2,0-6.3-2.1-8.7-6c-2.6-4.1-4-9.7-4-15.6v-0.5
	c0-0.6-0.5-1.1-1.1-1.1h-9c-0.6,0-1.1,0.5-1.1,1.1v0.7c0,5.9-1,11.5-2.8,15.7c-1.5,3.5-3.5,5.7-5.4,5.7v2.6c0,0.6,0.5,1.1,1.1,1.1h7
	v12c0,0.6,0.5,1.1,1.1,1.1h1.5c0.6,0,1.1-0.5,1.1-1.1v-4.5h3.8v4.5c0,0.6,0.5,1.1,1.1,1.1H46c0.6,0,1.1-0.5,1.1-1.1v-12h25.3v12
	c0,0.6,0.5,1.1,1.1,1.1h1.5c0.6,0,1.1-0.5,1.1-1.1v-4.5H80v4.5c0,0.6,0.5,1.1,1.1,1.1h1.5c0.6,0,1.1-0.5,1.1-1.1v-12h7
	c0.6,0,1.1-0.5,1.1-1.1V63z M76.3,59.2H80V63h-3.8V59.2z M80,43.5v11.9h-3.8V43.5H80z M39.7,59.2h3.8V63h-3.8V59.2z M43.4,43.5v11.9
	h-3.8V43.5H43.4z M34.2,63c0.6-0.8,1.2-1.7,1.7-2.7V63H34.2z M43.4,70.5h-3.8v-3.8h3.8V70.5z M47.2,63v-5.4c0.2,0.5,0.5,0.9,0.8,1.4
	c1,1.6,2,2.9,3.2,4L47.2,63L47.2,63z M68.5,63c1.2-1.1,2.2-2.4,3.2-4c0.3-0.4,0.5-0.9,0.8-1.4V63H68.5z M80,70.5h-3.8v-3.8H80V70.5z
	 M83.8,60.2c0.5,1,1.1,1.9,1.7,2.7h-1.7V60.2z"/>
</svg>
