<?xml version="1.0" encoding="utf-8"?>
<!-- Generator: Adobe Illustrator 21.0.0, SVG Export Plug-In . SVG Version: 6.00 Build 0)  -->
<svg version="1.1" id="Слой_1" xmlns="http://www.w3.org/2000/svg" xmlns:xlink="http://www.w3.org/1999/xlink" x="0px" y="0px"
	 viewBox="0 0 128.7 119.7" style="enable-background:new 0 0 128.7 119.7;" xml:space="preserve">
<style type="text/css">
	.st0{fill:url(#SVGID_1_);}
	.st1{fill:url(#SVGID_2_);}
	.st2{fill:#FFFFFF;}
</style>
<linearGradient id="SVGID_1_" gradientUnits="userSpaceOnUse" x1="-1069.205" y1="-482.5768" x2="-964.9742" y2="-482.5768" gradientTransform="matrix(0.9524 0.7169 -0.4856 0.6451 800.2884 1086.0648)">
	<stop  offset="0" style="stop-color:#F3F8FA"/>
	<stop  offset="1" style="stop-color:#EAF0F4"/>
</linearGradient>
<path class="st0" d="M77.1,110.8L4.1,43.2c-6.4-5.9-5.2-16,2.3-19.9L42.9,4.7C46,3.2,49.7,3,53.1,4.3l67.3,25.9
	c7.1,2.7,10.4,10.9,7,17.4l-30.8,60.3C92.9,115.1,83.2,116.5,77.1,110.8z"/>
<linearGradient id="SVGID_2_" gradientUnits="userSpaceOnUse" x1="113.7505" y1="16.8747" x2="-6.7495" y2="120.8747">
	<stop  offset="0" style="stop-color:#4194FF"/>
	<stop  offset="1" style="stop-color:#175FE1"/>
</linearGradient>
<path class="st1" d="M76.5,118.9l-50.7-12.3c-15.2-3.7-24.6-19-20.9-34.2l12.3-50.7c3.7-15.2,19-24.6,34.2-20.9l50.7,12.3
	c15.2,3.7,24.6,19,20.9,34.2L110.7,98C107,113.2,91.7,122.6,76.5,118.9z"/>
<path class="st2" d="M62.4,50c0-9.6-9.9-17.2-10.4-17.5c-0.6-0.4-1.4-0.4-1.9,0c-0.4,0.3-10.4,7.8-10.4,17.5
	c0,8.3,7.4,15.2,9.7,17.1v4.2c0,8.9,7.3,16.2,16.2,16.2s16.2-7.3,16.2-16.2V54.7c3.7-0.8,6.5-4,6.5-7.9v-6.5c0-0.9-0.7-1.6-1.6-1.6
	H85v-4.9c0-0.9-0.7-1.6-1.6-1.6c-0.9,0-1.6,0.7-1.6,1.6v4.9h-3.2v-4.9c0-0.9-0.7-1.6-1.6-1.6c-0.9,0-1.6,0.7-1.6,1.6v4.9h-1.6
	c-0.9,0-1.6,0.7-1.6,1.6v6.5c0,3.9,2.8,7.2,6.5,7.9v16.6c0,3.4-1.3,6.6-3.5,8.9c0.2-0.8,0.3-1.6,0.3-2.4c0-5.4-4.4-9.7-9.7-9.7
	s-9.7,4.4-9.7,9.7c0,0.8,0.1,1.6,0.3,2.4c-2.2-2.3-3.5-5.5-3.5-8.9v-4.2C54.9,65.2,62.4,58.3,62.4,50z M75.3,46.8v-4.9H85v4.9
	c0,2.7-2.2,4.9-4.9,4.9C77.5,51.6,75.3,49.4,75.3,46.8z M65.6,71.3c3.6,0,6.5,2.9,6.5,6.5s-2.9,6.5-6.5,6.5s-6.5-2.9-6.5-6.5
	S62,71.3,65.6,71.3z M42.9,50c0-6.4,5.8-12.1,8.1-14.1c2.3,2,8.1,7.7,8.1,14.1c0,5.2-3.8,10-6.5,12.7v-5.5l2.8-2.8
	c0.6-0.6,0.6-1.7,0-2.3c-0.6-0.6-1.7-0.6-2.3,0l-0.5,0.5v-5.1l2.8-2.8c0.6-0.6,0.6-1.7,0-2.3c-0.6-0.6-1.7-0.6-2.3,0L51,44.5
	l-2.1-2.1c-0.6-0.6-1.7-0.6-2.3,0C46,43,46,44,46.6,44.7l2.8,2.8v5.1l-0.5-0.5c-0.6-0.6-1.7-0.6-2.3,0c-0.6,0.6-0.6,1.7,0,2.3
	l2.8,2.8v5.5C46.7,60,42.9,55.2,42.9,50z"/>
</svg>
