<?xml version="1.0" encoding="utf-8"?>
<!-- Generator: Adobe Illustrator 21.0.0, SVG Export Plug-In . SVG Version: 6.00 Build 0)  -->
<svg version="1.1" id="Слой_1" xmlns="http://www.w3.org/2000/svg" xmlns:xlink="http://www.w3.org/1999/xlink" x="0px" y="0px"
	 viewBox="0 0 120.4 119.8" style="enable-background:new 0 0 120.4 119.8;" xml:space="preserve">
<style type="text/css">
	.st0{fill:url(#SVGID_1_);}
	.st1{fill:url(#SVGID_2_);}
	.st2{fill:#FFFFFF;}
</style>
<linearGradient id="SVGID_1_" gradientUnits="userSpaceOnUse" x1="439.4733" y1="-563.7922" x2="569.1084" y2="-563.7922" gradientTransform="matrix(0.5139 0.8143 -0.7589 0.4789 -632.0769 -79.3743)">
	<stop  offset="0" style="stop-color:#F3F8FA"/>
	<stop  offset="1" style="stop-color:#EAF0F4"/>
</linearGradient>
<path class="st0" d="M1.9,62.7l46.5,51.9c4.4,4.9,11.2,6.5,16.8,4.1l51.3-22.5c3.6-1.6,4.9-6,3-9.7L93,36.4
	c-6.4-12.2-17.2-21.5-29.9-25.7L36.7,1.9c-2.9-1-6,0.2-7.5,2.8L0.9,54.4C-0.6,57-0.2,60.4,1.9,62.7z"/>
<linearGradient id="SVGID_2_" gradientUnits="userSpaceOnUse" x1="-643.9665" y1="16.8747" x2="-764.4665" y2="120.8747" gradientTransform="matrix(-1 0 0 1 -633.4831 0)">
	<stop  offset="0" style="stop-color:#4194FF"/>
	<stop  offset="1" style="stop-color:#175FE1"/>
</linearGradient>
<path class="st1" d="M47.8,118.9l50.7-12.3c15.2-3.7,24.6-19,20.9-34.2L107,21.7C103.3,6.4,88-2.9,72.7,0.8L22.1,13.1
	C6.9,16.8-2.5,32.1,1.2,47.3L13.5,98C17.2,113.2,32.6,122.6,47.8,118.9z"/>
<path class="st2" d="M84.2,54.7c-2.2,0-4.1,1.4-4.8,3.4h-3.9c-0.3-2.9-1.5-5.6-3.3-7.8l2.7-2.7c1.9,0.9,4.2,0.6,5.8-1
	c2-2,2-5.2,0-7.2c-2-2-5.2-2-7.2,0c-1.6,1.6-1.9,3.9-1,5.8l-2.7,2.7c-2.2-1.8-4.9-2.9-7.8-3.3v-3.9c2-0.7,3.4-2.6,3.4-4.8
	c0-2.8-2.3-5.1-5.1-5.1c-2.8,0-5.1,2.3-5.1,5.1c0,2.2,1.4,4.1,3.4,4.8v3.9c-2.9,0.3-5.6,1.5-7.8,3.3L48,45.2c0.9-1.9,0.6-4.2-1-5.8
	c-2-2-5.2-2-7.2,0c-2,2-2,5.2,0,7.2c1.6,1.6,3.9,1.9,5.8,1l2.7,2.7c-1.8,2.2-2.9,4.9-3.3,7.8h-3.9c-0.7-2-2.6-3.4-4.8-3.4
	c-2.8,0-5.1,2.3-5.1,5.1c0,2.8,2.3,5.1,5.1,5.1c2.2,0,4.1-1.4,4.8-3.4h3.9c0.3,2.9,1.5,5.6,3.3,7.8l-2.7,2.7c-1.9-0.9-4.2-0.6-5.8,1
	c-2,2-2,5.2,0,7.2c2,2,5.2,2,7.2,0c1.6-1.6,1.9-3.9,1-5.8l2.7-2.7c2.2,1.8,4.9,2.9,7.8,3.3v3.9c-2,0.7-3.4,2.6-3.4,4.8
	c0,2.8,2.3,5.1,5.1,5.1s5.1-2.3,5.1-5.1c0-2.2-1.4-4.1-3.4-4.8V75c2.9-0.3,5.6-1.5,7.8-3.3l2.7,2.7c-0.9,1.9-0.6,4.2,1,5.8
	c2,2,5.2,2,7.2,0c2-2,2-5.2,0-7.2c-1.6-1.6-3.9-1.9-5.8-1l-2.7-2.7c1.8-2.2,2.9-4.9,3.3-7.8h3.9c0.7,2,2.6,3.4,4.8,3.4
	c2.8,0,5.1-2.3,5.1-5.1C89.3,57,87,54.7,84.2,54.7z M65.2,70.6c1.2-2.7,1.7-6.1,1.8-9.1h5C71.4,65.6,68.8,69,65.2,70.6z M48.5,61.5
	h5c0.1,3,0.6,6.4,1.8,9.1C51.7,69,49.1,65.6,48.5,61.5z M55.3,49c-1.2,2.7-1.7,6.1-1.8,9.1h-5C49.1,54.1,51.7,50.7,55.3,49z
	 M72,58.1h-5c-0.1-3-0.6-6.4-1.8-9.1C68.8,50.7,71.4,54.1,72,58.1z M62.3,50.8c0.7,2,1.2,4.5,1.3,7.3h-6.7c0.1-2.8,0.6-5.3,1.3-7.3
	c0.9-2.3,1.8-2.9,2-2.9C60.5,47.9,61.4,48.5,62.3,50.8z M58.2,68.8c-0.7-2-1.2-4.6-1.3-7.3h6.7c-0.1,2.8-0.6,5.4-1.3,7.3
	c-0.9,2.3-1.8,2.9-2,2.9C60,71.7,59.1,71.2,58.2,68.8z M75.9,41.8c0.7-0.7,1.7-0.7,2.4,0c0.7,0.7,0.7,1.7,0,2.4
	c-0.7,0.7-1.7,0.7-2.4,0C75.2,43.6,75.2,42.5,75.9,41.8z M60.3,34.2c0.9,0,1.7,0.8,1.7,1.7c0,0.9-0.8,1.7-1.7,1.7
	c-0.9,0-1.7-0.8-1.7-1.7C58.6,35,59.3,34.2,60.3,34.2z M42.2,44.2c-0.7-0.7-0.7-1.7,0-2.4c0.7-0.7,1.7-0.7,2.4,0
	c0.7,0.7,0.7,1.7,0,2.4C44,44.9,42.9,44.9,42.2,44.2z M36.4,61.5c-0.9,0-1.7-0.8-1.7-1.7c0-0.9,0.8-1.7,1.7-1.7
	c0.9,0,1.7,0.8,1.7,1.7C38.1,60.8,37.3,61.5,36.4,61.5z M44.6,77.9c-0.7,0.7-1.7,0.7-2.4,0c-0.7-0.7-0.7-1.7,0-2.4
	c0.7-0.7,1.7-0.7,2.4,0C45.3,76.1,45.3,77.2,44.6,77.9z M60.3,85.4c-0.9,0-1.7-0.8-1.7-1.7s0.8-1.7,1.7-1.7c0.9,0,1.7,0.8,1.7,1.7
	S61.2,85.4,60.3,85.4z M78.3,75.5c0.7,0.7,0.7,1.7,0,2.4c-0.7,0.7-1.7,0.7-2.4,0c-0.7-0.7-0.7-1.7,0-2.4
	C76.5,74.8,77.6,74.8,78.3,75.5z M84.2,61.5c-0.9,0-1.7-0.8-1.7-1.7c0-0.9,0.8-1.7,1.7-1.7s1.7,0.8,1.7,1.7
	C85.9,60.8,85.1,61.5,84.2,61.5z"/>
</svg>
