<?xml version="1.0" encoding="UTF-8"?>
<svg width="388px" height="311px" viewBox="0 0 388 311" version="1.1" xmlns="http://www.w3.org/2000/svg" xmlns:xlink="http://www.w3.org/1999/xlink">
    <!-- Generator: Sketch 44.1 (41455) - http://www.bohemiancoding.com/sketch -->
    <title>Secure Data Anchoring</title>
    <desc>Created with Sketch.</desc>
    <defs>
        <path d="M0.0379702012,10.303243 C2.2803777,6.3504858 7.19191943,0.439008404 14.881523,0.439008404 C22.5711266,0.439008404 26.9785061,6.20859615 29.7250758,10.0119988 C20.1123637,20.1814471 15.3060076,25.2661712 15.3060076,25.2661712 C15.3060076,25.2661712 10.2166618,20.2785284 0.0379702012,10.303243 Z" id="path-1"></path>
        <linearGradient x1="50%" y1="0%" x2="50%" y2="100%" id="linearGradient-3">
            <stop stop-color="#00FF70" offset="0%"></stop>
            <stop stop-color="#00C7BA" offset="100%"></stop>
        </linearGradient>
        <linearGradient x1="50%" y1="0%" x2="50%" y2="100%" id="linearGradient-4">
            <stop stop-color="#DDE9F0" offset="0%"></stop>
            <stop stop-color="#A1BCCB" offset="100%"></stop>
        </linearGradient>
        <linearGradient x1="57.76496%" y1="-69.866632%" x2="59.9278225%" y2="100%" id="linearGradient-5">
            <stop stop-color="#A4CAFF" offset="0%"></stop>
            <stop stop-color="#D1E7FF" offset="100%"></stop>
        </linearGradient>
        <linearGradient x1="-17.7171674%" y1="-40.7555921%" x2="100%" y2="100%" id="linearGradient-6">
            <stop stop-color="#A5C1CC" offset="0%"></stop>
            <stop stop-color="#BED2E0" offset="100%"></stop>
        </linearGradient>
        <linearGradient x1="4.0870361%" y1="53.0436052%" x2="100%" y2="47.7084461%" id="linearGradient-7">
            <stop stop-color="#00B0FD" offset="0%"></stop>
            <stop stop-color="#61DEF7" offset="48.0638512%"></stop>
            <stop stop-color="#42E4D6" offset="100%"></stop>
        </linearGradient>
        <linearGradient x1="50%" y1="3.061617e-15%" x2="52.7720414%" y2="97.3752392%" id="linearGradient-8">
            <stop stop-color="#5BADFF" offset="0%"></stop>
            <stop stop-color="#97F2FF" offset="100%"></stop>
        </linearGradient>
        <linearGradient x1="50%" y1="0%" x2="53.5179766%" y2="100%" id="linearGradient-9">
            <stop stop-color="#D5E9F1" offset="0%"></stop>
            <stop stop-color="#DEECF5" offset="100%"></stop>
        </linearGradient>
        <linearGradient x1="0%" y1="-12.4982933%" x2="100%" y2="100%" id="linearGradient-10">
            <stop stop-color="#7DB3FF" offset="0%"></stop>
            <stop stop-color="#D1E7FF" offset="100%"></stop>
        </linearGradient>
        <linearGradient x1="3.99761373%" y1="50%" x2="100%" y2="50%" id="linearGradient-11">
            <stop stop-color="#34BBF7" offset="0%"></stop>
            <stop stop-color="#5DD3FF" offset="11.6308061%"></stop>
            <stop stop-color="#8DEEFF" offset="45.6582428%"></stop>
            <stop stop-color="#85FBF8" offset="85.0558814%"></stop>
            <stop stop-color="#6DEDE2" offset="100%"></stop>
        </linearGradient>
        <linearGradient x1="52.7720392%" y1="-70.2263683%" x2="52.7720414%" y2="97.3752392%" id="linearGradient-12">
            <stop stop-color="#5BADFF" offset="0%"></stop>
            <stop stop-color="#97F2FF" offset="100%"></stop>
        </linearGradient>
        <linearGradient x1="50%" y1="0%" x2="33.9682971%" y2="92.5266392%" id="linearGradient-13">
            <stop stop-color="#A1C4F5" offset="0%"></stop>
            <stop stop-color="#EAEFF6" offset="100%"></stop>
        </linearGradient>
        <linearGradient x1="0%" y1="43.9992539%" x2="100%" y2="43.9992547%" id="linearGradient-14">
            <stop stop-color="#89B3ED" offset="0%"></stop>
            <stop stop-color="#AECCF8" offset="12.0079204%"></stop>
            <stop stop-color="#DEECFF" offset="58.9853233%"></stop>
            <stop stop-color="#BCD3F2" offset="100%"></stop>
        </linearGradient>
        <linearGradient x1="88.5398944%" y1="41.2875742%" x2="0%" y2="41.2875742%" id="linearGradient-15">
            <stop stop-color="#03E2AF" offset="0%"></stop>
            <stop stop-color="#09EEB1" offset="8.36802764%"></stop>
            <stop stop-color="#30F79D" offset="45.4847947%"></stop>
            <stop stop-color="#0EE481" offset="82.6472308%"></stop>
            <stop stop-color="#00B35F" offset="100%"></stop>
        </linearGradient>
        <linearGradient x1="0%" y1="-28.7702255%" x2="100%" y2="115.939177%" id="linearGradient-16">
            <stop stop-color="#4E68E9" offset="0%"></stop>
            <stop stop-color="#879FFA" offset="51.0047977%"></stop>
            <stop stop-color="#1F4EE5" offset="100%"></stop>
        </linearGradient>
        <linearGradient x1="0%" y1="-12.4982933%" x2="100%" y2="100%" id="linearGradient-17">
            <stop stop-color="#D2D8FF" offset="0%"></stop>
            <stop stop-color="#D1E7FF" offset="100%"></stop>
        </linearGradient>
        <linearGradient x1="50%" y1="0%" x2="34.0050407%" y2="92.3145744%" id="linearGradient-18">
            <stop stop-color="#C8BFF3" offset="0%"></stop>
            <stop stop-color="#92B1ED" offset="100%"></stop>
        </linearGradient>
        <linearGradient x1="44.2699472%" y1="85.5575214%" x2="44.2699472%" y2="-2.98237301%" id="linearGradient-19">
            <stop stop-color="#03E2AF" offset="0%"></stop>
            <stop stop-color="#09EEB1" offset="8.36802764%"></stop>
            <stop stop-color="#30F79D" offset="45.4847947%"></stop>
            <stop stop-color="#0EE481" offset="82.6472308%"></stop>
            <stop stop-color="#00B35F" offset="100%"></stop>
        </linearGradient>
        <linearGradient x1="50%" y1="0%" x2="34.0050407%" y2="92.3145744%" id="linearGradient-20">
            <stop stop-color="#755CEA" offset="0%"></stop>
            <stop stop-color="#4D85ED" offset="100%"></stop>
        </linearGradient>
        <linearGradient x1="50%" y1="100%" x2="145.61066%" y2="31.8092761%" id="linearGradient-21">
            <stop stop-color="#AFB5FA" offset="0%"></stop>
            <stop stop-color="#1F4EE5" offset="100%"></stop>
        </linearGradient>
        <polygon id="path-22" points="0.0587617684 0.232079645 7.97674928 0.232079645 7.83855419 5.18990477 0.422114837 5.58712042"></polygon>
        <linearGradient x1="100%" y1="30.0079226%" x2="-3.2049512%" y2="30.0079234%" id="linearGradient-24">
            <stop stop-color="#2A7BE2" offset="0%"></stop>
            <stop stop-color="#3E80EC" offset="42.232595%"></stop>
            <stop stop-color="#1345C1" offset="100%"></stop>
        </linearGradient>
        <linearGradient x1="50%" y1="0%" x2="33.9682971%" y2="92.5266392%" id="linearGradient-25">
            <stop stop-color="#F3F8FA" offset="0%"></stop>
            <stop stop-color="#EAF0F4" offset="100%"></stop>
        </linearGradient>
        <radialGradient cx="63.5030806%" cy="36.109667%" fx="63.5030806%" fy="36.109667%" r="44.7377607%" gradientTransform="translate(0.635031,0.361097),scale(1.000000,0.999159),rotate(-90.000000),scale(1.000000,0.991772),translate(-0.635031,-0.361097)" id="radialGradient-26">
            <stop stop-color="#8E9DF8" stop-opacity="0.83" offset="0%"></stop>
            <stop stop-color="#0029F3" offset="100%"></stop>
        </radialGradient>
        <ellipse id="path-27" cx="18.4272446" cy="18.4427481" rx="18.4272446" ry="18.4427481"></ellipse>
        <filter x="-25.8%" y="-25.8%" width="151.6%" height="151.5%" filterUnits="objectBoundingBox" id="filter-28">
            <feGaussianBlur stdDeviation="6.5" in="SourceAlpha" result="shadowBlurInner1"></feGaussianBlur>
            <feOffset dx="3" dy="-4" in="shadowBlurInner1" result="shadowOffsetInner1"></feOffset>
            <feComposite in="shadowOffsetInner1" in2="SourceAlpha" operator="arithmetic" k2="-1" k3="1" result="shadowInnerInner1"></feComposite>
            <feColorMatrix values="0 0 0 0 0   0 0 0 0 0.191903283   0 0 0 0 0.919536565  0 0 0 1 0" type="matrix" in="shadowInnerInner1"></feColorMatrix>
        </filter>
        <rect id="path-29" x="0" y="0" width="18.6440357" height="24.7349798" rx="3"></rect>
        <filter x="-292.3%" y="-192.0%" width="684.6%" height="540.7%" filterUnits="objectBoundingBox" id="filter-30">
            <feOffset dx="0" dy="7" in="SourceAlpha" result="shadowOffsetOuter1"></feOffset>
            <feGaussianBlur stdDeviation="17" in="shadowOffsetOuter1" result="shadowBlurOuter1"></feGaussianBlur>
            <feColorMatrix values="0 0 0 0 0.295112344   0 0 0 0 0.460989234   0 0 0 0 0.61591199  0 0 0 0.3 0" type="matrix" in="shadowBlurOuter1"></feColorMatrix>
        </filter>
        <radialGradient cx="63.5030806%" cy="36.109667%" fx="63.5030806%" fy="36.109667%" r="60.0457883%" gradientTransform="translate(0.635031,0.361097),scale(1.000000,0.999159),rotate(-90.000000),scale(1.000000,0.991772),translate(-0.635031,-0.361097)" id="radialGradient-31">
            <stop stop-color="#8E9DF7" stop-opacity="0" offset="0%"></stop>
            <stop stop-color="#002AF2" stop-opacity="0.5" offset="100%"></stop>
        </radialGradient>
        <ellipse id="path-32" cx="18.4272446" cy="18.4427481" rx="18.4272446" ry="18.4427481"></ellipse>
        <filter x="-25.8%" y="-25.8%" width="151.6%" height="151.5%" filterUnits="objectBoundingBox" id="filter-33">
            <feGaussianBlur stdDeviation="6.5" in="SourceAlpha" result="shadowBlurInner1"></feGaussianBlur>
            <feOffset dx="3" dy="-4" in="shadowBlurInner1" result="shadowOffsetInner1"></feOffset>
            <feComposite in="shadowOffsetInner1" in2="SourceAlpha" operator="arithmetic" k2="-1" k3="1" result="shadowInnerInner1"></feComposite>
            <feColorMatrix values="0 0 0 0 0   0 0 0 0 0.191903283   0 0 0 0 0.919536565  0 0 0 1 0" type="matrix" in="shadowInnerInner1"></feColorMatrix>
        </filter>
        <radialGradient cx="63.5030806%" cy="36.109667%" fx="63.5030806%" fy="36.109667%" r="44.7377607%" gradientTransform="translate(0.635031,0.361097),scale(1.000000,0.999159),rotate(-90.000000),scale(1.000000,0.991772),translate(-0.635031,-0.361097)" id="radialGradient-34">
            <stop stop-color="#8E9DF8" stop-opacity="0.83" offset="0%"></stop>
            <stop stop-color="#0029F3" offset="100%"></stop>
        </radialGradient>
        <ellipse id="path-35" cx="16.9876161" cy="17.0019084" rx="16.9876161" ry="17.0019084"></ellipse>
        <filter x="-28.0%" y="-27.9%" width="155.9%" height="155.9%" filterUnits="objectBoundingBox" id="filter-36">
            <feGaussianBlur stdDeviation="6.5" in="SourceAlpha" result="shadowBlurInner1"></feGaussianBlur>
            <feOffset dx="3" dy="-4" in="shadowBlurInner1" result="shadowOffsetInner1"></feOffset>
            <feComposite in="shadowOffsetInner1" in2="SourceAlpha" operator="arithmetic" k2="-1" k3="1" result="shadowInnerInner1"></feComposite>
            <feColorMatrix values="0 0 0 0 0   0 0 0 0 0.191903283   0 0 0 0 0.919536565  0 0 0 1 0" type="matrix" in="shadowInnerInner1"></feColorMatrix>
        </filter>
        <rect id="path-37" x="0" y="0" width="17.1874704" height="22.8025595" rx="3"></rect>
        <filter x="-317.1%" y="-208.3%" width="734.2%" height="578.0%" filterUnits="objectBoundingBox" id="filter-38">
            <feOffset dx="0" dy="7" in="SourceAlpha" result="shadowOffsetOuter1"></feOffset>
            <feGaussianBlur stdDeviation="17" in="shadowOffsetOuter1" result="shadowBlurOuter1"></feGaussianBlur>
            <feColorMatrix values="0 0 0 0 0.295112344   0 0 0 0 0.460989234   0 0 0 0 0.61591199  0 0 0 0.3 0" type="matrix" in="shadowBlurOuter1"></feColorMatrix>
        </filter>
        <radialGradient cx="63.5030806%" cy="36.109667%" fx="63.5030806%" fy="36.109667%" r="60.0457883%" gradientTransform="translate(0.635031,0.361097),scale(1.000000,0.999159),rotate(-90.000000),scale(1.000000,0.991772),translate(-0.635031,-0.361097)" id="radialGradient-39">
            <stop stop-color="#8E9DF7" stop-opacity="0" offset="0%"></stop>
            <stop stop-color="#002AF2" stop-opacity="0.5" offset="100%"></stop>
        </radialGradient>
        <ellipse id="path-40" cx="16.9876161" cy="17.0019084" rx="16.9876161" ry="17.0019084"></ellipse>
        <filter x="-28.0%" y="-27.9%" width="155.9%" height="155.9%" filterUnits="objectBoundingBox" id="filter-41">
            <feGaussianBlur stdDeviation="6.5" in="SourceAlpha" result="shadowBlurInner1"></feGaussianBlur>
            <feOffset dx="3" dy="-4" in="shadowBlurInner1" result="shadowOffsetInner1"></feOffset>
            <feComposite in="shadowOffsetInner1" in2="SourceAlpha" operator="arithmetic" k2="-1" k3="1" result="shadowInnerInner1"></feComposite>
            <feColorMatrix values="0 0 0 0 0   0 0 0 0 0.191903283   0 0 0 0 0.919536565  0 0 0 1 0" type="matrix" in="shadowInnerInner1"></feColorMatrix>
        </filter>
        <linearGradient x1="50%" y1="100%" x2="50%" y2="3.061617e-15%" id="linearGradient-42">
            <stop stop-color="#596EEB" offset="0%"></stop>
            <stop stop-color="#1F4EE5" offset="100%"></stop>
        </linearGradient>
        <radialGradient cx="63.5030806%" cy="36.109667%" fx="63.5030806%" fy="36.109667%" r="44.7377607%" gradientTransform="translate(0.635031,0.361097),scale(1.000000,0.999159),rotate(-90.000000),scale(1.000000,0.991772),translate(-0.635031,-0.361097)" id="radialGradient-43">
            <stop stop-color="#8E9DF8" stop-opacity="0.83" offset="0%"></stop>
            <stop stop-color="#0029F3" offset="100%"></stop>
        </radialGradient>
        <ellipse id="path-44" cx="17.8513932" cy="17.8664122" rx="17.8513932" ry="17.8664122"></ellipse>
        <filter x="-26.6%" y="-26.6%" width="153.2%" height="153.2%" filterUnits="objectBoundingBox" id="filter-45">
            <feGaussianBlur stdDeviation="6.5" in="SourceAlpha" result="shadowBlurInner1"></feGaussianBlur>
            <feOffset dx="3" dy="-4" in="shadowBlurInner1" result="shadowOffsetInner1"></feOffset>
            <feComposite in="shadowOffsetInner1" in2="SourceAlpha" operator="arithmetic" k2="-1" k3="1" result="shadowInnerInner1"></feComposite>
            <feColorMatrix values="0 0 0 0 0   0 0 0 0 0.191903283   0 0 0 0 0.919536565  0 0 0 1 0" type="matrix" in="shadowInnerInner1"></feColorMatrix>
        </filter>
        <rect id="path-46" x="0" y="0" width="18.0614096" height="23.9620117" rx="3"></rect>
        <filter x="-301.7%" y="-198.2%" width="703.5%" height="554.9%" filterUnits="objectBoundingBox" id="filter-47">
            <feOffset dx="0" dy="7" in="SourceAlpha" result="shadowOffsetOuter1"></feOffset>
            <feGaussianBlur stdDeviation="17" in="shadowOffsetOuter1" result="shadowBlurOuter1"></feGaussianBlur>
            <feColorMatrix values="0 0 0 0 0.295112344   0 0 0 0 0.460989234   0 0 0 0 0.61591199  0 0 0 0.3 0" type="matrix" in="shadowBlurOuter1"></feColorMatrix>
        </filter>
        <radialGradient cx="63.5030806%" cy="36.109667%" fx="63.5030806%" fy="36.109667%" r="60.0457883%" gradientTransform="translate(0.635031,0.361097),scale(1.000000,0.999159),rotate(-90.000000),scale(1.000000,0.991772),translate(-0.635031,-0.361097)" id="radialGradient-48">
            <stop stop-color="#8E9DF7" stop-opacity="0" offset="0%"></stop>
            <stop stop-color="#002AF2" stop-opacity="0.5" offset="100%"></stop>
        </radialGradient>
        <ellipse id="path-49" cx="17.8513932" cy="17.8664122" rx="17.8513932" ry="17.8664122"></ellipse>
        <filter x="-23.8%" y="-23.8%" width="147.6%" height="147.6%" filterUnits="objectBoundingBox" id="filter-50">
            <feGaussianBlur stdDeviation="6.5" in="SourceAlpha" result="shadowBlurInner1"></feGaussianBlur>
            <feOffset dx="3" dy="-4" in="shadowBlurInner1" result="shadowOffsetInner1"></feOffset>
            <feComposite in="shadowOffsetInner1" in2="SourceAlpha" operator="arithmetic" k2="-1" k3="1" result="shadowInnerInner1"></feComposite>
            <feColorMatrix values="0 0 0 0 0   0 0 0 0 0.191903283   0 0 0 0 0.919536565  0 0 0 1 0" type="matrix" in="shadowInnerInner1"></feColorMatrix>
        </filter>
        <radialGradient cx="63.5030806%" cy="36.109667%" fx="63.5030806%" fy="36.109667%" r="44.7377607%" gradientTransform="translate(0.635031,0.361097),scale(1.000000,0.999159),rotate(-90.000000),scale(1.000000,0.991772),translate(-0.635031,-0.361097)" id="radialGradient-51">
            <stop stop-color="#8E9DF8" stop-opacity="0.83" offset="0%"></stop>
            <stop stop-color="#0029F3" offset="100%"></stop>
        </radialGradient>
        <ellipse id="path-52" cx="20.9397926" cy="20.95741" rx="20.9397926" ry="20.95741"></ellipse>
        <filter x="-22.7%" y="-22.7%" width="145.4%" height="145.3%" filterUnits="objectBoundingBox" id="filter-53">
            <feGaussianBlur stdDeviation="6.5" in="SourceAlpha" result="shadowBlurInner1"></feGaussianBlur>
            <feOffset dx="3" dy="-4" in="shadowBlurInner1" result="shadowOffsetInner1"></feOffset>
            <feComposite in="shadowOffsetInner1" in2="SourceAlpha" operator="arithmetic" k2="-1" k3="1" result="shadowInnerInner1"></feComposite>
            <feColorMatrix values="0 0 0 0 0   0 0 0 0 0.191903283   0 0 0 0 0.919536565  0 0 0 1 0" type="matrix" in="shadowInnerInner1"></feColorMatrix>
        </filter>
        <rect id="path-54" x="0" y="0" width="21.1861431" height="28.1075852" rx="3"></rect>
        <filter x="-257.2%" y="-169.0%" width="614.5%" height="487.8%" filterUnits="objectBoundingBox" id="filter-55">
            <feOffset dx="0" dy="7" in="SourceAlpha" result="shadowOffsetOuter1"></feOffset>
            <feGaussianBlur stdDeviation="17" in="shadowOffsetOuter1" result="shadowBlurOuter1"></feGaussianBlur>
            <feColorMatrix values="0 0 0 0 0.295112344   0 0 0 0 0.460989234   0 0 0 0 0.61591199  0 0 0 0.3 0" type="matrix" in="shadowBlurOuter1"></feColorMatrix>
        </filter>
        <radialGradient cx="63.5030806%" cy="36.109667%" fx="63.5030806%" fy="36.109667%" r="60.0457883%" gradientTransform="translate(0.635031,0.361097),scale(1.000000,0.999159),rotate(-90.000000),scale(1.000000,0.991772),translate(-0.635031,-0.361097)" id="radialGradient-56">
            <stop stop-color="#8E9DF7" stop-opacity="0" offset="0%"></stop>
            <stop stop-color="#002AF2" stop-opacity="0.5" offset="100%"></stop>
        </radialGradient>
        <ellipse id="path-57" cx="20.9397926" cy="20.95741" rx="20.9397926" ry="20.95741"></ellipse>
        <filter x="-22.7%" y="-22.7%" width="145.4%" height="145.3%" filterUnits="objectBoundingBox" id="filter-58">
            <feGaussianBlur stdDeviation="6.5" in="SourceAlpha" result="shadowBlurInner1"></feGaussianBlur>
            <feOffset dx="3" dy="-4" in="shadowBlurInner1" result="shadowOffsetInner1"></feOffset>
            <feComposite in="shadowOffsetInner1" in2="SourceAlpha" operator="arithmetic" k2="-1" k3="1" result="shadowInnerInner1"></feComposite>
            <feColorMatrix values="0 0 0 0 0   0 0 0 0 0.191903283   0 0 0 0 0.919536565  0 0 0 1 0" type="matrix" in="shadowInnerInner1"></feColorMatrix>
        </filter>
        <rect id="path-59" x="0" y="0" width="25.9133127" height="25.9351145" rx="12.9566563"></rect>
        <filter x="-210.3%" y="-183.1%" width="520.6%" height="520.3%" filterUnits="objectBoundingBox" id="filter-60">
            <feOffset dx="0" dy="7" in="SourceAlpha" result="shadowOffsetOuter1"></feOffset>
            <feGaussianBlur stdDeviation="17" in="shadowOffsetOuter1" result="shadowBlurOuter1"></feGaussianBlur>
            <feColorMatrix values="0 0 0 0 0.295112344   0 0 0 0 0.460989234   0 0 0 0 0.61591199  0 0 0 0.3 0" type="matrix" in="shadowBlurOuter1"></feColorMatrix>
        </filter>
        <linearGradient x1="50%" y1="0%" x2="50%" y2="97.7678571%" id="linearGradient-61">
            <stop stop-color="#00FF70" offset="0%"></stop>
            <stop stop-color="#28FFB9" offset="100%"></stop>
        </linearGradient>
        <rect id="path-62" x="0" y="0" width="25.9133127" height="25.9351145" rx="12.9566563"></rect>
        <filter x="-210.3%" y="-183.1%" width="520.6%" height="520.3%" filterUnits="objectBoundingBox" id="filter-63">
            <feOffset dx="0" dy="7" in="SourceAlpha" result="shadowOffsetOuter1"></feOffset>
            <feGaussianBlur stdDeviation="17" in="shadowOffsetOuter1" result="shadowBlurOuter1"></feGaussianBlur>
            <feColorMatrix values="0 0 0 0 0.295112344   0 0 0 0 0.460989234   0 0 0 0 0.61591199  0 0 0 0.3 0" type="matrix" in="shadowBlurOuter1"></feColorMatrix>
        </filter>
    </defs>
    <g id="Homepage" stroke="none" stroke-width="1" fill="none" fill-rule="evenodd">
        <g id="IOTA-Homepage--Desktop-HD-" transform="translate(-793.000000, -3952.000000)">
            <g id="//Content" transform="translate(-514.000000, 799.000000)">
                <g id="Only-with-IOTA" transform="translate(722.000000, 3019.000000)">
                    <g id="2-columns" transform="translate(0.000000, 134.000000)">
                        <g id="2" transform="translate(585.000000, 0.000000)">
                            <g id="Secure-Data-Anchoring">
                                <rect id="Rectangle-7" fill="#FFFFFF" x="0" y="0" width="360" height="302"></rect>
                                <g id="weather-sensor" transform="translate(5.000000, 21.000000)">
                                    <g id="Group-50">
                                        <polygon id="Fill-1" fill="#A2BFD0" points="174.481641 116.967875 175.088678 116.997079 175.700575 116.991725 176.274563 116.951326 176.771274 116.879289 177.156687 116.779994 177.405043 116.66123 177.49933 116.530298 177.516827 115.425404 182.239955 116.562423 167.561222 119.423952 160.813826 117.720371 172.821887 115.430271 172.807307 116.438791 172.868545 116.572644 173.085795 116.700656 173.444477 116.814066 173.920775 116.905086"></polygon>
                                        <g id="Group-29" transform="translate(57.836211, 1.460212)">
                                            <mask id="mask-2" fill="white">
                                                <use xlink:href="#path-1"></use>
                                            </mask>
                                            <use id="Mask" fill="#FFFFFF" xlink:href="#path-1"></use>
                                            <g mask="url(#mask-2)" id="Oval-3">
                                                <g transform="translate(-2.430093, 1.460212)">
                                                    <ellipse fill-opacity="0.0700000003" fill="#2AF398" cx="17.9826873" cy="24.0935034" rx="17.9826873" ry="24.0935034"></ellipse>
                                                    <ellipse fill-opacity="0.049999997" fill="#24F4A3" cx="17.9826873" cy="23.1200285" rx="14.0945387" ry="18.7393916"></ellipse>
                                                    <ellipse fill-opacity="0.119999997" fill="#24F4A3" cx="17.739678" cy="22.8766598" rx="9.47736223" ry="12.6551735"></ellipse>
                                                    <ellipse fill-opacity="0.170000002" fill="url(#linearGradient-3)" cx="17.739678" cy="22.8766598" rx="5.10319505" ry="6.8143242"></ellipse>
                                                </g>
                                            </g>
                                        </g>
                                        <path d="M73.3824867,90.4762161 L73.2775067,90.450419 L72.5363284,61.9928277 L72.6437385,62.0624312 L72.8901499,62.1242468 L73.625982,90.5355981 L73.3824831,90.4760788 Z M77.6366073,133.84939 L77.4067205,133.883461 L77.1505887,133.932135 L75.3600963,62.1992044 L75.8611814,62.1597786 L77.6366073,133.84939 Z M77.8290707,133.80315 L77.6366073,133.84939 L75.8611814,62.1597786 L76.2801295,62.1057508 L78.0434049,133.762264 L77.8290707,133.80315 Z M76.8001693,61.8974272 L78.5517803,133.664916 L78.5167869,133.671731 L76.765662,61.969951 L76.8001693,61.8974272 Z M76.8001693,61.8974272 L76.765662,61.969951 L73.6376465,25.5819465 L73.6473668,25.5775659 L76.8001693,61.8974272 Z M76.765662,61.969951 L78.5167869,133.671731 L78.3437643,133.704829 L76.5887513,62.0410147 L76.765662,61.969951 Z M76.765662,61.969951 L76.5887513,62.0410147 L73.5914747,25.5863272 L73.6376465,25.5819465 L76.765662,61.969951 Z M76.5887513,62.0410147 L78.3437643,133.704829 L78.0434049,133.762264 L76.2801295,62.1057508 L76.5887513,62.0410147 Z M76.5887513,62.0410147 L76.2801295,62.1057508 L73.5122537,25.5902211 L73.5914747,25.5863272 L76.5887513,62.0410147 Z M75.3600963,62.1992044 L77.1505887,133.932135 L76.6188844,134.033863 L74.8113813,62.2206208 L75.3600963,62.1992044 Z M75.3600963,62.1992044 L74.8113813,62.2206208 L73.1360753,25.5970354 L73.2765347,25.5955752 L75.3600963,62.1992044 Z M74.8113813,62.2206208 L76.6188844,134.033863 L76.0784318,134.137052 L74.252946,62.224028 L74.8113813,62.2206208 Z M74.8113813,62.2206208 L74.252946,62.224028 L72.9936719,25.5970354 L73.1360753,25.5970354 L74.8113813,62.2206208 Z M74.252946,62.224028 L76.0784318,134.137052 L75.5661682,134.234399 L74.4531856,90.7375941 L73.7231857,62.2079656 L74.252946,62.224028 Z M74.252946,62.224028 L73.7231857,62.2079656 L72.8585587,25.5960619 L72.9936719,25.5970354 L74.252946,62.224028 Z M74.4531856,90.7375941 L75.5661682,134.234399 L75.117087,134.320065 L73.990982,90.6246711 L74.4531856,90.7375941 Z M73.7231857,62.2079656 L74.4531856,90.7375941 L73.990982,90.6246711 L73.258066,62.173894 L73.7231857,62.2079656 Z M73.7231857,62.2079656 L73.258066,62.173894 L72.7399702,25.594115 L72.8585587,25.5960619 L73.7231857,62.2079656 Z M73.990982,90.6246711 L75.117087,134.320065 L74.7622934,134.387721 L73.625982,90.5355981 L73.990982,90.6246711 Z M73.258066,62.173894 L73.990982,90.6246711 L73.625982,90.5355981 L72.8901499,62.1242468 L73.258066,62.173894 Z M73.258066,62.173894 L72.8901499,62.1242468 L72.6456826,25.5911945 L72.7399702,25.594115 L73.258066,62.173894 Z M73.625982,90.5355981 L74.7622934,134.387721 L74.5256024,134.432988 L73.3824867,90.4762161 L73.625982,90.5355981 Z M72.8901499,62.1242468 L72.6437385,62.0624312 L72.5829862,25.5877874 L72.6456826,25.5911945 L72.8901499,62.1242468 Z M73.3824867,90.4762161 L74.5256024,134.432988 L74.4235385,134.452457 L73.2775067,90.450419 L73.3824867,90.4762161 Z M76.2801295,62.1057508 L75.8611814,62.1597786 L73.4048436,25.5936282 L73.5122537,25.5902211 L76.2801295,62.1057508 Z M75.8611814,62.1597786 L75.3600963,62.1992044 L73.2765347,25.5955752 L73.4048436,25.5936282 L75.8611814,62.1597786 Z M72.6437385,62.0624312 L72.5363284,61.9928277 L72.5552831,25.5834067 L72.5829862,25.5877874 L72.6437385,62.0624312 Z" id="Combined-Shape" fill="url(#linearGradient-4)"></path>
                                        <path d="M76.0419804,192.263237 L75.9370003,192.090445 L74.5980192,140.666148 L74.7000831,140.645705 L76.0419804,192.263237 Z M76.2781854,192.416073 L76.0419804,192.263237 L74.7000831,140.645705 L74.9358021,140.598978 L76.2781854,192.416073 Z M76.6295768,192.53873 L76.2781854,192.416073 L74.9358021,140.598978 L75.2896236,140.528401 L76.6295768,192.53873 Z M77.0728258,192.622936 L76.6295768,192.53873 L75.2896236,140.528401 L75.7372467,140.439328 L77.0728258,192.622936 Z M77.576827,192.662848 L77.0728258,192.622936 L75.7372467,140.439328 L76.2485383,140.3376 L77.576827,192.662848 Z M78.1070733,192.655061 L77.576827,192.662848 L76.2485383,140.3376 L76.7875329,140.230031 L78.1070733,192.655061 Z M78.6271132,192.601033 L78.1070733,192.655061 L76.7875329,140.230031 L77.3172931,140.124896 L78.6271132,192.601033 Z M79.1014673,192.503685 L78.6271132,192.601033 L77.3172931,140.124896 L77.8018536,140.028522 L79.1014673,192.503685 Z M79.4975724,192.370319 L79.1014673,192.503685 L77.8018536,140.028522 L78.2076791,139.947723 L79.4975724,192.370319 Z M79.7882115,192.210183 L79.4975724,192.370319 L78.2076791,139.947723 L78.5070666,139.887854 L79.7882115,192.210183 Z M79.9539439,192.033497 L79.7882115,192.210183 L78.5070666,139.887854 L78.6796032,139.853296 L79.9539439,192.033497 Z M79.983591,191.853404 L79.9539439,192.033497 L78.6796032,139.853296 L78.7145965,139.846482 L79.983591,191.853404 Z" id="Combined-Shape" fill="#A1BCCB"></path>
                                        <path d="M175.088678,116.997079 L174.481641,116.967875 L175.50714,47.9120002 L176.124384,47.9270891 L176.130702,47.9270891 L175.088678,116.997079 Z M175.700575,116.991725 L175.088678,116.997079 L176.130702,47.9270891 L176.758638,47.9241686 L175.700575,116.991725 Z M176.274563,116.951326 L175.700575,116.991725 L176.758638,47.9241686 L176.823764,47.9236819 L177.348178,47.9056726 L176.274563,116.951326 Z M174.481641,116.967875 L173.920775,116.905086 L174.930236,47.8832827 L175.429863,47.91054 L175.50714,47.9120002 L174.481641,116.967875 Z M176.771274,116.879289 L176.274563,116.951326 L177.348178,47.9056726 L177.479403,47.901292 L177.857526,47.8740347 L176.771274,116.879289 Z M173.920775,116.905086 L173.444477,116.814066 L174.440329,47.8428835 L174.787832,47.8754949 L174.930236,47.8832827 L173.920775,116.905086 Z M177.156687,116.779994 L176.771274,116.879289 L177.857526,47.8740347 L178.046587,47.8608928 L178.252659,47.834609 L177.156687,116.779994 Z M173.444477,116.814066 L173.085795,116.700656 L174.070955,47.7976169 L174.243006,47.8243875 L174.440329,47.8428835 L173.444477,116.814066 Z M177.405043,116.66123 L177.156687,116.779994 L178.252659,47.834609 L178.486434,47.8054047 L178.505875,47.8005373 L177.405043,116.66123 Z M173.085795,116.700656 L172.868545,116.572644 L173.479956,73.5455409 L173.505715,73.4092544 L173.518352,73.2213738 L173.511062,73.0252186 L173.489677,72.8699493 L173.846414,47.7630586 L174.070955,47.7976169 L173.085795,116.700656 Z M177.49933,116.530298 L177.405043,116.66123 L178.505875,47.8005373 L178.601134,47.7781474 L178.217666,71.7076203 L178.21718,71.721249 L178.194337,73.1697796 L178.193365,73.2067716 L177.516827,115.425404 L177.49933,116.530298 Z M172.868545,116.572644 L172.807307,116.438791 L173.411914,73.8361232 L173.415316,73.8356364 L173.439131,73.795724 L173.460516,73.7071377 L173.478012,73.5762054 L173.479956,73.5455409 L172.868545,116.572644 Z M173.489677,72.8699493 L173.488705,72.8349042 L173.475582,72.659192 L173.4576,72.5126841 L173.435729,72.4051151 L173.432327,72.3963538 L173.432813,72.3413525 L173.433299,72.3272371 L173.781774,47.7460227 L173.831834,47.7606249 L173.846414,47.7630586 L173.489677,72.8699493 Z" id="Combined-Shape" fill="#B8CEDB"></path>
                                        <path d="M173.505715,73.4092544 L173.479956,73.5455409 L173.478012,73.5762054 L167.431941,74.3700741 L167.417847,74.2075038 L173.505715,73.4092544 Z M173.489677,72.8699493 L173.511062,73.0252186 L167.384312,73.8254149 L167.367787,73.6321802 L173.488705,72.8349042 L173.489677,72.8699493 Z M173.518352,73.2213738 L173.505715,73.4092544 L167.417847,74.2075038 L167.401808,74.0215701 L173.518352,73.2213738 Z M173.511062,73.0252186 L173.518352,73.2213738 L167.401808,74.0215701 L167.384312,73.8254149 L173.511062,73.0252186 Z M173.439131,73.795724 L173.415316,73.8356364 L173.411914,73.8361232 L167.416875,74.6256113 L167.421249,74.5881325 L173.439131,73.795724 Z M173.460516,73.7071377 L173.439131,73.795724 L167.421249,74.5881325 L167.430483,74.500033 L173.460516,73.7071377 Z M173.478012,73.5762054 L173.460516,73.7071377 L167.430483,74.500033 L167.437288,74.4357837 L167.431941,74.3700741 L173.478012,73.5762054 Z M173.432327,72.3963538 L173.435729,72.4051151 L167.313353,73.1989839 L167.294398,73.1366815 L173.432813,72.3413525 L173.432327,72.3963538 Z M173.435729,72.4051151 L173.4576,72.5126841 L167.339598,73.3065528 L167.336682,73.2754016 L167.313353,73.1989839 L173.435729,72.4051151 Z M173.4576,72.5126841 L173.475582,72.659192 L167.352234,73.4550077 L167.339598,73.3065528 L173.4576,72.5126841 Z M173.475582,72.659192 L173.488705,72.8349042 L167.367787,73.6321802 L167.352234,73.4550077 L173.475582,72.659192 Z M167.290024,73.1230528 L173.433299,72.3272371 L173.432813,72.3413525 L167.294398,73.1366815 L167.290024,73.1230528 Z" id="Combined-Shape" fill="#B8CEDB"></path>
                                        <polygon id="Fill-26" fill="#D8EAF2" points="182.239955 116.562423 182.188437 119.445369 157.465644 124.367258 157.19882 124.420312 156.796397 124.500624 156.285105 124.602352 155.700911 124.718682 155.083667 124.84134 154.476144 124.962537 153.919653 125.073514 153.452589 125.16648 153.10703 125.23511 152.906304 125.275023 152.864021 125.283297 108.076923 134.200327 101.823808 132.239262 167.561222 119.423952"></polygon>
                                        <polygon id="Fill-27" fill="#B8CEDB" points="160.813826 117.720371 167.561222 119.423952 55.6097594 141.248772 55.4994332 137.807052 70.5353899 134.939195 70.6374538 134.919725 70.8741448 134.874459 71.2289384 134.806802 71.6780196 134.721136 72.1902831 134.623789 73.2624401 134.418872 73.5185719 134.370199 73.7484587 134.336127 73.9409221 134.289887 74.1552562 134.249001 74.6286383 134.158468 74.6636317 134.151654"></polygon>
                                        <polygon id="Fill-28" fill="url(#linearGradient-5)" points="76.7190042 137.133894 101.823808 132.239262 108.076923 134.200327 108.483234 134.327366 83.2384574 139.360231"></polygon>
                                        <ellipse id="Oval-5" fill="url(#linearGradient-6)" cx="73.1457957" cy="26.0404532" rx="1" ry="1"></ellipse>
                                        <path d="M4.44220978,148.510895 L2.9277759,146.975238 L0.415059864,99.5246652 L1.93435393,100.641241 L4.44220978,148.510895 Z M7.57751562,149.825086 L4.44220978,148.510895 L1.93435393,100.641241 L5.10951329,101.597193 L7.57751562,149.825086 Z M12.1388,150.815597 L7.57751562,149.825086 L5.10951329,101.597193 L9.74370041,102.318051 L12.1388,150.815597 Z M17.8072346,151.402602 L12.1388,150.815597 L9.74370041,102.318051 L15.5132269,102.74492 L17.8072346,151.402602 Z M24.1638716,151.536942 L17.8072346,151.402602 L15.5132269,102.74492 L21.9908825,102.842754 L24.1638716,151.536942 Z M30.7256083,151.206934 L24.1638716,151.536942 L21.9908825,102.842754 L28.6833583,102.602793 L30.7256083,151.206934 Z M36.994762,150.441296 L30.7256083,151.206934 L28.6833583,102.602793 L35.0827649,102.045478 L36.994762,150.441296 Z M42.5066986,149.301843 L36.994762,150.441296 L35.0827649,102.045478 L40.7128041,101.217051 L42.5066986,149.301843 Z M46.8716315,147.88057 L42.5066986,149.301843 L40.7128041,101.217051 L45.1759126,100.183221 L46.8716315,147.88057 Z M49.8052396,146.285531 L46.8716315,147.88057 L45.1759126,100.183221 L48.1804795,99.0233256 L49.8052396,146.285531 Z M48.1804795,99.0233256 L49.5588282,97.8225444 L51.1417907,144.632571 L49.8052396,146.285531 L48.1804795,99.0233256 Z" id="Combined-Shape" fill="url(#linearGradient-7)"></path>
                                        <polygon id="Fill-41" fill="url(#linearGradient-8)" points="1.93435393 100.641241 0.415059864 99.5246652 0.613841461 98.3306982 2.46654427 97.1440324 2.51271604 97.1284568 2.27408092 98.3136624 2.10494645 99.4258575 3.53432708 100.464555 6.50049845 101.352851 10.8192595 102.021628 16.1878207 102.417833 22.2115349 102.508366 28.4354888 102.285927 34.3897024 101.769012 39.6343288 100.99948 43.799508 100.038173 46.6120975 98.9590763 47.9121972 97.8395802 47.6536353 96.7570761 47.3216847 95.6069155 47.3683424 95.6185972 49.0713515 96.5555668 49.2652729 96.662649 49.5588282 97.8225444 48.1804795 99.0233256 45.1759126 100.183221 40.7128041 101.217051 35.0827649 102.045478 28.6833583 102.602793 21.9908825 102.842754 15.5132269 102.74492 9.74370041 102.318051 5.10951329 101.597193"></polygon>
                                        <polygon id="Fill-42" fill="url(#linearGradient-9)" points="49.5588282 97.8225444 49.2652729 96.662649 49.0713515 96.5555668 49.0548269 96.0702896 54.1410113 95.3645203 55.6097594 141.248772 51.0577094 142.136095"></polygon>
                                        <polygon id="Fill-43" fill="#D8EAF2" points="51.0577094 142.136095 76.7190042 137.133894 76.7967672 140.427646 74.8264479 140.819957 74.7914546 140.826771 74.618918 140.861329 74.3195305 140.921198 73.913705 141.001996 73.4291445 141.09837 71.401475 141.501876 71.0476535 141.572453 70.8119345 141.619179 70.7098706 141.639622 50.2713314 145.708747 51.1417907 144.632571"></polygon>
                                        <polygon id="Fill-44" fill="url(#linearGradient-10)" points="76.7967672 140.427646 76.7190042 137.133894 83.2384574 139.360231 90.6298279 169.95752 91.9381899 231.426618 79.0081517 224.299809"></polygon>
                                        <path d="M3.53432708,100.464555 L2.10494645,99.4258575 L7.70728258,71.5129253 L8.74736233,72.0707265 L3.53432708,100.464555 Z M6.50049845,101.352851 L3.53432708,100.464555 L8.74736233,72.0707265 L10.8557109,72.5452955 L6.50049845,101.352851 Z M10.8192595,102.021628 L6.50049845,101.352851 L10.8557109,72.5452955 L13.8977012,72.9015873 L10.8192595,102.021628 Z M16.1878207,102.417833 L10.8192595,102.021628 L13.8977012,72.9015873 L17.661915,73.1118578 L16.1878207,102.417833 Z M22.2115349,102.508366 L16.1878207,102.417833 L17.661915,73.1118578 L21.8776402,73.1600449 L22.2115349,102.508366 Z M28.4354888,102.285927 L22.2115349,102.508366 L21.8776402,73.1600449 L26.2347967,73.0417677 L28.4354888,102.285927 Z M34.3897024,101.769012 L28.4354888,102.285927 L26.2347967,73.0417677 L30.4150425,72.7672477 L34.3897024,101.769012 Z M39.6343288,100.99948 L34.3897024,101.769012 L30.4150425,72.7672477 L34.1160739,72.3569281 L39.6343288,100.99948 Z M43.799508,100.038173 L39.6343288,100.99948 L34.1160739,72.3569281 L37.0793292,71.8419599 L43.799508,100.038173 Z M46.6120975,98.9590763 L43.799508,100.038173 L37.0793292,71.8419599 L39.1079707,71.2612821 L46.6120975,98.9590763 Z M47.9121972,97.8395802 L46.6120975,98.9590763 L39.1079707,71.2612821 L40.0785498,70.655294 L47.9121972,97.8395802 Z" id="Combined-Shape" fill="url(#linearGradient-11)"></path>
                                        <polygon id="Fill-57" fill="#938D00" points="47.6536353 96.7570761 47.9121972 97.8395802 40.0785498 70.655294 39.9468388 70.0663417 47.3216847 95.6064288 47.3216847 95.6069155"></polygon>
                                        <polygon id="Fill-58" fill="#A7A000" points="2.10494645 99.4258575 2.27408092 98.3136624 7.78990573 70.9122913 7.70728258 71.5129253"></polygon>
                                        <polygon id="Fill-59" fill="url(#linearGradient-12)" points="13.8977012 72.9015873 10.8557109 72.5452955 8.74736233 72.0707265 7.70728258 71.5129253 7.78990573 70.9122913 8.96704272 70.3111706 11.1390597 69.7494756 14.1441126 69.2641984 17.7741853 68.8845432 21.7896708 68.6338734 25.9324932 68.5272779 29.9411744 68.5705975 33.5624988 68.7613986 36.5626914 69.0884861 38.7424848 69.5328774 39.9468388 70.0663417 40.0785498 70.655294 39.1079707 71.2612821 37.0793292 71.8419599 34.1160739 72.3569281 30.4150425 72.7672477 26.2347967 73.0417677 21.8776402 73.1600449 17.661915 73.1118578"></polygon>
                                        <polygon id="Fill-60" fill="url(#linearGradient-9)" points="54.1410113 95.3645203 49.0548269 96.0702896 48.9950466 94.3068398 70.9212886 91.3114576 70.9650303 93.0301275 70.6121808 93.0788012 70.1553234 93.1425638 69.7942116 93.1922111 69.5536324 93.2257959 69.4491384 93.2403981"></polygon>
                                        <polygon id="Fill-61" fill="#A0BACA" points="49.0548269 96.0702896 49.0713515 96.5555668 47.3683424 95.6185972"></polygon>
                                        <polygon id="Fill-62" fill="url(#linearGradient-13)" points="83.2384574 139.360231 108.483234 134.327366 115.723939 163.929764 90.6298279 169.95752"></polygon>
                                        <polygon id="Fill-63" fill="url(#linearGradient-13)" points="90.6298279 169.95752 115.723939 163.929764 116.299385 223.353104 91.9381899 231.426618"></polygon>
                                        <polygon id="Fill-102" fill="#A65B00" points="68.8027337 0.260891269 68.9101438 0.257484107 69.0384527 0.25505042 69.178426 0.254076945 69.3208295 0.253590208 69.4559426 0.254563683 69.5745312 0.256510632 69.6683328 0.259431057 69.7315152 0.263324957 69.7592182 0.267218856 69.7494979 0.271599493 69.7033261 0.27598013 69.6241051 0.27987403 69.516695 0.283281192 69.3883861 0.285228142 69.2479267 0.286688354 69.1055232 0.286688354 68.9704101 0.285714879 68.8518215 0.283767929 68.7575339 0.280847505 68.6948375 0.277440343 68.6671345 0.273059706 68.6768549 0.268679069 68.7230266 0.264298432"></polygon>
                                        <g id="Group-36" transform="translate(127.336867, 127.038473)">
                                            <polygon id="Fill-103" fill="url(#linearGradient-5)" points="0.357709672 26.9759626 0.551145065 26.1553232 1.50617157 25.3857913 3.14988639 24.7179876 5.36515906 24.1947448 8.00375391 23.8486745 9.8297257 23.7552209 9.81077097 26.7199387 9.85208255 26.8873764 10.0494061 27.0470262 10.3901051 27.1886668 10.8503647 27.3025634 11.4000517 27.3809281 12.0002847 27.4174334 12.610238 27.4106191 13.187628 27.3604851 13.6930874 27.269952 14.0921086 27.1463207 14.3569887 26.9978658 14.4702311 26.834322 14.495018 23.8219039 16.6646049 24.0248735 19.1758629 24.4765658 21.2088786 25.0874213 22.6241647 25.8199611 23.3191713 26.6255116 23.2360621 27.4510183 22.369977 28.239533 20.7700038 28.9355675 18.5411227 29.488988 15.8359433 29.8589084 12.845471 30.0175849 9.78452597 29.9533355 6.87278868 29.6705411 4.31827505 29.1901312 2.29838185 28.549098 0.950166316 27.792708"></polygon>
                                            <path d="M10.3901051,27.1886668 L10.0494061,27.0470262 L10.2175685,1.11706243 L10.5631277,1.04843245 L10.3901051,27.1886668 Z M10.0494061,27.0470262 L9.85208255,26.8873764 L10.0168428,1.1569749 L10.2175685,1.11706243 L10.0494061,27.0470262 Z M9.85208255,26.8873764 L9.81077097,26.7199387 L9.97455923,1.16524944 L10.0168428,1.1569749 L9.85208255,26.8873764 Z M14.4702311,26.834322 L14.3569887,26.9978658 L14.5761831,0.249209571 L14.6894254,0.226819648 L14.495018,23.8219039 L14.4702311,26.834322 Z M14.3569887,26.9978658 L14.0921086,27.1463207 L14.3093589,0.302263952 L14.5761831,0.249209571 L14.3569887,26.9978658 Z M14.0921086,27.1463207 L13.6930874,27.269952 L13.9069355,0.38257563 L14.3093589,0.302263952 L14.0921086,27.1463207 Z M13.6930874,27.269952 L13.187628,27.3604851 L13.395644,0.484303756 L13.9069355,0.38257563 L13.6930874,27.269952 Z M13.187628,27.3604851 L12.610238,27.4106191 L12.8114497,0.600634005 L13.395644,0.484303756 L13.187628,27.3604851 Z M12.610238,27.4106191 L12.0002847,27.4174334 L12.1942061,0.72329184 L12.8114497,0.600634005 L12.610238,27.4106191 Z M12.0002847,27.4174334 L11.4000517,27.3809281 L11.5866828,0.844489464 L12.1942061,0.72329184 L12.0002847,27.4174334 Z M11.4000517,27.3809281 L10.8503647,27.3025634 L11.0301916,0.955465601 L11.5866828,0.844489464 L11.4000517,27.3809281 Z M10.8503647,27.3025634 L10.3901051,27.1886668 L10.5631277,1.04843245 L11.0301916,0.955465601 L10.8503647,27.3025634 Z" id="Combined-Shape" fill="#B8CEDB"></path>
                                            <path d="M8.70812343,29.8487929 L8.73861399,29.5459363 L8.73502554,29.8514057 L9.78452597,29.9533355 L9.66010521,49.414072 L8.45685477,49.2841217 L8.43047822,49.5717749 L8.43387857,49.2816403 L6.7712108,49.1020733 L6.87278868,29.6705411 L8.70812343,29.8487929 Z M0.357709672,26.9759626 L0.950166316,27.792708 L0.894760198,47.0290585 L0.306677721,46.127134 L0.357709672,26.9759626 Z M0.950166316,27.792708 L2.29838185,28.549098 L2.23276934,47.8638132 L0.894760198,47.0290585 L0.950166316,27.792708 Z M2.29838185,28.549098 L4.31827505,29.1901312 L4.23613791,48.5720162 L2.23276934,47.8638132 L2.29838185,28.549098 Z M4.31827505,29.1901312 L6.87278868,29.6705411 L6.7712108,49.1020733 L4.23613791,48.5720162 L4.31827505,29.1901312 Z M9.78452597,29.9533355 L12.845471,30.0175849 L12.6972353,49.4856224 L9.66010521,49.414072 L9.78452597,29.9533355 Z M12.845471,30.0175849 L15.8359433,29.8589084 L15.6643787,49.3103969 L12.6972353,49.4856224 L12.845471,30.0175849 Z M15.8359433,29.8589084 L18.5411227,29.488988 L18.3491453,48.9020242 L15.6643787,49.3103969 L15.8359433,29.8589084 Z M18.5411227,29.488988 L20.7700038,28.9355675 L20.5615019,48.2906819 L18.3491453,48.9020242 L18.5411227,29.488988 Z M20.7700038,28.9355675 L22.369977,28.239533 L22.1502966,47.5221235 L20.5615019,48.2906819 L20.7700038,28.9355675 Z M22.369977,28.239533 L23.2360621,27.4510183 L23.0110355,46.6513502 L22.1502966,47.5221235 L22.369977,28.239533 Z" id="Combined-Shape" fill="url(#linearGradient-14)"></path>
                                        </g>
                                        <polygon id="Fill-141" fill="#B8CEDB" points="70.9212886 91.3114576 48.9950466 94.3068398 46.7778299 93.7222681 46.3311788 92.1759033 62.5661433 90.0065145 62.4757439 91.3319006 62.5923883 91.4389828 62.8665028 91.5343833 63.2810766 91.6108011 63.8069487 91.662882 64.4081537 91.6877056 65.04338 91.6828383 65.6693719 91.6492534 66.2423878 91.5888979 66.7230602 91.5056658 67.0793118 91.4058846 67.2863557 91.2963687 67.3305834 91.1844191 67.2348377 90.4109933 69.3893581 90.9371565 69.7378334 91.0223355 70.565037 91.2243316"></polygon>
                                        <polygon id="Fill-142" fill="#A0BACA" points="46.7778299 93.7222681 48.9950466 94.3068398 49.0548269 96.0702896 47.3683424 95.6185972 47.3216847 95.6064288"></polygon>
                                        <path d="M63.2810766,91.6108011 L62.8665028,91.5343833 L63.2256705,84.6796599 L63.5289461,84.7322276 L63.2810766,91.6108011 Z M63.8069487,91.662882 L63.2810766,91.6108011 L63.5289461,84.7322276 L63.9133868,84.7682461 L63.8069487,91.662882 Z M64.4081537,91.6877056 L63.8069487,91.662882 L63.9133868,84.7682461 L64.3532336,84.7847952 L64.4081537,91.6877056 Z M65.04338,91.6828383 L64.4081537,91.6877056 L64.3532336,84.7847952 L64.8178674,84.7818748 L65.04338,91.6828383 Z M65.6693719,91.6492534 L65.04338,91.6828383 L64.8178674,84.7818748 L65.2752108,84.7585114 L65.6693719,91.6492534 Z M66.2423878,91.5888979 L65.6693719,91.6492534 L65.2752108,84.7585114 L65.6946449,84.7171387 L66.2423878,91.5888979 Z M66.7230602,91.5056658 L66.2423878,91.5888979 L65.6946449,84.7171387 L66.0465223,84.6601904 L66.7230602,91.5056658 Z M67.0793118,91.4058846 L66.7230602,91.5056658 L66.0465223,84.6601904 L66.3075143,84.5915604 L67.0793118,91.4058846 Z M67.2863557,91.2963687 L67.0793118,91.4058846 L66.3075143,84.5915604 L66.4596381,84.5166029 L67.2863557,91.2963687 Z M67.3305834,91.1844191 L67.2863557,91.2963687 L66.4596381,84.5166029 L66.4926874,84.4392116 L67.2348377,90.4109933 L67.3305834,91.1844191 Z M62.5923883,91.4389828 L62.4757439,91.3319006 L62.9394056,84.5409397 L63.0244588,84.6144371 L62.5923883,91.4389828 Z M62.8665028,91.5343833 L62.5923883,91.4389828 L63.0244588,84.6144371 L63.2256705,84.6796599 L62.8665028,91.5343833 Z" id="Combined-Shape" fill="url(#linearGradient-15)"></path>
                                        <polygon id="Fill-155" fill="#95FBD8" points="63.5289461 84.7322276 63.2256705 84.6796599 63.0244588 84.6144371 62.9394056 84.5409397 62.9748849 84.4635485 63.1294388 84.3885909 63.3914028 84.3204477 63.7432803 84.2639861 64.1612563 84.2231002 64.6166557 84.2002235 65.0783733 84.1968164 65.51579 84.2133654 65.8992587 84.249384 66.2025343 84.3009782 66.404718 84.366201 66.4926874 84.4392116 66.4596381 84.5166029 66.3075143 84.5915604 66.0465223 84.6601904 65.6946449 84.7171387 65.2752108 84.7585114 64.8178674 84.7818748 64.3532336 84.7847952 63.9133868 84.7682461"></polygon>
                                        <path d="M161.851962,70.3510831 L162.7336,70.0858112 L164.109518,70.3111706 L163.227395,70.577416 L161.851962,70.3510831 Z M162.7336,70.0858112 L163.609891,70.1320512 L164.986296,70.3574107 L164.109518,70.3111706 L162.7336,70.0858112 Z M161.766423,79.1503226 L160.95137,78.8086329 L162.321456,79.0558955 L163.136995,79.3980719 L161.766423,79.1503226 Z M160.95137,78.8086329 L160.252961,78.1812283 L161.623047,78.4270307 L162.321456,79.0558955 L160.95137,78.8086329 Z M160.252961,78.1812283 L159.719313,77.3109418 L161.089399,77.5547972 L161.623047,78.4270307 L160.252961,78.1812283 Z M159.719313,77.3109418 L159.387362,76.2561817 L160.757934,76.4976035 L161.089399,77.5547972 L159.719313,77.3109418 Z M159.387362,76.2561817 L159.280924,75.0889853 L160.652468,75.3279734 L160.757934,76.4976035 L159.387362,76.2561817 Z M159.280924,75.0889853 L159.408261,73.8906378 L160.780291,74.1262187 L160.652468,75.3279734 L159.280924,75.0889853 Z M159.408261,73.8906378 L159.759652,72.7433976 L161.132655,72.9760581 L160.780291,74.1262187 L159.408261,73.8906378 Z M159.759652,72.7433976 L160.311769,71.7266031 L161.685258,71.9568299 L161.132655,72.9760581 L159.759652,72.7433976 Z M160.311769,71.7266031 L161.02573,70.9108311 L162.400191,71.1386243 L161.685258,71.9568299 L160.311769,71.7266031 Z M161.02573,70.9108311 L161.851962,70.3510831 L163.227395,70.577416 L162.400191,71.1386243 L161.02573,70.9108311 Z" id="Combined-Shape" fill="url(#linearGradient-16)"></path>
                                        <path d="M163.227395,70.577416 L164.109518,70.3111706 L164.986296,70.3574107 L165.797461,70.710782 L166.489065,71.3474346 L167.013479,72.2221018 L167.290024,73.1230528 L167.294398,73.1366815 L167.336682,73.2754016 L167.437288,74.4357837 L167.308979,75.6258567 L166.960503,76.7643356 L166.414704,77.775776 L165.709005,78.591548 L164.890064,79.1566502 L164.012801,79.4321435 L163.136995,79.3980719 L162.321456,79.0558955 L161.623047,78.4270307 L161.089399,77.5547972 L160.757934,76.4976035 L160.652468,75.3279734 L160.780291,74.1262187 L161.132655,72.9760581 L161.685258,71.9568299 L162.400191,71.1386243 L163.227395,70.577416 Z M164.102714,70.9346813 L163.341123,71.1653948 L162.627162,71.6501853 L162.010404,72.3569281 L161.53362,73.2369494 L161.229372,74.229407 L161.119046,75.2666445 L161.209932,76.276138 L161.49571,77.1892574 L161.95597,77.942727 L162.558633,78.485926 L163.262874,78.7823491 L164.019605,78.8125268 L164.777308,78.5754856 L165.485437,78.087288 L166.09539,77.3824922 L166.566828,76.5087985 L166.86816,75.5246154 L166.978972,74.4961391 L166.891975,73.49346 L166.612514,72.583261 L166.158573,71.8278445 L165.561256,71.2788046 L164.859931,70.974107 L164.423486,70.9512303 L164.102714,70.9346813 Z" id="Fill-168" fill="url(#linearGradient-17)"></path>
                                        <polygon id="Fill-169" fill="url(#linearGradient-18)" points="188.037185 66.797413 188.786626 67.1415364 189.422824 67.7567725 189.902038 68.6002885 190.192677 69.6151361 190.275786 70.7317118 190.146019 71.875058 189.812125 72.9682703 189.296945 73.9378513 188.634988 74.7190649 187.869994 75.2578832 187.053483 75.517801 186.24086 75.4803222 185.487531 75.1464204 184.845501 74.5384853 184.358024 73.6969163 184.060581 72.6786615 184.041626 72.436753 187.690654 71.9558564 187.816046 71.9032888 187.924915 71.8049678 188.009482 71.6677079 188.064402 71.5007569 188.085787 71.3153099 188.072178 71.1245089 188.024062 70.9410089 187.945327 70.7774651 187.840833 70.6455592 187.717871 70.5530791 187.585674 70.5073258 187.452019 70.5112197 184.040168 70.9531773 184.101892 70.3992701 184.439189 69.2953496 184.961173 68.3184675 185.631393 67.5357937 186.40319 67.0003825 187.224076 66.7487393"></polygon>
                                        <path d="M187.224076,66.7487393 L186.40319,67.0003825 L185.026786,66.7920589 L185.847185,66.5413891 L187.224076,66.7487393 Z M188.037185,66.797413 L187.224076,66.7487393 L185.847185,66.5413891 L186.659808,66.5900628 L188.037185,66.797413 Z M185.487531,75.1464204 L186.24086,75.4803222 L184.869316,75.2520424 L184.115987,74.9186272 L185.487531,75.1464204 Z M184.845501,74.5384853 L185.487531,75.1464204 L184.115987,74.9186272 L183.47347,74.3116656 L184.845501,74.5384853 Z M184.358024,73.6969163 L184.845501,74.5384853 L183.47347,74.3116656 L182.985994,73.4720436 L184.358024,73.6969163 Z M184.060581,72.6786615 L184.358024,73.6969163 L182.985994,73.4720436 L182.732778,72.6090581 L183.228031,72.5438353 L184.060581,72.6786615 Z M184.041626,72.436753 L184.060581,72.6786615 L183.228031,72.5438353 L184.041626,72.436753 Z M184.101892,70.3992701 L184.040168,70.9531773 L182.62148,71.137164 L182.728404,70.1821852 L184.101892,70.3992701 Z M184.439189,69.2953496 L184.101892,70.3992701 L182.728404,70.1821852 L183.064729,69.0811851 L184.439189,69.2953496 Z M184.961173,68.3184675 L184.439189,69.2953496 L183.064729,69.0811851 L183.585741,68.10625 L184.961173,68.3184675 Z M185.631393,67.5357937 L184.961173,68.3184675 L183.585741,68.10625 L184.255474,67.3255231 L185.631393,67.5357937 Z M186.40319,67.0003825 L185.631393,67.5357937 L184.255474,67.3255231 L185.026786,66.7920589 L186.40319,67.0003825 Z" id="Combined-Shape" fill="url(#linearGradient-16)"></path>
                                        <path d="M187.452019,70.5112197 L187.585674,70.5073258 L178.21718,71.721249 L178.217666,71.7076203 L182.62148,71.137164 L184.040168,70.9531773 L187.452019,70.5112197 Z M187.816046,71.9032888 L187.690654,71.9558564 L184.041626,72.436753 L183.228031,72.5438353 L182.732778,72.6090581 L178.193365,73.2067716 L178.194337,73.1697796 L187.816046,71.9032888 Z M187.924915,71.8049678 L187.816046,71.9032888 L178.194337,73.1697796 L178.195309,73.0846006 L187.924915,71.8049678 Z M188.009482,71.6677079 L187.924915,71.8049678 L178.195309,73.0846006 L178.197739,72.9561019 L188.009482,71.6677079 Z M188.064402,71.5007569 L188.009482,71.6677079 L178.197739,72.9561019 L178.200169,72.7935316 L188.064402,71.5007569 Z M188.085787,71.3153099 L188.064402,71.5007569 L178.200169,72.7935316 L178.203085,72.6080846 L188.085787,71.3153099 Z M188.072178,71.1245089 L188.085787,71.3153099 L178.203085,72.6080846 L178.206487,72.4124161 L188.072178,71.1245089 Z M188.024062,70.9410089 L188.072178,71.1245089 L178.206487,72.4124161 L178.209403,72.2196681 L188.024062,70.9410089 Z M187.945327,70.7774651 L188.024062,70.9410089 L178.209403,72.2196681 L178.212319,72.0429824 L187.945327,70.7774651 Z M187.840833,70.6455592 L187.945327,70.7774651 L178.212319,72.0429824 L178.214749,71.8950142 L187.840833,70.6455592 Z M187.717871,70.5530791 L187.840833,70.6455592 L178.214749,71.8950142 L178.216208,71.7850116 L187.717871,70.5530791 Z M187.585674,70.5073258 L187.717871,70.5530791 L178.216208,71.7850116 L178.21718,71.721249 L187.585674,70.5073258 Z" id="Combined-Shape" fill="#B8CEDB"></path>
                                        <polygon id="Fill-195" fill="#00A4A5" points="192.102244 34.7657086 199.143681 34.6581396 199.280253 34.7009725 192.233469 34.8085415"></polygon>
                                        <polygon id="Fill-224" fill="#8F743F" points="159.451516 46.6065704 159.397568 46.6138714 156.81924 46.6615717 156.872216 46.6542707"></polygon>
                                        <path d="M159.502062,46.5316128 L159.451516,46.6065704 L156.872216,46.6542707 L156.92179,46.5793131 L159.502062,46.5316128 Z M159.54629,46.3943529 L159.502062,46.5316128 L156.92179,46.5793131 L156.965531,46.4420531 L159.54629,46.3943529 Z M159.468041,44.6751962 L159.517129,44.7993143 L156.935398,44.8460411 L156.887282,44.7214363 L159.468041,44.6751962 Z M159.415065,44.6148408 L159.468041,44.6751962 L156.887282,44.7214363 L156.834792,44.6610808 L159.415065,44.6148408 Z M156.965531,46.4420531 L156.999067,46.2512521 L159.581283,46.2035518 L159.581283,46.2045253 L159.562329,46.3082003 L159.551636,46.3646619 L159.55115,46.3695293 L159.54629,46.3943529 L156.965531,46.4420531 Z M156.999067,46.2512521 L157.021423,46.0200518 L159.604126,45.9723515 L159.581283,46.2035518 L156.999067,46.2512521 Z M157.021423,46.0200518 L157.030658,45.7640279 L159.61336,45.7168143 L159.607042,45.8852255 L159.604126,45.9723515 L157.021423,46.0200518 Z M157.030658,45.7640279 L157.025798,45.5011897 L159.6085,45.4544629 L159.609472,45.4924284 L159.612874,45.691504 L159.61336,45.7168143 L157.030658,45.7640279 Z M157.025798,45.5011897 L157.007329,45.2495464 L159.590032,45.2028196 L159.6085,45.4544629 L157.025798,45.5011897 Z M157.007329,45.2495464 L156.976224,45.0261339 L159.558926,44.9794071 L159.56087,44.9954694 L159.590032,45.2028196 L157.007329,45.2495464 Z M156.976224,45.0261339 L156.935398,44.8460411 L159.517129,44.7993143 L159.558926,44.9794071 L156.976224,45.0261339 Z" id="Combined-Shape" fill="url(#linearGradient-19)"></path>
                                        <path d="M156.732242,44.7447997 L156.782302,44.6693554 L156.834792,44.6610808 L156.887282,44.7214363 L156.935398,44.8460411 L156.976224,45.0261339 L157.007329,45.2495464 L157.025798,45.5011897 L157.030658,45.7640279 L157.021423,46.0200518 L156.999067,46.2512521 L156.965531,46.4420531 L156.92179,46.5793131 L156.872216,46.6542707 L156.81924,46.6615717 L156.767236,46.6007295 L156.71912,46.4761248 L156.678294,46.2960319 L156.647675,46.0726194 L156.629692,45.8219496 L156.624346,45.5595981 L156.633581,45.3045477 L156.655451,45.0738342 L156.689473,44.8830331 L156.732242,44.7447997 Z M156.832848,44.9029893 L156.792995,44.9093169 L156.755085,44.9667519 L156.722522,45.0714005 L156.696763,45.2159615 L156.680238,45.391187 L156.673434,45.5844218 L156.677322,45.7830106 L156.690931,45.973325 L156.71426,46.1427096 L156.745365,46.2794828 L156.781816,46.3739099 L156.821184,46.4201499 L156.861523,46.4143091 L156.889712,46.3719629 L156.898947,46.3573608 L156.931996,46.253199 L156.952409,46.138329 L156.957755,46.108638 L156.970877,45.9684576 L156.97428,45.9334125 L156.981084,45.7392043 L156.978168,45.5790676 L156.977682,45.5401286 L156.963587,45.3493276 L156.944632,45.2115809 L156.940258,45.1799429 L156.914985,45.0675066 L156.909153,45.0431697 L156.878534,44.9643183 L156.872702,44.9487427 L156.837708,44.9083434 L156.832848,44.9029893 Z" id="Fill-229" fill="#2CF6A0"></path>
                                        <polygon id="Fill-237" fill="url(#linearGradient-20)" points="163.341123 71.1653948 164.102714 70.9346813 164.423486 70.9512303 164.941096 71.1765898 165.538413 71.7251429 165.992354 72.4795859 166.272301 73.3888115 166.359784 74.3905171 166.248972 75.4175331 165.948127 76.4007428 165.476689 77.2739497 164.866735 77.9777721 164.159092 78.4649962 163.401389 78.7015506 163.036389 78.6869485 162.558633 78.485926 161.95597 77.942727 161.49571 77.1892574 161.209932 76.276138 161.119046 75.2666445 161.229372 74.229407 161.53362 73.2369494 162.010404 72.3569281 162.627162 71.6501853"></polygon>
                                        <path d="M164.859931,70.974107 L165.561256,71.2788046 L164.941096,71.1765898 L164.423486,70.9512303 L164.859931,70.974107 Z M165.561256,71.2788046 L166.158573,71.8278445 L165.538413,71.7251429 L164.941096,71.1765898 L165.561256,71.2788046 Z M166.158573,71.8278445 L166.612514,72.583261 L165.992354,72.4795859 L165.538413,71.7251429 L166.158573,71.8278445 Z M166.612514,72.583261 L166.891975,73.49346 L166.272301,73.3888115 L165.992354,72.4795859 L166.612514,72.583261 Z M166.891975,73.49346 L166.978972,74.4961391 L166.359784,74.3905171 L166.272301,73.3888115 L166.891975,73.49346 Z M166.978972,74.4961391 L166.86816,75.5246154 L166.248972,75.4175331 L166.359784,74.3905171 L166.978972,74.4961391 Z M166.86816,75.5246154 L166.566828,76.5087985 L165.948127,76.4007428 L166.248972,75.4175331 L166.86816,75.5246154 Z M166.566828,76.5087985 L166.09539,77.3824922 L165.476689,77.2739497 L165.948127,76.4007428 L166.566828,76.5087985 Z M166.09539,77.3824922 L165.485437,78.087288 L164.866735,77.9777721 L165.476689,77.2739497 L166.09539,77.3824922 Z M165.485437,78.087288 L164.777308,78.5754856 L164.159092,78.4649962 L164.866735,77.9777721 L165.485437,78.087288 Z M164.777308,78.5754856 L164.019605,78.8125268 L163.401389,78.7015506 L164.159092,78.4649962 L164.777308,78.5754856 Z M164.019605,78.8125268 L163.262874,78.7823491 L163.036389,78.6869485 L163.401389,78.7015506 L164.019605,78.8125268 Z" id="Combined-Shape" fill="url(#linearGradient-21)"></path>
                                        <polygon id="Fill-250" fill="#0D8900" points="156.792995 44.9093169 156.832848 44.9029893 156.837708 44.9083434"></polygon>
                                        <g id="Group-30" transform="translate(111.784272, 39.425733)" fill="#36C0F5">
                                            <ellipse id="Oval-4" opacity="0.100000001" cx="64.6404706" cy="8.27453653" rx="46.6577833" ry="5.35411187"></ellipse>
                                            <ellipse id="Oval-4" opacity="0.100000001" cx="64.6404706" cy="8.51790525" rx="64.6404706" ry="8.51790525"></ellipse>
                                            <ellipse id="Oval-4" opacity="0.140000001" cx="64.8834799" cy="7.78779909" rx="33.2922724" ry="3.4071621"></ellipse>
                                            <ellipse id="Oval-4" opacity="0.25" cx="65.1264892" cy="7.78779909" rx="19.9267616" ry="1.94694977"></ellipse>
                                        </g>
                                        <g id="Group-32" transform="translate(156.497981, 34.558358)">
                                            <path d="M34.5024587,10.9579201 L34.4873921,11.0679227 L22.1682793,11.2947424 L22.1517547,11.1516416 L34.5136371,10.9248219 L34.5024587,10.9579201 Z M34.4873921,11.0679227 L34.4558009,11.1711111 L22.1799437,11.397444 L22.1682793,11.2947424 L34.4873921,11.0679227 Z M34.4558009,11.1711111 L34.4261538,11.2115103 L34.4276118,11.2275726 L22.186262,11.4534188 L22.1799437,11.397444 L34.4558009,11.1711111 Z M34.5816797,10.5583086 L34.5530046,10.7505699 L22.1318279,10.978363 L22.109471,10.7861017 L34.5816797,10.5583086 Z M34.5530046,10.7505699 L34.5136371,10.9248219 L22.1517547,11.1516416 L22.1318279,10.978363 L34.5530046,10.7505699 Z M34.5967463,10.3606932 L34.5816797,10.5583086 L22.109471,10.7861017 L22.0866282,10.5884863 L34.5967463,10.3606932 Z M34.5977183,10.1713523 L34.5967463,10.3606932 L22.0866282,10.5884863 L22.0647573,10.3991455 L34.5977183,10.1713523 Z M34.5845958,10.0034279 L34.5977183,10.1713523 L22.0647573,10.3991455 L22.0453166,10.2302476 L34.5845958,10.0034279 Z M34.5578648,9.86811492 L34.5845958,10.0034279 L22.0453166,10.2302476 L22.029764,10.0944478 L34.5578648,9.86811492 Z M34.5306478,9.80191863 L34.5578648,9.86811492 L22.029764,10.0944478 L22.0190716,10.0000208 L34.5335639,9.77417459 L34.5306478,9.80191863 Z M22.0137254,9.95426745 L34.5389101,9.72842127 L34.5335639,9.77417459 L22.0190716,10.0000208 L22.0137254,9.95426745 Z M34.4276118,11.2319532 L22.187234,11.4582861 L22.186262,11.4534188 L34.4276118,11.2275726 L34.4276118,11.2319532 Z" id="Combined-Shape" fill="#B8CEDB"></path>
                                            <g id="Group-33" transform="translate(34.021300, 0.000000)">
                                                <polygon id="Fill-201" fill="#009D9E" points="0.48115839 10.9579201 0.492336817 10.9248219 0.531704322 10.7505699 0.560379418 10.5583086 0.514207653 10.9705752"></polygon>
                                                <polygon id="Fill-204" fill="#88B3EF" points="1.5829625 0.207350151 1.71418752 0.250183046 0.560379418 10.5583086 0.575445994 10.3606932 0.576418031 10.1713523 0.563295529 10.0034279 0.536564508 9.86811492 0.509347467 9.80191863 0.512263579 9.77417459 0.517609783 9.72842127"></polygon>
                                                <polygon id="Fill-196" fill="url(#linearGradient-13)" points="1.71418752 0.250183046 8.76097085 0.142614071 8.25453949 21.4188812 1.26413432 21.5687963 0.514207653 10.9705752 0.560379418 10.5583086"></polygon>
                                                <polygon id="Fill-197" fill="#88B3EF" points="0.514207653 10.9705752 1.26413432 21.5687963 1.13436736 21.5094143 0.406311529 11.2319532 0.406311529 11.2275726 0.404853474 11.2115103 0.434500607 11.1711111 0.466091814 11.0679227 0.48115839 10.9579201"></polygon>
                                                <polygon id="Fill-204" fill="#88B3EF" points="1.5829625 0.207350151 1.71418752 0.250183046 0.560379418 10.5583086 0.575445994 10.3606932 0.576418031 10.1713523 0.563295529 10.0034279 0.536564508 9.86811492 0.509347467 9.80191863 0.512263579 9.77417459 0.517609783 9.72842127"></polygon>
                                            </g>
                                            <g id="Group-34" transform="translate(34.507319, 12.655174)">
                                                <mask id="mask-23" fill="white">
                                                    <use xlink:href="#path-22"></use>
                                                </mask>
                                                <use id="Mask" fill-opacity="0" fill="#CADCF6" xlink:href="#path-22"></use>
                                                <g opacity="0.599999964" mask="url(#mask-23)" id="Oval-4" fill="#36C0F5">
                                                    <g transform="translate(-61.238341, -4.867374)">
                                                        <ellipse opacity="0.100000001" cx="46.6577833" cy="5.35411187" rx="46.6577833" ry="5.35411187"></ellipse>
                                                        <ellipse opacity="0.140000001" cx="46.9007926" cy="4.86737443" rx="33.2922724" ry="3.4071621"></ellipse>
                                                        <ellipse opacity="0.25" cx="47.1438019" cy="4.86737443" rx="19.9267616" ry="1.94694977"></ellipse>
                                                    </g>
                                                </g>
                                            </g>
                                            <path d="M3.03226989,10.2964439 L17.4538991,10.0365261 L17.4470948,10.0827661 L3.0429623,10.3426839 L3.03226989,10.2964439 Z M17.2332467,11.549306 L3.05316869,11.8111708 L3.05365471,11.8063034 L17.2342187,11.5449254 L17.2332467,11.549306 Z M17.2342187,11.5449254 L3.05365471,11.8063034 L3.06434712,11.7498419 L17.242481,11.4884639 L17.2342187,11.5449254 Z M17.242481,11.4884639 L3.06434712,11.7498419 L3.08330185,11.6461668 L17.2575476,11.3852755 L17.242481,11.4884639 Z M17.2575476,11.3852755 L3.08330185,11.6461668 L3.08330185,11.6451933 L3.09739638,11.5016058 L17.2784464,11.2412012 L17.2575476,11.3852755 Z M17.2784464,11.2412012 L3.09739638,11.5016058 L3.10614472,11.413993 L3.10906083,11.326867 L17.3037194,11.0664625 L17.2784464,11.2412012 Z M17.3037194,11.0664625 L3.10906083,11.326867 L3.11537907,11.1584559 L3.11489305,11.1331455 L17.3319084,10.8732277 L17.3037194,11.0664625 Z M17.3319084,10.8732277 L3.11489305,11.1331455 L3.11149092,10.9340699 L17.3610695,10.6746389 L17.3319084,10.8732277 Z M17.3610695,10.6746389 L3.11149092,10.9340699 L3.11051889,10.8961044 L3.09934046,10.7432688 L17.3887726,10.4838378 L17.3610695,10.6746389 Z M17.3887726,10.4838378 L3.09934046,10.7432688 L3.09205018,10.6444611 L3.08232981,10.5738842 L17.4135596,10.3144532 L17.3887726,10.4838378 Z M17.4135596,10.3144532 L3.08232981,10.5738842 L3.06288907,10.437111 L17.4334863,10.1771932 L17.4135596,10.3144532 Z M17.4334863,10.1771932 L3.06288907,10.437111 L3.06094499,10.4210487 L3.0429623,10.3426839 L17.4470948,10.0827661 L17.4334863,10.1771932 Z" id="Combined-Shape" fill="#B8CEDB"></path>
                                            <path d="M0.363541895,11.8559506 L0.323202353,11.8617915 L0.283834848,11.8155514 L0.391730972,11.8136045 L0.363541895,11.8559506 Z M0.283834848,11.8155514 L0.247383455,11.7211244 L0.42672431,11.7177172 L0.400965325,11.7990024 L0.391730972,11.8136045 L0.283834848,11.8155514 Z M0.247383455,11.7211244 L0.216278266,11.5843511 L0.454427368,11.5799705 L0.434014588,11.6948405 L0.42672431,11.7177172 L0.247383455,11.7211244 Z M0.216278266,11.5843511 L0.192949375,11.4149665 L0.472896074,11.4100991 L0.459773573,11.5502795 L0.454427368,11.5799705 L0.216278266,11.5843511 Z M0.192949375,11.4149665 L0.179340854,11.2246522 L0.482130427,11.2192981 L0.476298204,11.375054 L0.472896074,11.4100991 L0.192949375,11.4149665 Z M0.179340854,11.2246522 L0.175452706,11.0260633 L0.480186353,11.0207092 L0.483102464,11.1808458 L0.482130427,11.2192981 L0.179340854,11.2246522 Z M0.175452706,11.0260633 L0.182256966,10.8328285 L0.468035889,10.8274744 L0.479700334,10.9817702 L0.480186353,11.0207092 L0.175452706,11.0260633 Z M0.182256966,10.8328285 L0.198781598,10.6576031 L0.446651071,10.6532224 L0.465605796,10.7909691 L0.468035889,10.8274744 L0.182256966,10.8328285 Z M0.198781598,10.6576031 L0.224540582,10.513042 L0.417003938,10.5091481 L0.442276904,10.6215845 L0.446651071,10.6532224 L0.198781598,10.6576031 Z M0.224540582,10.513042 L0.257103827,10.4083935 L0.380552545,10.4059598 L0.411171715,10.4848113 L0.417003938,10.5091481 L0.224540582,10.513042 Z M0.257103827,10.4083935 L0.295013276,10.3509585 L0.339726985,10.349985 L0.374720322,10.3903842 L0.380552545,10.4059598 L0.257103827,10.4083935 Z" id="Combined-Shape" fill="#0FB26B"></path>
                                        </g>
                                        <g id="Group-31" transform="translate(173.508632, 40.885945)">
                                            <path d="M0.0738748235,6.8026425 L0.00340213003,6.72768494 L0.222596508,5.22171929 L0.223568545,5.21733865 L0.895246217,0.607935066 L0.945792149,0.655635336 L0.0738748235,6.8026425 Z M5.36661711,6.77927911 L5.26017905,6.85228972 L4.58364119,0.68727327 L4.65848805,0.640546475 L5.00307522,3.62668069 L5.00842142,3.67243401 L5.17561181,5.12583201 L5.17658385,5.13069939 L5.36661711,6.77927911 Z M1.12124485,0.701388655 L1.40993989,0.741787863 L0.734374068,6.93844225 L0.562323492,6.91167169 L0.33778291,6.87711333 L0.323202353,6.87467965 L1.12124485,0.701388655 Z M0.945792149,0.655635336 L1.12124485,0.701388655 L0.323202353,6.87467965 L0.27314244,6.86007752 L0.0738748235,6.8026425 L0.945792149,0.655635336 Z M4.38485959,0.729619427 L4.58364119,0.68727327 L5.26017905,6.85228972 L5.09250264,6.89220219 L4.997243,6.91459212 L4.97780225,6.91945949 L4.38485959,0.729619427 Z M4.0762378,0.765151261 L4.38485959,0.729619427 L4.97780225,6.91945949 L4.74402732,6.94866374 L4.53795544,6.97494756 L4.0762378,0.765151261 Z M3.6786746,0.790948345 L4.0762378,0.765151261 L4.53795544,6.97494756 L4.34889422,6.98808947 L3.97077176,7.01534677 L3.6786746,0.790948345 Z M3.21890103,0.805063731 L3.6786746,0.790948345 L3.97077176,7.01534677 L3.83954675,7.0197274 L3.31513271,7.03773669 L3.21890103,0.805063731 Z M2.7289943,0.807010681 L3.21890103,0.805063731 L3.31513271,7.03773669 L3.25000622,7.03822343 L2.62207022,7.04114385 L2.61575198,7.04114385 L2.7289943,0.807010681 Z M2.24200369,0.796789194 L2.7289943,0.807010681 L2.61575198,7.04114385 L1.99850838,7.02605499 L1.92123143,7.02459478 L2.24200369,0.796789194 Z M1.79195049,0.774399272 L2.24200369,0.796789194 L1.92123143,7.02459478 L1.27920089,6.98954968 L1.79195049,0.774399272 Z M1.40993989,0.741787863 L1.79195049,0.774399272 L1.27920089,6.98954968 L0.93169761,6.95693827 L0.734374068,6.93844225 L1.40993989,0.741787863 Z" id="Combined-Shape" fill="url(#linearGradient-24)"></path>
                                            <polygon id="Fill-130" fill="#879FFA" points="0.945792149 0.655635336 0.895246217 0.607935066 0.973009189 0.561208272 1.17373486 0.519348852 1.48284267 0.484303756 1.87943383 0.458506671 2.33677731 0.444391286 2.82376793 0.442444336 3.30784243 0.453152559 3.75595155 0.475055744 4.13796215 0.507180416 4.42762923 0.547579623 4.60502601 0.592846206 4.65848805 0.640546475 4.58364119 0.68727327 4.38485959 0.729619427 4.0762378 0.765151261 3.6786746 0.790948345 3.21890103 0.805063731 2.7289943 0.807010681 2.24200369 0.796789194 1.79195049 0.774399272 1.40993989 0.741787863 1.12124485 0.701388655"></polygon>
                                        </g>
                                        <g id="Group-35" transform="translate(109.354180, 63.275868)" fill="#5376FB">
                                            <ellipse id="Oval-4" opacity="0.100000001" cx="66.623227" cy="10.0831654" rx="46.6577833" ry="7.04973848"></ellipse>
                                            <ellipse id="Oval-4" opacity="0.100000001" cx="66.623227" cy="10.7180631" rx="66.603886" ry="10.6983844"></ellipse>
                                            <ellipse id="Oval-4" opacity="0.140000001" cx="66.9096054" cy="9.96369925" rx="33.5098298" ry="5.22516798"></ellipse>
                                            <ellipse id="Oval-4" opacity="0.200000003" cx="66.9096054" cy="9.70815681" rx="20.9056215" ry="2.62506017"></ellipse>
                                        </g>
                                    </g>
                                    <g id="Group-49" transform="translate(98.470588, 92.213740)">
                                        <path d="M86.6971265,69.6083164 C84.0653057,52.115622 82.2882643,33.3216693 110.601708,26.9662154 C138.915151,20.6107616 185.061992,18.629607 199.944152,6.22938037 C214.826311,-6.17084625 248.358408,0.60110031 246.718581,22.4545861 C245.078754,44.3080719 239.225764,62.7012911 246.977264,81.8577052 C254.728764,101.014119 249.591089,110.345807 239.621662,117.331629 C229.652235,124.31745 208.611165,123.389909 200.502008,129.68908 C192.39285,135.988251 171.788168,166.662378 153.390165,164.827558 C134.992163,162.992739 105.493276,152.35529 105.927414,117.106497 C106.361552,81.8577052 89.3289474,87.1010109 86.6971265,69.6083164 Z" id="Path-49" fill="url(#linearGradient-25)"></path>
                                        <path d="M0.785722367,61.9141264 L0.0906517401,27.9238174 C0.564269164,11.8709446 4.23832102,5.54175608 11.1128073,8.93625184 C20.8312335,13.7350332 83.1887591,44.1217603 110.655972,59.7529217" id="Path-13" stroke="#1752DE" stroke-width="2" stroke-linecap="round" stroke-dasharray="2,5"></path>
                                        <g id="Group-38" transform="translate(93.287926, 36.309160)">
                                            <g id="Oval-6" opacity="0.5">
                                                <use fill-opacity="0.600000024" fill="url(#radialGradient-26)" fill-rule="evenodd" xlink:href="#path-27"></use>
                                                <use fill="black" fill-opacity="1" filter="url(#filter-28)" xlink:href="#path-27"></use>
                                                <ellipse stroke="#2421DC" stroke-width="1" cx="18.4272446" cy="18.4427481" rx="18.9272446" ry="18.9427481"></ellipse>
                                            </g>
                                            <g id="Group-37" transform="translate(9.105227, 5.641311)">
                                                <g id="Rectangle">
                                                    <use fill="black" fill-opacity="1" filter="url(#filter-30)" xlink:href="#path-29"></use>
                                                    <use fill="#FFFFFF" fill-rule="evenodd" xlink:href="#path-29"></use>
                                                </g>
                                                <path d="M2.60403387,3.36308936 L12.1748591,3.36308936" id="Path-14" stroke="#3B7FEA" stroke-width="1.5" stroke-linecap="round" stroke-linejoin="round" stroke-dasharray="7,4"></path>
                                                <path d="M2.60403387,5.96677144 L15.2099347,5.96677144" id="Path-14" stroke="#3B7FEA" stroke-width="1.5" stroke-linecap="round" stroke-linejoin="round" stroke-dasharray="7,4"></path>
                                                <path d="M2.60403387,8.57045352 L13.4756058,8.57045352" id="Path-14" stroke="#3B7FEA" stroke-width="1.5" stroke-linecap="round" stroke-linejoin="round" stroke-dasharray="11,4"></path>
                                                <path d="M2.60403387,11.1741356 L14.7763525,11.1741356" id="Path-14" stroke="#3B7FEA" stroke-width="1.5" stroke-linecap="round" stroke-linejoin="round" stroke-dasharray="7,4"></path>
                                                <path d="M2.60403387,13.7778177 L15.2099347,13.7778177" id="Path-14" stroke="#3B7FEA" stroke-width="1.5" stroke-linecap="round" stroke-linejoin="round" stroke-dasharray="7,4"></path>
                                                <path d="M2.60403387,16.3814998 L9.57336577,16.3814998" id="Path-14" stroke="#3B7FEA" stroke-width="1.5" stroke-linecap="round" stroke-linejoin="round" stroke-dasharray="4,4"></path>
                                                <path d="M2.60403387,18.9851819 L13.909188,18.9851819" id="Path-14" stroke="#3B7FEA" stroke-width="1.5" stroke-linecap="round" stroke-linejoin="round" stroke-dasharray="5,4"></path>
                                                <path d="M2.60403387,21.5888639 L15.2099347,21.5888639" id="Path-14" stroke="#3B7FEA" stroke-width="1.5" stroke-linecap="round" stroke-linejoin="round" stroke-dasharray="7,4"></path>
                                            </g>
                                            <g id="Oval-6" opacity="0.5">
                                                <use fill="url(#radialGradient-31)" fill-rule="evenodd" xlink:href="#path-32"></use>
                                                <use fill="black" fill-opacity="1" filter="url(#filter-33)" xlink:href="#path-32"></use>
                                                <ellipse stroke="#2421DC" stroke-width="1" cx="18.4272446" cy="18.4427481" rx="18.9272446" ry="18.9427481"></ellipse>
                                            </g>
                                        </g>
                                        <path d="M124.321139,64.4309195 L205.194297,85.4699353" id="Path-13" stroke="#1752DE" stroke-width="2" stroke-linecap="round" stroke-dasharray="2,5"></path>
                                        <path d="M124.321139,64.4309195 L148.326722,126.435935" id="Path-13" stroke="#1752DE" stroke-width="2" stroke-linecap="round" stroke-dasharray="2,5"></path>
                                        <g id="Group-38" opacity="0.699999988" transform="translate(199.244582, 14.408397)">
                                            <g id="Oval-6" opacity="0.300000012">
                                                <use fill-opacity="0.600000024" fill="url(#radialGradient-34)" fill-rule="evenodd" xlink:href="#path-35"></use>
                                                <use fill="black" fill-opacity="1" filter="url(#filter-36)" xlink:href="#path-35"></use>
                                                <ellipse stroke="#2421DC" stroke-width="1" cx="16.9876161" cy="17.0019084" rx="17.4876161" ry="17.5019084"></ellipse>
                                            </g>
                                            <g id="Group-37" transform="translate(8.393881, 5.200584)">
                                                <g id="Rectangle">
                                                    <use fill="black" fill-opacity="1" filter="url(#filter-38)" xlink:href="#path-37"></use>
                                                    <use fill="#FFFFFF" fill-rule="evenodd" xlink:href="#path-37"></use>
                                                </g>
                                                <path d="M2.40059373,3.100348 L11.2236983,3.100348" id="Path-14" stroke="#3B7FEA" stroke-width="1.5" stroke-linecap="round" stroke-linejoin="round" stroke-dasharray="7,4"></path>
                                                <path d="M2.40059373,5.50061742 L14.0216585,5.50061742" id="Path-14" stroke="#3B7FEA" stroke-width="1.5" stroke-linecap="round" stroke-linejoin="round" stroke-dasharray="7,4"></path>
                                                <path d="M2.40059373,7.90088684 L12.4228241,7.90088684" id="Path-14" stroke="#3B7FEA" stroke-width="1.5" stroke-linecap="round" stroke-linejoin="round" stroke-dasharray="11,4"></path>
                                                <path d="M2.40059373,10.3011563 L13.6219499,10.3011563" id="Path-14" stroke="#3B7FEA" stroke-width="1.5" stroke-linecap="round" stroke-linejoin="round" stroke-dasharray="7,4"></path>
                                                <path d="M2.40059373,12.7014257 L14.0216585,12.7014257" id="Path-14" stroke="#3B7FEA" stroke-width="1.5" stroke-linecap="round" stroke-linejoin="round" stroke-dasharray="7,4"></path>
                                                <path d="M2.40059373,15.1016951 L8.82544657,15.1016951" id="Path-14" stroke="#3B7FEA" stroke-width="1.5" stroke-linecap="round" stroke-linejoin="round" stroke-dasharray="4,4"></path>
                                                <path d="M2.40059373,17.5019645 L12.8225327,17.5019645" id="Path-14" stroke="#3B7FEA" stroke-width="1.5" stroke-linecap="round" stroke-linejoin="round" stroke-dasharray="5,4"></path>
                                                <path d="M2.40059373,19.9022339 L14.0216585,19.9022339" id="Path-14" stroke="#3B7FEA" stroke-width="1.5" stroke-linecap="round" stroke-linejoin="round" stroke-dasharray="7,4"></path>
                                            </g>
                                            <g id="Oval-6" opacity="0.600000024">
                                                <use fill="url(#radialGradient-39)" fill-rule="evenodd" xlink:href="#path-40"></use>
                                                <use fill="black" fill-opacity="1" filter="url(#filter-41)" xlink:href="#path-40"></use>
                                                <ellipse stroke="#2421DC" stroke-width="1" cx="16.9876161" cy="17.0019084" rx="17.4876161" ry="17.5019084"></ellipse>
                                            </g>
                                        </g>
                                        <path d="M223.08393,88.069075 L216.603352,35.1835043" id="Path-13" stroke="#1752DE" stroke-width="2" stroke-linecap="round" stroke-dasharray="2,5"></path>
                                        <path d="M221.16462,54.1583743 L222.440452,57.8457486 L222.440452,57.8457486 C222.621039,58.3676748 222.344328,58.9371739 221.822402,59.1177604 C221.757511,59.1402126 221.690481,59.1559215 221.622371,59.1646385 L217.824765,59.6506767 L217.824765,59.6506767 C217.276949,59.7207891 216.776018,59.3335337 216.705906,58.7857174 C216.677249,58.5618134 216.72519,58.3348003 216.84193,58.1416011 L219.363705,53.9681886 L219.363705,53.9681886 C219.649328,53.4954965 220.264064,53.343847 220.736756,53.6294701 C220.936806,53.7503502 221.088194,53.9374872 221.16462,54.1583743 Z" id="Path-15" fill="url(#linearGradient-42)" transform="translate(219.596753, 56.572042) rotate(51.000000) translate(-219.596753, -56.572042) "></path>
                                        <g id="Group-38" transform="translate(205.003096, 71.465649)">
                                            <g id="Oval-6" opacity="0.5">
                                                <use fill-opacity="0.100000001" fill="url(#radialGradient-43)" fill-rule="evenodd" xlink:href="#path-44"></use>
                                                <use fill="black" fill-opacity="1" filter="url(#filter-45)" xlink:href="#path-44"></use>
                                                <ellipse stroke="#2421DC" stroke-width="1" cx="17.8513932" cy="17.8664122" rx="18.3513932" ry="18.3664122"></ellipse>
                                            </g>
                                            <path d="M18.1370695,18.7523035 L0.457756869,14.2440512" id="Path-48" stroke="#879FFA" stroke-width="4"></path>
                                            <g id="Group-37" transform="translate(8.820688, 5.465020)">
                                                <g id="Rectangle">
                                                    <use fill="black" fill-opacity="1" filter="url(#filter-47)" xlink:href="#path-46"></use>
                                                    <use fill="#FFFFFF" fill-rule="evenodd" xlink:href="#path-46"></use>
                                                </g>
                                                <path d="M2.52265782,3.25799282 L11.7943948,3.25799282" id="Path-14" stroke="#3B7FEA" stroke-width="1.5" stroke-linecap="round" stroke-linejoin="round" stroke-dasharray="7,4"></path>
                                                <path d="M2.52265782,5.78030983 L14.7346242,5.78030983" id="Path-14" stroke="#3B7FEA" stroke-width="1.5" stroke-linecap="round" stroke-linejoin="round" stroke-dasharray="7,4"></path>
                                                <path d="M2.52265782,8.30262685 L13.0544931,8.30262685" id="Path-14" stroke="#3B7FEA" stroke-width="1.5" stroke-linecap="round" stroke-linejoin="round" stroke-dasharray="11,4"></path>
                                                <path d="M2.52265782,10.8249439 L14.3145915,10.8249439" id="Path-14" stroke="#3B7FEA" stroke-width="1.5" stroke-linecap="round" stroke-linejoin="round" stroke-dasharray="7,4"></path>
                                                <path d="M2.52265782,13.3472609 L14.7346242,13.3472609" id="Path-14" stroke="#3B7FEA" stroke-width="1.5" stroke-linecap="round" stroke-linejoin="round" stroke-dasharray="7,4"></path>
                                                <path d="M2.52265782,15.8695779 L9.27419809,15.8695779" id="Path-14" stroke="#3B7FEA" stroke-width="1.5" stroke-linecap="round" stroke-linejoin="round" stroke-dasharray="4,4"></path>
                                                <path d="M2.52265782,18.3918949 L13.4745259,18.3918949" id="Path-14" stroke="#3B7FEA" stroke-width="1.5" stroke-linecap="round" stroke-linejoin="round" stroke-dasharray="5,4"></path>
                                                <path d="M2.52265782,20.9142119 L14.7346242,20.9142119" id="Path-14" stroke="#3B7FEA" stroke-width="1.5" stroke-linecap="round" stroke-linejoin="round" stroke-dasharray="7,4"></path>
                                            </g>
                                            <g id="Oval-6" opacity="0.5">
                                                <use fill-opacity="0.599999964" fill="url(#radialGradient-48)" fill-rule="evenodd" xlink:href="#path-49"></use>
                                                <use fill="black" fill-opacity="1" filter="url(#filter-50)" xlink:href="#path-49"></use>
                                            </g>
                                        </g>
                                        <path d="M153.192217,130.179866 L222.361866,90.5117486" id="Path-13" stroke="#1752DE" stroke-width="2" stroke-linecap="round" stroke-dasharray="2,5"></path>
                                        <g id="Group-38" transform="translate(127.904520, 107.903189)">
                                            <g id="Oval-6" opacity="0.700000048">
                                                <use fill-opacity="0.200000018" fill="url(#radialGradient-51)" fill-rule="evenodd" xlink:href="#path-52"></use>
                                                <use fill="black" fill-opacity="1" filter="url(#filter-53)" xlink:href="#path-52"></use>
                                                <ellipse stroke="#2421DC" stroke-width="1" cx="20.9397926" cy="20.95741" rx="21.4397926" ry="21.45741"></ellipse>
                                            </g>
                                            <g id="Group-37" transform="translate(10.346721, 6.410502)">
                                                <g id="Rectangle">
                                                    <use fill="black" fill-opacity="1" filter="url(#filter-55)" xlink:href="#path-54"></use>
                                                    <use fill="#FFFFFF" fill-rule="evenodd" xlink:href="#path-54"></use>
                                                </g>
                                                <path d="M2.95909294,3.82164536 L13.8348967,3.82164536" id="Path-14" stroke="#3B7FEA" stroke-width="1.5" stroke-linecap="round" stroke-linejoin="round" stroke-dasharray="7,4"></path>
                                                <path d="M2.95909294,6.78033854 L17.2838037,6.78033854" id="Path-14" stroke="#3B7FEA" stroke-width="1.5" stroke-linecap="round" stroke-linejoin="round" stroke-dasharray="7,4"></path>
                                                <path d="M2.95909294,9.73903172 L15.3129997,9.73903172" id="Path-14" stroke="#3B7FEA" stroke-width="1.5" stroke-linecap="round" stroke-linejoin="round" stroke-dasharray="11,4"></path>
                                                <path d="M2.95909294,12.6977249 L16.7911027,12.6977249" id="Path-14" stroke="#3B7FEA" stroke-width="1.5" stroke-linecap="round" stroke-linejoin="round" stroke-dasharray="7,4"></path>
                                                <path d="M2.95909294,15.6564181 L17.2838037,15.6564181" id="Path-14" stroke="#3B7FEA" stroke-width="1.5" stroke-linecap="round" stroke-linejoin="round" stroke-dasharray="7,4"></path>
                                                <path d="M2.95909294,18.6151113 L10.8786907,18.6151113" id="Path-14" stroke="#3B7FEA" stroke-width="1.5" stroke-linecap="round" stroke-linejoin="round" stroke-dasharray="4,4"></path>
                                                <path d="M2.95909294,21.5738044 L15.8057007,21.5738044" id="Path-14" stroke="#3B7FEA" stroke-width="1.5" stroke-linecap="round" stroke-linejoin="round" stroke-dasharray="5,4"></path>
                                                <path d="M2.95909294,24.5324976 L17.2838037,24.5324976" id="Path-14" stroke="#3B7FEA" stroke-width="1.5" stroke-linecap="round" stroke-linejoin="round" stroke-dasharray="7,4"></path>
                                            </g>
                                            <g id="Oval-6" opacity="0.200000003">
                                                <use fill="url(#radialGradient-56)" fill-rule="evenodd" xlink:href="#path-57"></use>
                                                <use fill="black" fill-opacity="1" filter="url(#filter-58)" xlink:href="#path-57"></use>
                                                <ellipse stroke="#2421DC" stroke-width="1" cx="20.9397926" cy="20.95741" rx="21.4397926" ry="21.45741"></ellipse>
                                            </g>
                                        </g>
                                        <path d="M169.431225,72.4767177 L170.707057,76.164092 L170.707057,76.164092 C170.887643,76.6860183 170.610933,77.2555173 170.089006,77.4361038 C170.024116,77.458556 169.957085,77.4742649 169.888975,77.4829819 L166.091369,77.9690201 L166.091369,77.9690201 C165.543553,78.0391326 165.042623,77.6518771 164.97251,77.1040608 C164.943854,76.8801568 164.991794,76.6531437 165.108535,76.4599445 L167.630309,72.286532 L167.630309,72.286532 C167.915932,71.8138399 168.530668,71.6621904 169.00336,71.9478136 C169.203411,72.0686936 169.354798,72.2558306 169.431225,72.4767177 Z" id="Path-15" fill="url(#linearGradient-42)" transform="translate(167.863358, 74.890385) rotate(-16.000000) translate(-167.863358, -74.890385) "></path>
                                        <path d="M193.159202,105.578949 L194.435034,109.266323 L194.435034,109.266323 C194.61562,109.788249 194.33891,110.357748 193.816984,110.538335 C193.752093,110.560787 193.685062,110.576496 193.616953,110.585213 L189.819347,111.071251 L189.819347,111.071251 C189.27153,111.141363 188.7706,110.754108 188.700488,110.206292 C188.671831,109.982388 188.719772,109.755375 188.836512,109.562175 L191.358286,105.388763 L191.358286,105.388763 C191.643909,104.916071 192.258645,104.764421 192.731338,105.050044 C192.931388,105.170924 193.082775,105.358061 193.159202,105.578949 Z" id="Path-15" fill="url(#linearGradient-42)" transform="translate(191.591335, 107.992616) rotate(-253.000000) translate(-191.591335, -107.992616) "></path>
                                        <path d="M136.595807,87.6138109 L137.871638,91.3011853 L137.871638,91.3011853 C138.052225,91.8231115 137.775514,92.3926105 137.253588,92.573197 C137.188698,92.5956492 137.121667,92.6113581 137.053557,92.6200751 L133.255951,93.1061133 L133.255951,93.1061133 C132.708135,93.1762258 132.207205,92.7889703 132.137092,92.241154 C132.108436,92.01725 132.156376,91.7902369 132.273116,91.5970378 L134.794891,87.4236252 L134.794891,87.4236252 C135.080514,86.9509331 135.69525,86.7992836 136.167942,87.0849068 C136.367993,87.2057868 136.51938,87.3929238 136.595807,87.6138109 Z" id="Path-15" fill="url(#linearGradient-42)" transform="translate(135.027940, 90.027478) rotate(43.000000) translate(-135.027940, -90.027478) "></path>
                                        <path d="M59.1936478,28.5803365 L60.4694794,32.2677109 L60.4694794,32.2677109 C60.6500659,32.7896371 60.3733554,33.3591362 59.8514292,33.5397226 C59.7865385,33.5621748 59.7195079,33.5778837 59.6513983,33.5866008 L55.8537921,34.0726389 L55.8537921,34.0726389 C55.3059758,34.1427514 54.8050456,33.7554959 54.7349331,33.2076797 C54.7062767,32.9837757 54.7542172,32.7567626 54.8709574,32.5635634 L57.3927319,28.3901509 L57.3927319,28.3901509 C57.678355,27.9174587 58.293091,27.7658093 58.7657832,28.0514324 C58.9658336,28.1723124 59.1172208,28.3594495 59.1936478,28.5803365 Z" id="Path-15" fill="url(#linearGradient-42)"></path>
                                    </g>
                                    <g id="Group-51" transform="translate(249.919505, 225.347328)">
                                        <g id="Rectangle">
                                            <use fill="black" fill-opacity="1" filter="url(#filter-60)" xlink:href="#path-59"></use>
                                            <use fill="#FFFFFF" fill-rule="evenodd" xlink:href="#path-59"></use>
                                        </g>
                                        <path d="M21.1421775,6.90919661 L20.62635,6.38686149 C20.0602162,5.81358538 19.1329281,5.81358538 18.5645418,6.38686149 L9.80373396,15.2581951 L6.69450314,12.1127797 C6.12836935,11.5395036 5.20183208,11.5395036 4.63569829,12.1127797 L4.11911997,12.6358751 C3.55298618,13.2083909 3.55298618,14.1473776 4.11911997,14.723695 L8.77132817,19.4368761 C9.33746196,20.0101522 10.2670026,20.0101522 10.8331364,19.4368761 L21.1421775,8.99701647 C21.7083113,8.42374037 21.7083113,7.48247271 21.1421775,6.90919661 Z" id="checked-symbol" fill="url(#linearGradient-61)"></path>
                                    </g>
                                    <g id="Group-51" transform="translate(324.780186, 180.969466)">
                                        <g id="Rectangle">
                                            <use fill="black" fill-opacity="1" filter="url(#filter-63)" xlink:href="#path-62"></use>
                                            <use fill="#FFFFFF" fill-rule="evenodd" xlink:href="#path-62"></use>
                                        </g>
                                        <path d="M21.1421775,6.90919661 L20.62635,6.38686149 C20.0602162,5.81358538 19.1329281,5.81358538 18.5645418,6.38686149 L9.80373396,15.2581951 L6.69450314,12.1127797 C6.12836935,11.5395036 5.20183208,11.5395036 4.63569829,12.1127797 L4.11911997,12.6358751 C3.55298618,13.2083909 3.55298618,14.1473776 4.11911997,14.723695 L8.77132817,19.4368761 C9.33746196,20.0101522 10.2670026,20.0101522 10.8331364,19.4368761 L21.1421775,8.99701647 C21.7083113,8.42374037 21.7083113,7.48247271 21.1421775,6.90919661 Z" id="checked-symbol" fill="url(#linearGradient-61)"></path>
                                    </g>
                                </g>
                            </g>
                        </g>
                    </g>
                </g>
            </g>
        </g>
    </g>
</svg>