<?xml version="1.0" encoding="utf-8"?>
<!-- Generator: Adobe Illustrator 21.0.0, SVG Export Plug-In . SVG Version: 6.00 Build 0)  -->
<svg version="1.1" id="Слой_1" xmlns="http://www.w3.org/2000/svg" xmlns:xlink="http://www.w3.org/1999/xlink" x="0px" y="0px"
	 viewBox="0 0 165.5 149.6" style="enable-background:new 0 0 165.5 149.6;" xml:space="preserve">
<style type="text/css">
	.st0{fill:url(#SVGID_1_);}
	.st1{fill:url(#SVGID_2_);}
	.st2{fill:#FFFFFF;}
</style>
<linearGradient id="SVGID_1_" gradientUnits="userSpaceOnUse" x1="-37.2457" y1="490.7318" x2="64.4411" y2="417.9189" gradientTransform="matrix(-4.477580e-02 0.9639 1.0294 0.1375 -399.6532 18.8233)">
	<stop  offset="0" style="stop-color:#F3F8FA"/>
	<stop  offset="1" style="stop-color:#EAF0F4"/>
</linearGradient>
<path class="st0" d="M3.8,74.8l35-60.6C46.6,0.6,64-4,77.5,3.8l73.8,42.6c13.6,7.8,18.2,25.2,10.4,38.7l-30.3,50.3
	c-7.8,13.6-25.2,18.2-38.7,10.4l-78.4-32.3C0.6,105.7-4.1,88.3,3.8,74.8z"/>
<linearGradient id="SVGID_2_" gradientUnits="userSpaceOnUse" x1="160.0423" y1="299.9742" x2="241.0423" y2="241.9742" gradientTransform="matrix(0.3713 0.9285 0.9285 -0.3713 -251.2184 7.4562)">
	<stop  offset="0" style="stop-color:#4194FF"/>
	<stop  offset="1" style="stop-color:#175FE1"/>
</linearGradient>
<path class="st1" d="M23.3,99.2L26,47.1c0.8-15.6,14.1-27.6,29.8-26.8l52.1,2.7c15.6,0.8,27.6,14.1,26.8,29.8l-2.7,52.1
	c-0.8,15.6-14.1,27.6-29.8,26.8L50.1,129C34.5,128.2,22.5,114.8,23.3,99.2z"/>
<g>
	<path class="st2" d="M99.5,55.5C94,50,86.7,47,79,47s-15,3-20.5,8.5S50,68.3,50,76s3,15,8.5,20.5S71.3,105,79,105s15-3,20.5-8.5
		S108,83.7,108,76S105,61,99.5,55.5z M79,101.6c-14.1,0-25.6-11.5-25.6-25.6S64.9,50.4,79,50.4s25.6,11.5,25.6,25.6
		S93.2,101.6,79,101.6z"/>
	<path class="st2" d="M80.9,74.3h-3.6c-2.1,0-3.8-1.7-3.8-3.8c0-2.1,1.7-3.8,3.8-3.8h7.3c0.9,0,1.7-0.8,1.7-1.7s-0.8-1.7-1.7-1.7
		h-3.9v-3.8c0-0.9-0.8-1.7-1.7-1.7s-1.7,0.8-1.7,1.7v3.8h-0.1c-3.9,0-7.2,3.2-7.2,7.2c0,3.9,3.2,7.2,7.2,7.2h3.6
		c2.1,0,3.8,1.7,3.8,3.8s-1.7,3.8-3.8,3.8h-7.3c-0.9,0-1.7,0.8-1.7,1.7s0.8,1.7,1.7,1.7h3.8v3.8c0,0.9,0.8,1.7,1.7,1.7
		s1.7-0.8,1.7-1.7v-3.8h0.1c3.9,0,7.2-3.2,7.2-7.2S84.8,74.3,80.9,74.3z"/>
</g>
</svg>
