<?xml version="1.0" encoding="utf-8"?>
<!-- Generator: Adobe Illustrator 21.0.0, SVG Export Plug-In . SVG Version: 6.00 Build 0)  -->
<svg version="1.1" id="Слой_1" xmlns="http://www.w3.org/2000/svg" xmlns:xlink="http://www.w3.org/1999/xlink" x="0px" y="0px"
	 viewBox="0 0 132 124.1" style="enable-background:new 0 0 132 124.1;" xml:space="preserve">
<style type="text/css">
	.st0{fill:url(#SVGID_1_);}
	.st1{fill:url(#SVGID_2_);}
	.st2{fill:#FFFFFF;}
</style>
<linearGradient id="SVGID_1_" gradientUnits="userSpaceOnUse" x1="105.6497" y1="335.3718" x2="16.6477" y2="243.6358" gradientTransform="matrix(0.9929 -0.1193 -0.1193 -0.9929 36.2094 373.5314)">
	<stop  offset="0" style="stop-color:#F3F8FA"/>
	<stop  offset="1" style="stop-color:#EAF0F4"/>
</linearGradient>
<path class="st0" d="M37.4,19.6l43.5-0.5c8.7-0.1,16.9,4.4,21.4,11.9l26.1,42.8c9.2,15,0.1,34.6-17.3,37.3l-82.6,12.7
	c-17.3,2.7-31.8-13.1-27.8-30.1l13.1-55C16.3,27.5,26.1,19.7,37.4,19.6z"/>
<linearGradient id="SVGID_2_" gradientUnits="userSpaceOnUse" x1="115.6167" y1="331.8021" x2="-4.8833" y2="227.8021" gradientTransform="matrix(1 0 0 -1 0 348.7014)">
	<stop  offset="0" style="stop-color:#4194FF"/>
	<stop  offset="1" style="stop-color:#175FE1"/>
</linearGradient>
<path class="st1" d="M78.4,118.9l-50.7-12.3c-15.2-3.7-24.6-19-20.9-34.2l12.3-50.7c3.7-15.2,19-24.6,34.2-20.9L104,13.1
	c15.2,3.7,24.6,19,20.9,34.2L112.6,98C108.9,113.3,93.6,122.6,78.4,118.9z"/>
<g>
	<path class="st2" d="M49.6,49.9h-3.4v3.3h3.3L49.6,49.9L49.6,49.9z M62.9,46.5h-3.3v3.3h3.3V46.5z M69.6,46.5h-3.3v3.3h3.3V46.5z
		 M76.3,46.5H73v3.3h3.3V46.5z M62.9,39.8h-3.3v3.3h3.3V39.8z M69.6,39.8h-3.3v3.3h3.3V39.8z M76.3,39.8H73v3.3h3.3V39.8z
		 M62.9,59.9h-3.3v3.3h3.3V59.9z M69.6,59.9h-3.3v3.3h3.3V59.9z M76.3,59.9H73v3.3h3.3V59.9z M62.9,66.6h-3.3v3.3h3.3V66.6z
		 M76.3,66.6H73v3.3h3.3V66.6z M62.9,73.2h-3.3v3.3h3.3V73.2z M76.3,73.2H73v3.3h3.3V73.2z M62.9,53.2h-3.3v3.3h3.3V53.2z
		 M69.6,53.2h-3.3v3.3h3.3V53.2z M76.3,53.2H73v3.3h3.3V53.2z M49.6,56.5h-3.4v3.3h3.3L49.6,56.5L49.6,56.5z M49.6,63.2h-3.4v3.3
		h3.3L49.6,63.2L49.6,63.2z M49.6,69.9h-3.4v3.3h3.3L49.6,69.9L49.6,69.9z M49.6,76.6h-3.4v3.3h3.3L49.6,76.6L49.6,76.6z M69.6,66.6
		h-3.3v3.3h3.3V66.6z M86.3,56.5H83V36.4c0-1.8-1.5-3.3-3.3-3.3H56.3c-1.8,0-3.3,1.5-3.3,3.3v6.7H43c-1.8,0-3.3,1.5-3.3,3.3v36.8
		c0,1.8,1.5,3.3,3.3,3.3h43.4c1.8,0,3.3-1.5,3.3-3.3V59.8C89.7,58,88.2,56.5,86.3,56.5L86.3,56.5z M52.9,83.3h-10V46.5h10V83.3z
		 M79.6,83.3h-10v-10h-3.3v10h-10V36.5h23.4L79.6,83.3L79.6,83.3z M86.3,83.3H83V80h3.3V83.3z M86.3,76.6H83v-3.3h3.3V76.6z
		 M86.3,69.9H83v-3.3h3.3V69.9z M86.3,63.2H83v-3.3h3.3V63.2z"/>
</g>
</svg>
