<?xml version="1.0" encoding="utf-8"?>
<!-- Generator: Adobe Illustrator 21.0.0, SVG Export Plug-In . SVG Version: 6.00 Build 0)  -->
<svg version="1.1" id="Слой_1" xmlns="http://www.w3.org/2000/svg" xmlns:xlink="http://www.w3.org/1999/xlink" x="0px" y="0px"
	 viewBox="0 0 136.8 126.1" style="enable-background:new 0 0 136.8 126.1;" xml:space="preserve">
<style type="text/css">
	.st0{fill:url(#SVGID_1_);}
	.st1{fill:url(#SVGID_2_);}
	.st2{fill:#FFFFFF;}
</style>
<linearGradient id="SVGID_1_" gradientUnits="userSpaceOnUse" x1="-259.2501" y1="619.2106" x2="-353.8399" y2="521.7151" gradientTransform="matrix(-0.9382 -0.3462 -0.3462 0.9382 -25.2218 -585.9449)">
	<stop  offset="0" style="stop-color:#F3F8FA"/>
	<stop  offset="1" style="stop-color:#EAF0F4"/>
</linearGradient>
<path class="st0" d="M59.9,123.4l-41.4-20.5C10.2,98.8,4.7,90.6,4,81.3L0.1,28.2C-1.3,9.6,16.8-4.5,34.5,1.4l84.3,27.9
	c17.7,5.9,23.8,27.8,11.7,41.9l-39,45.7C83.7,126.1,70.6,128.8,59.9,123.4z"/>
<linearGradient id="SVGID_2_" gradientUnits="userSpaceOnUse" x1="318.861" y1="517.4983" x2="198.361" y2="413.4983" gradientTransform="matrix(0.1999 0.9798 0.9798 -0.1999 -453.7401 -108.4951)">
	<stop  offset="0" style="stop-color:#4194FF"/>
	<stop  offset="1" style="stop-color:#175FE1"/>
</linearGradient>
<path class="st1" d="M9.7,84.4l1.9-52.1C12.2,16.7,25.3,4.4,41,5l52.1,1.9c15.6,0.6,27.9,13.7,27.3,29.4l-1.9,52.1
	c-0.6,15.6-13.7,27.9-29.4,27.3L37,113.8C21.3,113.2,9.1,100,9.7,84.4z"/>
<g>
	<g>
		<path class="st2" d="M84,47.6l-3.9-3.9c1.4-2.6,2.2-5.5,2.2-8.5v-1.6H47.8v1.6c0,3,0.8,5.9,2.2,8.5l-3.9,3.9
			c-1.8,1.8-1.8,4.8,0,6.6c1.8,1.8,4.8,1.8,6.6,0l3.9-3.9c1.2,0.7,2.4,1.2,3.7,1.5v5.3c0,2.6,2.1,4.7,4.7,4.7c2.6,0,4.7-2.1,4.7-4.7
			v-5.3c1.3-0.4,2.5-0.9,3.7-1.5l3.9,3.9c1.8,1.8,4.8,1.8,6.6,0C85.8,52.4,85.8,49.5,84,47.6L84,47.6z M81.8,52.1
			c-0.6,0.6-1.6,0.6-2.2,0l-5.7-5.7c-0.7,0.4-2.6,2.1-6,2.8l-1.3,0.3v7.9c0,0.9-0.7,1.6-1.6,1.6c-0.9,0-1.6-0.7-1.6-1.6v-7.9
			l-1.3-0.3c-3.4-0.7-5.3-2.4-6-2.8l-5.7,5.7c-0.6,0.6-1.6,0.6-2.2,0c-0.6-0.6-0.6-1.6,0-2.2l5.7-5.7c-0.3-0.6-2.5-3-3-7.4h28
			c-0.5,4.4-2.6,6.8-3,7.4l5.7,5.7c0.3,0.3,0.5,0.7,0.5,1.1S82.1,51.8,81.8,52.1L81.8,52.1z"/>
	</g>
	<path class="st2" d="M48.3,81.8c1.4,1.4,3.4,1.8,5.3,1.6l0.6,3.8h21.5l3.1-18.9h3.4v-3.1H47.7v3.1h3.1c-1.8,2.1-3.2,4.4-3.8,6.6
		C46.3,77.7,46.7,80.2,48.3,81.8L48.3,81.8z M73.1,84H57l-0.2-1.4c3.5-1.4,6.9-4.4,9.1-8.1h3.9v-3.1h-9.4v3.1h1.7
		c-1.8,2.3-3.9,3.9-5.9,4.9l-1.8-11.1h21.4L73.1,84z M50.1,75.7c0.3-1.2,0.9-2.4,1.7-3.6l1.4,8.2c-0.9,0.1-1.9,0-2.6-0.7
		C49.8,78.8,49.6,77.4,50.1,75.7L50.1,75.7z"/>
</g>
</svg>
