<?xml version="1.0" encoding="utf-8"?>
<!-- Generator: Adobe Illustrator 21.0.0, SVG Export Plug-In . SVG Version: 6.00 Build 0)  -->
<svg version="1.1" id="Слой_1" xmlns="http://www.w3.org/2000/svg" xmlns:xlink="http://www.w3.org/1999/xlink" x="0px" y="0px"
	 viewBox="0 0 144.5 156.2" style="enable-background:new 0 0 144.5 156.2;" xml:space="preserve">
<style type="text/css">
	.st0{fill:url(#SVGID_1_);}
	.st1{fill:url(#SVGID_2_);}
	.st2{fill:#FFFFFF;}
</style>
<linearGradient id="SVGID_1_" gradientUnits="userSpaceOnUse" x1="-1087.3937" y1="1364.923" x2="-953.2119" y2="1364.923" gradientTransform="matrix(-0.7204 0.7425 0.6291 0.6104 -1506.1532 2.2229)">
	<stop  offset="0" style="stop-color:#F3F8FA"/>
	<stop  offset="1" style="stop-color:#EAF0F4"/>
</linearGradient>
<path class="st0" d="M4.6,72.2L91.8,2.8c7.6-6.1,20.4-1.6,25.1,8.7l22.9,50.2c2,4.3,2.1,8.9,0.4,12.6L106,149.1
	c-3.6,7.8-14,9.5-22.2,3.5L7.9,97C-1.1,90.4-2.7,78,4.6,72.2z"/>
<linearGradient id="SVGID_2_" gradientUnits="userSpaceOnUse" x1="-368.1606" y1="-304.1576" x2="-287.1606" y2="-362.1576" gradientTransform="matrix(0.7365 -0.6765 -0.6765 -0.7365 116.7656 -393.1574)">
	<stop  offset="0" style="stop-color:#4194FF"/>
	<stop  offset="1" style="stop-color:#175FE1"/>
</linearGradient>
<path class="st1" d="M124.8,119.9l-49.6,15.9c-14.9,4.8-30.9-3.4-35.7-18.3L23.6,67.9C18.8,53,27,37,41.9,32.2l49.6-15.9
	c14.9-4.8,30.9,3.4,35.7,18.3l15.9,49.6C147.9,99.2,139.7,115.1,124.8,119.9z"/>
<path class="st2" d="M81.7,66.2c0-9.6-9.9-17.2-10.4-17.5c-0.6-0.4-1.4-0.4-1.9,0C69,49,59,56.5,59,66.2c0,8.3,7.4,15.2,9.7,17.1
	v4.2c0,8.9,7.3,16.2,16.2,16.2s16.2-7.3,16.2-16.2V70.9c3.7-0.8,6.5-4,6.5-7.9v-6.5c0-0.9-0.7-1.6-1.6-1.6h-1.6V50
	c0-0.9-0.7-1.6-1.6-1.6c-0.9,0-1.6,0.7-1.6,1.6v4.9H98V50c0-0.9-0.7-1.6-1.6-1.6c-0.9,0-1.6,0.7-1.6,1.6v4.9h-1.6
	c-0.9,0-1.6,0.7-1.6,1.6V63c0,3.9,2.8,7.2,6.5,7.9v16.6c0,3.4-1.3,6.6-3.5,8.9c0.2-0.8,0.3-1.6,0.3-2.4c0-5.4-4.4-9.7-9.7-9.7
	s-9.7,4.4-9.7,9.7c0,0.8,0.1,1.6,0.3,2.4c-2.2-2.3-3.5-5.5-3.5-8.9v-4.2C74.3,81.4,81.7,74.6,81.7,66.2z M94.7,63v-4.9h9.7V63
	c0,2.7-2.2,4.9-4.9,4.9S94.7,65.7,94.7,63z M85,87.5c3.6,0,6.5,2.9,6.5,6.5s-2.9,6.5-6.5,6.5s-6.5-2.9-6.5-6.5S81.4,87.5,85,87.5z
	 M62.3,66.2c0-6.4,5.8-12.1,8.1-14.1c2.3,2,8.1,7.7,8.1,14.1c0,5.2-3.8,10-6.5,12.7v-5.5l2.8-2.8c0.6-0.6,0.6-1.7,0-2.3
	c-0.6-0.6-1.7-0.6-2.3,0L72,68.8v-5.1l2.8-2.8c0.6-0.6,0.6-1.7,0-2.3c-0.6-0.6-1.7-0.6-2.3,0l-2.1,2.1l-2.1-2.1
	c-0.6-0.6-1.7-0.6-2.3,0s-0.6,1.7,0,2.3l2.8,2.8v5.1l-0.5-0.5c-0.6-0.6-1.7-0.6-2.3,0s-0.6,1.7,0,2.3l2.8,2.8v5.5
	C66.1,76.2,62.3,71.4,62.3,66.2z"/>
</svg>
