<?xml version="1.0" encoding="utf-8"?>
<!-- Generator: Adobe Illustrator 21.0.0, SVG Export Plug-In . SVG Version: 6.00 Build 0)  -->
<svg version="1.1" id="Слой_1" xmlns="http://www.w3.org/2000/svg" xmlns:xlink="http://www.w3.org/1999/xlink" x="0px" y="0px"
	 viewBox="0 0 175.2 134.1" style="enable-background:new 0 0 175.2 134.1;" xml:space="preserve">
<style type="text/css">
	.st0{fill:url(#SVGID_1_);}
	.st1{fill:url(#SVGID_2_);}
	.st2{fill:url(#SVGID_3_);}
	.st3{fill:#FFFFFF;}
</style>
<linearGradient id="SVGID_1_" gradientUnits="userSpaceOnUse" x1="-197.4133" y1="50.658" x2="-101.6965" y2="50.658" gradientTransform="matrix(0.9722 -0.2339 -0.2339 -0.9722 204.3345 103.3276)">
	<stop  offset="0" style="stop-color:#F3F8FA"/>
	<stop  offset="1" style="stop-color:#EAF0F4"/>
</linearGradient>
<path class="st0" d="M73.8,128.5L35,133.9c-15.7,2.2-30.1-8.9-32.1-24.6l-2.7-22c-1.3-10.9,3.7-21.5,13-27.4L31,48.6
	c11.9-7.6,27.6-5.2,36.8,5.6L91.4,82C105.9,99.1,95.9,125.4,73.8,128.5z"/>
<linearGradient id="SVGID_2_" gradientUnits="userSpaceOnUse" x1="676.4996" y1="659.762" x2="796.4116" y2="659.762" gradientTransform="matrix(0.4198 0.9076 0.9076 -0.4198 -787.096 -343.9879)">
	<stop  offset="0" style="stop-color:#F3F8FA"/>
	<stop  offset="1" style="stop-color:#EAF0F4"/>
</linearGradient>
<path class="st1" d="M95.6,89.5L62.9,32.9C54.1,17.7,67.3-0.8,84.5,2.6l58.8,11.6c11.5,2.3,20.6,11.1,23.2,22.6l8.3,36.7
	c2.3,10.2-4.9,20.1-15.3,21.1L114,98.9C106.5,99.7,99.3,96,95.6,89.5z"/>
<linearGradient id="SVGID_3_" gradientUnits="userSpaceOnUse" x1="-558.6506" y1="409.6664" x2="-449.783" y2="409.6664" gradientTransform="matrix(0.8188 -0.574 -0.574 -0.8188 734.8046 110.6659)">
	<stop  offset="0" style="stop-color:#4194FF"/>
	<stop  offset="1" style="stop-color:#175FE1"/>
</linearGradient>
<path class="st2" d="M139.4,94.3l-42.7,29.9c-12.8,9-30.5,5.9-39.5-6.9L27.3,74.6c-9-12.8-5.9-30.5,6.9-39.5L76.9,5.2
	c12.8-9,30.5-5.9,39.5,6.9l29.9,42.7C155.3,67.6,152.2,85.3,139.4,94.3z"/>
<g>
	<path class="st3" d="M94.2,76.7c0.5-0.6,0.3-1.5-0.3-2l-5.7-4.2v-5.8c0-0.8-0.6-1.4-1.4-1.4c-0.8,0-1.4,0.6-1.4,1.4v5.8l-5.7,4.2
		c-0.6,0.5-0.8,1.4-0.3,2s1.4,0.8,2,0.3l5.4-4l5.4,4c0.3,0.2,0.6,0.3,0.9,0.3C93.5,77.2,93.9,77,94.2,76.7L94.2,76.7z"/>
	<path class="st3" d="M86.8,49.6c3.5,0,6.3-2.8,6.3-6.3S90.3,37,86.8,37s-6.3,2.8-6.3,6.3C80.5,46.8,83.4,49.6,86.8,49.6L86.8,49.6z
		 M86.8,39.9c1.9,0,3.4,1.5,3.4,3.4s-1.5,3.4-3.4,3.4s-3.4-1.5-3.4-3.4S84.9,39.9,86.8,39.9L86.8,39.9z"/>
	<path class="st3" d="M78.7,60.6h16.2c0.8,0,1.4-0.6,1.4-1.4v-3.6c0-2.6-2.1-4.7-4.7-4.7H82c-2.6,0-4.7,2.1-4.7,4.7v3.5
		C77.3,59.9,77.9,60.6,78.7,60.6L78.7,60.6z M93.5,55.6v2.1h-5.2v-4h3.4C92.7,53.7,93.5,54.6,93.5,55.6L93.5,55.6z M80.2,55.6
		c0-1,0.8-1.8,1.8-1.8h3.4v4h-5.2V55.6z"/>
	<path class="st3" d="M71,81.4c3.5,0,6.3-2.8,6.3-6.3s-2.8-6.3-6.3-6.3s-6.3,2.8-6.3,6.3C64.7,78.5,67.6,81.4,71,81.4L71,81.4z
		 M71,71.6c1.9,0,3.4,1.5,3.4,3.4s-1.5,3.4-3.4,3.4s-3.4-1.5-3.4-3.4S69.2,71.6,71,71.6L71,71.6z"/>
	<path class="st3" d="M75.9,82.6h-9.6c-2.6,0-4.7,2.1-4.7,4.7v3.6c0,0.8,0.6,1.4,1.4,1.4h16.2c0.8,0,1.4-0.6,1.4-1.4v-3.6
		C80.6,84.7,78.5,82.6,75.9,82.6L75.9,82.6z M64.4,87.3c0-1,0.8-1.8,1.8-1.8h3.4v4h-5.2V87.3z M77.7,89.4h-5.2v-4h3.4
		c1,0,1.8,0.8,1.8,1.8V89.4z"/>
	<path class="st3" d="M102.6,81.4c3.5,0,6.3-2.8,6.3-6.3s-2.8-6.3-6.3-6.3s-6.3,2.8-6.3,6.3C96.3,78.5,99.2,81.4,102.6,81.4
		L102.6,81.4z M102.6,71.6c1.9,0,3.4,1.5,3.4,3.4s-1.5,3.4-3.4,3.4s-3.4-1.5-3.4-3.4S100.7,71.6,102.6,71.6L102.6,71.6z"/>
	<path class="st3" d="M107.4,82.6h-9.6c-2.6,0-4.7,2.1-4.7,4.7v3.6c0,0.8,0.6,1.4,1.4,1.4h16.2c0.8,0,1.4-0.6,1.4-1.4v-3.6
		C112.2,84.7,110,82.6,107.4,82.6L107.4,82.6z M96,87.3c0-1,0.8-1.8,1.8-1.8h3.4v4H96V87.3z M109.3,89.4h-5.2v-4h3.4
		c1,0,1.8,0.8,1.8,1.8V89.4z"/>
</g>
</svg>
