<?xml version="1.0" encoding="utf-8"?>
<!-- Generator: Adobe Illustrator 21.0.0, SVG Export Plug-In . SVG Version: 6.00 Build 0)  -->
<svg version="1.1" id="Слой_1" xmlns="http://www.w3.org/2000/svg" xmlns:xlink="http://www.w3.org/1999/xlink" x="0px" y="0px"
	 viewBox="0 0 134 145" style="enable-background:new 0 0 134 145;" xml:space="preserve">
<style type="text/css">
	.st0{fill:url(#SVGID_1_);}
	.st1{fill:url(#SVGID_2_);}
	.st2{fill:#FFFFFF;}
</style>
<linearGradient id="SVGID_1_" gradientUnits="userSpaceOnUse" x1="0" y1="61.5863" x2="134.0281" y2="61.5863" gradientTransform="matrix(1 0 0 -1 0 134.0975)">
	<stop  offset="0" style="stop-color:#F3F8FA"/>
	<stop  offset="1" style="stop-color:#EAF0F4"/>
</linearGradient>
<path class="st0" d="M119,144.9L12.2,128.7c-9.3-1.4-14.9-15.5-10.9-27.5l19.4-58.6c1.7-5,4.7-8.8,8.5-10.3L104,0.8
	c7.9-3.3,16,3.9,17.3,15.4l12.5,106.3C135.4,135.1,128,146.3,119,144.9z"/>
<linearGradient id="SVGID_2_" gradientUnits="userSpaceOnUse" x1="-1561.5157" y1="-644.3011" x2="-1480.5157" y2="-702.3011" gradientTransform="matrix(-0.1176 -0.9931 -0.9931 0.1176 -766.9405 -1374.324)">
	<stop  offset="0" style="stop-color:#4194FF"/>
	<stop  offset="1" style="stop-color:#175FE1"/>
</linearGradient>
<path class="st1" d="M131.9,64.4L115.8,114c-4.8,14.9-20.8,23-35.7,18.2l-49.6-16.1c-14.9-4.8-23-20.8-18.2-35.7l16.1-49.6
	c4.8-14.9,20.8-23,35.7-18.2l49.6,16.1C128.6,33.5,136.8,49.5,131.9,64.4z"/>
<path class="st2" d="M93.9,80V64.8c1.6-0.6,2.8-2.2,2.8-4.1c0-2.4-2-4.4-4.4-4.4c-1,0-2,0.4-2.7,0.9l-13.1-7.6c0-0.2,0-0.4,0-0.6
	c0-2.4-2-4.4-4.4-4.4s-4.4,2-4.4,4.4c0,0.2,0,0.4,0,0.6l-13.1,7.6c-0.7-0.6-1.7-0.9-2.7-0.9c-2.4,0-4.4,2-4.4,4.4
	c0,1.8,1.1,3.4,2.8,4.1V80c-1.6,0.6-2.8,2.2-2.8,4.1c0,2.4,2,4.4,4.4,4.4c1,0,2-0.4,2.7-0.9l13.1,7.6c0,0.2,0,0.4,0,0.6
	c0,2.4,2,4.4,4.4,4.4s4.4-2,4.4-4.4c0-0.2,0-0.4,0-0.6l13.1-7.6c0.7,0.6,1.7,0.9,2.7,0.9c2.4,0,4.4-2,4.4-4.4
	C96.6,82.2,95.5,80.6,93.9,80z M89.6,80.6L79,74.5c0.2-0.7,0.3-1.3,0.3-2.1S79.2,71,79,70.3l10.6-6.1c0.3,0.3,0.7,0.5,1.1,0.6V80
	C90.2,80.1,89.9,80.3,89.6,80.6z M87.9,61.4l-10.6,6.1c-0.9-1-2.2-1.7-3.6-2.1V53.2c0.4-0.2,0.8-0.4,1.1-0.6l13.1,7.6
	c0,0.2,0,0.4,0,0.6C87.9,61,87.9,61.2,87.9,61.4z M72.1,76.3c-2.1,0-3.9-1.7-3.9-3.9c0-2.1,1.7-3.9,3.9-3.9s3.9,1.7,3.9,3.9
	S74.3,76.3,72.1,76.3z M70.5,53.2v12.3c-1.4,0.3-2.6,1.1-3.6,2.1l-10.6-6.1c0-0.2,0-0.4,0-0.6s0-0.4,0-0.6l13.1-7.6
	C69.7,52.8,70.1,53,70.5,53.2z M54.7,64.2l10.6,6.1C65.1,71,65,71.6,65,72.4s0.1,1.4,0.3,2.1l-10.6,6.1c-0.3-0.3-0.7-0.5-1.1-0.6
	V64.9C54,64.7,54.3,64.4,54.7,64.2z M56.3,83.4l10.6-6.1c0.9,1,2.2,1.7,3.6,2.1v12.3c-0.4,0.2-0.8,0.4-1.1,0.6l-13.1-7.6
	c0-0.2,0-0.4,0-0.6C56.3,83.8,56.3,83.6,56.3,83.4z M73.7,91.6V79.3c1.4-0.3,2.6-1.1,3.6-2.1l10.6,6.1c0,0.2,0,0.4,0,0.6
	s0,0.4,0,0.6l-13.1,7.6C74.5,92,74.1,91.8,73.7,91.6z M92.3,59.6c0.6,0,1.1,0.5,1.1,1.1s-0.5,1.1-1.1,1.1s-1.1-0.5-1.1-1.1
	C91.1,60.1,91.6,59.6,92.3,59.6z M72.1,48c0.6,0,1.1,0.5,1.1,1.1s-0.5,1.1-1.1,1.1S71,49.7,71,49.1S71.5,48,72.1,48z M52,59.6
	c0.6,0,1.1,0.5,1.1,1.1s-0.5,1.1-1.1,1.1s-1.1-0.5-1.1-1.1C50.8,60.1,51.3,59.6,52,59.6z M52,85.2c-0.6,0-1.1-0.5-1.1-1.1
	S51.4,83,52,83s1.1,0.5,1.1,1.1C53.1,84.6,52.6,85.2,52,85.2z M72.1,96.8c-0.6,0-1.1-0.5-1.1-1.1s0.5-1.1,1.1-1.1s1.1,0.5,1.1,1.1
	C73.2,96.3,72.7,96.8,72.1,96.8z M92.3,85.2c-0.6,0-1.1-0.5-1.1-1.1s0.5-1.1,1.1-1.1s1.1,0.5,1.1,1.1C93.4,84.6,92.9,85.2,92.3,85.2
	z"/>
</svg>
