<?xml version="1.0" encoding="utf-8"?>
<!-- Generator: Adobe Illustrator 21.0.0, SVG Export Plug-In . SVG Version: 6.00 Build 0)  -->
<svg version="1.1" id="Слой_1" xmlns="http://www.w3.org/2000/svg" xmlns:xlink="http://www.w3.org/1999/xlink" x="0px" y="0px"
	 viewBox="0 0 147.3 157.7" style="enable-background:new 0 0 147.3 157.7;" xml:space="preserve">
<style type="text/css">
	.st0{fill:url(#SVGID_1_);}
	.st1{fill:url(#SVGID_2_);}
	.st2{fill:#FFFFFF;}
</style>
<linearGradient id="SVGID_1_" gradientUnits="userSpaceOnUse" x1="-1627.5035" y1="-1222.189" x2="-1498.3369" y2="-1222.189" gradientTransform="matrix(0.3723 -1.0119 -0.8654 -0.3184 -402.4866 -1893.173)">
	<stop  offset="0" style="stop-color:#F3F8FA"/>
	<stop  offset="1" style="stop-color:#EAF0F4"/>
</linearGradient>
<path class="st0" d="M147,47.4l-15.5,92.1c-2.1,12.2-13.2,20.6-23.5,17.6L11.7,129c-8-2.3-12.8-10.9-11.5-20.5l11.9-84.4
	C13.8,12.2,24.2,3.5,34.5,5.6L134.4,26C143.3,27.7,148.7,37.1,147,47.4z"/>
<linearGradient id="SVGID_2_" gradientUnits="userSpaceOnUse" x1="104.8044" y1="895.7084" x2="213.6673" y2="895.7084" gradientTransform="matrix(0.908 0.419 0.419 -0.908 -437.9515 809.4885)">
	<stop  offset="0" style="stop-color:#4194FF"/>
	<stop  offset="1" style="stop-color:#175FE1"/>
</linearGradient>
<path class="st1" d="M82.8,123.3l-47.3-21.9C21.3,94.8,15.1,78,21.6,63.8l21.8-47.3C50,2.3,66.8-3.9,81,2.6l47.4,21.8
	c14.2,6.6,20.4,23.4,13.9,37.6l-21.9,47.4C113.9,123.6,97,129.8,82.8,123.3z"/>
<path class="st2" d="M114,66.1c-1.8,0-3.8-2.1-5.4-5.7c-1.8-4.1-2.8-9.7-2.8-15.7V44c0-0.6-0.5-1.1-1.1-1.1h-9
	c-0.6,0-1.1,0.5-1.1,1.1v0.5c0,5.9-1.4,11.5-4,15.6c-2.4,3.9-5.5,6-8.7,6s-6.3-2.1-8.7-6c-2.6-4.1-4-9.7-4-15.6V44
	c0-0.6-0.5-1.1-1.1-1.1h-9c-0.6,0-1.1,0.5-1.1,1.1v0.7c0,5.9-1,11.5-2.8,15.7c-1.5,3.5-3.5,5.7-5.4,5.7v2.6c0,0.6,0.5,1.1,1.1,1.1h7
	v12c0,0.6,0.5,1.1,1.1,1.1h1.5c0.6,0,1.1-0.5,1.1-1.1v-4.5h3.8v4.5c0,0.6,0.5,1.1,1.1,1.1H68c0.6,0,1.1-0.5,1.1-1.1v-12h25.5v12
	c0,0.6,0.5,1.1,1.1,1.1h1.5c0.6,0,1.1-0.5,1.1-1.1v-4.5h3.8v4.5c0,0.6,0.5,1.1,1.1,1.1h1.5c0.6,0,1.1-0.5,1.1-1.1v-12h7
	c0.6,0,1.1-0.5,1.1-1.1L114,66.1L114,66.1z M98.4,62.3h3.8v3.8h-3.8V62.3z M102.1,46.6v11.9h-3.8V46.6H102.1z M61.8,62.3h3.8v3.8
	h-3.8V62.3z M65.5,46.6v11.9h-3.8V46.6H65.5z M56.3,66.1c0.6-0.8,1.2-1.7,1.7-2.7v2.7H56.3z M65.5,73.6h-3.8v-3.8h3.8V73.6z
	 M69.3,66.1v-5.4c0.2,0.5,0.5,0.9,0.8,1.4c1,1.6,2,2.9,3.2,4H69.3L69.3,66.1z M90.6,66.1c1.2-1.1,2.2-2.4,3.2-4
	c0.3-0.4,0.5-0.9,0.8-1.4v5.4H90.6z M102.1,73.6h-3.8v-3.8h3.8V73.6z M105.9,63.3c0.5,1,1.1,1.9,1.7,2.7h-1.7V63.3z"/>
</svg>
