<?xml version="1.0" encoding="utf-8"?>
<!-- Generator: Adobe Illustrator 21.0.0, SVG Export Plug-In . SVG Version: 6.00 Build 0)  -->
<svg version="1.1" id="Слой_1" xmlns="http://www.w3.org/2000/svg" xmlns:xlink="http://www.w3.org/1999/xlink" x="0px" y="0px"
	 viewBox="0 0 143.3 132.1" style="enable-background:new 0 0 143.3 132.1;" xml:space="preserve">
<style type="text/css">
	.st0{fill:url(#SVGID_1_);}
	.st1{fill:url(#SVGID_2_);}
	.st2{fill:#FFFFFF;}
</style>
<linearGradient id="SVGID_1_" gradientUnits="userSpaceOnUse" x1="-281.8941" y1="1560.333" x2="-376.4749" y2="1462.8467" gradientTransform="matrix(0.9665 -0.4464 -0.4193 -0.9078 1016.9713 1296.4899)">
	<stop  offset="0" style="stop-color:#F3F8FA"/>
	<stop  offset="1" style="stop-color:#EAF0F4"/>
</linearGradient>
<path class="st0" d="M19.4,20.1l46.5-16c9.3-3.2,19.5-1.5,26.7,4.4l41.6,34.2c14.6,12,11.1,35-6.7,43.9L43,128.9
	c-17.7,8.9-38.3-1.9-39.4-20.7L0.1,47.8C-0.7,35.7,7.3,24.3,19.4,20.1z"/>
<linearGradient id="SVGID_2_" gradientUnits="userSpaceOnUse" x1="1100.9678" y1="1110.7566" x2="980.4678" y2="1006.7566" gradientTransform="matrix(0.3192 0.9477 0.9477 -0.3192 -1283.8145 -598.8395)">
	<stop  offset="0" style="stop-color:#4194FF"/>
	<stop  offset="1" style="stop-color:#175FE1"/>
</linearGradient>
<path class="st1" d="M11.8,87.2L7.3,35.3C5.9,19.7,17.5,6,33.1,4.6L85,0.1c15.6-1.4,29.3,10.2,30.7,25.8l4.5,51.9
	c1.4,15.6-10.2,29.3-25.8,30.7L42.5,113C26.9,114.3,13.1,102.8,11.8,87.2z"/>
<path class="st2" d="M84.1,64.3h-1.6v-1.6c0-2.6-2.1-4.7-4.7-4.7H63.6v-3.1c1.5,0,3.2,0,4.7,0c0.9,0,1.6-0.7,1.6-1.6
	s-0.7-1.6-1.6-1.6h-1.6v-3.1h4.7c2.6,0,4.7-2.1,4.7-4.7v-9.5c0-2.6-2.1-4.7-4.7-4.7H52.6c-2.6,0-4.7,2.1-4.7,4.7v9.5
	c0,2.6,2.1,4.7,4.7,4.7h4.7v3.1h-1.6c-0.9,0-1.6,0.7-1.6,1.6s0.7,1.6,1.6,1.6c1.5,0,3.2,0,4.7,0V58H46.2c-2.6,0-4.7,2.1-4.7,4.7v1.6
	h-1.6c-2.6,0-4.7,2.1-4.7,4.7v3.1c0,2.6,2.1,4.7,4.7,4.7h1.6V80h-1.6c-0.9,0-1.6,0.7-1.6,1.6s0.7,1.6,1.6,1.6h6.3
	c0.9,0,1.6-0.7,1.6-1.6S47.1,80,46.2,80h-1.6v-3.2h1.6c2.6,0,4.7-2.1,4.7-4.7V69c0-2.6-2.1-4.7-4.7-4.7h-1.6v-1.6
	c0-0.9,0.7-1.6,1.6-1.6h14.2v3.1h-1.6c-2.6,0-4.7,2.1-4.7,4.7V72c0,2.6,2.1,4.7,4.7,4.7h1.6v3.2h-1.6c-0.9,0-1.6,0.7-1.6,1.6
	s0.7,1.6,1.6,1.6h6.3c0.9,0,1.6-0.7,1.6-1.6s-0.7-1.6-1.6-1.6h-1.6v-3.2h1.6c2.6,0,4.7-2.1,4.7-4.7v-3.1c0-2.6-2.1-4.7-4.7-4.7h-1.6
	v-3.1h14.2c0.9,0,1.6,0.7,1.6,1.6v1.6h-1.6c-2.6,0-4.7,2.1-4.7,4.7v3.1c0,2.6,2.1,4.7,4.7,4.7h1.6V80h-1.6c-0.9,0-1.6,0.7-1.6,1.6
	s0.7,1.6,1.6,1.6H84c0.9,0,1.6-0.7,1.6-1.6S84.9,80,84,80h-1.6v-3.2H84c2.6,0,4.7-2.1,4.7-4.7V69C88.8,66.4,86.7,64.3,84.1,64.3z
	 M51.1,44v-9.5c0-0.9,0.7-1.6,1.6-1.6h18.8c0.9,0,1.6,0.7,1.6,1.6V44c0,0.9-0.7,1.6-1.6,1.6c-3.8,0-15,0-18.8,0
	C51.8,45.5,51.1,44.8,51.1,44z M60.5,48.7h3.1v3.1h-3.1V48.7z M47.9,69v3.1c0,0.9-0.7,1.6-1.6,1.6H40c-0.9,0-1.6-0.7-1.6-1.6V69
	c0-0.9,0.7-1.6,1.6-1.6h6.3C47.2,67.5,47.9,68.2,47.9,69z M66.8,69v3.1c0,0.9-0.7,1.6-1.6,1.6h-6.3c-0.9,0-1.6-0.7-1.6-1.6V69
	c0-0.9,0.7-1.6,1.6-1.6h6.3C66.1,67.5,66.8,68.2,66.8,69z M85.7,72.1c0,0.9-0.7,1.6-1.6,1.6h-6.3c-0.9,0-1.6-0.7-1.6-1.6V69
	c0-0.9,0.7-1.6,1.6-1.6h6.3c0.9,0,1.6,0.7,1.6,1.6V72.1z"/>
</svg>
