<?xml version="1.0" encoding="utf-8"?>
<!-- Generator: Adobe Illustrator 21.0.0, SVG Export Plug-In . SVG Version: 6.00 Build 0)  -->
<svg version="1.1" id="Слой_1" xmlns="http://www.w3.org/2000/svg" xmlns:xlink="http://www.w3.org/1999/xlink" x="0px" y="0px"
	 viewBox="0 0 159.5 152.3" style="enable-background:new 0 0 159.5 152.3;" xml:space="preserve">
<style type="text/css">
	.st0{fill:url(#SVGID_1_);}
	.st1{fill:url(#SVGID_2_);}
	.st2{fill:#FFFFFF;}
</style>
<linearGradient id="SVGID_1_" gradientUnits="userSpaceOnUse" x1="663.9855" y1="930.6622" x2="822.485" y2="930.6622" gradientTransform="matrix(0.5337 0.8457 0.8457 -0.5337 -1110.4752 -55.2081)">
	<stop  offset="0" style="stop-color:#F3F8FA"/>
	<stop  offset="1" style="stop-color:#EAF0F4"/>
</linearGradient>
<path class="st0" d="M2.3,80.7l60,65.3c5.7,6.2,14.6,8,22.3,4.6l69.4-31.3c4.8-2.2,6.8-8,4.4-12.7l-33.2-63.8
	c-8.1-15.5-22.1-27.1-38.9-32.1l-35-10.3c-3.9-1.2-8.1,0.5-10.2,3.9L1.3,70C-0.8,73.4-0.4,77.7,2.3,80.7z"/>
<linearGradient id="SVGID_2_" gradientUnits="userSpaceOnUse" x1="210.7587" y1="-253.841" x2="291.7587" y2="-311.841" gradientTransform="matrix(0.9713 0.2377 0.2377 -0.9713 -87.5415 -245.0414)">
	<stop  offset="0" style="stop-color:#4194FF"/>
	<stop  offset="1" style="stop-color:#175FE1"/>
</linearGradient>
<path class="st1" d="M64.3,134.9l-40.8-32.5C11.3,92.6,9.2,74.8,19,62.6l32.5-40.8c9.8-12.2,27.6-14.3,39.8-4.5l40.8,32.5
	c12.2,9.8,14.3,27.6,4.5,39.8l-32.5,40.8C94.4,142.6,76.6,144.7,64.3,134.9z"/>
<path class="st2" d="M101.7,71c-2.2,0-4.1,1.4-4.8,3.4H93c-0.3-2.9-1.5-5.6-3.3-7.8l2.7-2.7c1.9,0.9,4.2,0.6,5.8-1c2-2,2-5.2,0-7.2
	s-5.2-2-7.2,0c-1.6,1.6-1.9,3.9-1,5.8l-2.7,2.7c-2.2-1.8-4.9-2.9-7.8-3.3V57c2-0.7,3.4-2.6,3.4-4.8c0-2.8-2.3-5.1-5.1-5.1
	s-5.1,2.3-5.1,5.1c0,2.2,1.4,4.1,3.4,4.8v3.9c-2.9,0.3-5.6,1.5-7.8,3.3l-2.7-2.7c0.9-1.9,0.6-4.2-1-5.8c-2-2-5.2-2-7.2,0
	s-2,5.2,0,7.2c1.6,1.6,3.9,1.9,5.8,1l2.7,2.7c-1.8,2.2-2.9,4.9-3.3,7.8h-3.9c-0.7-2-2.6-3.4-4.8-3.4c-2.8,0-5.1,2.3-5.1,5.1
	s2.3,5.1,5.1,5.1c2.2,0,4.1-1.4,4.8-3.4h3.9c0.3,2.9,1.5,5.6,3.3,7.8l-2.7,2.7c-1.9-0.9-4.2-0.6-5.8,1c-2,2-2,5.2,0,7.2s5.2,2,7.2,0
	c1.6-1.6,1.9-3.9,1-5.8l2.7-2.7c2.2,1.8,4.9,2.9,7.8,3.3v3.9c-2,0.7-3.4,2.6-3.4,4.8c0,2.8,2.3,5.1,5.1,5.1s5.1-2.3,5.1-5.1
	c0-2.2-1.4-4.1-3.4-4.8v-3.9c2.9-0.3,5.6-1.5,7.8-3.3l2.7,2.7c-0.9,1.9-0.6,4.2,1,5.8c2,2,5.2,2,7.2,0s2-5.2,0-7.2
	c-1.6-1.6-3.9-1.9-5.8-1l-2.7-2.7c1.8-2.2,2.9-4.9,3.3-7.8h3.9c0.7,2,2.6,3.4,4.8,3.4c2.8,0,5.1-2.3,5.1-5.1S104.5,71,101.7,71z
	 M82.8,86.9c1.2-2.7,1.7-6.1,1.8-9.1h5C89,81.8,86.4,85.3,82.8,86.9z M66,77.8h5c0.1,3,0.6,6.4,1.8,9.1C69.2,85.3,66.6,81.9,66,77.8
	z M72.8,65.3c-1.2,2.7-1.7,6.1-1.8,9.1h-5C66.6,70.4,69.2,67,72.8,65.3z M89.6,74.4h-5c-0.1-3-0.6-6.4-1.8-9.1
	C86.4,67,89,70.4,89.6,74.4z M79.8,67.1c0.7,2,1.2,4.5,1.3,7.3h-6.7c0.1-2.8,0.6-5.3,1.3-7.3c0.9-2.3,1.8-2.9,2-2.9
	C78,64.2,78.9,64.7,79.8,67.1z M75.8,85.1c-0.7-2-1.2-4.6-1.3-7.3h6.7c-0.1,2.8-0.6,5.4-1.3,7.3c-0.9,2.3-1.8,2.9-2,2.9
	C77.6,88,76.7,87.5,75.8,85.1z M93.4,58.1c0.7-0.7,1.7-0.7,2.4,0s0.7,1.7,0,2.4c-0.7,0.7-1.7,0.7-2.4,0
	C92.8,59.8,92.8,58.8,93.4,58.1z M77.8,50.5c0.9,0,1.7,0.8,1.7,1.7c0,0.9-0.8,1.7-1.7,1.7s-1.7-0.8-1.7-1.7
	C76.1,51.3,76.9,50.5,77.8,50.5z M59.8,60.5c-0.7-0.7-0.7-1.7,0-2.4c0.7-0.7,1.7-0.7,2.4,0s0.7,1.7,0,2.4
	C61.5,61.2,60.4,61.2,59.8,60.5z M53.9,77.8c-0.9,0-1.7-0.8-1.7-1.7c0-0.9,0.8-1.7,1.7-1.7s1.7,0.8,1.7,1.7
	C55.6,77,54.8,77.8,53.9,77.8z M62.2,94.1c-0.7,0.7-1.7,0.7-2.4,0s-0.7-1.7,0-2.4c0.7-0.7,1.7-0.7,2.4,0
	C62.8,92.4,62.8,93.5,62.2,94.1z M77.8,101.7c-0.9,0-1.7-0.8-1.7-1.7c0-0.9,0.8-1.7,1.7-1.7s1.7,0.8,1.7,1.7S78.7,101.7,77.8,101.7z
	 M95.8,91.7c0.7,0.7,0.7,1.7,0,2.4c-0.7,0.7-1.7,0.7-2.4,0s-0.7-1.7,0-2.4C94.1,91.1,95.2,91.1,95.8,91.7z M101.7,77.8
	c-0.9,0-1.7-0.8-1.7-1.7c0-0.9,0.8-1.7,1.7-1.7s1.7,0.8,1.7,1.7C103.4,77,102.6,77.8,101.7,77.8z"/>
</svg>
