<svg xmlns="http://www.w3.org/2000/svg" width="592" height="966" viewBox="0 0 592 966">
  <defs>
    <linearGradient id="shape-header-hero-a" x1="50%" x2="33.968%" y1="0%" y2="92.527%">
      <stop offset="0%" stop-color="#0D3497"/>
      <stop offset="100%" stop-color="#1857EB"/>
    </linearGradient>
  </defs>
  <path fill="url(#shape-header-hero-a)" fill-rule="evenodd" d="M1000.17269,826.701915 L760.816216,1317.88028 L760.816216,1317.88028 C746.7839,1346.6757 758.75176,1381.39443 787.547179,1395.42675 C800.615236,1401.79495 815.598231,1403.02363 829.529168,1398.86946 L1497.08458,1199.8062 L1497.08458,1199.8062 C1526.80368,1190.94405 1550.72927,1168.79496 1561.85348,1139.84648 L1617.04984,996.209281 L1617.04984,996.209281 C1636.86047,944.656169 1611.1281,886.804425 1559.57499,866.993793 C1554.51253,865.04841 1549.3002,863.518084 1543.98958,862.417957 L1141.97034,779.137326 L1110.35194,772.587389 L1110.35194,772.587389 C1065.57241,763.311048 1020.2055,785.593 1000.17269,826.701915 Z" transform="rotate(120 887.748 529.771)"/>
</svg>
